<?xml version="1.0" encoding="utf-8"?>
<!-- Generator: Adobe Illustrator 19.2.1, SVG Export Plug-In . SVG Version: 6.00 Build 0)  -->
<svg version="1.1" id="high-clouds" xmlns="http://www.w3.org/2000/svg" xmlns:xlink="http://www.w3.org/1999/xlink" x="0px" y="0px"
	 viewBox="0 0 512.1 204.4" xml:space="preserve">
<style type="text/css">
	#high-clouds .st0{opacity:0.93;}
	#high-clouds .st1{fill-rule:evenodd;clip-rule:evenodd;fill:#FFFFFF;}
	#high-clouds .st2{fill-rule:evenodd;clip-rule:evenodd;fill:#56A0BD;}
</style>
<g class="st0">
	<path class="st1" d="M408.2,107.5c0,0-0.1,0-0.1,0c-0.1,0-0.3,0-0.4,0c-0.2,0-0.3,0-0.5,0c-0.3,0-0.4,0-0.6-0.1
		c-0.2-0.2-0.3-0.6-0.3-1.1c0-0.3-0.1-0.5-0.1-0.6c-0.6-1.5-2.9-3.3-5-3.5c-0.3,0-0.5,0-0.8,0c-2.1,0-4.1,0.8-4.9,2.2
		c-0.3,0.5-0.4,0.7-0.6,0.7c-0.2,0-0.3-0.1-0.6-0.3l-0.2-0.1c-1-0.7-2-1-2.9-1c-0.5,0-1,0.1-1.4,0.2c-0.2,0.2-1,0.5-1.2,0.5
		c-0.1,0-0.1,0-0.2,0c-0.1-0.1-0.2-0.5-0.2-1.2c0-0.2,0-0.3,0-0.4c-0.4-3-2.4-5.2-4-6.1c-0.1,0-0.3-0.1-0.5-0.2
		c-0.6-0.2-1.3-0.5-1.4-0.9c-0.1-0.3,0-0.7,0.1-1.1c0.1-0.3,0.1-0.7,0.1-0.9c-0.2-1.3-1.4-2.5-2.5-3c-0.5-0.2-1.1-0.3-1.8-0.3
		c-0.7,0-1.6,0.1-2.4,0.4c-0.1,0-0.2,0.1-0.4,0.2c-0.3,0.1-0.5,0.3-0.8,0.3c-0.1,0-0.1,0-0.2,0c-0.3-0.2-0.3-0.9-0.4-1.3
		c0-0.1,0-0.3,0-0.3c-0.9-2.9-3.9-4.8-7.5-4.8c-0.4,0-0.8,0-1.2,0.1c-2.5,0.3-4.6,1.3-6.3,3.2c-1.5,1.6-2.8,4.8-2.2,7.7
		c0,0.1,0.1,0.3,0.2,0.5c0.3,0.6,0.6,1.4,0.4,1.8c-0.2,0.3-1.7,0.4-2.1,0.4c-0.2,0-0.4,0-0.5,0c-0.4-0.1-0.8-0.4-1.1-0.7
		c-0.3-0.3-0.6-0.5-1-0.6c-0.6-0.2-1.2-0.2-1.7-0.2c-3,0-5.1,2.4-5.8,4c-0.1,0.1-0.1,0.3-0.2,0.6c-0.1,0.6-0.3,1.1-0.5,1.2
		c0,0-0.1,0-0.1,0c-0.2,0-0.5-0.1-0.7-0.2c-0.1,0-0.3-0.1-0.4-0.1c-0.5-0.1-1-0.2-1.6-0.2c-1.6,0-3.2,0.4-4.2,1.1
		c-0.7,0.5-1.9,1.8-2,2.9c-0.1,0.7,0.2,1.9,0.5,2.7c0.2,0.8,0.3,1.1,0.2,1.2c-0.2,0.2-0.7,0.2-1.1,0.2c-0.2,0-0.5,0-0.6,0
		c-1.3,0.3-3.1,1.4-3.5,2.5c-0.5,1.4,0.1,2.9,0.7,3.6c0.9,1.1,2.4,1.7,4.3,1.7c0.3,0,0.7,0,1-0.1c0.2,0,0.4-0.1,0.6-0.1
		c0.3-0.1,0.6-0.1,0.9-0.1c0.2,0,0.4,0,0.5,0.1c0.5,0.2,0.7,0.6,1,1c0.2,0.3,0.3,0.5,0.5,0.6c0.9,0.8,2.6,1.3,4.3,1.3
		c0.9,0,1.7-0.1,2.3-0.4c0.2-0.1,0.4-0.3,0.7-0.4c0.4-0.3,0.9-0.7,1.3-0.7c0,0,0.1,0,0.1,0c0.3,0,0.6,0.4,0.9,0.8
		c0.2,0.2,0.3,0.4,0.5,0.6c0.5,0.5,1.7,1.4,2.4,1.7c0.9,0.4,2,0.6,3,0.6c1.4,0,2.8-0.4,4.1-1.1c0.2-0.1,0.4-0.3,0.6-0.5
		c0.4-0.3,0.7-0.7,1.1-0.7c0,0,0.1,0,0.1,0c0.3,0.1,0.6,0.8,1,1.6c0.1,0.2,0.2,0.4,0.3,0.5c1.3,1.7,4.4,3.5,7.8,3.5
		c1,0,1.9-0.1,2.8-0.4c0.3-0.1,0.6-0.3,0.9-0.5c0.2-0.1,0.4-0.3,0.6-0.4c1.4-0.7,1.9-1,2.8-2.1c0.1-0.1,0.2-0.3,0.3-0.4
		c0.2-0.4,0.5-0.8,1-0.9c0,0,0.1,0,0.1,0c0.2,0,0.6,0.1,1,0.2c0.3,0.1,0.7,0.2,1,0.3c0.7,0.1,1.3,0.2,1.8,0.2c1.4,0,2.5-0.3,3.7-1.1
		c0.2-0.1,0.4-0.4,0.6-0.6c0.4-0.5,0.8-0.9,1.3-0.9c0.3,0,0.6,0.2,0.9,0.4c0.2,0.1,0.3,0.2,0.5,0.3c1.4,0.6,3.1,1,4.5,1
		c0.2,0,0.3,0,0.5,0c0.4,0,0.8-0.2,1.2-0.3c0.2-0.1,0.4-0.1,0.6-0.2c0.4-0.1,0.7-0.2,1.1-0.2c0.3-0.1,0.6-0.1,0.9-0.2
		c0.8-0.3,2.3-1.9,2.8-2.6c0.1-0.1,0.2-0.4,0.3-0.6c0.2-0.5,0.4-1.1,0.8-1.2c0.1,0,0.1,0,0.2,0c0.2,0,0.5,0.1,0.8,0.1
		c0.2,0,0.4,0.1,0.5,0.1c0.4,0.1,0.8,0.1,1.2,0.1c2.8,0,4.9-1.3,5.8-3.5c0.6-1.4,0.2-2.5-0.2-3.1
		C410.4,108.3,409.4,107.7,408.2,107.5z"/>
	<g>
		<path class="st2" d="M365.2,84.6c4.5-0.5,7.9,1.8,8.8,4.8c0.1,0.2,0,1.3,0.4,1.6c0.3,0.2,0.9-0.3,1.3-0.4c1.4-0.4,3-0.6,4.2-0.1
			c1.1,0.5,2.4,1.8,2.5,3c0.1,0.5-0.3,1.5-0.1,2c0.1,0.5,1.5,0.8,1.9,1c1.8,1.1,3.6,3.4,4,6.2c0,0.3,0.1,1.4,0.2,1.6
			c0.3,0.2,1.5-0.5,1.3-0.4c1.7-0.5,3.1-0.1,4.5,0.7c0.8,0.5,0.8,0.6,1.3-0.2c1-1.6,3.4-2.4,5.7-2.2c2.1,0.2,4.4,2,5,3.6
			c0.1,0.4,0.1,1.5,0.4,1.7c0.3,0.3,1.1,0,1.6,0.1c2.2,0.3,4,2.2,3,4.9c-1,2.5-3.6,3.9-7,3.5c-0.5-0.1-1.1-0.3-1.5-0.2
			c-0.5,0.2-0.8,1.4-1,1.9c-0.5,0.7-2,2.3-2.8,2.6c-0.5,0.2-1.2,0.2-1.9,0.4c-0.6,0.2-1.2,0.5-1.8,0.5c-1.8,0.1-3.7-0.4-5-1
			c-0.4-0.2-1-0.7-1.4-0.7c-0.6,0-1.3,1.2-1.9,1.6c-1.6,1.1-3.2,1.4-5.6,1c-0.7-0.1-1.7-0.6-2.1-0.5c-0.6,0.1-0.9,0.9-1.3,1.3
			c-1,1.1-1.5,1.4-2.8,2.2c-0.5,0.3-1.1,0.7-1.6,0.9c-4.2,1.4-9-0.8-10.7-3c-0.2-0.2-0.9-2-1.3-2.1c-0.6-0.1-1.2,0.8-1.8,1.1
			c-2.1,1.1-4.7,1.5-7.2,0.4c-0.7-0.3-1.9-1.2-2.4-1.7c-0.4-0.4-0.9-1.4-1.3-1.4c-0.7-0.1-1.5,0.9-2.1,1.1c-2,0.8-5.2,0.3-6.7-0.9
			c-0.5-0.4-0.7-1.4-1.4-1.6c-0.6-0.2-1.3,0.1-2,0.1c-2.3,0.3-4.3-0.4-5.3-1.7c-0.5-0.6-1.2-2.2-0.7-3.6c0.4-1.1,2.3-2.3,3.6-2.5
			c0.4-0.1,1.5,0,1.7-0.2c0.2-0.2-0.8-2.7-0.7-3.9c0.2-1.2,1.3-2.5,2.1-3c1.4-1,4-1.5,5.9-1c0.3,0.1,1,0.4,1.2,0.3
			c0.3-0.1,0.5-1.4,0.7-1.8c0.8-2,3.6-4.9,7.6-3.8c0.8,0.2,1.3,1.2,2.1,1.3c0.3,0.1,2.3,0,2.4-0.3c0.3-0.5-0.5-1.9-0.6-2.3
			c-0.6-3,0.8-6.2,2.2-7.7C360.4,86.1,362.5,84.9,365.2,84.6z M358,96.4c0.2,0.5,0.2,1.3,0.4,1.7c0.4,0.5,1.2,0.6,1.6,1
			c0.6,0.5,1.1,1.2,1.3,2.1c0.1,0.4,0,1.3,0.2,1.5c0.4,0.3,1.4-0.1,1.6-0.1c1.7,0,3.2,0.9,3.6,1.8c0.2,0.4,0.7,1.7-0.2,1.7
			c-0.6,0-0.5-0.9-0.8-1.3c-1-1.6-4.3-1.1-5.3,0.1c-0.3,0.4-0.4,0.9-0.7,1c-0.4,0-0.6-0.3-0.6-0.4c-0.2-0.7,0.7-1,1-1.8
			c0.5-1.2,0-2.8-0.4-3.3c-1.2-1.4-3.8-1.7-5.3-0.5c-0.3,0.3-0.9,1.5-1.5,1.4c-1.2-0.3,0.8-2,0.8-2.4c-0.1-1.1-2.8-1.4-4.1-1.2
			c-1.8,0.3-3.8,2.6-4,4.7c-0.1,0.9,0.1,2.4,0.7,2.6c0.3,0.1,0.8-0.2,1.3-0.2c1.7-0.1,3.4,0.9,3.5,2.4c0,0.2-0.3,1.8-1,1.5
			c-0.5-0.2,0-1.2-0.1-1.6c-0.3-1-1.9-1.4-3-1c-0.5,0.2-1,0.9-1.5,0.7c-0.6-0.2-0.5-2-0.8-2.6c-1.4-2.6-6.8-1-7.9,0.8
			c-1.1,1.7-0.1,3.9,0.7,4.8c0.2,0.2,0.8,0.8,0.4,1.3c-0.2,0.3-1-0.1-1.6-0.1c-0.9-0.1-1.8,0.1-2.2,0.1c-0.8,0.2-2.2,1-2.5,1.9
			c-0.3,1,0.1,2,0.4,2.4c0.5,0.8,2.4,1.6,4.2,1.5c1.6-0.1,4.7-1.3,4.9-0.5c0.1,0.7-1,0.7-1,1.3c0,0.5,1,1.4,1.6,1.6
			c2.3,0.8,5.9,0.1,6.4-1.4c0.1-0.4-0.2-1.3,0.4-1.4c0.7-0.1,0.7,1,1,1.5c1.3,2.8,5.4,5.2,9,3.4c0.4-0.2,1.7-0.6,1.6-1.2
			c0-0.5-0.6-0.5-1.1-0.8c-0.2-0.2-0.9-0.6-1.1-0.8c-0.2-0.2-2.4-2.8-1.4-3c0.4-0.1,1,0.9,1.1,1c0.4,0.5,0.7,1,1,1.3
			c1.3,1.2,3.8,2.3,6.1,1.3c0.2-0.1,1.3-0.7,1.3-1.2c0-0.4-1.5-1.1-1-1.7c0.3-0.3,1.3,0.4,1.6,0.5c1,0.3,2.7,0.3,3.3,0
			c0.5-0.3,1-1.7,1.6-1.6c0.5,0.1,0.4,0.5,0.1,1c-0.5,1.1-1.7,1.7-2.9,1.9c-0.3,0-0.9-0.1-1.3,0c-0.4,0.1-0.8,0.7-1.2,1
			c-0.4,0.3-0.8,0.8-1.3,1c-0.4,0.2-1.8,0.2-2,0.7c-0.2,0.4,0.6,1.4,0.8,1.7c0.5,0.6,1.9,1.6,2.2,1.9c2.7,1.6,7.4,0.8,9.8-0.8
			c0.5-0.3,2.3-2.4,2.3-3c0-0.5-1.1-1.4-0.4-1.8c0.3-0.2,0.9,0.3,1.2,0.7c0.9,1.2,0.9,1.4,2.7,1.6c2,0.3,3.3-0.1,4.5-0.8
			c0.3-0.2,0.7-0.6,1-0.9c0.2-0.3,0.4-1.2,0.9-1.3c0.4-0.1,1.3,0.6,1.9,0.9c2.5,1.3,5.8,1.3,8.5,0.1c1.5-0.6,3-2.6,3.1-4.4
			c0.1-0.9-0.3-1.5,0.3-1.6c0.8-0.2,0.5,0.9,1,1.3c0.4,0.4,1.8,0.6,2.9,0.5c1.2,0,2.2-0.4,3.1-1.1c1.9-1.6,2.4-5.6-1.3-5.2
			c-0.4,0-1.2,0.6-1.8,0.4c-0.6-0.3-0.3-2.3-0.7-3c-0.5-1-2.2-2.4-3.3-2.7c-2.3-0.6-4.9,0.5-5.6,1.6c-0.1,0.2-0.4,0.7-0.4,1.6
			c0,0.7,0.6,3.3-0.4,3.3c-0.8-0.1-0.3-1.3-0.4-2.2c-0.2-1.6-1.6-3-3.8-3c-1.4,0-2.8,0.8-3.4,1.5c-0.3,0.3-1,1.2-1,1.8
			c0,0.7,1,1.4,1.1,2.1c0.1,0.6-0.1,1.2,0.1,1.4c0.2,0.2,0.9,0,1.3,0.1c0.9,0.1,2.1,0.8,2.7,1.5c0.4,0.5,0.7,1.2,0.2,1.5
			c-0.6,0.3-1.2-1.1-1.3-1.1c-0.6-0.6-1.6-0.8-2.5-0.7c-0.5,0.1-0.9,0.5-1.4,0.2c-0.6-0.3-0.2-1.9-0.3-2.5c-0.3-1.3-2-2.5-3.8-2.3
			c-0.1,0-1.8,1.1-2,0.2c-0.2-0.7,1.1-1.2,1.6-1.3c1.3-0.3,2,0.4,2.9,0.3c0.4-0.1,0.9-0.7,1.1-1c0.9-1.6,0.4-4.6-0.4-6.1
			c-0.7-1.3-2.7-3.1-4.5-3.4c-0.9-0.2-2.2,0-2.7,0.2c-0.7,0.3-1.7,1-2.2,1.6c-0.4,0.4-0.4,1.4-1,1.3c-0.7-0.2,0.1-1.9,0-1.6
			c0.6-1.2,2.6-2.4,3.7-2.5c0.3,0,0.9,0.1,1.3-0.1c0.7-0.5,0.6-2,0.2-2.7c-0.3-0.5-1.3-1.3-1.8-1.5c-1.5-0.5-3.2,0-4,0.4
			c0,0-1.3,1.4-1.6,1.3c-0.6-0.1-0.3-2.1-0.5-3c-0.7-3.1-3.9-4.9-7.8-4.5C360.2,86.1,356.2,91,358,96.4z"/>
		<path class="st2" d="M360,91.7c0.4-0.2,0.9,0.1,0.9,0.4C360.8,93.2,358.9,92.2,360,91.7z"/>
		<path class="st2" d="M360.5,94.4c0.4-0.1,2.2-0.3,2.2,0.4c0,0.5-1.1,0.4-2,0.5c-0.5,0.1-1.9,0.3-1.4-0.7
			C359.4,94.4,359.8,94.4,360.5,94.4z"/>
		<path class="st2" d="M361.8,96.7c0.2,0,1.2,0,1,0.7c-0.1,0.3-1.6,0.6-1.8,0C360.9,97,361.1,96.8,361.8,96.7z"/>
		<path class="st2" d="M363.7,99.7c0.4,0,0.6-0.1,0.7,0.1c0.5,0.8-2.1,1.5-1.8,0.3C362.7,99.7,363,99.7,363.7,99.7z"/>
		<path class="st2" d="M389.3,107c0.5-0.1,1.2-0.1,1.1,0.5c-0.1,0.4-1.9,0.8-1.9,0C388.5,107.2,388.6,107.1,389.3,107z"/>
		<path class="st2" d="M390.4,109c0.4,0,0.9-0.2,1,0.2c0.2,0.7-2.1,1.3-2.1,0.4C389.3,109,389.9,109,390.4,109z"/>
		<path class="st2" d="M367.4,120.2c0.5,0,1.2-0.3,1.3,0.2c0.1,0.5-3.1,1.6-3,0.4C365.7,120,366.6,120.2,367.4,120.2z"/>
		<path class="st2" d="M368.6,122.4c0.3,0,0.7-0.1,0.8,0.3c0.1,0.9-2.9,1.1-2.6,0.1C367,122.3,367.7,122.3,368.6,122.4z"/>
	</g>
</g>
<g class="st0">
	<path class="st1" d="M35.4,122.5c0.1,0,0.2,0,0.3,0c0.2,0,0.4-0.1,0.7-0.1c0.3-0.1,0.7-0.2,1-0.2c0.1,0,0.3,0,0.4,0
		c0.3,0.1,0.7,0.6,1,0.9c0.1,0.2,0.3,0.4,0.4,0.4c1.2,1,3.4,1.8,5.2,2c0.5,0.1,1,0.1,1.5,0.1c2.2,0,4.2-0.5,5.8-1.6
		c0.1-0.1,0.2-0.1,0.3-0.2c0.4-0.3,0.8-0.6,1.1-0.6c0.4,0,0.9,0.3,1.3,0.5c0.5,0.3,0.9,0.6,1.5,0.6h0c0.3,0,0.6-0.1,1-0.2
		c0.2-0.1,0.4-0.1,0.7-0.2c0.2,0,0.4-0.1,0.6-0.1c0.4-0.1,0.8-0.1,1.1-0.3c0.3-0.1,0.6-0.5,1-0.8c0.5-0.5,0.9-1,1.3-1c0,0,0,0,0,0
		c0.2,0,0.5,0.4,0.8,0.7c0.1,0.1,0.1,0.1,0.2,0.2c1.3,1.3,3.8,2.7,6.4,2.7c0.2,0,0.5,0,0.7,0c2.8-0.3,5.2-1.6,6.5-3.4
		c0.1-0.1,0.2-0.3,0.2-0.5c0.2-0.5,0.4-1,0.7-1.1c0,0,0.1,0,0.1,0c0.2,0,0.4,0.1,0.7,0.2c0.2,0.1,0.3,0.1,0.5,0.1
		c0.6,0.1,1.3,0.3,2.1,0.3c0.5,0,1-0.1,1.4-0.2c0.4-0.1,0.7-0.5,1.1-0.8c0.3-0.3,0.6-0.6,1-0.6c0,0,0,0,0.1,0c0.2,0,0.4,0.1,0.7,0.2
		c0.2,0.1,0.4,0.2,0.5,0.2c0.1,0,0.2,0,0.3,0c1.4,0,3.2-0.7,3.8-1.5c1-1.4,0.6-3.2-0.4-4.3c-0.7-0.8-2.2-1.6-3.5-1.6
		c-0.2,0-0.3,0-0.4,0c-0.2,0-0.4,0.2-0.7,0.3c-0.4,0.2-0.8,0.5-1.1,0.5c-0.1,0-0.1,0-0.2,0c-0.2-0.1-0.5-0.4-0.7-0.8
		c-0.2-0.4-0.5-0.8-0.8-1.1c-0.2-0.1-0.5-0.3-0.7-0.4c-0.3-0.2-0.8-0.2-1.2-0.3c-0.4-0.1-0.8-0.1-1.1-0.3c-0.2-0.1-0.4-0.5-0.6-0.9
		c-0.2-0.3-0.3-0.6-0.5-0.9c-0.8-1-2-1.5-3.3-1.5c-0.4,0-0.8,0.1-1.2,0.2c-0.1,0-0.3,0.1-0.6,0.2c-0.3,0.2-0.7,0.3-0.9,0.3
		c-0.1,0-0.1,0-0.2,0c-0.2-0.2-0.3-0.9-0.3-1.6c0-0.1,0-0.1,0-0.1c-0.2-1.5-0.8-1.9-1.6-2.6l-0.1-0.1c-0.1-0.1-0.3-0.2-0.5-0.3
		c-0.4-0.3-0.9-0.6-1-0.9c-0.1-0.4-0.1-0.8-0.1-1.2c0-0.2,0-0.4,0-0.6c-0.2-1.4-0.5-2.3-1.3-3.2c-1.7-1.8-3.8-2.7-6.2-2.7
		c-0.4,0-0.8,0-1.2,0.1c-3.4,0.4-6.5,2.3-7.7,4.8c-0.1,0.1-0.1,0.3-0.2,0.4c-0.6,1.3-1.2,2.4-0.8,4.4c0,0.1,0.1,0.2,0.2,0.4
		c0.2,0.3,0.4,0.8,0.1,1c-0.1,0.1-0.3,0.1-0.7,0.1l0,0c-0.2,0-0.5,0-0.7,0c-0.2,0-0.4,0-0.6,0c-0.1,0-0.1,0-0.2,0
		c-0.6,0-1,0.2-1.2,0.2c-2.2,0.7-4.3,2.9-4.1,6c0,0.1,0,0.2,0.1,0.4c0.1,0.5,0.2,1-0.1,1.2c-0.1,0-0.2,0.1-0.3,0.1
		c-0.3,0-0.8-0.2-1.2-0.3c-0.2-0.1-0.4-0.2-0.5-0.2c-0.3-0.1-0.6-0.1-1-0.1c-0.2,0-0.4,0-0.6,0c-4.1,0.3-8.3,2.2-8.5,5.8
		c-0.1,1.1,0.2,2.1,0.9,2.8C32.7,122,34,122.5,35.4,122.5z"/>
	<g>
		<path class="st2" d="M59,94.1c3.5-0.4,5.8,1,7.4,2.7c0.8,0.9,1.2,1.7,1.3,3.2c0.1,0.5-0.1,1.2,0.1,1.8c0.2,0.5,1.1,0.9,1.5,1.2
			c0.9,0.7,1.5,1.2,1.8,2.7c0,0.1-0.1,1.5,0.2,1.7c0.3,0.2,1.1-0.4,1.6-0.5c2-0.5,3.7,0.3,4.6,1.4c0.4,0.5,0.7,1.5,1.1,1.7
			c0.5,0.3,1.5,0.3,2.2,0.6c0.2,0.1,0.6,0.3,0.7,0.4c0.7,0.5,1,1.8,1.5,1.9c0.6,0.2,1.5-0.7,1.9-0.8c1.4-0.2,3.2,0.7,4,1.6
			c0.9,1.1,1.4,2.9,0.4,4.4c-0.7,1-2.7,1.7-4.2,1.6c-0.4,0-0.9-0.4-1.3-0.4c-0.6,0.1-1.2,1.1-2,1.4c-1.1,0.4-2.3,0.2-3.5-0.1
			c-0.4-0.1-1-0.4-1.3-0.3c-0.4,0.1-0.7,1.2-0.9,1.6c-1.2,1.8-3.6,3.1-6.5,3.4c-2.9,0.3-5.8-1.2-7.2-2.7c-0.2-0.2-0.7-0.9-1-0.9
			c-0.7-0.1-1.6,1.5-2.3,1.8c-0.4,0.2-1.1,0.2-1.7,0.4c-0.7,0.1-1.2,0.4-1.7,0.4c-1.1,0-1.9-1.1-2.8-1.1c-0.3,0-1,0.5-1.4,0.8
			c-1.8,1.2-4.2,1.9-7.3,1.6c-1.8-0.2-3.9-1-5.2-2c-0.3-0.2-0.9-1.2-1.3-1.3c-0.7-0.2-1.5,0.3-2.1,0.3c-2.7,0.1-4.9-1.4-4.7-4.2
			c0.2-3.7,4.5-5.6,8.6-5.9c0.4,0,0.9-0.1,1.6,0.1c0.4,0.1,1.5,0.7,1.9,0.4c0.3-0.2,0-1.1,0-1.5c-0.2-3.1,1.9-5.4,4.2-6.1
			c0.3-0.1,0.7-0.2,1.3-0.2c0.6,0,1.9,0.2,2.2-0.1c0.3-0.3-0.2-1-0.3-1.3c-0.4-2.2,0.3-3.4,1-4.8C52.5,96.4,55.6,94.5,59,94.1z
			 M51.3,102.4c-0.1,1.3,0.3,2.5,0.7,3.1c0.3,0.5,0.8,0.8,1.1,1.3c0.2,0.4,0.3,1.4,0.9,1.5c0.5,0.1,1.1-0.5,1.4-0.6
			c2.4-0.7,5,0.2,6.2,1.9c0.2,0.3,0.4,1,0.7,1.2c0.4,0.2,0.6-0.1,1.2,0.1c1.2,0.4,1.2,1.6,0.1,1.2c-0.5-0.2-1.2-0.4-1.9-0.2
			c-0.4,0.1-1.5,1.5-1.9,0.9c-0.6-0.8,1.2-1.5,1.2-1.9c0-0.6-1-1.4-1.3-1.6c-1.2-0.8-3.3-1-4.7-0.2c-0.3,0.2-0.9,1.2-1.4,1.1
			c-0.6-0.1-0.6-1-0.8-1.5c-0.6-1.4-1.4-2.2-2.8-2.4c-3-0.4-5,1.6-5.6,3.1c-0.3,0.8-0.4,2.6-0.1,3.7c0.1,0.3,0.8,1.4,0.1,1.6
			c-0.3,0.1-1.2-0.4-1.5-0.5c-1.1-0.4-2.1-0.7-3.6-0.6c-3.1,0.3-7.3,1.8-7.3,5.2c0,1.7,1.6,2.8,3.6,2.7c0.9,0,1.5-0.4,2.2-0.8
			c0.4-0.3,1.3-0.9,1.7-0.7c1.1,0.4-0.6,1.3-0.6,1.9c0,0.4,0.8,1,1.2,1.3c2.5,1.6,6.8,1.9,9.8,0.7c0.4-0.2,2-0.8,2.2-1.3
			c0.1-0.6-1-1.1-0.6-1.7c0.4-0.5,1,0.2,1.1,0.3c0.9,0.8,1.7,1.9,3.1,2.1c0.7,0.1,2.7-0.3,3.2-0.5c0.6-0.3,1.7-1.4,1.8-2
			c0-0.6-0.9-1.4-0.1-1.7c0.7-0.3,2.2,2.5,2.5,2.8c3,3.4,10.2,3.2,12.5-0.4c0.2-0.4,0.4-0.8,0.5-1.3c0.1-0.2,0.2-1.1,0.7-1.2
			c0.5-0.1,1,0.6,1.3,0.7c1.5,0.6,4,0.6,4.9-0.7c0.2-0.2,0.2-0.8,0.5-0.9c0.6-0.2,1.1,0.6,1.5,0.7c1.1,0.3,3-0.3,3.5-0.9
			c1.6-1.9-0.6-5-3.3-4.5c-0.4,0.1-0.7,0.4-1.1,0.7c-0.3,0.2-0.9,0.6-1.3,0.6c-0.7-0.1-0.7-1.4-1-1.8c-0.4-0.8-1.9-1.6-3.1-1.6
			c-0.8,0-3.1,1.1-3.3,0.4c-0.3-1,1.7-1,1.9-1.5c0.2-0.6-0.8-1.6-1.3-1.9c-0.6-0.4-1.4-0.5-2.4-0.4c-0.6,0.1-2.8,1.3-3.2,1.1
			c-0.6-0.3,0-2-0.1-2.9c-0.2-1.9-2.3-3.5-4.4-3c-0.6,0.1-1.5,1-1.6,0.1c-0.1-0.5,0.7-0.9,1.3-1.1c0.3-0.1,1.1-0.1,1.3-0.3
			c0.3-0.3,0.1-1.2,0.1-1.7c-0.5-3.4-4.1-5.2-7.5-4.9C54.8,95.6,51.8,98.5,51.3,102.4z"/>
		<path class="st2" d="M54,99.5c0.5-0.1,1.5-0.2,1.5,0.4c0,0.4-1.9,0.9-2.2,0.4C53.1,99.8,53.5,99.7,54,99.5z"/>
		<path class="st2" d="M55.4,101.3c0.3,0,0.9-0.2,1,0.3c0.1,0.5-3.5,1.5-3.6,0.5C52.8,101.5,54.8,101.4,55.4,101.3z"/>
		<path class="st2" d="M55,104.4c0.6,0,0.9-0.3,1,0.1c0.3,0.8-2.7,1.2-3,0.5C52.8,104.2,54.4,104.5,55,104.4z"/>
		<path class="st2" d="M65.1,118.5c0.4,0,0.8-0.1,0.8,0.3c0.1,0.6-2.5,1.1-2.5,0.2C63.3,118.3,64.3,118.4,65.1,118.5z"/>
		<path class="st2" d="M42.1,120.1c0.5-0.1,1.1-0.2,1.2,0.4c0,0.4-2.2,1.2-2.4,0.5C40.6,120.3,41.6,120.2,42.1,120.1z"/>
		<path class="st2" d="M66,120.7c0.3-0.2,1.5-0.1,1.6,0.4C67.7,122.2,64.6,121.4,66,120.7z"/>
		<path class="st2" d="M43.2,122.2c0.6-0.1,1.1,0,0.9,0.6C43.8,123.7,41.4,122.6,43.2,122.2z"/>
	</g>
</g>
<g class="st0">
	<path class="st1" d="M134.2,68.3c-0.6-0.9-2.4-1.5-3.7-1.5c-0.2,0-0.4,0.1-0.6,0.1c-0.3,0.1-0.5,0.2-0.8,0.2c-0.2,0-0.3,0-0.5-0.1
		c-0.2-0.1-0.3-0.6-0.4-1.1c0-0.1,0-0.1,0-0.2c-0.7-2.5-2.2-3.8-5-4.2c-0.4-0.1-0.8-0.1-1.2-0.1c-1.2,0-2.1,0.3-3.2,0.9
		c-0.2,0.1-0.3,0.3-0.5,0.4c-0.3,0.3-0.6,0.6-1.1,0.6h-0.1c-0.5,0-0.9-0.3-1.3-0.6c-0.2-0.2-0.5-0.4-0.7-0.5
		c-0.6-0.2-1.3-0.4-2.1-0.4c-0.6,0-1.2,0.1-1.8,0.2c-0.1,0-0.4,0.1-0.6,0.3c-0.5,0.2-1,0.5-1.3,0.5c-0.1,0-0.1,0-0.2,0
		c-0.2-0.1-0.3-0.5-0.4-1.1c0-0.2-0.1-0.3-0.1-0.4c-0.3-0.7-0.8-1.3-1.2-1.8c-0.2-0.2-0.6-0.5-1-0.7c-0.7-0.5-1.4-0.9-1.4-1.4
		c0-0.3,0.4-0.8,0.7-1.2c0.2-0.3,0.4-0.5,0.5-0.7l0.1-0.3c0.3-0.6,0.7-1.4,0.9-1.9c0.6-2,0.1-4.2-0.5-5.4c-0.7-1.3-2.3-3-3.8-3.7
		c-0.3-0.1-0.8-0.2-1.3-0.2c-0.8-0.1-1.5-0.2-1.9-0.6c-0.2-0.2-0.2-0.5-0.3-0.9c0-0.2-0.1-0.4-0.1-0.5c-0.4-1.1-1.2-1.8-2.5-2.2
		c-0.1,0-0.3,0-0.4,0c-0.3,0-0.5,0-0.8-0.2c-0.3-0.2-0.5-0.6-0.6-1c-0.1-0.2-0.2-0.5-0.3-0.6c-0.9-1.3-3.2-2.6-5.7-2.6
		c-0.2,0-0.5,0-0.7,0c-3.4,0.3-5.7,1.3-7.2,3.1c-1.1,1.3-2.3,3-2.2,5.4c0,0.1,0,0.3,0.1,0.5c0.1,0.6,0.3,1.3,0,1.5
		c-0.1,0.1-0.2,0.1-0.3,0.1l0,0c-0.4,0-0.9-0.2-1.2-0.3c-0.1,0-0.2-0.1-0.3-0.1c-0.8-0.2-1.7-0.3-2.6-0.3c-2.2,0-4.5,0.6-6.4,1.7
		c-3.4,2-5.8,6.8-3.9,11.6c0,0.1,0.2,0.3,0.3,0.6c0.5,0.9,1,1.6,0.8,1.9c-0.1,0.2-0.5,0.2-1,0.2c-0.2,0-0.5,0-0.6,0.1
		c-1.8,0.6-2.6,1.6-3.2,3.2c-0.1,0.2-0.1,0.3-0.2,0.5c-0.2,0.3-0.3,0.6-0.4,1c-0.1,0.7,0.2,1.9,0.5,2.8c0.1,0.2,0.2,0.4,0.4,0.6
		c0.3,0.4,0.6,0.8,0.5,1c-0.1,0.2-0.6,0.4-1.4,0.6c-0.5,0.1-0.9,0.3-1.1,0.4c-0.8,0.6-1.2,1.6-1.1,2.7c0.2,1.4,1.2,2.7,2.3,3.1
		c0.7,0.3,1.5,0.4,2.5,0.4c1.1,0,2.3-0.2,3.3-0.6c0.2-0.1,0.4-0.2,0.6-0.4c0.3-0.2,0.6-0.5,0.9-0.5l0,0c0.5,0,1,0.5,1.5,1
		c0.3,0.3,0.6,0.6,0.9,0.8c1.3,0.7,3,1.1,4.7,1.1c1,0,2.1-0.1,3.1-0.4c0.3-0.1,0.7-0.3,1.2-0.5c0.7-0.4,1.4-0.7,1.8-0.7
		c0,0,0,0,0.1,0c0.4,0,0.8,0.5,1.1,1c0.2,0.2,0.3,0.4,0.5,0.6c0.7,0.7,1.2,1.3,1.6,1.5c1.3,1,3.3,1.6,5.6,1.6c2.9,0,5.7-0.9,7.1-2.2
		c0.1-0.1,0.3-0.4,0.4-0.6c0.3-0.5,0.7-1.1,1.1-1.1l0,0c0.3,0,0.7,0.3,1.1,0.6c0.3,0.2,0.6,0.4,0.8,0.5c0.8,0.3,2.1,0.5,3.1,0.5
		c0.1,0,0.3,0,0.4,0c0.4,0,0.8-0.2,1.2-0.3c0.4-0.1,0.7-0.3,1-0.3c0,0,0,0,0.1,0c0.3,0,0.7,0.3,1,0.5c0.2,0.1,0.3,0.2,0.5,0.3
		c0.1,0,0.2,0.1,0.3,0.1c0.4,0.2,0.8,0.4,1.2,0.4c0.3,0,0.6,0,0.9,0c2.5,0,4.8-1.1,6-3c0-0.1,0.1-0.2,0.1-0.4c0.1-0.4,0.3-1,0.6-1.1
		c0.1,0,0.1,0,0.2,0c0.3,0,0.6,0.2,0.9,0.3c0.1,0.1,0.3,0.2,0.4,0.2c0.2,0.1,0.3,0.1,0.5,0.2c0.4,0.1,0.7,0.3,0.9,0.3
		c0.5,0.1,0.9,0.1,1.4,0.1c2,0,3.4-0.8,4.1-1.2c0.2-0.1,0.4-0.3,0.5-0.4c0.2-0.2,0.5-0.4,0.8-0.5l0,0c0.2,0,0.5,0.1,0.7,0.2
		c0.2,0.1,0.5,0.2,0.8,0.2c0.4,0.1,0.9,0.1,1.3,0.1c2.5,0,4.6-1,5.5-2.8C135,71.9,135.1,69.5,134.2,68.3z"/>
	<g>
		<path class="st2" d="M88.2,35.3c2.8-0.3,5.4,1.1,6.5,2.6c0.3,0.4,0.4,1.3,0.9,1.6c0.4,0.2,0.9,0.1,1.2,0.2c1.2,0.4,2.1,1,2.5,2.2
			c0.2,0.4,0.2,1.1,0.4,1.4c0.6,0.6,2.3,0.5,3.2,0.8c1.6,0.7,3.2,2.4,3.9,3.7c0.7,1.3,1.1,3.5,0.5,5.5c-0.2,0.6-0.7,1.6-1,2.2
			c-0.3,0.5-1.3,1.5-1.3,1.9c0,0.7,1.8,1.4,2.4,2.1c0.6,0.7,1,1.4,1.3,1.9c0.1,0.2,0.2,1.3,0.5,1.4c0.4,0.2,1.7-0.7,2.1-0.7
			c1.4-0.3,2.9-0.3,4,0.1c0.7,0.3,1.2,1.1,2,1c0.7,0,1.1-0.8,1.6-1c1.4-0.8,2.6-1.1,4.5-0.8c2.8,0.4,4.4,1.7,5,4.2
			c0.1,0.2,0.2,1.2,0.4,1.3c0.6,0.3,1.3-0.2,1.9-0.2c1.2,0,3.1,0.7,3.7,1.6c0.9,1.3,0.7,3.7,0.2,4.7c-1,1.9-3.4,3.2-6.8,2.7
			c-0.6-0.1-1.1-0.5-1.6-0.4c-0.5,0-0.7,0.5-1.3,0.9c-1.3,0.8-3.2,1.5-5.6,1.1c-0.3-0.1-0.9-0.3-1.4-0.5c-0.4-0.2-1-0.7-1.4-0.5
			c-0.4,0.1-0.5,1.2-0.7,1.4c-1.2,1.9-3.7,3.3-6.9,3c-0.6-0.1-1.1-0.4-1.6-0.6c-0.4-0.2-1-0.7-1.4-0.7c-0.5-0.1-1.5,0.5-2.2,0.6
			c-1.2,0.1-2.7-0.2-3.6-0.5c-0.6-0.2-1.5-1.1-1.9-1.1c-0.6,0-1.1,1.4-1.5,1.7c-2.6,2.5-9.6,3.2-12.8,0.7c-0.5-0.3-1.1-1-1.6-1.6
			c-0.5-0.5-1-1.5-1.6-1.6c-0.7-0.1-2.3,1.1-3,1.3c-2.7,0.7-5.8,0.5-7.9-0.7c-0.8-0.5-1.6-1.8-2.4-1.9c-0.6,0-1,0.6-1.5,0.8
			c-1.8,0.7-4.2,0.8-5.8,0.1c-2-0.8-3.5-4.2-1.3-5.9c0.4-0.3,2.3-0.6,2.5-1c0.2-0.4-0.7-1.1-0.9-1.6c-0.3-0.8-0.6-2.1-0.5-2.8
			c0.1-0.6,0.4-1,0.6-1.5c0.7-1.6,1.5-2.6,3.3-3.2c0.4-0.1,1.4-0.1,1.6-0.3c0.3-0.4-1-2-1.1-2.4c-2-5,0.7-9.8,3.9-11.6
			c2.2-1.3,5.6-2.3,9-1.4c0.2,0.1,1.4,0.6,1.7,0.4c0.4-0.3-0.1-1.6-0.1-1.9c-0.1-2.3,1.1-4.1,2.2-5.4C82.6,36.5,85.1,35.6,88.2,35.3
			z M85.8,36.6c-2.5,0.6-4.8,2.8-5.7,5.1c-0.6,1.6-0.3,4.4,0.4,5.6c0.4,0.7,1,1,1.5,1.7c0.5,0.7,0.6,1.6,1.1,2.2
			c0.4,0.4,1,0.5,1.6,0.8c0.8,0.6,1.5,1.5,1.9,2.4c0.2,0.5,0.2,1.1,0.3,1.2c0.2,0.1,1-0.2,1.3-0.2c0.5-0.1,0.9-0.2,1.3-0.2
			c0.7,0,2.5,0.6,2.4,1.3c-0.2,1-1.4-0.1-2-0.2c-1.1-0.2-2,0.3-2.6,0.5c-0.3,0.1-1,0.8-1.5,0.6c-0.6-0.2,0-1.9-0.1-2.4
			c-0.3-1.6-2.2-2.7-4.1-2.7c-0.8,0-3.2,1.2-3.3,0.4c-0.3-1.3,3.1-1.1,3.4-1.7c0.4-0.8-0.9-2-1-2.2c-0.5-0.7-1.1-1.5-1.7-1.9
			c-3.6-2.3-9.3-0.2-11.5,1.9c-2.4,2.3-3.4,6.6-1.7,9.9c0.3,0.6,0.9,1.7,1.6,2.2c0.3,0.2,0.7,0.2,1,0.4c0.5,0.3,0.7,1,1.3,1
			c0.2,0,3-1.8,3.1-0.4c0,0.8-1.3,0.6-1.8,0.8c-0.7,0.3-0.6,1.3-1.5,1.3c-0.4,0-0.6-0.5-0.8-0.8c-1.3-1.6-4.9-1.7-6.3,0.1
			c-0.5,0.6-1.2,1.9-1.2,2.9c0,0.4,0.2,1.8,0.5,2.4c0.2,0.5,2.1,1.5,1.9,2.2c-0.1,0.6-0.9,0.4-1.5,0.4c-0.6,0.1-2.2,0.6-2.4,0.8
			c-0.8,0.6-0.8,2-0.5,2.7c0.8,1.8,4,2,6.2,1.3c0.8-0.2,1.3-1.3,2.2-1.3c0.8,0,1.3,0.8,1.7,1.2c0.5,0.4,1.2,1,1.6,1.3
			c2.6,1.4,7.1,0.6,9.2-0.7c0.5-0.3,2.1-1.5,2-2.1c-0.1-0.4-2.6-1.4-2.1-2.2c0.3-0.4,1.2,0.3,1.3,0.4c1.3,0.8,3.1,1.3,5,0.7
			c0.4-0.1,0.8-0.5,1.5-0.9c0.2-0.1,1.3-0.8,1.6-0.1c0.2,0.5-2.3,1.9-2.7,2c-0.9,0.3-2.6,0.1-3.3,0.4c-0.4,0.2-1.3,1.6-1.3,1.9
			c0,0.4,0.6,1,0.9,1.3c1.3,1.5,3,2.8,5.6,3c4.6,0.5,7.4-1.1,8.8-3.4c0.2-0.3,0.4-1.1,1-1.1c0.5,0,1.1,1.1,1.6,1.4
			c1.6,1,4.9,1,6.4-0.1c0.4-0.3,1.1-2,1.7-1.9c1.3,0.2-0.8,2.3-0.7,2.7c0.1,0.5,1.4,0.8,1.6,0.8c2.9,0.4,5.4-1,6.2-2.8
			c0.2-0.4,0.1-1.9,0.8-2.1c0.8-0.2,1.3,0.8,1.7,1c0.6,0.3,1.6,0.6,2.1,0.7c3.1,0.4,5-0.9,5.8-2.4c0.4-0.7,0.3-1.3,0.8-1.3
			c0.8,0.1,0.2,1.2,0.4,1.6c0.3,0.5,2.3,0.5,3,0.5c2-0.1,3.9-1.6,4.1-3.2c0.2-2.5-1.2-3.8-3.3-3.8c-0.8,0-2.3,0.8-2.7,0.5
			c-0.4-0.3-0.2-1-0.2-1.6c-0.2-1.5-1.1-3.3-2.8-3.9c-0.8-0.3-2.5-0.5-3.4-0.4c-0.9,0.1-3,1-3,1.9c-0.1,0.6,0.4,0.8,0.7,1.5
			c0.1,0.3,0.5,1.4,0,1.6c-0.6,0.2-1.6-2.3-1.7-2.4c-1.3-1.6-5-2.5-7.2-1c-0.1,0.1-1.3,1.5-1,2.1c0.1,0.1,1.4,0.4,1.4,0.4
			c0.4,0.1,1.8,0.8,1.6,1.4c-0.3,0.9-1.9-0.5-2.6-0.5c-0.6-0.1-1.2,0.3-1.6,0.1c-0.6-0.3,0.1-1.5,0.1-1.9c0.7-3.6-2.1-6.9-5.9-7.1
			c-0.8,0-1.6,0.1-2.2,0.4c-0.3,0.2-1.2,1.1-1.5,1.7c-0.4,0.8-0.3,3.4-1.2,3.6c-0.3,0-0.8-0.4-1.3-0.4c-0.4,0-1,0.1-1.3,0.4
			c-0.4,0.3-0.4,1.3-1.1,1.3c-0.3,0-0.5-0.4-0.5-0.5c-0.2-1.1,1.6-2.1,2.4-2.2c0.1,0,1.2,0.2,1.4,0c0.4-0.3,0.3-1.5,0.4-1.9
			c0.5-1.7,2.5-3.6,5-3.4c0.4,0,0.7,0.2,1.1,0.1c0.7-0.1,1.5-1.3,1.9-1.8c0.8-1.4,1.5-3.6,1.2-5.6c-0.3-2-2.4-4.5-4.5-5
			c-0.7-0.2-1.6-0.3-2.3-0.3c-0.7,0-2,0.4-2.6,0.7c-0.3,0.2-0.9,1.3-1.4,1.1c-0.9-0.4,0.7-1.9,1.3-2.2c0.4-0.2,1.4-0.2,1.6-0.8
			c0.4-0.9-0.5-2-0.7-2.2c-0.5-0.4-1.8-0.8-2.5-0.7c-0.6,0.1-1.5,1-1.9,0.4c-0.2-0.4,0.9-1.2,0.9-1.5c0-0.5-0.7-1.5-1.2-1.9
			c-1.1-0.9-3.5-1.4-4.9-1.3C87.5,36.4,86.7,36.4,85.8,36.6z"/>
		<path class="st2" d="M84.7,38.9c1.4-0.3,0.1,1.4-0.4,0.8C83.9,39.4,84.3,39,84.7,38.9z"/>
		<path class="st2" d="M83.5,41.3c0.3,0,0.9-0.3,1,0.1c0.3,0.7-3.4,1.5-3.4,0.5C81.1,41.2,82.9,41.3,83.5,41.3z"/>
		<path class="st2" d="M83.8,43.5c0.3,0,0.8-0.1,0.9,0.3c0.1,0.5-2.9,1.2-3,0.4C81.5,43.6,83.1,43.5,83.8,43.5z"/>
		<path class="st2" d="M83.7,45.9c0.4-0.1,1.6,0,1.4,0.7C84.8,47.5,81.9,46.4,83.7,45.9z"/>
		<path class="st2" d="M85.5,48.6c0.3,0,0.7-0.1,0.7,0.2c0.2,0.9-2.2,1-1.9,0.1C84.5,48.6,84.8,48.6,85.5,48.6z"/>
		<path class="st2" d="M86.5,51.3c0.3-0.2,1,0,1,0.4C87.5,52.6,85.8,51.9,86.5,51.3z"/>
		<path class="st2" d="M120.6,64.1c0.4-0.1,1.2-0.2,1.3,0.3c0.1,0.6-1.9,1-2,0.2C119.8,64.3,119.9,64.3,120.6,64.1z"/>
		<path class="st2" d="M121.2,66c0.5-0.2,1.4-0.1,1.3,0.4C122.4,67.6,119.6,66.6,121.2,66z"/>
		<path class="st2" d="M122.1,68.6c0.4-0.2,1.1-0.1,1,0.4C123.1,70.1,120.9,69.1,122.1,68.6z"/>
		<path class="st2" d="M84.7,75.7c0.3-0.1,2.6,0,2.5,0.6c-0.1,0.6-3.3,0.8-3.1-0.2C84.2,75.8,84.4,75.8,84.7,75.7z"/>
		<path class="st2" d="M90.6,78.1c0.4-0.2,1,0,1,0.4C91.8,79.7,89.2,78.7,90.6,78.1z"/>
		<path class="st2" d="M85.6,78.2c0.3-0.2,2.9-0.2,3,0.3c0.1,0.8-3.3,1-3.3,0.1C85.2,78.3,85.4,78.3,85.6,78.2z"/>
	</g>
</g>
<g class="st0">
	<path class="st1" d="M463.3,142.9c0.4,0,0.9,0.1,1.3,0.1c3.1,0,4.9-1.4,6.1-2.6c0.1-0.1,0.2-0.3,0.3-0.4c0.2-0.3,0.5-0.7,0.8-0.8
		c0.1,0,0.1,0,0.2,0c0.3,0,0.7,0.2,1.1,0.3c0.3,0.1,0.5,0.2,0.7,0.2c0.5,0.1,1,0.1,1.5,0.1c0.8,0,1.5-0.1,2-0.3
		c1.7-0.5,2.5-1.6,3.5-2.9c0.1-0.1,0.4-0.5,0.4-0.5c0.4-0.5,0.9-1.1,1-1.7c0.2-1.6-1.1-2.5-1.6-2.9c-1-0.6-2.7-1-4.6-1
		c-0.8,0-1.6,0.1-2.3,0.2c-0.1,0-0.4,0.1-0.6,0.2c-0.4,0.1-0.8,0.3-1.1,0.3c-0.1,0-0.2,0-0.3-0.1c-0.2-0.2-0.2-0.6-0.2-1
		c0-0.2,0-0.5,0-0.6c-0.3-1.1-1.1-2.5-2-3.1c0,0-0.1-0.1-0.2-0.1c-0.3-0.2-0.8-0.4-0.8-0.7c-0.1-0.3,0.1-0.7,0.3-1
		c0.1-0.1,0.1-0.3,0.2-0.3c0.4-1.5,0.4-2.8-0.1-4.1c-0.5-1.5-1.7-3.2-2.6-3.9c-1.7-1.3-4.5-2-7.6-2c-3.4,0-6.6,0.9-8.5,2.3
		c-0.7,0.5-1.5,1.3-2.4,2.4c-0.1,0.1-0.2,0.3-0.3,0.4c-0.3,0.4-0.6,1-0.9,1c-0.1,0-0.1,0-0.2,0c-0.4,0-0.7-0.2-0.9-0.4
		c-0.2-0.1-0.4-0.3-0.6-0.3c-0.3-0.1-0.8-0.2-1.3-0.2c-0.4,0-0.8,0-1.1,0.1c-0.1,0-0.3,0.1-0.5,0.1c-0.3,0.1-0.5,0.2-0.7,0.2
		c-0.1,0-0.2,0-0.3-0.1c-0.1-0.1-0.2-0.4-0.2-1c0-0.3,0-0.6-0.1-0.7c-0.5-2.1-2.6-4-4.5-4.7c-0.2-0.1-0.4-0.1-0.6-0.1
		c-0.4-0.1-0.7-0.1-0.8-0.4c-0.1-0.2,0-0.7,0-1.1c0-0.1,0-0.3,0-0.4c0.1-1.2,0.1-1.9-0.1-2.9c-0.7-2.7-2.7-5.2-5.7-6.9
		c-1.4-0.8-3.4-1.3-5.3-1.3c-0.2,0-0.3,0-0.5,0c-2.4,0.1-4.6,0.8-7.1,2.2c-1.8,1-3.7,2.3-4.8,4.5c-0.1,0.1-0.1,0.3-0.2,0.5
		c-0.1,0.5-0.3,0.9-0.6,1c0,0,0,0-0.1,0c-0.3,0-0.7-0.3-1.1-0.5c-0.2-0.1-0.4-0.2-0.5-0.3c-0.9-0.3-1.6-0.5-2.3-0.5
		c-0.2,0-0.3,0-0.5,0c-3,0.3-5.5,2.7-6.2,4.9c-0.2,0.6-0.2,1.2-0.2,1.8c0,0.1,0,0.2,0.1,0.4c0.1,0.5,0.3,1.2,0,1.4c0,0-0.1,0-0.1,0
		c-0.3,0-0.9-0.3-1.1-0.4c0,0-0.1,0-0.1,0c-0.8-0.2-1.7-0.3-2.6-0.3c-1.8,0-3.6,0.4-4.9,1.1c-0.9,0.5-3.1,1.7-4.1,3
		c-1.1,1.4-1.6,3.3-1.6,5.9c0,1.1,0.3,2,0.7,2.8l0.1,0.2c0.4,0.8,0.5,1.3,0.3,1.5c-0.1,0.1-0.3,0.2-0.5,0.2c-0.5,0-1.2-0.2-1.8-0.4
		c-0.5-0.1-1-0.3-1.3-0.3l-0.1,0c-2.3,0-4.6,1.4-5.7,2.9c-0.6,0.8-1.2,2.1-1,3.5c0.1,0.8,1,2.2,1.3,2.6c0.6,0.8,1.7,1.7,2.9,1.9
		c0.1,0,0.1,0,0.2,0c0.2,0,0.4,0,0.7-0.1c0.2,0,0.5-0.1,0.7-0.1c0.2,0,0.3,0,0.5,0.1c0.2,0.1,0.4,0.4,0.6,0.8
		c0.1,0.1,0.1,0.3,0.2,0.4c0.6,0.8,2,1.6,3.8,1.6c0.6,0,1.1-0.1,1.7-0.3c0.5-0.1,1.3-0.7,1.7-1c0.1-0.1,0.3-0.3,0.5-0.5
		c0.3-0.4,0.7-0.8,1-0.8c0,0,0,0,0.1,0c0.3,0.1,0.6,0.6,0.9,1.2c0.1,0.2,0.2,0.4,0.2,0.4c1.1,1.4,3.4,3,6.5,3.2c0.4,0,0.7,0,1,0
		c2.6,0,4.9-0.6,6.9-1.8c0.3-0.2,0.5-0.4,0.8-0.7c0.4-0.5,0.9-1,1.4-1c0.3,0,0.7,0.2,1.1,0.5c0.3,0.1,0.5,0.3,0.7,0.4
		c0.8,0.3,1.5,0.4,2.2,0.4c0.7,0,1.3-0.1,2.1-0.4c0.2-0.1,0.4-0.2,0.7-0.3c0.5-0.2,1-0.4,1.3-0.4c0,0,0.1,0,0.1,0
		c0.3,0.1,0.5,0.5,0.7,0.9c0.1,0.2,0.2,0.4,0.3,0.6c1.8,2.4,5.3,4,8.8,4h0c1.3,0,2.7-0.4,4-0.8l0.2-0.1c2.7-0.8,3.8-1.6,5.4-3
		c0.1-0.1,0.2-0.3,0.4-0.4c0.4-0.5,1-1.1,1.4-1.1c0.2,0,0.5,0.2,0.8,0.4c0.1,0.1,0.2,0.1,0.3,0.2l0.1,0.1c0.3,0.2,0.6,0.4,0.9,0.5
		c0.3,0.1,0.7,0.1,1.2,0.1c1.4,0,3.1-0.5,3.9-1c0.1-0.1,0.3-0.2,0.4-0.4c0.2-0.3,0.5-0.6,0.9-0.6l0,0c0.4,0,0.8,0.4,1.2,0.8
		c0.3,0.3,0.6,0.6,0.9,0.7c0.9,0.4,2,0.6,3.2,0.6c1.6,0,3.3-0.4,4.4-1c0.2-0.1,0.4-0.3,0.6-0.6c0.4-0.4,0.7-0.7,1.1-0.7
		c0.3,0,0.7,0.4,1.1,0.8c0.2,0.2,0.4,0.4,0.6,0.5C461.3,142.3,462.5,142.8,463.3,142.9z"/>
	<g>
		<path class="st2" d="M423.3,99.9c2-0.1,4.3,0.4,5.9,1.3c2.5,1.5,4.9,3.8,5.7,7c0.3,1,0.2,1.7,0.1,3c0,0.4-0.2,1.2-0.1,1.4
			c0.2,0.4,0.9,0.3,1.4,0.5c1.7,0.7,4,2.5,4.5,4.7c0.1,0.5,0,1.6,0.2,1.7c0.3,0.2,1-0.2,1.4-0.2c0.8-0.1,1.8-0.1,2.4,0.1
			c0.6,0.2,0.9,0.8,1.6,0.7c0.5-0.1,0.9-1.1,1.2-1.4c0.7-0.8,1.6-1.7,2.4-2.4c3.7-2.7,12.2-3.2,16.2-0.2c0.9,0.7,2,2.4,2.6,3.9
			c0.5,1.4,0.5,2.8,0.1,4.2c-0.1,0.3-0.5,0.9-0.4,1.3c0.1,0.4,0.9,0.7,1,0.8c0.8,0.6,1.7,2,2,3.1c0.1,0.4-0.2,1.3,0.1,1.6
			c0.2,0.2,1.4-0.3,1.9-0.4c2.3-0.4,5.5-0.2,7,0.8c0.8,0.5,1.8,1.6,1.6,3c-0.1,0.7-0.6,1.3-1,1.9c-1.1,1.4-2,2.7-3.9,3.3
			c-1.2,0.4-2.6,0.3-3.6,0.1c-0.6-0.1-1.3-0.6-1.9-0.5c-0.4,0.1-0.8,0.9-1.1,1.2c-1.6,1.6-3.7,2.9-7.4,2.5c-0.8-0.1-2.1-0.6-2.7-1
			c-0.4-0.3-1.1-1.3-1.6-1.3c-0.5,0-1.2,0.9-1.7,1.3c-1.7,1.1-5.3,1.5-7.6,0.4c-0.7-0.3-1.4-1.5-2.1-1.6c-0.5,0-0.9,0.8-1.3,1
			c-1.1,0.6-3.5,1.4-5.1,0.9c-0.4-0.1-0.7-0.4-1.1-0.6c-0.3-0.2-0.8-0.6-1-0.6c-0.5,0-1.4,1.2-1.8,1.6c-1.7,1.5-2.8,2.3-5.4,3
			c-1.3,0.4-2.8,0.8-4.2,0.8c-3.6,0-7.1-1.7-8.8-4c-0.3-0.5-0.6-1.4-1-1.5c-0.3-0.1-1.4,0.5-2,0.7c-1.6,0.5-2.9,0.5-4.4-0.1
			c-0.6-0.2-1.4-0.8-1.9-0.8c-0.8,0-1.4,1.3-2.2,1.7c-2,1.2-4.7,2-8,1.8c-2.9-0.2-5.3-1.6-6.5-3.2c-0.2-0.2-0.7-1.6-1.1-1.6
			c-0.5-0.1-1.1,1-1.5,1.3c-0.4,0.3-1.2,0.8-1.7,1c-2.4,0.7-4.7-0.3-5.6-1.4c-0.2-0.3-0.4-1-0.7-1.1c-0.6-0.2-1.5,0.2-2.1,0.1
			c-1.2-0.2-2.3-1-3-1.9c-0.4-0.5-1.2-1.9-1.3-2.7c-0.2-1.5,0.4-2.8,1-3.6c1.1-1.4,3.5-2.9,5.9-2.9c0.8,0,3.1,1,3.6,0.5
			c0.2-0.2-0.4-1.4-0.4-1.4c-0.3-0.9-0.7-1.8-0.7-3c0-2.5,0.5-4.4,1.6-5.9c0.9-1.1,2.8-2.3,4.2-3c2-1,5-1.5,7.6-0.8
			c0,0,1,0.5,1.3,0.4c0.3-0.2-0.1-1.4-0.1-1.7c0-0.6,0.1-1.2,0.2-1.8c0.7-2.2,3.1-4.7,6.2-5c1-0.1,1.8,0.1,2.7,0.4
			c0.3,0.1,1.3,0.8,1.6,0.7c0.4-0.1,0.5-1,0.7-1.5c1-2.1,2.7-3.4,4.8-4.5C418.2,100.9,420.5,100,423.3,99.9z M417,102.8
			c-2.7,1.4-4.6,2.8-5.3,5.7c-0.1,0.6-0.6,2.2-0.2,2.6c0.2,0.2,1.1,0,1.6,0.1c0.5,0.1,2.5,1.1,2.3,1.6c-0.2,0.6-1,0-1.3-0.1
			c-0.4-0.2-0.9-0.5-1.3-0.5c-0.7-0.1-1.4,0.5-1.9,0.3c-0.8-0.3-0.3-2.5-0.5-3.1c-0.3-0.8-2-1.4-3-1.5c-2.9-0.3-5.8,2.1-6.3,4.4
			c-0.7,3,1.2,4.7,2,6.4c0.4,0.9,0.7,1.8,0.7,3.1c0,0.4-0.2,1.2-0.1,1.5c0.3,0.6,1.3,0.6,1.8,0.9c0.5,0.3,1.3,1.4,1.5,1.9
			c0.2,0.5,0.7,2-0.1,1.9c-0.4,0-0.9-1.7-1-1.9c-0.6-0.9-2.2-2-4.2-1.7c-0.6,0.1-2.6,1.6-3,1.1c-0.5-0.7,2-2.1,2.3-2.2
			c0.4-0.1,1-0.1,1.2-0.2c0.8-0.6,0.4-3.3,0.1-4c-0.3-0.6-0.7-0.8-1-1.2c-0.4-0.4-0.7-0.9-1-1.2c-1.4-1-5-1.4-7.2-0.7
			c-0.5,0.1-1.3,0.5-1.9,0.9c-2.7,1.5-5.1,4-4.7,8.2c0.1,0.8,0.6,2.6,1.2,3.6c0.5,0.9,1.1,0.8,2,1.5c0.1,0.1,1.1,0.8,0.4,1.3
			c-0.4,0.2-1.1-0.6-1.7-0.7c-0.8-0.2-1.7-0.2-2.5-0.4c-0.8-0.1-1.7-0.4-2.4-0.5c-2.7-0.2-5.4,1.7-6.1,3.6c-0.7,2.2,1.2,4.6,2.7,5.1
			c0.5,0.2,1.6,0.3,1.9,0c0.6-0.5-0.1-2.1,0.8-2.2c0.8,0,0.3,1.4,0.4,2.2c0.5,3.2,5.4,3.5,7.3,1.3c0.4-0.5,0.6-1.9,1.4-1.9
			c0.6,0,1.5,2.4,1.8,2.8c1.1,1.5,3.3,2.7,5.6,2.9c2.5,0.2,4.4-0.1,6.1-0.8c1.4-0.6,2.5-1.1,3.3-2.2c0.2-0.2,0.2-0.7,0.4-0.9
			c0.2-0.3,0.8-0.6,1-0.9c0.3-0.5,1.4-2.4,1.2-3.2c-0.1-0.3-0.8-0.5-1.3-1c-0.2-0.2-1.3-0.8-0.8-1.3c0.3-0.4,2.4,0.9,2.9,1.2
			c0.5,0.3,0.9,0.6,1.3,0.7c2.5,0.5,4.2-0.7,5-1.9c0.5-0.7,0.4-1.3,0.9-1.4c0.7-0.1,1.3,0.8,1.7,1c1.7,0.6,3.1-0.6,3.7-1.3
			c0.2-0.3,0.8-1.6,1.1-1.6c0.8,0.2-0.6,2.6-0.7,2.7c-0.5,0.7-2.1,1.6-3.3,1.6c-0.8,0-1.6-0.7-2.2-0.7c-0.3,0-0.9,0.9-1.2,1.2
			c-1,1-1.9,1.5-3.5,1.7c-0.8,0.1-1.9-0.3-2.4-0.1c-0.5,0.2-0.6,1.3-0.9,1.9c-0.3,0.7-1,1.5-0.9,2c0.1,0.4,1.1,0.7,1.6,0.8
			c1.7,0.5,3.8,0.1,4.8-0.5c0.4-0.2,0.5-1,1.3-1c0.9,0,0.6,0.8,0.8,1.5c0.4,1.2,2,2.7,2.7,3.2c2.7,1.7,6.8,1.9,10.1,0.9
			c3.7-1.2,6.7-3.4,7.5-7.3c0.1-0.5,0.2-1,0.3-1.6c0.1-0.4,0.1-1.4,0.4-1.6c0.5-0.6,1.8-0.2,2.9-0.4c0.4-0.1,1.6-1.3,2-0.7
			c0.3,0.4-0.7,1.3-1.6,1.6c-0.9,0.3-1.8,0.1-2.3,0.4c-0.6,0.4-0.4,1.5-0.7,2.6c-0.2,0.9-0.8,1.3-0.7,2.1c0.1,0.7,1.2,1.4,1.9,1.5
			c1.7,0.3,3.5-0.4,4.2-0.8c0.6-0.4,1-1.7,1.9-1.7c0.5,0,0.9,0.8,1.3,1.1c0.4,0.3,1,0.9,1.3,1c1.8,0.8,4.7,0.6,6.3-0.2
			c0.6-0.3,1.8-0.9,1.9-1.5c0.1-0.4-0.6-1.2,0.1-1.4c0.7-0.3,1.3,1.4,1.6,1.8c0.5,0.6,2.2,1.6,3.3,1.8c3.1,0.4,6.1-0.6,7.1-2.7
			c0.3-0.6,0.1-1.4,0.8-1.6c0.7-0.2,1.7,0.8,2.4,1c0.6,0.1,1.4,0.2,1.9,0.1c2.2-0.1,3.3-1.4,4.3-2.6c0.5-0.6,1.2-0.8,1.3-1.6
			c0.1-1.1-1.1-1.9-1.7-2.2c-1.6-0.8-4.7-0.8-6.6-0.2c-0.5,0.2-1.7,0.7-2.1,0.4c-0.6-0.3-0.1-2.2-0.2-2.7c-0.3-1.8-2.1-3.2-4-3.1
			c-0.3,0-2.2,1-2.4,0.5c-0.5-0.8,1.7-1.5,2.1-1.6c0.3-0.1,1.2-0.1,1.3-0.1c0.4-0.2,0.4-1.1,0.5-1.6c0.3-1.5,0.3-2.7-0.2-3.8
			c-0.5-1.1-1.4-2.5-2.4-3.3c-1.9-1.3-5.2-1.9-8.4-1.6c-2.2,0.2-4.7,1.1-6.2,2.2c-1.1,0.8-3,2.5-3.2,3.8c-0.1,0.6,0.3,1.7,0.3,2.1
			c0,0.4-0.4,1-0.2,1.3c0.2,0.3,1.1,0.2,1.6,0.1c2.4-0.1,4.3,0.9,5.1,2.4c0.3,0.5,0.9,1.7,0.7,2.5c-0.3,1.2-0.8,0.3-1-0.6
			c-0.7-2.4-3.1-3.7-6.3-3c-0.5,0.1-1.2,1-1.9,0.7c-0.9-0.4,0.7-2.1,0.8-3.1c0.5-3.2-4.3-4-5.9-2.2c-0.4,0.4-0.7,1.8-1.3,1.6
			c-0.6-0.2,0-1.3,0-1.5c0.6-2.7,0.1-4.6-1.6-6c-0.6-0.5-1.5-1.1-2.3-1.3c-2.1-0.5-4.9,0.9-5.7,1.6c-0.3,0.3-0.9,1.1-1,1.6
			c-0.3,1.2,0.4,1.7-0.4,2.1c-0.5,0.2-1.5-0.6-2.3-0.7c-1.6-0.2-3.3,0.5-3.7,1.6c-0.3,0.8,0.1,2.1-0.5,2.4c-0.4,0.1-0.9-0.2-1.3-0.1
			c-0.7,0-1.7,0.4-2.2,0.7c-0.3,0.3-0.3,1.2-0.8,1.3c-0.4,0.1-0.7-0.5-0.7-0.8c-0.1-1.2,1.4-1.8,2.2-2.1c0.5-0.2,1.4,0,1.8-0.4
			c0.3-0.3,0.2-1,0.4-1.4c0.6-1.5,2.8-2.5,4.8-2.3c0.4,0,1,0.5,1.3,0.3c0.2-0.1,0.3-1.1,0.4-1.6c0.6-1.3,2.7-2.6,4.2-3
			c0.4-0.1,1.2-0.1,1.4-0.4c0.3-0.2,0.3-1.3,0.4-1.6c0.2-3.1-0.9-5.2-2.4-6.8c-1.9-2-4.7-3.6-8.1-3.5C421.2,101,419,101.9,417,102.8
			z"/>
		<path class="st2" d="M404,112.7c0.5-0.1,2-0.2,1.9,0.4c0,0.5-0.8,0.3-1.2,0.4c-0.7,0.1-1.8,0.7-2,0.1
			C402.6,112.9,403.4,112.8,404,112.7z"/>
		<path class="st2" d="M404.2,114.9c0.1-0.1,2.9,0.2,2.9,0.6c0.1,0.8-3.1,0.8-3-0.4C404.1,115,404.1,115,404.2,114.9z"/>
		<path class="st2" d="M405.6,118.1c0.3-0.1,1.3-0.1,1.4,0.4C407.2,119.6,403.7,118.6,405.6,118.1z"/>
		<path class="st2" d="M452.6,118.9c0.1,0,0.7-0.2,0.8,0.2c0.2,0.5-2.8,1.3-3.3,0.7c-0.6-0.8,0.9-0.9,1.1-0.9
			C451.7,119,452,118.9,452.6,118.9z"/>
		<path class="st2" d="M405.2,120.5c0.3-0.2,1.1,0.1,1,0.6C406.1,122.1,404.2,121,405.2,120.5z"/>
		<path class="st2" d="M450,121.3c0.5-0.2,2.5-0.3,2.6,0.3c0.1,0.6-2.7,1.1-3,0.4C449.3,121.6,449.8,121.4,450,121.3z"/>
		<path class="st2" d="M453.9,123.3c0.3-0.1,1.2,0,1.1,0.5C454.9,124.9,452.1,123.7,453.9,123.3z"/>
		<path class="st2" d="M442.2,136.8c0.3-0.1,1.8-0.1,1.6,0.7c-0.2,0.6-2,0.4-2.2,0C441.3,136.8,441.9,136.9,442.2,136.8z"/>
		<path class="st2" d="M423,137c0.3,0,0.6-0.2,0.7,0.3c0,0.8-3.4,1.2-3,0.1C420.8,136.8,422.4,136.9,423,137z"/>
		<path class="st2" d="M412.6,138c0.3-0.1,1.5-0.2,1.6,0.1c0.2,0.5-0.8,0.7-1.1,0.7c-0.1,0-1.4,0.1-1-0.7
			C412.2,138,412.4,138.1,412.6,138z"/>
		<path class="st2" d="M423.4,138.9c2.5,0.1-2.4,2.1-2.2,0.6C421.2,139,422.9,138.9,423.4,138.9z"/>
		<path class="st2" d="M441.9,139.2c0.4-0.2,0.9-0.1,1,0.3C443,140.5,441,139.8,441.9,139.2z"/>
		<path class="st2" d="M424.1,141.3c0.5,0,1-0.3,1.1,0.2c0.2,1-3.1,0.9-2.5-0.1C422.8,141.3,423.3,141.4,424.1,141.3z"/>
		<path class="st2" d="M426.8,143.5c0.4-0.2,0.9-0.1,1,0.2C427.9,144.6,425.7,144,426.8,143.5z"/>
	</g>
</g>
<g class="st0">
	<path class="st1" d="M302.2,160.4c0.4-0.4,0.8-0.8,1.3-0.8c0,0,0,0,0,0c0.3,0,0.8,0.4,1.2,0.8c0.2,0.2,0.5,0.4,0.6,0.5
		c1.5,1,4.1,1.6,6.5,1.6c1.2,0,2.4-0.2,3.4-0.5c0.2-0.1,0.4-0.2,0.7-0.3c0.4-0.2,0.8-0.4,1.1-0.4c0,0,0.1,0,0.1,0
		c0.3,0,0.7,0.5,1.1,0.9c0.2,0.2,0.4,0.4,0.5,0.5c0.6,0.4,1.4,0.9,1.9,1.1c0.4,0.1,0.9,0.2,1.4,0.2c1.2,0,2.6-0.4,3.3-0.7
		c0.2-0.1,0.6-0.5,0.9-0.8c0.5-0.5,1-1,1.3-1l0,0c0.1,0,0.2,0.2,0.6,0.5c0.1,0.1,0.1,0.2,0.2,0.2c0.9,1,3.1,2,5.4,2
		c0.5,0,0.9,0,1.3-0.1c1.4-0.3,2.8-0.8,3.7-1.5c0.2-0.1,0.3-0.3,0.5-0.5c0.4-0.4,0.8-0.9,1.3-0.9l0,0c0.3,0,0.5,0.1,0.7,0.3
		c0.1,0.1,0.2,0.1,0.3,0.2c0.6,0.2,1.2,0.3,1.8,0.3c1.2,0,2.4-0.3,3.3-0.9c1.2-0.7,2.3-2,2.6-3.1c0-0.1,0-0.2,0-0.4
		c0-0.4,0-0.8,0.1-1c0.2-0.3,0.7-0.3,1.1-0.3c0.2,0,0.4,0,0.5,0c1.2-0.4,2.2-1.2,2.6-2.2c0.4-0.9,0.3-2-0.2-2.9
		c-0.8-1.5-2.5-2.3-4.7-2.3c-0.4,0-0.8,0-1.2,0.1c-0.2,0-0.4,0.1-0.7,0.3c-0.3,0.2-0.7,0.3-1,0.3c-0.1,0-0.1,0-0.2,0
		c-0.3-0.1-0.5-0.6-0.7-1c-0.1-0.2-0.2-0.5-0.3-0.6c-0.8-0.9-2.9-1.5-5-1.5c-0.4,0-0.8,0-1.2,0.1c-0.1,0-0.3,0.1-0.5,0.2
		c-0.3,0.1-0.6,0.2-0.9,0.2c-0.1,0-0.2,0-0.3-0.1c-0.1-0.1-0.2-0.4-0.4-0.9c-0.1-0.2-0.1-0.3-0.1-0.5c-0.9-2.5-2.3-3.8-5-4.8
		c-0.2-0.1-0.5-0.2-0.9-0.2c-0.8-0.2-1.7-0.4-2-0.8c-0.2-0.3-0.1-0.7-0.1-1.1c0-0.2,0.1-0.4,0-0.5c-0.1-2.8-3.2-5.4-6.4-5.4
		c-0.4,0-0.8,0-1.1,0.1c-1.7,0.3-4.4,2.1-5.1,3.4c-0.1,0.2-0.2,0.7-0.2,1.1c-0.1,0.7-0.2,1.4-0.5,1.6c-0.1,0-0.2,0.1-0.3,0.1h0
		c-0.1,0-0.3,0-0.5-0.1c-0.2,0-0.3-0.1-0.5-0.1l0,0c-2.8,0.1-5.5,2.1-6.1,4.5c0,0.1,0,0.2-0.1,0.3c-0.1,0.4-0.2,0.9-0.4,1.1
		c-0.1,0.1-0.3,0.1-0.5,0.1c-0.3,0-0.8-0.1-1.2-0.2c-0.4-0.1-0.8-0.2-1.2-0.2c-0.1,0-0.1,0-0.2,0c-0.2,0-0.5,0.1-0.8,0.2
		c-0.2,0.1-0.4,0.2-0.7,0.2c-0.2,0.1-0.5,0.1-0.8,0.1c-0.3,0-0.6,0.1-0.9,0.2c-0.7,0.3-1.7,1.3-2.1,2c-0.1,0.2-0.2,0.6-0.3,1
		c-0.2,0.9-0.4,1.5-0.6,1.6c0,0-0.1,0-0.1,0c-0.2,0-0.5-0.1-0.8-0.2c-0.1,0-0.2-0.1-0.2-0.1c-0.5-0.1-1-0.2-1.6-0.2
		c-2.3,0-4.7,1.2-5.5,2.9c-0.5,0.9-0.5,2.1,0,3.2c0.5,1.1,1.4,2,2.5,2.2c0.1,0,0.2,0,0.4,0c0.2,0,0.3,0,0.5,0c0.2,0,0.4,0,0.5,0
		c0.3,0,0.4,0,0.6,0.1c0.4,0.2,0.5,0.6,0.6,1.1c0.1,0.2,0.1,0.4,0.2,0.5c0.8,1.5,2.4,2.4,4.2,2.4c0.9,0,1.8-0.2,2.6-0.7
		C301.8,160.8,302,160.6,302.2,160.4z"/>
	<g>
		<path class="st2" d="M320.8,132.7c3.8-0.7,7.5,2.2,7.6,5.3c0,0.4-0.2,1.1,0,1.6c0.3,0.5,2.1,0.7,2.8,1c2.5,0.9,4.1,2.2,5,4.8
			c0.2,0.5,0.4,1.3,0.5,1.3c0.4,0.2,1.2-0.3,1.6-0.4c2.1-0.3,5.1,0.3,6.2,1.5c0.3,0.3,0.5,1.4,1,1.6c0.5,0.2,1.4-0.5,1.9-0.6
			c2.8-0.3,5,0.5,6,2.2c1.3,2.4-0.2,4.6-2.4,5.3c-0.4,0.1-1.3-0.1-1.6,0.3c-0.2,0.2-0.1,1.1-0.1,1.3c-0.3,1.2-1.4,2.5-2.6,3.2
			c-1.3,0.8-3.4,1.2-5.2,0.6c-0.3-0.1-0.6-0.5-1-0.4c-0.7,0-1.3,1.1-1.8,1.5c-1,0.7-2.4,1.2-3.7,1.5c-2.5,0.5-5.5-0.6-6.8-1.9
			c-0.2-0.2-0.6-0.7-0.7-0.7c-0.5-0.1-1.7,1.5-2.2,1.9c-1,0.5-3.3,1-4.7,0.5c-0.5-0.2-1.3-0.7-1.9-1.1c-0.4-0.3-1.1-1.3-1.6-1.4
			c-0.5-0.1-1.3,0.5-1.9,0.7c-3.1,1-7.7,0.3-9.9-1.1c-0.5-0.3-1.4-1.2-1.9-1.3c-0.7,0-1.3,1-1.7,1.3c-2.8,1.5-5.6,0.5-6.9-1.7
			c-0.2-0.4-0.2-1.3-0.7-1.6c-0.6-0.2-1.5,0.1-2-0.1c-2.1-0.5-3.6-3.3-2.5-5.5c1.1-2.2,4.6-3.4,7.2-2.7c0.2,0.1,0.9,0.4,1.1,0.3
			c0.4-0.2,0.6-2.1,0.9-2.6c0.4-0.7,1.4-1.7,2.2-2c0.4-0.2,1.1-0.2,1.6-0.3c0.6-0.1,1-0.4,1.5-0.4c0.8-0.1,2.4,0.5,3,0.2
			c0.3-0.2,0.4-1,0.4-1.3c0.6-2.3,3.1-4.5,6.2-4.6c0.5,0,1,0.2,1.3,0.1c0.6-0.3,0.4-2.1,0.7-2.7C316.3,134.8,319,133,320.8,132.7z
			 M316.4,136.8c-0.3,0.6-0.5,1.8-0.4,2.3c0.1,0.3,0.8,1,0.4,1.3c-0.2,0.2-1.6-0.6-2.2-0.7c-0.7-0.1-2.2,0.2-2.9,0.5
			c-1.1,0.5-2.6,2-2.9,3.3c-0.3,1.4,0.3,2.1,0.7,2.8c0.2,0.4,0.5,1.2,0.8,1.3c0.4,0.1,1.2-0.3,1.8-0.4c2.5-0.5,4.3,0.2,5,2.2
			c0.1,0.4,0.4,1.8-0.3,1.8c-0.2,0-0.5-0.6-0.5-0.7c-0.4-1-0.6-1.9-1.6-2.2c-0.8-0.3-2.9,0-3.6,0.4c-0.5,0.2-0.9,0.8-1.3,0.7
			c-0.6-0.1-0.5-1.3-0.8-1.9c-0.9-2-3.7-2.2-5.9-1.6c-2,0.5-3.2,1.5-3.3,3.6c-0.1,0.6,0.3,2-0.2,2.2c-0.4,0.2-0.9-0.5-1.5-0.7
			c-0.6-0.3-1.3-0.5-1.6-0.6c-2.1-0.5-4.8,1.1-5.3,2.4c-0.9,2.2,1.1,4.4,3,4c0.4-0.1,0.7-0.6,1.1-0.4c0.4,0.1,0.4,1,0.5,1.3
			c0.5,2.1,3,3.9,5.6,2.6c0.5-0.3,1.5-0.9,1.5-1.5c0-0.3-1.1-1.4-0.4-1.8c0.5-0.3,0.9,0.3,1.2,0.7c1.9,2.3,4.3,3.6,8.8,3.8
			c1.6,0.1,3.1-0.2,4.4-0.9c0.4-0.2,3.1-2.1,3.4-1.6c0.3,0.5-0.5,0.9-0.7,1c-0.3,0.2-0.7,0.7-0.7,1c0,0.5,1.1,1.2,1.5,1.4
			c2.5,1.5,5.4,0.2,6.7-1.3c0.3-0.4,0.5-1.2,1.2-1.2c0.6,0,0.8,1.1,1.2,1.6c0.8,1,3.1,1.9,4.8,1.9c3.2,0,5.8-2,6.5-4.4
			c0.1-0.5,0.1-1.6,0.7-1.6c1,0.1,0.1,2.4,0.2,2.7c0.2,0.7,2.6,0.9,3.4,0.7c1.4-0.3,3.8-2,3.8-3.5c0-0.4-0.9-1.1-0.6-1.8
			c0.3-0.5,1.1-0.2,1.6-0.1c1.8,0.1,3.3-0.7,3.5-2.2c0.3-2.7-2.5-3.5-5.3-3.2c-1,0.1-2,1.3-2.7,1c-0.4-0.2-0.3-1-0.5-1.6
			c-0.6-1.5-3.2-2.3-5.8-2c-0.5,0.1-1.7,0.4-2,0.8c-0.5,0.6-0.1,1-0.5,2c-0.3,0.6-1.3,1.8-1.8,1.3c-0.4-0.4,0.6-1.6,0.7-1.7
			c1.8-4-0.9-7.1-3.9-8.3c-0.8-0.3-2.1-0.6-2.8-0.6c-1.3,0.1-3.3,1-4.1,1.6c-0.4,0.3-0.8,1-1.3,0.8c-0.6-0.3,0.1-1.1,0.3-1.3
			c0.8-0.8,1.7-1.2,2.6-1.6c0.6-0.2,1.3-0.3,1.5-0.7c0.5-0.9,0-2.7-0.3-3.3c-0.9-1.8-3.6-2.9-5.6-2.7
			C319.6,133.9,317,135.4,316.4,136.8z"/>
		<path class="st2" d="M311.4,142.2c0.4,0,1.3-0.2,1.3,0.4c0,0.6-2.8,0.9-2.7,0.1C310.1,142.2,310.8,142.3,311.4,142.2z"/>
		<path class="st2" d="M311.3,144.5c0.2,0,1.1-0.2,1.3,0.3c0.2,0.7-2.2,0.9-2.3,0.2C310.2,144.4,310.7,144.5,311.3,144.5z"/>
		<path class="st2" d="M318.8,145.7c0.3-0.1,0.8,0,0.9,0.3C319.8,147,317.7,146.2,318.8,145.7z"/>
		<path class="st2" d="M321.1,148.4c0.4,0,0.9-0.2,1,0.1c0.3,0.7-3.4,1.5-3.2,0.4C319,148.3,320.4,148.4,321.1,148.4z"/>
		<path class="st2" d="M338.8,149.1c0.4,0,2.2-0.3,2,0.5c-0.1,0.3-3.6,1.1-3.9,0.4c-0.2-0.5,0.7-0.8,0.7-0.7
			C338,149.2,338.3,149.2,338.8,149.1z"/>
		<path class="st2" d="M322,150.9c0.5-0.1,1.3-0.2,1.5,0.2c0.3,0.8-2.3,1.1-2.2,0.1C321.4,150.9,321.4,151,322,150.9z"/>
		<path class="st2" d="M338.2,151.2c0.3-0.1,1.4,0.2,1.3,0.7C339.4,153.1,336.4,151.6,338.2,151.2z"/>
		<path class="st2" d="M338.3,153.1c0.4-0.2,0.9,0,1,0.4C339.4,154.6,337.2,153.7,338.3,153.1z"/>
		<path class="st2" d="M324,153.7c0.4-0.2,1.2,0,1.1,0.4C325,155.1,323,154.3,324,153.7z"/>
	</g>
</g>
<g class="st0">
	<path class="st1" d="M135.1,49.5c0.2,0,0.3,0,0.4,0c0.3,0,0.6-0.1,0.9-0.2c0.3-0.1,0.6-0.2,0.9-0.2c0.1,0,0.1,0,0.1,0
		c0.3,0.1,0.6,0.3,0.9,0.6c0.2,0.2,0.4,0.5,0.7,0.6c1.1,0.6,2.5,0.9,3.9,0.9c0.8,0,1.5-0.1,2.2-0.3c0.1,0,0.3-0.1,0.4-0.1
		c0.3-0.1,0.7-0.2,0.9-0.2c0,0,0.1,0,0.1,0c0.4,0.1,1,1,1.5,1.7c0.2,0.3,0.3,0.5,0.5,0.7c0.3,0.4,1.3,1.7,2.2,2.1
		c0.9,0.4,2.2,0.7,3.7,0.7c1.1,0,2.2-0.1,3.2-0.4c2.1-0.6,4.1-2.6,5.2-4.3c0-0.1,0.1-0.2,0.2-0.4c0.2-0.5,0.5-1.1,0.9-1.2
		c0,0,0.1,0,0.1,0c0.4,0,1.1,0.5,1.6,0.8c0.2,0.1,0.4,0.3,0.5,0.3c0.5,0.2,1.1,0.3,1.7,0.3c2,0,3.9-1.2,4.6-2.3
		c0.1-0.1,0.1-0.4,0.2-0.6c0.1-0.4,0.2-0.8,0.5-1c0.1-0.1,0.2-0.1,0.4-0.1c0.2,0,0.4,0,0.5,0.1c0.1,0,0.2,0,0.3,0c0,0,0,0,0,0
		c1.4-0.1,2.8-0.7,3.6-1.6c0.4-0.5,1.3-1.8,1.5-2.4c0.5-2.4-1.4-3.4-3.1-3.8c-0.1,0-0.3,0-0.4-0.1c-0.6-0.1-1-0.2-1.2-0.3
		c-0.1-0.1-0.1-0.4-0.1-0.7c0-0.1,0-0.3,0-0.3c-0.4-2.5-2.6-5.1-5.9-5.1c-0.5,0-1,0.1-1.6,0.2c-0.1,0-0.3,0.1-0.5,0.2
		c-0.3,0.2-0.6,0.4-1,0.4c-0.1,0-0.2,0-0.2,0c-0.3-0.1-0.4-0.4-0.4-0.7c0-0.1,0-0.2-0.1-0.2c-0.6-1.5-2.1-3.1-3.7-3.5
		c-0.1,0-0.3,0-0.5,0h-0.2c-0.4,0-0.8,0-0.9-0.1c-0.3-0.2-0.4-1.1-0.4-1.7c0-0.2,0-0.3,0-0.4c-0.5-3.1-3.1-5-6.9-5
		c-0.4,0-0.7,0-1.1,0.1c-2.5,0.2-4,0.9-5.4,2.4c-0.1,0.1-0.3,0.3-0.4,0.4c-0.5,0.5-1,1.1-1.3,1.6c-0.1,0.1-0.1,0.4-0.1,0.6
		c-0.1,0.5-0.2,1.1-0.5,1.3c-0.2,0.2-0.6,0.2-1,0.2c-0.2,0-0.4,0-0.5,0c-1.9,0.5-3.7,2.1-4.2,3.7c-0.1,0.2-0.1,0.5-0.1,0.8
		c0,0.5-0.1,1-0.3,1.2c-0.1,0.1-0.3,0.2-0.6,0.2c-0.2,0-0.3,0-0.5,0c-0.2,0-0.3,0-0.5,0c-1.6,0-2.7,0.1-3.7,0.7
		c-0.2,0.1-0.4,0.3-0.6,0.5c-0.4,0.4-0.9,0.9-1.3,1h0c-0.4,0-0.6-0.2-0.8-0.4c-0.2-0.2-0.5-0.4-0.9-0.4c-0.2,0-0.5,0-0.7,0
		c-1.1,0-2.2,0.4-3.3,0.7c-1.1,0.4-2.1,1.1-2.8,1.9c-0.2,0.2-0.4,0.7-0.6,1.1c-0.4,0.8-0.7,1.5-1,1.6c-0.1,0-0.2,0-0.4,0
		c-0.2,0-0.5-0.1-0.8-0.1c-0.2,0-0.5-0.1-0.7-0.1c-0.1,0-0.3,0-0.4,0c-1.4,0-3.8,0.4-3.9,2.8c0,0.8,0.2,1.5,0.8,2.1
		c0.7,0.8,1.9,1.3,3.2,1.3l0,0c0.2,0,0.4,0,0.6-0.1c0.2,0,0.5-0.1,0.8-0.1c0.2,0,0.3,0,0.5,0.1c0.3,0.1,0.6,0.5,0.8,0.9
		c0.2,0.3,0.4,0.6,0.7,0.8c0.8,0.6,2.1,1,3.7,1c1.2,0,2.4-0.2,3.3-0.5c0.3-0.1,0.6-0.3,0.9-0.5c0.5-0.4,1.1-0.7,1.6-0.7
		c0.5,0,0.9,0.3,1.3,0.5c0.3,0.2,0.6,0.4,0.9,0.5C133.2,49.3,134.1,49.5,135.1,49.5z"/>
	<g>
		<path class="st2" d="M150.8,22c4.2-0.4,7.5,1.4,8.1,5c0.1,0.3,0,1.7,0.4,2c0.3,0.2,1.3,0.1,1.6,0.1c1.6,0.4,3.1,2.1,3.7,3.6
			c0.1,0.2,0.1,0.8,0.4,0.9c0.6,0.2,1.2-0.5,1.6-0.6c4.1-0.9,7,1.9,7.6,5c0,0.2,0.1,0.9,0.1,1c0.2,0.2,1.2,0.3,1.6,0.4
			c1.9,0.4,3.7,1.4,3.2,3.9c-0.1,0.6-1,2-1.5,2.4c-0.9,1-2.3,1.6-3.6,1.6c-0.2,0-0.9-0.2-1.2,0c-0.4,0.2-0.4,1.2-0.7,1.6
			c-0.9,1.6-3.9,2.9-6.3,2c-0.3-0.1-1.6-1.2-2.1-1.1c-0.5,0.1-0.8,1.2-1,1.6c-1,1.7-3.1,3.7-5.2,4.3c-2.1,0.6-5.1,0.6-6.9-0.3
			c-0.7-0.4-1.6-1.3-2.2-2.2c-0.5-0.6-1.4-2.4-1.9-2.4c-0.3,0-1,0.3-1.4,0.4c-2,0.6-4.5,0.3-6.2-0.7c-0.6-0.4-1-1.2-1.6-1.3
			c-0.5-0.1-1.2,0.4-1.9,0.4c-1,0.1-2.1-0.2-2.9-0.4c-0.8-0.3-1.4-1.1-2.2-1c-0.8,0-1.8,1-2.5,1.3c-2,0.8-5.4,0.8-7-0.4
			c-0.6-0.4-1-1.5-1.5-1.7c-0.6-0.2-1.3,0.1-1.9,0.1c-2.2-0.1-4.1-1.4-4-3.5c0.1-2.1,2-2.9,4.4-2.8c0.6,0,1.3,0.3,1.8,0.1
			c0.5-0.2,1.2-2.2,1.6-2.7c0.6-0.7,1.6-1.5,2.8-1.9c1.1-0.4,2.6-0.9,4-0.7c0.9,0.1,1.1,0.8,1.8,0.8c0.7,0,1.4-1.2,1.9-1.5
			c1-0.6,2.1-0.7,3.7-0.7c0.5,0,1.2,0.2,1.6-0.1c0.3-0.2,0.2-1.5,0.4-1.9c0.5-1.7,2.4-3.3,4.2-3.8c0.3-0.1,1.1,0,1.4-0.2
			c0.4-0.4,0.4-1.5,0.6-1.9c0.3-0.6,1.1-1.3,1.7-2C146.7,23,148.1,22.2,150.8,22z M146.5,24.6c-0.6,0.5-1.8,1.7-2.1,2.4
			c-0.6,1.1-0.2,1.8,0.5,2.2c1.2,0.7,2,1.7,2.3,3.2c0,0,0,1,0.2,1.1c0.3,0.2,0.6-0.1,1-0.1c1.7-0.2,3.1,0.2,4.1,1
			c0.3,0.2,1.1,0.9,0.7,1.3c-0.3,0.3-1-0.3-1.1-0.4c-0.9-0.5-2.5-1.1-3.9-0.7c-0.5,0.1-0.9,0.8-1.6,0.6c-0.7-0.2-0.3-2-0.5-2.7
			c-0.1-0.4-0.5-1.2-0.6-1.3c-0.3-0.5-1.5-1.3-2.1-1.4c-2-0.6-4.3,1.4-4.9,2.7c-0.1,0.2-0.6,1.4-0.2,2.3c0.1,0.3,0.6,0.5,0.7,0.6
			c0.8,0.6,0.9,1.1,1.3,2.2c0.3,1,0.5,0.7,1.6,0.7c0.6,0,1.3,0.1,1.8,0.3c0.3,0.1,2,1.4,1,1.8c-0.6,0.2-1.1-0.7-1.6-0.8
			c-0.5-0.2-1.3-0.2-1.7-0.1c-0.6,0.1-0.6,0.7-1.4,0.5c-0.7-0.2-0.7-1.7-1-2.5c-0.3-0.6-1.4-1.7-2.2-1.9c-0.9-0.2-2.2-0.1-2.8,0
			c-1.5,0.2-3.2,1.8-3.6,2.6c-0.3,0.6-0.3,2.1-0.9,2.1c-0.9-0.1,0-2-0.3-2.6c-0.2-0.4-0.8-0.6-1-0.7c-1.3-0.2-3.1,0.3-4.1,0.7
			c-1.3,0.6-2.2,1.7-2.8,3c-0.2,0.5-0.4,1.5-1.1,1.6c-0.5,0.1-1.1-0.2-1.6-0.2c-1.9-0.1-3.7,0-3.9,1.7c-0.2,2.2,2.3,2.6,4.1,2.3
			c0.5-0.1,1-0.1,1.5-0.2c0.3-0.1,2-1.4,2.2-0.4c0.1,0.8-1.6,0.9-1.6,1.7c0,0.4,0.8,0.8,1.1,1c1,0.6,1.9,0.7,3.2,0.7
			c1.1,0,4-0.9,4.2-1.6c0.1-0.2-0.6-1.1-0.1-1.5c0.4-0.3,1.7,1.3,2,1.5c1.7,1.1,4.2,1.6,6.5,0.7c0.6-0.2,2.6-2.3,2.7-0.9
			c0.1,0.9-1.5,0.9-1.6,1.7c0,0.8,2.1,1.5,2.9,1.6c2.8,0.3,5.1-0.9,6.2-1.9c0.6-0.6,2-1.8,1.9-2.7c-0.1-0.6-2.3-1.9-1.2-2.4
			c0.6-0.3,1.4,0.9,1.6,1.1c1.2,1.1,2.2,2,4.2,1.6c0.4-0.1,2.2-1,2.1,0.1c0,0.3-0.9,0.6-1.2,0.7c-1,0.4-2,0.5-3.1,0.3
			c-0.6-0.1-1.1-0.5-1.6-0.4c-0.4,0.1-0.6,1-1,1.5c-0.2,0.3-0.7,0.8-1,1.1c-0.3,0.3-1,0.6-1,1.2c0,0.4,0.8,1.4,1.2,1.9
			c0.5,0.7,0.8,1.3,1.4,1.7c1.6,1.2,5,1.2,7,0.6c2.3-0.6,4.6-3.2,5-4.7c0.2-0.7-0.1-2.2,0.8-2.2c0.5,0,0.9,1,1.3,1.3
			c0.5,0.4,1.2,0.9,1.6,1c1.8,0.6,4.5-0.2,5.1-1.5c0.2-0.5,0.2-2.1,0.8-2.4c0.5-0.2,1.1,0.1,1.4,0.1c1.4,0.1,2.6-0.4,3.3-1
			c0.6-0.6,1.7-2.1,1.1-3.5c-0.4-1-2.7-1.7-3.6-1.3c-0.5,0.2-0.6,0.9-1,1.3c-0.2,0.2-1.9,2.1-2.3,1.4c-0.3-0.5,1.7-2.3,1.9-2.5
			c0.9-1.6,0.3-3.8-0.8-5c-1.3-1.5-5.7-2.5-7.1-0.3c-0.2,0.3-0.6,1.4-0.5,1.8c0.1,0.3,0.7,0.5,1.1,0.9c0.1,0.1,1,1,0.4,1.3
			c-0.4,0.2-0.9-0.4-0.9-0.4c-0.3-0.2-0.5-0.4-0.8-0.5c-0.7-0.2-1.3,0.3-1.5-0.4c-0.1-0.3,0.5-0.9,0.7-1.3c0.9-1.8,0.4-3.8-0.8-5.1
			c-0.5-0.5-1.6-1.4-2.5-1.4c-0.4,0-2.1,0.1-2.8,0.4c-0.4,0.2-1.1,1.3-1.6,1c-0.9-0.6,0.9-1.7,1.3-1.9c0.5-0.3,1-0.3,1.1-0.6
			c0.2-0.5-0.2-1.6-0.3-2.2c-0.7-3-3.8-4-6.9-3.7C149.2,23.2,147.7,23.6,146.5,24.6z"/>
		<path class="st2" d="M146.7,26.1c0.5-0.2,1.9-0.1,1.9,0.4C148.7,27.8,144.9,26.7,146.7,26.1z"/>
		<path class="st2" d="M147.2,28.1c0.5-0.1,1.4-0.2,1.6,0.2c0.3,0.8-2,1.1-2.2,0.5C146.4,28.5,146.6,28.3,147.2,28.1z"/>
		<path class="st2" d="M148.4,30.4c0.5-0.2,1.8-0.1,1.9,0.4C150.3,32,146.6,31.2,148.4,30.4z"/>
		<path class="st2" d="M166.3,35.2c0.4-0.2,1.5-0.2,1.6,0.2C168.2,36.5,164.8,36,166.3,35.2z"/>
		<path class="st2" d="M167.4,37.1c0.4-0.2,1.4,0,1.3,0.6C168.6,38.7,166.1,37.7,167.4,37.1z"/>
		<path class="st2" d="M151.8,48.1c0.5,0,1-0.3,1.1,0.3c0.1,0.6-2.6,1.4-2.6,0.4C150.3,48.1,151.1,48.1,151.8,48.1z"/>
		<path class="st2" d="M142,48.2c0.6-0.1,1.7-0.3,1.6,0.4c-0.1,0.5-3.1,1-2.7-0.1C141.1,48.3,141.2,48.3,142,48.2z"/>
		<path class="st2" d="M152.1,50.4c0.5,0,1.1-0.3,1.2,0.3c0.1,0.6-2.9,1.3-3.2,0.5c-0.2-0.6,0.8-0.8,0.9-0.8
			C151.4,50.3,151.7,50.4,152.1,50.4z"/>
		<path class="st2" d="M153.5,52.3c0.4,0,0.7-0.1,0.8,0.2c0.1,0.5-1.7,1.2-1.9,0.6C152.1,52.5,152.9,52.3,153.5,52.3z"/>
	</g>
</g>
<g class="st0">
	<path class="st1" d="M339,57.9c0.2,0.1,0.4,0.4,0.6,0.8c0.1,0.1,0.1,0.2,0.2,0.3c0.9,1.3,1.9,2.2,3.1,2.6c0.9,0.3,1.8,0.5,2.8,0.5
		c2.8,0,5.5-1.3,6.8-2.6c0.2-0.1,0.3-0.4,0.5-0.6c0.4-0.5,0.8-1.1,1.2-1.1l0,0c0.3,0,0.6,0.5,0.9,0.9c0.1,0.2,0.2,0.3,0.3,0.4
		c1.9,1.8,4.4,2.8,7.4,2.9c0,0,0.1,0,0.1,0c0.1,0,0.1,0,0.2,0c3.1-0.1,5.2-1.6,6.4-2.8c0.1-0.1,0.3-0.3,0.4-0.5
		c0.4-0.5,1-1.2,1.4-1.3c0,0,0.1,0,0.1,0c0.3,0,0.7,0.2,1,0.3c0.1,0,0.2,0.1,0.3,0.1c0.6,0.2,1.4,0.4,2.3,0.4c0.4,0,0.7,0,1.1-0.1
		c0.6-0.2,1.9-0.9,2.4-1.2c0.3-0.2,0.6-0.7,0.9-1.2c0.4-0.6,0.8-1.1,1-1.1c0,0,0.1,0,0.1,0c0.2,0,0.5,0.1,0.7,0.2
		c0.1,0,0.2,0.1,0.3,0.1c0.2,0,0.3,0,0.5,0c1.2,0,2.4-0.4,3.3-1c0.9-0.7,2.1-2.8,2.2-4.2c0.1-2.5-1.9-4-3.8-4.2c0,0,0,0,0,0
		c-0.1,0-0.2,0-0.4,0c-0.2,0-0.4,0.1-0.6,0.1c-0.2,0-0.4,0-0.5-0.1c-0.2-0.1-0.3-0.7-0.4-1.3c0-0.1,0-0.2,0-0.3
		c-0.7-2.1-1.8-3.8-3.5-4.9c0,0-0.2-0.1-0.3-0.2c-0.7-0.4-1.4-0.7-1.5-1c-0.1-0.3,0-0.8,0.1-1.3c0.1-0.3,0.2-0.6,0.2-0.8
		c0.1-1.4-0.2-3.4-0.6-4.7c-0.7-2.5-4.2-4.8-6.4-5.4c-0.9-0.2-2-0.3-3-0.3c-0.7,0-1.4,0.1-1.9,0.2c-2.1,0.5-4.8,2-5.7,3.5
		c0,0.1-0.1,0.2-0.1,0.4c-0.1,0.5-0.3,1.2-0.7,1.3c-0.1,0-0.2,0-0.2,0c-0.3,0-0.5-0.1-0.7-0.3c-0.1-0.1-0.3-0.2-0.4-0.2
		c-0.6-0.2-1.5-0.3-2.3-0.3c-0.3,0-0.6,0-0.9,0.1c-0.2,0-0.4,0.1-0.6,0.1c-0.2,0-0.3,0.1-0.5,0.1c-0.2,0-0.3-0.1-0.4-0.2
		c-0.2-0.2-0.2-0.9-0.2-1.6c0-0.4,0-0.9-0.1-1.2c-0.4-2.2-1-3.5-2.3-4.8c-0.1-0.1-0.3-0.2-0.5-0.3c-0.4-0.2-0.8-0.5-0.9-0.9
		c0-0.2,0-0.5,0.1-0.7c0-0.2,0.1-0.3,0.1-0.5c0.4-3.7-1.5-6.8-3.4-8.5c-2.1-1.8-5.2-2.9-8.3-2.9c-0.3,0-0.5,0-0.8,0
		c-3.1,0.2-5,0.7-7.2,2c-3.3,2-5.5,4.3-5.7,9.3l0,0.2c0,1.6-0.1,1.7-1.4,2.1c-1.4,0.5-2.4,0.9-3.2,1.6c-1.3,1.2-2.7,3.5-2.6,6
		c0,0.1,0.1,0.3,0.1,0.6c0.1,0.5,0.3,0.9,0.1,1.1c-0.1,0.1-0.2,0.1-0.3,0.1c0,0-0.3,0-0.4-0.1c-0.8,0-1.6,0.2-2.4,0.7
		c-0.1,0.1-0.3,0.2-0.4,0.4c-0.3,0.3-0.7,0.7-1,0.7c0,0,0,0,0,0c-0.2,0-0.5-0.3-0.7-0.7c-0.2-0.3-0.4-0.6-0.7-0.8
		c-1.3-0.9-3.7-1.5-5.8-1.5c-1.1,0-2.2,0.2-3,0.5c-2.6,1-5.3,3.5-5.3,6.8c0,0.8,0.3,1.9,0.6,2.8c0.1,0.2,0.1,0.3,0.2,0.5
		c0.2,0.3,0.4,0.7,0.3,1c-0.1,0.3-0.5,0.5-0.8,0.7c-0.2,0.1-0.3,0.1-0.4,0.2c-0.9,0.7-1.5,1.4-1.7,2.1c0,0.1,0,0.3,0,0.6
		c0,0.4,0,0.9-0.2,1.1c0,0-0.1,0-0.2,0c-0.2,0-0.6-0.2-1-0.3c-0.2-0.1-0.3-0.1-0.4-0.1c-0.5-0.1-1-0.2-1.5-0.2
		c-1.6,0-3.4,0.6-4.9,1.5c-2.3,1.5-2.5,4.8-1.2,7c0.8,1.3,3.1,3.5,6,3.5c0.2,0,0.4,0,0.6,0c0.1,0,0.3-0.1,0.5-0.2
		c0.3-0.1,0.8-0.3,1.2-0.3c0.2,0,0.4,0,0.5,0.1c0.1,0.1,0.2,0.3,0.4,0.8c0,0.1,0.1,0.2,0.1,0.2c0.4,1,1.1,2,1.7,2.5
		c1.1,0.9,2.7,1.4,4.6,1.4c2.3,0,4.9-0.7,6.6-1.8c0.2-0.1,0.3-0.3,0.5-0.5c0.3-0.4,0.7-0.8,1.1-0.8c0,0,0,0,0.1,0
		c0.2,0,0.3,0,0.5,0.1c0.2,0.1,0.4,0.1,0.6,0.1c0.3,0,0.6,0,0.8,0c1.1,0,1.9-0.2,2.6-0.4c0.2-0.1,0.4-0.1,0.6-0.2
		c0.3-0.1,0.7-0.3,0.9-0.3c0,0,0,0,0.1,0c0.3,0,0.5,0.4,0.7,0.7c0.1,0.1,0.1,0.2,0.2,0.3c0.7,1,2.2,2.2,3.1,2.7
		c1.4,0.7,3.4,1.1,5.2,1.1c0.9,0,1.8-0.1,2.5-0.3c1.4-0.4,2.5-1,3.6-2l0.4-0.3c0.8-0.7,1.4-1.2,2.1-2.2c0.1-0.2,0.2-0.4,0.3-0.6
		c0.2-0.5,0.5-1,0.8-1.1c0.1,0,0.1,0,0.2,0c0.3,0,0.7,0.2,1.1,0.3c0.3,0.2,0.7,0.3,1,0.4c0.1,0,0.2,0,0.3,0c0.4,0,0.8-0.1,1.2-0.2
		c0.4-0.1,0.7-0.1,1-0.1C338.8,57.9,338.9,57.9,339,57.9z"/>
	<g>
		<path class="st2" d="M336.3,8.7c3.9-0.2,7.2,1.2,9.1,2.9c2,1.8,3.8,4.9,3.4,8.5c0,0.4-0.3,0.9-0.2,1.2c0.1,0.6,1.1,0.8,1.4,1.2
			c1.2,1.2,1.9,2.6,2.3,4.8c0.1,0.8,0,2.5,0.3,2.8c0.3,0.3,0.7,0,1.3-0.1c1-0.1,2.5,0,3.3,0.2c0.4,0.1,0.7,0.6,1.3,0.4
			c0.5-0.2,0.7-1.4,0.8-1.7c0.9-1.6,3.7-3,5.7-3.5c1.3-0.3,3.4-0.2,4.9,0.1c2.2,0.5,5.7,2.9,6.5,5.4c0.4,1.3,0.7,3.2,0.6,4.7
			c0,0.6-0.5,1.5-0.3,2.1c0.2,0.4,1.6,1,1.8,1.2c1.7,1.1,2.9,2.8,3.6,5c0,0.2,0.1,1.3,0.4,1.5c0.4,0.2,1.2,0,1.5,0
			c2,0.3,4,1.8,3.9,4.3c-0.1,1.4-1.3,3.5-2.2,4.2c-1,0.7-2.4,1.1-3.8,1c-0.2,0-0.8-0.3-1.1-0.2c-0.5,0.1-1.3,1.9-1.9,2.3
			c-0.4,0.3-1.8,1-2.4,1.2c-1.2,0.3-2.4,0-3.4-0.3c-0.4-0.1-1-0.4-1.4-0.4c-0.6,0.1-1.4,1.3-1.9,1.8c-1.5,1.5-3.7,2.7-6.5,2.8
			c-0.1,0-0.2,0-0.3,0c-3.2-0.1-5.7-1.3-7.4-3c-0.3-0.3-0.7-1.2-1.2-1.3c-0.6,0-1.2,1.2-1.7,1.7c-1.8,1.7-6,3.5-9.6,2.1
			c-1.4-0.5-2.3-1.5-3.1-2.7c-0.2-0.2-0.5-1-0.7-1.1c-0.6-0.2-1.8,0.3-2.8,0.2c-0.8-0.1-1.6-0.8-2.3-0.7c-0.5,0.1-0.8,1.1-1.1,1.6
			c-0.8,1.2-1.5,1.7-2.4,2.5c-1,0.9-2.1,1.5-3.6,2c-2.2,0.7-5.5,0.3-7.7-0.8c-0.9-0.4-2.4-1.7-3.1-2.7c-0.3-0.4-0.5-0.9-0.9-1
			c-0.3,0-1,0.3-1.5,0.4c-1,0.3-2.1,0.5-3.5,0.4c-0.4,0-0.8-0.3-1.1-0.2c-0.7,0.1-1.1,1-1.6,1.3c-2.7,1.7-8.4,2.8-11.3,0.4
			c-0.6-0.5-1.3-1.5-1.7-2.5c-0.1-0.2-0.3-0.9-0.4-1c-0.7-0.3-1.7,0.3-2.2,0.4c-3,0.4-5.7-1.8-6.7-3.5c-1.4-2.4-1-5.7,1.3-7.1
			c1.5-0.9,4-1.9,6.5-1.3c0.2,0.1,1.2,0.5,1.4,0.4c0.4-0.3,0.1-1.3,0.2-1.6c0.2-0.8,0.9-1.6,1.7-2.2c0.3-0.2,1.1-0.5,1.2-0.9
			c0.1-0.5-0.4-1-0.5-1.5c-0.2-0.7-0.6-2-0.6-2.8c0-3.2,2.6-5.8,5.3-6.8c2.8-1,7-0.3,8.9,1c0.6,0.4,1,1.4,1.4,1.4
			c0.5,0,1.1-0.8,1.4-1c0.8-0.4,1.6-0.7,2.5-0.7c-0.2,0,0.5,0.2,0.7,0c0.2-0.2-0.2-1.2-0.2-1.6c-0.1-2.5,1.3-4.9,2.6-6.1
			c0.9-0.8,1.9-1.2,3.3-1.6c1.3-0.4,1.3-0.5,1.3-2.3c0.2-5,2.4-7.3,5.7-9.3C331.1,9.5,333,8.9,336.3,8.7z M336.2,9.8
			c-4.7-0.1-7.6,2.2-9.8,4.5c-1.3,1.4-1.9,3.2-2.1,5.3c0,0.5-0.3,1.8,0.1,2.4c0.3,0.4,1.3,0.3,1.7,0.4c0.2,0.1,2.2,1.2,1.6,1.6
			c-0.2,0.1-2.4-0.9-2.7-0.9c-4.3-0.4-6.9,2.3-7.6,5.4c-0.4,1.7-0.1,2.7,0.7,3.9c0.2,0.3,0.9,1.6,1.5,1.7c0.4,0,0.9-0.4,1.2-0.4
			c0.9-0.2,1.6,0,2.3,0.2c0.4,0.1,1.1,0.5,1.3,0.4c0.2,0,0.5-0.6,0.7-0.9c0.9-1.1,2.1-1.8,3.6-2.2c5.3-1.3,10.5,1.4,11.5,5.6
			c0.1,0.3,0,1.3,0.2,1.6c0.3,0.3,2,0.5,2.6,0.7c0.7,0.3,1.5,0.6,1.9,1.4c0.4,0.7,0.2,1.7,0.7,2.2c0.3,0.3,1,0.3,1.6,0.6
			c0.3,0.2,1.5,1.1,1.1,1.6c-0.5,0.5-1.4-0.5-1.8-0.7c-0.8-0.3-1.6-0.4-2.4-0.1c-0.4,0.2-1.2,1-1.6,0.5c-0.6-0.7,1.8-1.6,1.9-2
			c0.1-0.4-0.4-1.4-0.5-1.6c-0.5-0.7-2.3-1.3-3.1-1.4c-1-0.1-2.1,0.3-2.2-0.2c-0.2-0.5,0.6-0.7,0.7-1.3c0.3-1.4-1-3.3-1.9-4.1
			c-2.1-2-7.2-2.8-10.1-1.3c-0.7,0.4-2,1.5-2.1,2.4c-0.1,0.5,0.3,0.9,0.3,1.6c0,0.7-0.4,1.3-0.1,1.7c0.4,0.5,1.3,0.2,1.9,0.4
			c0.6,0.2,1.7,0.8,2.3,1.3c0.4,0.3,1.6,2.1,0.6,2.3c-0.5,0.1-0.8-0.9-1.1-1.3c-0.8-0.9-2.2-1.5-3.6-1.4c-0.5,0-0.7,0.4-1.2,0.1
			c-0.5-0.3-0.1-1.2,0-1.5c0.1-0.7,0.2-1.4,0.1-2c-0.3-1.8-3.1-2.7-4.5-1.5c-0.3,0.3-0.5,1.3-1,1.2c-0.5-0.1-0.2-0.8-0.4-1.4
			c-0.4-1.9-2.5-2.6-4.4-1.8c-1.4,0.6-2.9,2.6-2.7,4.7c0,0.3,0.7,1.7,0.5,2.2c-0.3,0.6-1.4,0.1-2.1,0.1c-0.7,0-1.8,0.5-2.3,1
			c-0.3,0.3-0.5,1.9-1,1.8c-0.5-0.1-0.4-1.4-0.2-1.8c0.3-1,1.6-1.6,2.7-1.9c0.1,0,1.3,0,1.5-0.2c0.2-0.2-0.1-0.9-0.1-1.6
			c0-1.3,0.8-2.1,0.7-3c-0.1-0.7-0.7-1.3-1-1.5c-1.6-1.2-4.4-1.6-6.6-1.3c-1.9,0.3-3.7,1.3-4.7,2.4c-0.8,0.9-1.6,2.6-1.5,4.2
			c0.1,0.7,0.4,3,1.5,3.6c0.2,0.1,2.2,0.3,1.8,1c-0.2,0.4-1.7,0-2.2,0.1c-1,0.2-2.4,1.2-2.7,2.2c-0.1,0.4-0.2,1.1-0.1,1.4
			c0,0.4,0.4,1,0.2,1.4c-0.4,0.8-1.3,0.1-1.8-0.1c-2.2-1-5.1-0.4-6.8,0.6c-0.8,0.5-1.6,1.3-1.6,2.9c-0.1,2.5,1.3,4,2.7,4.9
			c0.8,0.5,2.1,1.1,3.3,1c0.4,0,0.9-0.3,1.4-0.4c1.3-0.3,1.8-0.4,2.7-1c0.1,0,1-0.9,1.3-0.4c0.3,0.5-1.7,2-1.8,2.2
			c-0.1,1,1.3,2.7,1.9,3.1c1.6,1.2,5,1.2,7,0.8c0.6-0.1,1.3-0.5,2.1-0.9c0.5-0.2,1.7-0.6,1.6-1.3c0-0.4-2.1-1.7-1.5-2.3
			c0.5-0.5,1.6,0.9,1.8,1c1.4,0.8,4.2,1.1,6.2,0.4c1-0.4,1.6-1.4,2.4-2c0.3-0.2,0.6-0.2,0.8-0.4c0.4-0.3,1-1.5,1.5-0.9
			c0.3,0.4-0.3,1-0.5,1.3c-0.3,0.4-0.6,0.8-1,1.1c-0.4,0.3-0.9,0.4-1,0.9c-0.1,0.6,1,1.5,1.3,1.9c1.4,1.3,3.1,2.2,5.5,2.4
			c3.4,0.4,6.3-1.2,7.9-2.9c0.5-0.5,1.8-2.3,1.7-3.1c0-0.3-2.3-1.8-1.5-2.3c0.5-0.3,1.6,1,2,1.3c0.7,0.4,2,1.1,3,1.3
			c2.2,0.3,4.2-0.8,4.7-2.3c0.3-0.7,0.3-2.7,1-2.8c0.6-0.1,1.2,0.7,1.6,0.8c2.1,0.8,3.9-0.1,4.9-1c0.3-0.3,1-1.1,1.3-1
			c0.7,0.3-0.4,1.6-0.4,1.6c-1.3,1.3-3.2,2.1-5.7,1.4c-0.1,0-0.9-0.5-1.1-0.4c-0.3,0.2-0.2,0.9-0.4,1.2c-0.2,0.3-0.6,0.9-1,1.3
			c-0.3,0.3-1,0.8-1,1.3c0,0.5,0.5,1.3,0.7,1.6c0.8,1.1,2.5,2.1,4.2,2.2c2.7,0.1,4.8-0.6,6.2-1.7c0.6-0.4,1-0.9,1.6-1.7
			c0.4-0.5,0.9-1.4,1.3-1.4c0.5,0,0.9,0.8,1,1c1.7,2.2,4.5,4.1,8.7,3.7c1.2-0.1,2.8-0.6,3.7-1.2c0.7-0.5,2.8-2.1,2.7-3.2
			c0-0.3-1.4-2-0.7-2.3c0.5-0.2,0.8,0.4,1.2,1c0.8,1.2,1.7,1.8,3.3,2c2.5,0.3,4.4-1.2,5-2.2c0.3-0.5,0.7-2.5,1.3-2.4
			c0.5,0.1,0.4,0.8,0.6,1c0.5,0.4,1.9,0.2,2.4,0.1c2.1-0.6,4.3-4.3,2.4-6.2c-0.4-0.4-2.6-1.6-3.6-0.9c-0.2,0.1-0.7,2.3-1.4,1.9
			c-0.5-0.3,0.1-1.1,0.2-1.6c0.1-0.6,0.1-1.4,0.1-1.9c-0.2-1.2-1-3-2-4.2c-0.5-0.6-1.9-1.6-2.8-1.7c-0.3,0-0.6,0.2-0.9,0.1
			c-0.2,0-0.5-0.4-0.9-0.4c-1.5-0.3-3.4,0.3-4.4,0.8c-0.3,0.2-1.1,0.8-1,1.1c0,0.5,0.9,1,1.1,1.3c0.2,0.4,0.4,0.6,0.5,1
			c0.3,0.9,0.5,2.6-0.3,1.8c-0.4-0.4-0.4-1.2-0.6-1.6c-0.7-1.6-3.1-2.8-5.3-1.9c-0.4,0.2-1.6,1.3-1.9,0.7c-0.3-0.6,1.3-1.5,1.9-1.8
			c0.7-0.3,1.7-0.4,2.1-0.4c0.4,0,1,0.3,1.3,0.3c0.4,0,0.8-0.5,1.3-0.9c1.2-0.9,2.6-1.4,4.2-1.6c0.5-0.1,1.7,0,1.9-0.1
			c0.4-0.3,0.5-1.6,0.5-1.8c0.2-2.8-0.5-5.1-1.6-6.4c-1.6-1.8-5.5-3.9-9-3c-1.3,0.3-4,1.6-4.8,2.7c-0.3,0.4-1,1.5-0.9,2.2
			c0.1,0.6,0.6,0.8,1,1.3c0.3,0.5,0.7,1.2,0.7,1.8c0,0.8-0.4,2.3-0.9,2.2c-1-0.1-0.1-1.7-0.2-2.5c-0.3-2.5-5.2-4.2-7.7-2.5
			c-0.4,0.3-1.4,1.5-1.1,2c0.2,0.4,1.3,0.3,1.4,0.4c0.3,0.1,1.2,0.7,1.6,1.2c0.5,0.6,0.9,1.9,0.3,2.1c-0.5,0.1-0.7-1-0.9-1.3
			c-0.5-0.8-1.6-1.3-3-1.3c-0.5,0-0.9,0.3-1.3,0.1c-0.6-0.3-0.2-1.2-0.1-1.4c0.2-0.4,0.7-0.5,1-0.9c2.2-2.6,1.1-7.9-1.6-9.7
			c-1.5-1-5.4-1-6.8-0.3c-0.3,0.1-1.6,1.6-2,1.3c-0.5-0.5,0.4-1.2,0.7-1.5c1-0.8,1.7-1.2,3.1-1.3c0.8-0.1,3.4,0.3,3.7,0.1
			c0.4-0.3,0.4-1.9,0.4-2.4c-0.1-2.2-1.1-4.2-2.4-5.6c-1.8-2-5.3-3.6-9.1-3.3C336.3,9.8,336.2,9.8,336.2,9.8z"/>
		<path class="st2" d="M328.2,14.4c0.5-0.3,1.9-0.2,1.9,0.4C330.2,15.9,327,15.1,328.2,14.4z"/>
		<path class="st2" d="M327.6,16.9c0.5-0.1,2.3-0.3,2.2,0.4c-0.1,0.5-3.7,0.9-3.3-0.1C326.6,16.8,326.9,17,327.6,16.9z"/>
		<path class="st2" d="M327.3,19.6c0.4,0,1-0.1,1,0.4c0,0.6-2.1,0.9-2,0.1C326.3,19.7,326.6,19.6,327.3,19.6z"/>
		<path class="st2" d="M320.5,26.5c0.2,0,1.8-0.3,2,0.3c0.2,0.7-3.3,1.3-3,0.1C319.6,26.5,319.9,26.6,320.5,26.5z"/>
		<path class="st2" d="M363.8,28.6c0.6,0,1.1-0.1,1.2,0.3c0.1,0.7-2.7,1.1-2.7,0.1C362.4,28.5,363.2,28.6,363.8,28.6z"/>
		<path class="st2" d="M319.9,28.8c0.3,0,1.3-0.1,1.3,0.4c0,0.7-2,0.7-2.2,0.4C318.8,29,319.4,28.8,319.9,28.8z"/>
		<path class="st2" d="M337.2,30.1c0.6-0.2,0.9,0,1,0.3c0.1,0.6-1.4,0.7-1.6,0.4C336.3,30.4,336.9,30.2,337.2,30.1z"/>
		<path class="st2" d="M320.7,31.1c0.3,0,0.6-0.3,0.7,0.2c0.1,0.5-1.7,1.2-1.8,0.4C319.6,31.3,320.2,31.1,320.7,31.1z"/>
		<path class="st2" d="M362.9,31.1c0.2,0,1.6-0.2,1.6,0.4c0,0.6-3.5,0.9-3.4,0C361.2,31.1,362.2,31.1,362.9,31.1z"/>
		<path class="st2" d="M340.3,33.1c0.4-0.2,2.8,0.1,2.7,0.6C343,34.5,338.9,33.8,340.3,33.1z"/>
		<path class="st2" d="M363.4,33.9c0.5,0,1,0.1,0.9,0.5c-0.1,0.6-2.2,0.7-2.3,0.1C361.9,34,362.9,33.9,363.4,33.9z"/>
		<path class="st2" d="M327.2,34.5c0.4-0.1,2.5-0.2,2.4,0.4c0,0.6-3,0.8-3,0C326.6,34.6,326.8,34.6,327.2,34.5z"/>
		<path class="st2" d="M342,35.7c0.4-0.1,2.3-0.2,2.4,0.2c0.2,0.9-3,0.9-3,0.1C341.5,35.7,341.7,35.7,342,35.7z"/>
		<path class="st2" d="M329,36.6c0.4,0,1-0.2,1,0.4c0,0.5-2.8,0.9-2.4-0.1C327.6,36.5,328.2,36.6,329,36.6z"/>
		<path class="st2" d="M363.3,36.8c0.2-0.1,0.9,0.2,0.7,0.6C363.8,38,362.5,37.2,363.3,36.8z"/>
		<path class="st2" d="M345.8,37.8c0.3,0,0.7-0.1,0.7,0.2c0.1,0.5-2.1,1-2.3,0.6C343.8,37.9,345.3,37.8,345.8,37.8z"/>
		<path class="st2" d="M331.1,38.5c0.4-0.2,1.6-0.1,1.6,0.4C332.5,39.9,330,39.2,331.1,38.5z"/>
		<path class="st2" d="M343.6,55.7c0.7-0.2,1.9-0.1,1.8,0.5c-0.1,0.5-2.5,0.7-2.5,0C342.8,55.7,343.2,55.8,343.6,55.7z"/>
		<path class="st2" d="M321.3,56.3c0.5,0,1.1-0.2,1.2,0.3c0,0.5-3.4,1.5-3.5,0.5C318.9,56.4,320.6,56.3,321.3,56.3z"/>
		<path class="st2" d="M344.1,58.2c0.4,0,1.2-0.3,1.3,0.2c0.1,0.6-2.4,1.1-2.3,0.1C343.2,58.1,343.5,58.3,344.1,58.2z"/>
		<path class="st2" d="M319.9,58.8c0.5-0.1,1.8-0.3,1.6,0.5c-0.1,0.4-2.5,0.7-2.7,0.1C318.7,58.9,319.4,58.9,319.9,58.8z"/>
		<path class="st2" d="M322.9,60.7c0.3,0,0.6-0.1,0.7,0.2c0.2,0.6-1.2,1-1.4,0.4C322,61,322.4,60.8,322.9,60.7z"/>
	</g>
</g>
<g class="st0">
	<path class="st1" d="M492.8,174.5c-0.2,0-0.4,0-0.6,0c-0.1,0-0.4,0.1-0.7,0.2c-0.5,0.2-1,0.3-1.3,0.3c-0.1,0-0.1,0-0.2,0
		c-0.2-0.1-0.4-0.5-0.6-0.9c-0.1-0.3-0.3-0.6-0.4-0.8c-0.5-0.8-1-1.2-1.3-1.5c-0.2-0.1-0.4-0.2-0.6-0.2c-0.3-0.1-0.6-0.2-0.8-0.5
		c-0.1-0.2-0.1-0.6-0.1-0.9c0-0.2,0-0.4,0-0.6c-0.6-2-2.6-3.4-5.2-3.4l-0.1,0c-0.2,0-0.4,0-0.6,0.1c-0.3,0-0.5,0.1-0.8,0.1
		c-0.2,0-0.3,0-0.4-0.1c-0.1-0.1-0.1-0.3-0.2-0.9c0-0.1,0-0.1,0-0.1c-0.6-2.4-2.7-4-5.5-4c-0.2,0-0.5,0-0.7,0
		c-2.1,0.2-4.1,1.3-5,2.7c-0.1,0.2-0.2,0.4-0.2,0.7c-0.1,0.5-0.3,1-0.7,1.3c-0.1,0.1-0.4,0.1-0.7,0.1c-0.2,0-0.5,0-0.7,0.1
		c-1,0.3-2.4,1-3,1.9c-0.1,0.1-0.1,0.3-0.2,0.5c-0.2,0.5-0.4,1-0.7,1c0,0,0,0,0,0c-0.2,0-0.5-0.2-0.8-0.5c-0.1-0.1-0.3-0.2-0.4-0.3
		c-1.1-0.7-2.6-1.1-4-1.1c-0.3,0-0.6,0-0.9,0c-1.5,0.2-3.4,1.1-4.3,2.1c-0.7,0.8-1.5,2.5-1.3,4.3c0,0.2,0.1,0.6,0.2,0.9
		c0.2,0.6,0.3,1.1,0.2,1.3c-0.1,0.1-0.4,0.2-0.8,0.2l-0.4,0c-0.1,0-0.2,0-0.2,0c-1.4,0.1-2.9,0.6-3.7,1.2c-0.7,0.5-1.6,1.9-1.4,3.5
		c0.2,1,1.7,2.7,2.5,2.9c0.3,0.1,0.5,0.1,0.8,0.1c0.3,0,0.5,0,0.8-0.1c0.3,0,0.5-0.1,0.8-0.1c0.4,0,0.8,0.1,1.1,0.2
		c0.3,0.1,0.4,0.3,0.5,0.6c0.1,0.2,0.2,0.4,0.4,0.6c0.6,0.5,1.7,1.1,2.6,1.3c0.5,0.1,1,0.2,1.5,0.2c1.6,0,2.9-0.6,3.7-1.1
		c0.1-0.1,0.2-0.1,0.3-0.2c0.3-0.2,0.6-0.5,0.9-0.5c0,0,0,0,0.1,0c0.3,0,0.6,0.5,0.9,0.9c0.1,0.2,0.2,0.3,0.3,0.4
		c1.8,1.9,4.2,2.9,7,2.9c0.4,0,0.8,0,1.3-0.1c1.7-0.2,3-0.9,4.1-1.5c0.1-0.1,0.2-0.2,0.4-0.3c0.4-0.3,1-0.7,1.3-0.7
		c0.4,0,0.9,0.3,1.5,0.6c0.5,0.3,1,0.6,1.4,0.6c0.2,0,0.5,0,0.7,0c1.6,0,3.1-0.7,3.8-1.2c0.2-0.1,0.4-0.4,0.6-0.7
		c0.4-0.5,0.8-1,1.1-1h0c0.3,0,0.6,0.4,1,0.9c0.2,0.2,0.4,0.5,0.5,0.6c0.8,0.6,1.8,0.9,2.8,0.9c1.8,0,3.6-0.9,4.3-2.3
		c0.1-0.1,0.1-0.3,0.1-0.4c0.1-0.4,0.2-0.8,0.5-0.9c0.3-0.2,0.6-0.2,1-0.2c0.2,0,0.5,0,0.7-0.1c0.7-0.3,1.6-1.2,2-1.9
		c0.8-1.5,0.8-3.6-0.1-5.2C495.8,175.2,494.4,174.5,492.8,174.5z"/>
	<g>
		<path class="st2" d="M472.7,161.3c3.2-0.3,5.6,1.4,6.2,4c0,0.1,0.1,0.9,0.2,1c0.3,0.2,1.2-0.1,1.7-0.1c2.6,0,4.8,1.3,5.3,3.4
			c0.1,0.4-0.1,1.1,0.1,1.5c0.3,0.5,0.9,0.3,1.4,0.7c0.4,0.3,0.9,0.9,1.3,1.5c0.4,0.5,0.7,1.6,1,1.7c0.4,0.1,1.7-0.5,2.1-0.5
			c4.5-0.5,6.2,4.4,4.6,7.3c-0.4,0.7-1.3,1.6-2,1.9c-0.4,0.2-1.2,0-1.6,0.3c-0.4,0.2-0.4,1-0.6,1.3c-1.2,2.1-4.8,3.3-7.2,1.4
			c-0.4-0.3-1.1-1.4-1.5-1.4c-0.5,0-1.2,1.3-1.7,1.7c-0.9,0.7-2.7,1.4-4.6,1.2c-0.8-0.1-2.1-1.3-2.8-1.3c-0.5,0-1.3,0.7-1.7,1
			c-1.2,0.7-2.4,1.4-4.1,1.6c-3.8,0.4-6.5-0.9-8.3-2.8c-0.2-0.3-0.7-1.2-1.1-1.3c-0.3-0.1-0.9,0.5-1.3,0.7c-1.4,0.8-3.1,1.4-5.3,0.9
			c-0.9-0.2-2-0.8-2.6-1.3c-0.5-0.4-0.3-0.9-0.8-1.1c-1.1-0.5-2.3,0.2-3.5-0.2c-0.8-0.3-2.4-2-2.5-3c-0.3-1.6,0.7-3,1.4-3.6
			c0.8-0.6,2.3-1.1,3.7-1.2c0.4,0,1.3,0.1,1.4-0.1c0.2-0.3-0.4-1.6-0.4-2.2c-0.2-1.7,0.5-3.3,1.3-4.3c0.9-1.1,2.9-2,4.3-2.2
			c2.1-0.2,3.8,0.4,5,1c0.3,0.2,0.9,0.8,1.2,0.7c0.5-0.1,0.7-1.2,0.9-1.5c0.6-0.9,2-1.6,3-1.9c0.4-0.1,1.1-0.1,1.3-0.2
			c0.6-0.4,0.6-1.4,0.9-1.9C468.5,162.6,470.6,161.5,472.7,161.3z M469.8,163.6c-0.6,0.4-2,1.4-1.9,2.4c0.1,0.4,1.7,1.1,1.1,1.6
			c-0.3,0.3-1.2-0.4-1.5-0.4c-1.9-0.3-4.2,0.9-4.7,2.2c-0.4,1,0.1,3,0.7,3.2c0.5,0.1,0.7-0.4,1.1-0.4c2.6-0.5,4.6,0.4,5.4,2
			c0.2,0.3,0.2,0.9,0.5,1.2c0.4,0.3,1.9,0.4,2.4,0.6c0.4,0.2,1.6,1,1.1,1.5c-0.3,0.3-1.5-0.4-1.6-0.4c-1.2-0.4-2.1-0.5-3.2,0
			c-0.1,0.1-1.1,1.1-1.5,0.9c-0.7-0.3,0.2-1.3,0.3-1.4c0.6-0.5,1.1-0.4,1.3-1c0.1-0.6-0.6-1.3-0.9-1.6c-0.8-0.7-2.5-1.1-3.8-0.7
			c-0.6,0.2-0.8,1.3-1.7,1.1c-0.5-0.1-0.4-0.9-0.7-1.6c-0.9-2.3-3.2-3.8-6.3-3.9c-1.7,0-3.4,0.9-4.2,1.7c-1.3,1.3-1.5,4.2-0.6,5.9
			c0.2,0.3,1.3,1,1.1,1.6c-0.3,1-1.8-0.4-2.4-0.5c-2.8-0.5-5.8,1.3-5.3,3.6c0.2,0.8,1,1.9,1.8,2.2c0.5,0.2,2.7,0.4,3,0.1
			c0.4-0.3-0.2-1.4,0.7-1.3c0.6,0.1,0.4,1.8,0.7,2.3c0.5,1,2.7,1.7,4.2,1.6c1.3,0,3.2-1.1,3.6-1.6c0.4-0.5,0.5-2,1.1-2.2
			c0.4-0.1,0.8,0.2,1.1,0.3c0.6,0.1,2.4-0.2,2.2,0.7c-0.1,0.8-2.3,0.1-2.7,0.6c-0.3,0.3,0.4,1.4,0.7,1.6c1.6,1.9,4.2,3.2,8.1,2.8
			c1.4-0.1,2.4-0.7,3.4-1.3c0.4-0.2,1.3-0.7,1.3-1.2c0.1-0.5-0.9-1.8-0.1-2c0.5-0.2,0.9,1.2,1.2,1.6c1.5,2.5,6,2,7.4-0.1
			c0.3-0.5,0.7-1.8,1.3-1.8c0.5,0,1.5,1.6,1.9,1.9c0.6,0.6,1.6,1.1,2.6,1.2c1.5,0.1,2.5-0.5,3-1.2c0.7-0.9,0.8-3.1,1.3-3.1
			c0.4,0,0.5,0.5,0.7,0.5c0.4,0.1,1.3-0.3,1.6-0.5c0.6-0.5,1.3-1.7,1.3-2.7c0.1-2.5-1.2-4.3-3.7-4.2c-0.6,0-2.1,0.4-2.4,0.8
			c-0.2,0.4,0,1.5-0.6,1.4c-0.5,0-0.3-0.7-0.4-1c-0.2-1.7-1-3.7-2.4-4.2c-1.5-0.5-3,0.5-3.5,1c-0.3,0.4-0.4,1.3-1,1.3
			c-0.7-0.1-0.5-1.3,0.1-2c0.4-0.4,1.4-1,1.5-1c0.4-0.2,0.9-0.2,1.2-0.7c0.5-0.9-0.4-2.4-1.2-3c-0.6-0.5-2.1-0.9-2.8-0.9
			c-0.9,0-2.1,0.7-2.9,0.5c-0.7-0.2-0.3-2.1-0.4-2.6c-0.4-2.1-3.1-2.9-5-2.7C471.4,162.5,470.8,162.9,469.8,163.6z"/>
		<path class="st2" d="M466.1,168.5c0.4,0,0.9-0.2,1,0.3c0.1,0.7-2.5,1.1-2.3,0.1C464.9,168.5,465.5,168.5,466.1,168.5z"/>
		<path class="st2" d="M466.1,170.1c0.5-0.1,1,0,1,0.4C467.1,171.6,464.2,170.5,466.1,170.1z"/>
		<path class="st2" d="M464.8,184.8c0.2,0,0.7-0.1,0.7,0.4c0,0.4-3.2,1.3-3.3,0.4C462.1,184.7,464.1,184.7,464.8,184.8z"/>
		<path class="st2" d="M466.1,186.2c0.4-0.2,1.3-0.2,1.3,0.3C467.5,187.5,464.5,186.8,466.1,186.2z"/>
	</g>
</g>
</svg>
