<svg x="0px" y="0px" viewBox="0 0 24 24" xml:space="preserve" xmlns="http://www.w3.org/2000/svg"><g><path fill-rule="evenodd" clip-rule="evenodd" d="M24,20.69L20.79,24,12,14.92,3.21,24,0,20.69,8.42,12,0,3.31,3.21,0,12,9.08,20.79,0,24,3.31,15.58,12Z"/><path fill-rule="evenodd" clip-rule="evenodd" d="M24,20.69L20.79,24,12,14.92,3.21,24,0,20.69,8.42,12,0,3.31,3.21,0,12,9.08,20.79,0,24,3.31,15.58,12Z"/><path fill-rule="evenodd" clip-rule="evenodd" d="M24,20.69L20.79,24,12,14.92,3.21,24,0,20.69,8.42,12,0,3.31,3.21,0,12,9.08,20.79,0,24,3.31,15.58,12Z"/></g></svg>