<?xml version="1.0" encoding="utf-8"?>
<!-- Generator: Adobe Illustrator 19.2.1, SVG Export Plug-In . SVG Version: 6.00 Build 0)  -->
<svg version="1.1" id="low-clouds" xmlns="http://www.w3.org/2000/svg" xmlns:xlink="http://www.w3.org/1999/xlink" x="0px" y="0px"
	 viewBox="0 0 453.8 113.2" xml:space="preserve">
<style type="text/css">
	#low-clouds .st0{fill:#FFFFFF;}
	#low-clouds .st1{opacity:0.74;}
	#low-clouds .st2{fill-rule:evenodd;clip-rule:evenodd;fill:#736C58;}
</style>
<g>
	<path class="st0" d="M86.5,33.7c-0.3,0-0.5,0.1-0.8,0.2c-0.8-2.1-2.7-3.1-4.8-2.5c-0.9,0.3-1.6,0.9-2.2,1.7c-0.9,1.3-0.1,2.3,0,3.5
		C77,36.8,75.4,37,74.9,39c-0.1,0.2,0.3,0.4,0.4,0.2c0.8-1.8,2.5-1.5,4.1-1.4c0.3,0,0.5-0.2,0.6-0.5c0.1-0.4,0.1-0.8,0-1.2
		c0.3-0.7,0.6-1.3,1.2-1.7c0.9-0.6,1.8-0.3,2.4,0.5c0.1,0.2,0.3,0.2,0.4,0.2c-0.1,0.1-0.2,0.2-0.3,0.3c-0.2,0.3,0.1,0.7,0.4,0.5
		c0.6-0.4,1.2-0.7,2-0.9c0.8-0.2,1.1,0.2,1.5,0.9c0.3,0.5,1.3,0.4,1.3-0.3C88.6,34.4,87.7,33.6,86.5,33.7z"/>
	<path class="st0" d="M93,26.4c-2.1,0.1-3.9,0.7-4.4,2.9c-0.1,0.2,0.3,0.4,0.4,0.2c0.8-1.4,2.1-1.7,3.6-1.6c0.6,0,1.2,0.1,1.8,0.4
		c0.5,0.3,0.6,1,0.9,1.5c0.4,0.7,1.5,0.4,1.5-0.4C96.8,27.3,94.9,26.3,93,26.4z"/>
	<path class="st0" d="M113.7,46.5c-2,0.2-3.2,1.6-3.7,3.3c-0.7-0.5-1.6-0.8-2.3-0.8c-1.6,0-3.1,1.1-3.2,2.7c0,0.3,0.4,0.4,0.5,0.1
		c0.5-1,1.5-1.5,2.5-1.5c0.5,0,1,0.2,1.4,0.5c0.4,0.4,0.4,0.9,0.6,1.4c0.3,0.6,1.2,0.4,1.4-0.2c0.2-0.5,0.1-0.9-0.1-1.3
		c0.8-1.2,2.2-2.1,3.7-1.8c1,0.2,1.1,1.7,2,2.3c0.1,0.1,0.3,0.1,0.4,0.1c0.5,0.2,1.1,0,1.1-0.7C117.9,48.1,116.1,46.2,113.7,46.5z"
		/>
	<path class="st0" d="M114.8,57.4c-1.1-0.4-2.5-0.1-3.1,0.9c-0.2,0.3,0.2,0.5,0.4,0.4c1.4-0.8,3,0.1,3.3,1.6
		c0.2,0.9,1.7,0.7,1.6-0.2C116.8,58.7,116.1,57.8,114.8,57.4z"/>
	<path class="st0" d="M132.9,38.7c-1.9-0.2-3.6,0.9-4.1,2.7c-0.1,0.3,0.4,0.6,0.6,0.4c0.8-1,1.6-1.6,2.8-1.6c0.5,0,1.1,0.2,1.5,0.5
		c0.4,0.4,0.4,1,0.7,1.5c0.3,0.5,1.1,0.4,1.3-0.2C136.3,40.2,134.5,38.9,132.9,38.7z"/>
	<path class="st0" d="M131.9,47.4c-0.8-0.7-1.7-1.4-2.9-1.4c-1.2,0.1-2.1,1.1-2.4,2.2c-0.1,0.2,0.2,0.4,0.4,0.3c0.7-0.5,1.2-1,2.1-1
		c0.6,0,1.3,0.7,1.7,1.1C131.5,49.3,132.7,48.1,131.9,47.4z"/>
	<path class="st0" d="M53,56c-0.2,0-0.3,0-0.5,0c0-0.1,0-0.1,0-0.2c0.2-2.1-2-4.4-4-4.5c-2.5-0.1-4.2,1.5-4.8,3.9
		c-0.1,0.3,0.3,0.4,0.4,0.2c0.5-0.8,1.2-1.6,2.1-2c2.2-0.3,3.7,1.5,3.4,3.9c0,0,0,0.1,0,0.1c-0.2,0.3-0.4,0.5-0.6,0.8
		c-0.1,0.2,0.1,0.4,0.3,0.3c0.9-0.4,1.8-0.8,2.9-0.7c1.2,0.1,1.2,1,1.7,1.7c0.3,0.4,1.1,0.6,1.4,0C56.1,57.9,54.6,56.3,53,56z"/>
	<path class="st0" d="M40.6,55.7c-1.7-0.4-3.9,0.4-4.5,2.1c-0.1,0.4,0.4,0.7,0.7,0.4c0.7-0.8,2.1-1.1,3.2-0.9c1,0.2,1.1,1.5,1.4,2.2
		c0.2,0.6,1,1,1.5,0.4C44.1,58.5,42.1,56,40.6,55.7z"/>
	<path class="st0" d="M81.3,62.7c0.3-2.4-0.8-4.7-3.3-5.3c-1.7-0.4-3,0.3-3.9,1.5c-0.3-1.3-1.2-2.2-2.8-2c-1.7,0.2-2.5,1.8-2.5,3.4
		c0,0,0,0,0,0c-2-1.4-4.4,0.5-5.9,1.7c-0.1,0.1-0.1,0.2-0.1,0.2c-0.3,0.2-0.5,0.5-0.6,0.8c-0.1,0.2,0.1,0.4,0.3,0.3
		c1.1-0.5,2.1-0.7,3.3-0.4c1.3,0.4,1.5,1.2,2.1,2.2c-0.3,0.2-0.6,0.5-0.8,0.8c-0.3,0.4,0.2,0.9,0.6,0.6c1.3-1.1,3.3-1.4,4.3,0.2
		c0.6,0.9,2,0,1.4-0.8c-0.7-1.1-1.7-1.6-2.7-1.7c0.2-1.2-0.2-2.3-0.9-3.2c0.4-0.3,0.7-0.6,1.2-0.8c0.7-0.2,1.3,0.3,1.8,0.8
		c0.1,0.1,0.3,0.2,0.4,0.2l0,0c0,0.3,0.4,0.5,0.5,0.2c0.8-1.6,2.1-2.8,3.9-2.4c1.9,0.4,1.8,2.3,1.9,3.8c0,0.3,0.2,0.5,0.3,0.6
		c-0.2,0.1-0.3,0.3-0.5,0.4c-0.2,0.2,0.1,0.7,0.4,0.5c1.9-1.3,5.8-1.6,6.4,1.3c0.2,1,1.6,0.5,1.4-0.4C87,62.3,83.8,61.7,81.3,62.7z"
		/>
	<path class="st0" d="M43.9,77.2c-0.7-1.2-1.7-1.9-3.1-1.6c-0.2-1.8-2.3-3-4.1-2.7c-2.3,0.4-4.6,1.9-4.8,4.4c0,0.4,0.6,0.5,0.8,0.1
		c0.5-1.7,2.1-2.4,3.7-2.8c0.8-0.2,1.7-0.1,2.3,0.5c0.3,0.3,0.5,0.8,0.7,1.3c-0.6,0.5-1.2,1-1.7,1.5c-0.3,0.3,0.1,0.7,0.4,0.6
		c0.7-0.3,1.4-0.7,2.1-1c1-0.5,1.7-0.3,2.3,0.7C43,79,44.4,78.1,43.9,77.2z"/>
	<path class="st0" d="M27,74.4c-0.8,0.3-1.4,1.3-1.8,2.1c-0.2,0.3,0.2,0.6,0.5,0.4c0.4-0.4,0.9-0.7,1.5-1c0.6-0.3,0.7-0.1,1.2,0.2
		c0.4,0.3,0.9-0.1,0.9-0.5C29.3,74.3,27.9,74,27,74.4z"/>
	<path class="st0" d="M89.6,78.2c-1.2-5-7.5-4.6-9.6-0.6c-2.2-2-6-2.1-7.4,1.4c-0.1,0.3,0.3,0.5,0.5,0.2c1-1.4,2.4-1.9,4.1-1.4
		c1.6,0.5,2.3,2,2.8,3.4c0.3,0.9,1.8,0.8,1.7-0.2c-0.1-0.9-0.4-1.7-0.8-2.4c1.6-2.1,5.1-2.4,6.5,0c0.1,0.2,0.3,0.3,0.5,0.3
		C88.6,79.7,89.9,79.2,89.6,78.2z"/>
	<path class="st0" d="M72.2,82.5c-0.3-1.2-1.1-1.9-2.4-1.7c-1,0.2-1.9,1.1-2.4,1.9c-0.3,0.4,0.3,0.7,0.6,0.5
		c0.5-0.4,1.1-0.7,1.7-0.8c0.6-0.2,0.8,0.1,1,0.7C70.9,84,72.4,83.5,72.2,82.5z"/>
	<path class="st0" d="M68.8,75.9c-0.8-0.8-1.7-1-2.6-0.8c0-0.1,0-0.2,0-0.3c-0.4-3.5-4.8-4.3-6.9-1.6c-0.3,0.4,0.3,0.8,0.7,0.5
		c0.1-0.1,0.2-0.2,0.3-0.2c1.8-0.4,3.3,0.7,3.7,2.4c0,0.1,0.1,0.2,0.2,0.3c-0.3,0.2-0.5,0.5-0.8,0.7c-0.2,0.2,0.1,0.6,0.4,0.5
		c1.3-0.6,2.7-1.6,4-0.4C68.5,77.7,69.6,76.6,68.8,75.9z"/>
	<path class="st0" d="M80,47.2c-0.5-1.2-1.5-2.1-2.9-2.2c-1.5-0.1-2.1,0.7-3.1,1.6c-0.3,0.3,0.1,0.7,0.4,0.5
		c0.6-0.3,1.1-0.7,1.8-0.8c0.8-0.1,1.8,0.6,2.1,1.3C78.7,48.7,80.4,48.2,80,47.2z"/>
	<path class="st0" d="M95.4,54c-0.7-1.4-2.2-2.2-3.6-2.5c-0.1,0-0.2,0-0.3,0c0.2-2.1-0.9-4.1-3.1-4.6c-2.8-0.7-5.3,1.2-6.5,3.5
		c-0.2,0.4,0.3,0.8,0.6,0.5c1.2-1.5,2.8-2.4,4.7-2.3c2,0,2.2,1.7,2.7,3.1c-0.8,0.3-1.4,0.8-2,1.5c-0.2,0.3,0.2,0.7,0.5,0.5
		c2.5-1.7,4,0,6,1.3C95.1,55.4,95.7,54.6,95.4,54z"/>
	<path class="st0" d="M96.7,47c-1.4-0.5-2.7,0.7-3.1,2c-0.1,0.4,0.4,0.7,0.6,0.4c0.3-0.4,1.2-1.3,1.8-1C97.1,48.8,97.7,47.3,96.7,47
		z"/>
	<path class="st0" d="M134.2,74.8c-0.5-0.2-1.1-0.3-1.6-0.3c-1.5,0.2-3.2,1.1-3.9,2.5c-0.5-0.8-1.2-1.3-1.9-1.6
		c-1-0.7-2.2-1.2-3.6-0.8c-2.1,0.6-3.9,2-4.6,4.1c-0.2-0.1-0.4-0.2-0.6-0.2c-1.5-0.4-3,0.7-4,1.7c-0.3,0.3,0.1,0.7,0.4,0.5
		c0.9-0.5,1.7-0.8,2.7-0.9c1.1,0,1.3,0.9,1.6,1.7c0.3,0.9,1.7,0.6,1.5-0.4c-0.1-0.3-0.2-0.6-0.3-0.9c0,0,0.1,0,0.1-0.1
		c2.1-2,7.4-3.5,7.7,1c0,0.8,1,0.8,1.3,0.2c0.3-0.9,0.4-1.7,0.2-2.6c0.1-0.2,0.1-0.4,0-0.6c0-0.1-0.1-0.1-0.1-0.2
		c0.8-0.5,1.6-0.9,2.5-1.1c1.6-0.3,2.5,0.6,2.9,2c0.2,0.6,1.2,0.7,1.3,0C136.4,77.2,136,75.2,134.2,74.8z"/>
	<path class="st0" d="M117,67c-1.4-0.4-2.7,0.6-3.1,1.9c-0.1,0.4,0.4,0.5,0.6,0.2c0.6-0.8,1.6-1.1,2.5-0.6c0.7,0.4,0.9,1.2,1.1,1.9
		c0.3,1.1,1.8,0.6,1.7-0.5C119.4,68.5,118.5,67.4,117,67z"/>
	<path class="st0" d="M123.7,70.4c-0.6-1.1-1.9-1.1-2.9-0.6c-0.2,0.1-0.1,0.5,0.1,0.5c0.6,0,1.3,0.1,1.5,0.7
		C122.7,71.9,124.2,71.3,123.7,70.4z"/>
	<path class="st0" d="M110,65.4c-0.7-1.3-2.7-0.5-2.9,0.8c-0.1,0.5,0.6,0.7,0.8,0.2c0.3-0.8,1-0.4,1.6-0.2
		C109.8,66.3,110.2,65.8,110,65.4z"/>
	<path class="st0" d="M96.4,71.9c0-0.1,0.1-0.2,0.1-0.4c-0.2-1.6-0.8-2.9-2.4-3.3c-1.7-0.5-3.5,0.1-4.6,1.3
		c-0.2,0.2,0.1,0.6,0.4,0.5c0.9-0.5,1.8-0.7,2.7-0.5c0.4,0.1,0.8,0.3,1.1,0.5c0.8,0.7,0.6,1.6,0.6,2.4c-0.5,0.2-1,0.6-1.4,1
		c-0.3,0.3,0.1,0.7,0.4,0.5c1-0.6,2.2-0.8,3.3-0.6c1.2,0.3,1.7,1.3,2,2.4c0.3,0.8,1.6,0.8,1.6-0.2C100.2,73.1,98.3,71.9,96.4,71.9z"
		/>
	<path class="st0" d="M106.5,70.9c-1.3-1.5-3.5-1.2-4.5,0.4c-0.4,0.5,0.4,1.1,0.9,0.7c0.8-0.8,1.8-0.7,2.6,0.1
		C106.2,72.8,107.2,71.7,106.5,70.9z"/>
	<path class="st0" d="M98,62.2c-0.3-0.4-0.7-0.6-1.1-0.7c-0.5-0.1-0.9,0-1.4,0.1c-0.3,0-0.3,0.6,0,0.6c0.6,0.1,1.1,0.4,1.4,0.9
		C97.4,64,98.7,63,98,62.2z"/>
	<path class="st0" d="M91,61.4c-1.1-1.7-3.9-2.4-4.9-0.2c-0.1,0.3,0.2,0.6,0.5,0.3c1-1,2.5-0.5,3.2,0.6C90.2,62.9,91.5,62.2,91,61.4
		z"/>
	<path class="st0" d="M166,70.1c-0.4-1.5-1.3-2.5-2.9-2.7c-1.6-0.3-3.2,0.5-3.8,2.1c-0.2,0.5,0.5,0.7,0.8,0.3c0.7-1,1.8-1.2,2.9-0.9
		c0.8,0.2,1.2,0.9,1.5,1.7C164.9,71.5,166.3,71.1,166,70.1z"/>
	<path class="st0" d="M171,63.9c-2,0.1-4.6,1.6-4.5,3.8c0,0.3,0.5,0.4,0.6,0.1c0.1-0.5,0.3-0.9,0.6-1.2c1-0.5,2.2-1,3.3-0.5
		c0.9,0.4,1,1.8,1.2,2.6c0.2,0.7,1.1,0.7,1.4,0.2c0.4,0.2,1-0.1,1-0.6C174.6,65.9,173.6,63.7,171,63.9z"/>
	<path class="st0" d="M186.2,70.5C186.2,70.5,186.2,70.5,186.2,70.5c0.4-1.5-0.5-3.3-1.6-4.2c-1-0.9-2.5-1.1-3.7-0.7
		c-1.6,0.1-2.9,1.6-3.1,3.1c0,0.3,0.4,0.6,0.5,0.2c0.6-1.3,1.8-2.1,3.2-1.7c1.6,0.4,1.7,2.6,1.5,3.9c0,0.2,0,0.3,0.1,0.4
		c-0.2,0.2-0.4,0.4-0.6,0.6c-0.3,0.3,0.1,0.7,0.4,0.5c1.2-0.7,3.7-1.3,4.1,0.7c0.2,1.1,1.8,0.6,1.7-0.5
		C188.6,71.6,187.4,70.7,186.2,70.5z"/>
	<path class="st0" d="M180,74.6c-0.3-0.1-0.6-0.1-0.9-0.1c0.7-1.9-0.6-4-2.5-4.5c-1-0.2-2.6,0-3.4,0.6c-0.3,0.2-1.1,0.6-0.9,1.1
		c0,0.1,0.1,0.1,0.2,0.1c0,0,0,0,0,0c1.2-0.1,2.2-0.5,3.4-0.4c1.8,0.3,1.7,1.9,1.6,3.3c0,0,0,0.1,0,0.1c-0.5,0.2-0.9,0.5-1.2,1
		c-0.3,0.5,0.4,0.9,0.8,0.6c0.7-0.5,1.7-0.6,2.5-0.4c1,0.2,1.1,0.7,1.3,1.6c0.1,0.6,1,0.7,1.3,0.2C182.7,76.3,181.4,74.9,180,74.6z"
		/>
	<path class="st0" d="M145.7,76.9c-0.3-0.9-0.8-1.7-1.9-1.8c-0.8-0.1-1.6,0.5-2.2,0.8c-0.4,0.2-0.1,0.9,0.3,0.8
		c0.5-0.1,1-0.3,1.5-0.3c0.6,0,0.7,0.4,0.9,0.9C144.6,78.2,146.1,77.8,145.7,76.9z"/>
	<path class="st0" d="M138.8,61.6c-0.6-1.4-1.9-2-3.3-2c0.3-1.9-0.7-3.9-2.6-4.4c-2-0.5-4.7,0.3-5.1,2.5c0,0.2,0.2,0.4,0.4,0.2
		c0.9-1.6,2.8-1.6,4.3-1.2c1.4,0.4,1.3,2.1,1.5,3.3c-0.5,0.2-1,0.5-1.4,0.9c-0.4,0.4,0.1,1.2,0.7,0.9c1.2-0.8,3.3-1.1,4.1,0.4
		C137.8,63,139.2,62.4,138.8,61.6z"/>
	<path class="st0" d="M139.9,55.4c-0.5,0.1-0.4,0.8,0,0.9c0.6,0.2,1,0.5,1.2,1c0.3,0.8,1.4,0.2,1.3-0.5
		C142.2,55.7,141,55.2,139.9,55.4z"/>
	<path class="st0" d="M199.6,65.2C199.6,65.2,199.7,65.2,199.6,65.2c1.3-1.9,0.4-4.7-1.7-5.5c-2.2-0.9-4.6,0.7-5.4,2.7
		c-0.1,0.3,0.4,0.5,0.5,0.2c0.4-0.6,0.9-1,1.4-1.3c0,0,0.1,0,0.1,0c1-0.1,2-0.1,2.8,0.6c0.7,0.6,0.8,1.7,0.7,2.6
		c0,0.3,0.1,0.5,0.3,0.6c-0.9,0.1-1.9,0.4-2.6,1c-0.2,0.2,0.1,0.5,0.3,0.4c1.4-0.7,4.5-0.7,4.6,1.4c0,1,1.6,1,1.5,0
		C202.1,66.3,201,65.5,199.6,65.2z"/>
	<path class="st0" d="M209.7,65.8c-0.4-0.5-0.9-0.8-1.5-0.7c-0.6,0-1.1,0.4-1.6,0.7c-0.3,0.2-0.2,0.7,0.2,0.6c0.4,0,0.7-0.1,1.1-0.1
		c0.4,0,0.5,0.1,0.7,0.4C209.1,67.6,210.4,66.6,209.7,65.8z"/>
	<path class="st0" d="M151,60.9c-1.1,0.2-2.2,1-2.8,2c-0.2-0.1-0.5-0.3-0.7-0.4c-2.4-0.9-4.9,0.6-6.4,2.4c-0.4,0.4,0.2,1,0.6,0.6
		c1.3-1.1,2.6-1.7,4.4-1.6c1.8,0.1,2,1.5,2.1,2.9c0.1,0.8,1.2,1,1.5,0.2c0.5-1.3,0.1-2.6-0.7-3.5c0.5-0.5,1.1-0.9,1.8-1.1
		c1-0.3,1.4,0.3,1.8,1.1c0.4,0.8,1.6,0.2,1.4-0.6C153.7,61.4,152.5,60.6,151,60.9z"/>
	<path class="st0" d="M156,66.6c-1.2-0.8-2.4,0.2-2.8,1.3c-0.1,0.4,0.4,0.6,0.7,0.4c0.2-0.2,0.4-0.4,0.7-0.5c0.3-0.1,0.4,0,0.6,0.1
		C156,68.6,156.8,67.2,156,66.6z"/>
</g>
<g>
	<path class="st0" d="M345.2,49.1c-0.7-0.9-2-0.8-2.9-0.3c-0.4-3.7-2.8-5.7-6.7-5c-2.2,0.4-5.5,3.7-4.4,6.2c0,0.1,0,0.3,0,0.4
		c0,0.5,0.8,0.6,0.9,0.1c0,0,0,0,0,0c0.1-0.1,0.2-0.2,0.2-0.4c0-0.1,0-0.1,0-0.2c0.6-1.9,2.1-3.3,4.2-3.3c2.3-0.1,3.1,1.7,3.7,3.6
		c-0.4,0.5-0.7,1-1,1.6c-0.2,0.4,0.3,0.8,0.6,0.5c0.2-0.3,0.6-0.6,1-1c0,0,0,0,0.1,0c0.6-0.3,1.3-0.4,2-0.2c0.8,0.2,1,0.9,1.3,1.5
		c0.2,0.4,0.5,0.4,0.8,0.2c0.3,0.1,0.6,0,0.7-0.3C346.1,51.2,345.9,50.1,345.2,49.1z"/>
	<path class="st0" d="M335.6,55.5c-0.3-1.5-1.6-2-2.8-1.9c0-0.8-0.7-1.8-1.2-2.2c-0.3-0.3-0.7-0.5-1-0.6c-0.4-0.3-0.9-0.5-1.5-0.5
		c-1.5-0.2-2.6,0.9-3.5,2c-0.2,0.2-0.5,0.4-0.7,0.6c-0.2,0.2,0.1,0.7,0.4,0.5c0.9-0.5,1.9-0.8,2.9-0.6c1.3,0.2,1.3,1.3,1.9,2.2
		c-0.4,0.4-0.6,0.9-0.7,1.4c-0.1,0.4,0.5,0.8,0.8,0.3c0.5-1.1,3.2-2.3,3.7-0.7C334.4,57,335.9,56.6,335.6,55.5z"/>
	<path class="st0" d="M325.4,54.8c-1.1-2.2-4.2-1.6-4.7,0.6c-0.1,0.4,0.5,0.7,0.7,0.3c0.6-1.1,2.1-1.4,2.6-0.1
		C324.4,56.6,325.9,55.7,325.4,54.8z"/>
	<path class="st0" d="M333.9,60.1c-0.2,0.4,0.2,0.9,0.6,0.6c1.4-1,4.1-2.1,4.9,0.2c0.4,1,1.8,0.6,1.7-0.5
		C340.4,56.7,335.4,57.5,333.9,60.1z"/>
	<path class="st0" d="M326.9,62.8c-0.6,0-1.1,0-1.6,0.1c-0.2-1.1-0.8-2.2-1.8-2.7c-0.5-0.3-1-0.3-1.6-0.2c0,0-0.1,0-0.1,0
		c-1.7-0.6-2.8,1-3.3,2.4c-0.2,0.5,0.5,0.7,0.8,0.3c0.5-0.6,1.2-1.5,2-1.1c0.8,0.4,1,1.4,1,2.1c0,0.4,0.2,0.6,0.5,0.8
		c-0.3,0.2-0.5,0.5-0.8,0.8c-0.1,0-0.1,0-0.2-0.1c-1-0.2-1.9,0.3-2.3,1.1c-0.1,0.2,0.1,0.4,0.3,0.3c1-0.7,2.3-0.5,2.7,0.8
		c0.2,0.6,1.1,0.5,1-0.1c-0.1-0.7-0.3-1.3-0.8-1.6c0.8-0.5,1.6-1,2.6-1.2c1.6-0.4,2.9,0.4,3.2,2c0.2,0.9,1.6,0.7,1.6-0.2
		C329.9,64.3,328.8,63,326.9,62.8z"/>
	<path class="st0" d="M313.1,60.8c-1.5-0.6-3.3,0.5-3.9,1.8c-0.2,0.4,0.4,1,0.7,0.6c0.6-0.8,1.5-1.1,2.5-0.9
		c0.9,0.2,1.3,1.4,1.3,2.2c0,1.1,1.7,1.1,1.8,0C315.5,62.9,314.6,61.4,313.1,60.8z"/>
	<path class="st0" d="M319.1,42c0-0.1,0-0.1,0-0.2c0-2.3-1.6-3.6-3.9-3.3c-2.1,0.2-3.6,1.5-4.2,3.5c-0.1,0.4,0.5,0.7,0.7,0.3
		c0.6-1.3,1.5-2,2.9-2.3c0.1,0,0.2,0,0.2,0c0.6,0,1.1,0.2,1.6,0.6c0.8,0.6,1,1.7,1.4,2.6c0.3,0.6,1.4,0.3,1.4-0.4
		C319.2,42.5,319.1,42.2,319.1,42z"/>
	<path class="st0" d="M308.4,43.1c-0.6-0.2-1.2,0.1-1.6,0.5c-0.2,0.3,0,0.8,0.4,0.7c0.5-0.2,0.8-0.1,1,0.4c0.2,0.5,0.8,0.5,1,0
		C309.4,44,309.1,43.4,308.4,43.1z"/>
	<path class="st0" d="M306.9,52.4c-0.6-1.6-2-2.6-3.5-2.8c0-0.1,0-0.1,0-0.2c-0.1-1.4-0.5-3-1.9-3.6c-1.7-0.6-3.2,0.3-4,1.7
		c-0.3,0.5,0.4,1,0.8,0.6c0.7-0.8,1.6-1.4,2.6-0.8c0.7,0.3,0.8,1.4,0.8,2.1c0,0.1,0.1,0.3,0.1,0.4c-0.9,0.3-1.6,0.9-2.1,1.9
		c-0.2,0.3,0.3,0.7,0.5,0.4c1.5-1.5,4.2-1.3,5,0.8C305.6,54,307.3,53.5,306.9,52.4z"/>
	<path class="st0" d="M315.6,53c-0.5-0.9-1.3-1.3-2.3-1.2c-0.9,0.1-1.6,0.9-2,1.6c-0.2,0.3,0.2,0.7,0.5,0.5c0.4-0.3,0.8-0.5,1.3-0.7
		c0.6-0.2,0.9,0,1.2,0.5C314.9,54.5,316,53.8,315.6,53z"/>
	<path class="st0" d="M292,50.1c-0.8-0.8-2.9-1.4-3.3,0.1c-0.1,0.2,0.2,0.5,0.5,0.4c0.6-0.4,1.5,0,2,0.4
		C291.7,51.5,292.6,50.7,292,50.1z"/>
	<path class="st0" d="M302.5,60.3c-0.7-3.4-5.3-4.6-6.7-1c-0.1,0.2,0.3,0.5,0.4,0.3c1.6-2.1,4.1-1.1,4.8,1.2
		C301.4,61.6,302.7,61.3,302.5,60.3z"/>
	<path class="st0" d="M374.7,68.1c-0.4-1.8-1.4-3.3-3.3-3.4c-1.2-0.1-2.4,0.1-3.4,0.6c-0.3-4.3-7.9-5-9.8-1.3
		c-0.2,0.3,0.3,0.7,0.5,0.4c0.4-0.5,1-0.8,1.6-1c1.2-0.1,2.3,0.1,3.3,0.7c1.3,0.8,1.5,2,1.4,3.4c-0.9,0-1.7,0.3-2.5,0.8
		c-0.5,0.3-0.2,1,0.4,0.9c1.3-0.4,3-0.7,3.4,1c0.2,1.1,1.8,0.6,1.6-0.4c-0.2-1-0.7-1.7-1.4-2c0,0,0,0,0,0c0,0,0-0.1,0-0.1
		c1.2-0.9,2.5-1.3,4.1-1.2c1.5,0,2,1,2.5,2.3C373.5,69.6,374.9,69.2,374.7,68.1z"/>
	<path class="st0" d="M354.8,62c-0.9-1.6-3.1-1.2-3.8,0.3c-0.3,0.5,0.4,1.1,0.8,0.7c0.5-0.6,1.3-0.7,1.9,0
		C354.2,63.5,355.1,62.7,354.8,62z"/>
	<path class="st0" d="M350.5,55.4c-0.4,0.4,0.1,0.9,0.6,0.7c0.6-0.3,1.3-0.6,2-0.7c0.8-0.2,1.4,0,1.5,0.8c0.2,1,1.7,0.6,1.5-0.4
		C355.7,52.7,352.1,54.1,350.5,55.4z"/>
	<path class="st0" d="M351.7,43.8c-0.4-0.7-1-1.3-1.9-1.4c-0.9-0.1-1.6,0.3-2.2,0.8c-0.3,0.3,0.1,0.6,0.4,0.5c1-0.5,2-0.3,2.5,0.7
		C351,45.2,352.2,44.5,351.7,43.8z"/>
	<path class="st0" d="M362.5,46.3c-0.8-3.2-4.3-3.6-6.5-1.5c-0.3,0.3,0.1,0.9,0.5,0.7c1.7-0.9,3.8-0.8,4.3,1.3
		C361.1,47.8,362.8,47.4,362.5,46.3z"/>
	<path class="st0" d="M378,45.6c-0.4-1.2-1.1-2.2-2.4-2.4c-0.1,0-0.2,0-0.3,0c0.1-0.1,0.2-0.3,0.2-0.5c0-1.6-0.9-3.7-2.7-3.7
		c-1.9-0.1-3.8,1.1-4.1,3c-0.1,0.3,0.4,0.5,0.5,0.2c0.6-1.1,1.8-1.6,3-1.6c1.1,0,1.5,1.2,1.5,2.1c0,0.3,0.2,0.5,0.3,0.7
		c-0.7,0.2-1.4,0.7-1.8,1.3c-0.2,0.4,0.3,0.7,0.6,0.5c0.7-0.6,1.5-0.6,2.3-0.4c0.6,0.2,1,0.9,1.2,1.4
		C376.8,47.1,378.4,46.7,378,45.6z"/>
	<path class="st0" d="M392.8,61.5c-0.3-1.3-1.1-1.9-2-2.1c1-1.9,1.2-4.5-0.4-6.1c-1.7-1.8-3.7-1.8-5.8-1.1c-1.2,0.1-2.4,0.8-2.6,1.8
		c-0.1,0.4,0.4,0.6,0.7,0.3c0.7-1,2.2-0.9,3.2-0.7c1.6,0.5,2.8,2.2,2.5,3.8c-0.1,0.7,0.5,1.1,1,1c-0.1,0.1-0.1,0.3-0.2,0.4
		c-0.1,0.2-0.1,0.3-0.1,0.5c-1,0.2-2,0.6-2.8,1c-0.3,0.2-0.1,0.8,0.3,0.7c0.9-0.3,1.7-0.5,2.7-0.5c1.1,0,1.7,0.7,2.3,1.5
		C392,62.6,392.9,62.2,392.8,61.5z"/>
	<path class="st0" d="M398.9,58.6c-0.4-0.9-0.9-1.6-2-1.6c-0.7,0-1.8,0.4-2,1.1c-0.1,0.2,0.1,0.3,0.2,0.4c0.4,0.1,1-0.1,1.4-0.1
		c0.5,0,0.8,0.5,1,0.9C398,59.9,399.3,59.3,398.9,58.6z"/>
	<path class="st0" d="M369.4,49.2c-1.4-0.4-3.6,0.5-4.2,1.9c-0.1,0.1,0.1,0.4,0.2,0.2c0.9-0.7,2.1-1.1,3.3-0.9
		c1.2,0.2,1.5,1.7,1.6,2.7c0.1,0.8,1.3,0.6,1.3-0.2C371.7,51.3,371.1,49.7,369.4,49.2z"/>
	<path class="st0" d="M376.2,49.6c-1.2-0.4-2.2,0.1-2.9,1.1c-0.4,0.5,0.2,1.1,0.6,0.6c0.5-0.5,1.1-0.8,1.8-0.5
		C376.5,51.2,377.1,49.9,376.2,49.6z"/>
	<path class="st0" d="M363.4,28.1c-1-1.3-2.6-1.9-4.2-1.6c-1.7,0.2-2.7,1.5-3.6,2.8c-0.3,0.4,0.4,0.9,0.7,0.5
		c0.8-0.9,1.6-1.7,2.9-1.9c1.2-0.2,2.3,0.4,3,1.3C362.9,30.1,364.1,28.9,363.4,28.1z"/>
	<path class="st0" d="M358,36c-1.1-1.1-2.3-1.5-3.4-1.2c0.1-0.1,0.1-0.3,0.1-0.5c-0.7-3-3.8-3.4-6-1.8c-0.5,0.3-0.1,1,0.4,0.8
		c1.7-0.8,3.5-0.6,4.1,1.4c0.1,0.2,0.2,0.4,0.4,0.5c-0.8,0.4-1.5,0.9-2.2,1.7c-0.2,0.2,0,0.5,0.3,0.3c1.8-1.2,3.6-1.8,5.4-0.1
		C357.6,37.6,358.6,36.7,358,36z"/>
	<path class="st0" d="M346.4,34.5c-0.7-1-2.8-0.7-3.7,0c-0.8,0.6,0.3,1.7,1.1,1.1c0.5-0.4,1.4-0.4,1.8,0.1c0.3,0.5,1,0.3,1.1-0.3
		c0-0.1,0-0.1,0.1-0.2C346.9,34.9,346.7,34.5,346.4,34.5z"/>
	<path class="st0" d="M381.1,17.6c-1.5-0.9-3.5-0.4-4.7,0.6c-1.5,1.2-2,2.6-1.9,4.4c0,0.4,0.6,0.4,0.6,0c0.4-2.8,2.6-4.6,5.4-3.7
		C381.4,19.2,381.8,18.1,381.1,17.6z"/>
	<path class="st0" d="M396.5,24.9c-1.3-0.5-2.6-0.1-3.7,0.7c-0.7-1.6-1.5-2.9-3.5-3.3c-1.6-0.3-3,0.7-3.9,1.9
		c-0.2,0.3,0.2,0.6,0.5,0.4c1.2-0.9,2.5-1.2,3.9-0.6c1.3,0.6,1.5,2.2,2.1,3.3c0.2,0.4,0.9,0.5,1.3,0.2c1.1-1.1,2-1.1,3.4-1.4
		C397.1,26,397,25.1,396.5,24.9z"/>
	<path class="st0" d="M395.8,11.8c-2.5-2.1-5.4,0.6-6,3.1c-0.1,0.4,0.5,0.7,0.7,0.3c0.7-1.6,2.5-3.2,4.2-2.2
		C395.6,13.6,396.5,12.5,395.8,11.8z"/>
	<path class="st0" d="M374.7,57.7c-0.2,0.3,0.3,0.7,0.5,0.4c0.8-0.9,1.8-1.3,3-1.4c1.4-0.1,2,0.8,2.2,2c0.1,0.8,1.5,0.6,1.4-0.2
		C381.6,54.2,376.5,54.6,374.7,57.7z"/>
	<path class="st0" d="M382.8,60.9c-0.9-1-2.2-0.7-3,0.2c-0.2,0.3,0.1,0.6,0.4,0.5c0.6-0.3,1.3-0.4,1.8,0.1
		C382.5,62.3,383.3,61.5,382.8,60.9z"/>
	<path class="st0" d="M383.1,28.8c-1.4-2-3.8-1.5-5.6-0.2c-0.4,0.3-0.1,0.8,0.4,0.6c1.3-0.6,3.1-1.1,4.1,0.3
		C382.4,30.2,383.6,29.5,383.1,28.8z"/>
	<path class="st0" d="M371.1,26.4c-1.2,0-1.9,0.7-2,1.8c0,0.5,0.8,0.6,0.9,0.1c0.2-0.6,0.5-0.7,1-0.7C372,27.6,372,26.4,371.1,26.4z
		"/>
	<path class="st0" d="M407.8,47.6c-1-0.4-1.8-0.3-2.6,0.2c-0.2-1-0.8-1.9-1.8-2.5c-1.3-0.7-2.7-0.3-3.9,0.4
		c-0.4,0.3-0.1,0.9,0.4,0.7c0.9-0.4,1.9-0.5,2.8,0c0.8,0.5,1.1,1.4,1.4,2.2c0,0.1,0.1,0.1,0.1,0.2c-0.1,0.4,0.5,0.8,0.9,0.5
		c0.7-0.6,1.4-0.9,2.3-0.5C408.1,49.1,408.6,47.9,407.8,47.6z"/>
</g>
<g class="st1">
	<g>
		<g>
			<path class="st2" d="M93.6,25c0.7-0.1,2.1-0.1,2.2,0.4C95.3,25.5,93.9,25.4,93.6,25z"/>
			<path class="st2" d="M102.2,37.9c-1.5-0.1-1.6,1.6-1.2,2.5c-0.8-0.1-1-0.8-1-1.2c0-0.2,0.4-1.2,0.4-1.3c0.3-0.5,0.9-0.6,1.2-0.9
				c0.8-0.7-0.2-2.9-0.7-3.2c-0.7-0.5-1.7,0-2.3-0.7c0-0.7,0.4-1.1,0.4-1.7c0-0.3-0.3-1.1-0.3-1.2c0-0.2,0.2-0.2,0.1-0.4
				c0,0-0.3-0.2-0.3-0.3c-0.1-0.2,0.1-0.5,0-0.7c0-0.1-0.3-0.2-0.3-0.3c-0.1-0.2,0-0.4-0.1-0.6c-0.4-0.6-1.2-0.9-1.5-1.5
				c0.2,0,0.2-0.2,0.4-0.1c0.4,0.2,0.4,0.5,0.7,0.7c0.2,0.1,0.7,0.1,0.7,0.1c0.1,0.1,0.6,1.1,0.6,1.2c0.2,0.6,0.1,1.5,0.3,2.2
				c0.2,0.7,0.5,0.7,0.3,1.2c-0.2,0.3-0.3,1.1-0.1,1.3c0.4,0.5,1.4,0,1.9,0.1c0.1,0.1,0.7,0.6,0.7,0.7c0.3,0.4,0.4,0.8,0.6,1.3
				c0.4,1.1,0.2,1.1-0.1,1.9C102.4,37.4,102.3,37.7,102.2,37.9z"/>
			<path class="st2" d="M83.8,30.2c-0.6-0.3-1.4,0.1-1.7-0.7c0.6-0.1,1.2-0.2,1.7,0c0.1,0,0.4,0.5,0.6,0.6c0.3,0.2,0.5,0.3,0.9,0.3
				c-0.1,0.9,0.7,0.9,0.7,1.6C85,31.8,84.7,30.6,83.8,30.2z"/>
			<path class="st2" d="M80.2,30.1c-0.2,0.5-0.6,0.7-1.3,0.7c-0.2-0.6,0.7-0.6,1-0.7c0,0,0-0.3,0-0.3c0.4-0.1,1-0.1,1.5-0.1
				C81.2,30.3,80.8,30.1,80.2,30.1z"/>
			<path class="st2" d="M78.2,35.9c-1.3-0.3-1.6-0.2-2.5,0.3c-0.4,0.2-0.8,0.5-1,0.7c-0.4,0.5-0.5,1.2-0.7,1.7
				c-0.4,0-0.7-0.4-0.7-0.6c0-0.1,0.4-1.2,0.4-1.3c0.1-0.2,0.8-0.6,1-0.7c0.3-0.2,0.5-0.3,0.7-0.4c0.3-0.2,0.5-0.3,0.7-0.4
				c0.1-0.1,0.2-0.3,0.3-0.3c0.3-0.1,0.8,0.3,0.7-0.1c-0.3-0.5-0.1-0.8-0.1-1.3c0-0.3-0.2-0.6-0.1-0.7c0-0.2,0.3-0.1,0.4-0.4
				c0.1-0.2,0.1-0.6,0.1-0.7c0,0,0.2,0,0.3,0c0.2-0.1,0.3-0.6,0.6-0.6c-0.1,0.6-0.4,0.9-0.6,1.2c-0.2,0.5-0.1,0.2,0.1,0.4
				c0.2,0.2-0.1,1,0,1.3C78,34.6,78.9,35.4,78.2,35.9z"/>
			<path class="st2" d="M135.3,39.8c-0.2-0.3-0.6-0.5-0.7-0.7c-0.6-0.9-2-0.4-3.1-0.4c0-0.4,0.6-0.5,0-0.7c-1.2,0.4-2.6,0.8-3.1,1.9
				c-0.1,0.2,0.1,0.6,0,1c-0.1,0.5-0.6,1.1-0.6,1.5c0,0.4,0.6,0.8,0.1,1.2c-0.4,0.2-0.7-0.2-0.9-0.4c-0.1-0.1-0.2-0.4-0.3-0.6
				c-0.4-0.7-1.1-1.4-2-1.5c-0.5,0-0.9,0.6-1.6,0.1c0-0.6,0.7-0.5,1.2-0.7c0.4-0.2,1-0.8,1.3-0.7c0.8,0.1,0.8,1.4,1.7,1.3
				c0.3-1.1,0.5-2,1.3-2.5c0.1-0.1,0.2-0.2,0.3-0.3c0.2-0.2,0.7-0.1,1-0.3c0.1,0,0.2-0.2,0.3-0.3c0.7-0.4,2.3-0.5,3.2-0.3
				c0.1,0,0.2-0.1,0.3-0.1c0.1,0,0.7,0.3,0.7,0.3c0.3,0.2,0.7,0.8,1,1.2c0.6,0.7,1.2,1.2,0.7,2.2C135.8,40.7,135.6,40.2,135.3,39.8z
				"/>
			<path class="st2" d="M109.3,42.8c-0.6-0.9-1.5-1.4-2.3-1.9c-0.3-0.2-0.8-0.3-0.9-0.7c0.3-0.9,0.7-0.2,1.3,0
				c0.2,0.1,0.6,0.1,0.7,0.1c0.2,0.1,0.5,0.5,0.7,0.7c0.4,0.4,0.7,0.7,0.7,0.7C109.7,42.1,109.8,42.8,109.3,42.8z"/>
			<path class="st2" d="M142.6,41.5c-1.2-0.4-2.2,0.3-3.3,0.1c0.3-0.8,1.4-1.3,2.2-1.3c0.9-0.1,1.8,0.4,2.3,0.7
				c0.3,0.2,0.6,0.3,0.7,0.4c0.2,0.2,0.1,0.6,0.3,0.9c0.2,0.3,0.5,0.4,0.6,0.6c0.1,0.3,0.2,0.9,0.3,1.3c0.1,0.5,0.2,0.9,0,1.3
				c-0.6-0.2-0.5-0.9-0.7-1.3C144.4,43.1,143.8,42,142.6,41.5z"/>
			<path class="st2" d="M101.3,43.9c-0.1-0.1-0.4-0.2-0.6-0.3c-0.1-0.1-0.1-0.2-0.1-0.3c-0.1-0.1-0.3-0.1-0.4-0.1
				c-0.4-0.3-0.6-0.6-1-0.9c0-0.2,0-0.3,0.3-0.3c1,0.4,1.7,1.4,2.3,1.9c0.3,0.2,0.6,0.2,0.9,0.4c0.2,0.2,0.2,0.6,0.4,0.9
				c0,0,0.3,0.1,0.3,0.1c0.3,0.2,0.8,0.5,0.6,0.9c-0.7,0.2-0.9-0.7-1.3-1c-0.1-0.1-0.3-0.1-0.4-0.1
				C101.6,44.7,101.6,44.2,101.3,43.9z"/>
			<path class="st2" d="M62.7,44.7c-0.5-0.6-1.5-1.3-2.3-0.9c-0.4,0.2-0.8,0.4-1.3,0.6c-0.3-0.4,0.2-0.4,0.4-0.6
				c0.5-0.4,0.6-0.6,1.3-0.7c1.3-0.3,2.1,0.4,2.5,1.2c0.2,0.5,0.5,0.9,0.1,1.3C63,45.6,63,45,62.7,44.7z"/>
			<path class="st2" d="M58.2,45.9C58.2,46,57.9,46,57.8,46c-0.4,0.4,0.2,0.8,0,1.3c-0.1,0.3-0.3,0.3-0.7,0.3
				c-0.2-1.3,0.8-2.4,1.5-3.3c0.1,0,0.3,0,0.4,0c0.1,0.4-0.4,0.7-0.6,1C58.3,45.5,58.3,45.8,58.2,45.9z"/>
			<path class="st2" d="M104.6,48.2c0.5-0.4,0.7-0.5,1.2-0.7c0.7-0.3,1.8-0.5,2.5-0.3c0.2,0.1,0.2,0.3,0.3,0.4
				c0.2,0.2,0.5,0.2,0.6,0.3c0.3,0.3,0.4,0.7,0.9,0.7c0.4-1.1,0.5-1.8,0.9-2.6c0.4-0.8,0.4-0.8,1.2-1.2c0.2-0.1,0.5-0.4,0.6-0.4
				c0.2,0,0.5,0.2,0.9,0.1c0.8,0,2.3-0.2,2.9,0c0.2,0.1,1.3,1,1.5,1.2c0.6,1,0.3,2.7,1.5,2.8c0.5,0,0.5-0.6,0.9-0.9
				c0,0,0.4-0.2,0.6-0.3c0.5-0.3,0.6-0.3,1-0.4c0.1,0,0.2-0.3,0.3-0.3c0.6-0.2,1.2-0.1,1.6,0c1,0.4,1.7,1.2,1.5,2.5
				c0,0.2-0.2,0.7-0.6,0.7c-0.1-1.6-0.3-2.3-1.6-2.5c-1-0.2-1.1,0.2-1.9,0.6c-0.4,0.2-1,0.3-1.2,0.4c0,0-0.1,0.4-0.1,0.4
				c-0.2,0.3-0.9,0.8-1,0.7c-0.7-0.8-1.2-1.6-1.6-2.5c-0.2-0.3-0.2-0.8-0.4-1c-0.1-0.1-1.1-0.6-1.2-0.6c-0.8-0.2-3.2-0.1-3.6,0.1
				c-0.3,0.2-0.9,1.8-1,2.2c-0.1,0.4,0.2,0.7,0.1,1c0,0.3-0.2,0.5-0.6,0.7c-0.8,0.4-1.7-1-2.3-1.3c-0.4-0.2-1.1-0.3-1.5-0.3
				c-0.4,0-1.7,0.7-1.7,0.7c-0.4,0.3-0.2,1.4-1.2,1.5C103.7,49.1,104,48.7,104.6,48.2z"/>
			<path class="st2" d="M132.4,45.6c-0.7-0.4-2.2-0.5-3.1-0.3c-0.8,0.2-1.2,0.8-1.7,1c-0.1-0.8,1-1.6,2.2-1.7c1-0.1,2.6-0.2,3.2,0.1
				c0.4,0.2,0.6,0.7,0.7,1.2c0.1,0.2,0.3,0.1,0.3,0.4c0,0.3,0,0.5-0.1,0.6C132.9,47,133.2,46,132.4,45.6z"/>
			<path class="st2" d="M71.8,48.4c-0.4,0.1-0.9-0.5-1.6-0.7c-0.6-0.2-1.5-0.1-1.7,0.1c-0.1,0.1-0.3,0.2-0.4,0.3
				c-0.1,0.1-0.2,0.1-0.3,0.1c-0.2,0.2-0.2,0.9-1,0.9c-0.2-1.2,1.1-1.3,1.6-1.7c0.2-0.2,0.2-0.2,0.4-0.3c0.8-0.5,1-0.3,1.7-0.1
				c0.5,0.1,1.1,0.2,1.6,0.3c0.4-0.1-0.2-1.1,0.4-1c0.1,0.6,0.5,1,0.1,1.3C72.2,47.8,72.2,48.3,71.8,48.4z"/>
			<path class="st2" d="M57.2,48.8c0.2,0.2,0.5,0.4,0.4,0.9c-0.2,0-0.2,0.3-0.3,0.4c-0.8-0.1-1.2-0.7-2-0.7c-0.3,0-0.7,0.2-1.2,0.4
				c-0.3,0.1-1,0.3-1.2,0.4c-0.2,0.2-0.1,0.8-0.4,0.7c-0.9-1.1,1-1.5,1.7-1.9c0.3-0.2,0.6-0.5,0.9-0.6c0.4-0.1,0.9,0.1,1.3,0
				c0.5-0.1,0.5-0.4,0.9-0.6C57.5,48.4,57.1,48.4,57.2,48.8z"/>
			<path class="st2" d="M100,50.3c-0.3-0.2-0.1-1-0.6-1c-0.6-0.1-0.5,0.5-1.2,0.3c-0.3-0.5,0.7-0.8,0.9-0.9c0.1,0,0.2-0.3,0.3-0.3
				c0.4,0,0.9,0.2,1,0.4C100.5,49.1,100.6,50.1,100,50.3z"/>
			<path class="st2" d="M36.3,55.2c0.1-0.2,0.5-0.4,0.7-0.6c0.3-0.2,0.5-0.5,0.7-0.6c0,0,0.4,0,0.6,0c0.2,0,0.6-0.1,0.7-0.1
				c0.2,0,0.8,0.3,0.7,0.3c0.1,0,0.1-0.2,0.3-0.1c0.2,0.1,0.6,0.3,0.9,0.4c0.8,0.4,0.8,0.5,1,0.9c0,0,0.1,0.1,0.1,0.1
				c0.4,0.4,0.1,0.8,0.7,0.7c0.1-0.8,0.1-1.8,0.3-2.2c0.2-0.4,0.4-1.4,0.6-1.6c0.2-0.3,0.9-0.3,1.3-0.6c0.4-0.3,0.7-0.8,1.2-1
				c0.5-0.3,1.3-0.6,1.7-0.6c0.7,0,1,0.1,1.3,0.3c0.4,0.2,1.6,0.5,1.7,0.6c0.3,0.2,0.9,1.1,1.2,1.5c0.1,0.2,0.4,0.4,0.4,0.4
				c0.1,0.2-0.1,0.4,0,0.6c0.1,0.3,0.6,0.9,0.1,1.3c-0.4,0.1-0.3-0.4-0.4-0.6c-0.1-0.2-0.3-0.4-0.4-0.6c-0.5-0.7-1-1.4-1.6-1.7
				c-0.4-0.2-0.7-0.3-1.2-0.4c-0.5-0.2-0.9-0.4-1.3-0.4c-1.4-0.2-1.4,0.6-2.2,1.2c-0.4,0.3-0.9,0.3-1.2,0.6c-0.2,0.2,0,0.5-0.1,1
				c-0.1,0.3-0.4,0.5-0.4,0.7c-0.1,0.5-0.2,1.2-0.3,1.6c-0.2,0.6-0.1,1-0.6,1.2c-0.3,0.1-0.9-0.1-1.2-0.3c-0.1-0.1-0.1-0.3-0.1-0.4
				c-0.1-0.1-0.3-0.2-0.4-0.3c-0.1-0.1-0.1-0.3-0.1-0.4c-0.1-0.1-0.3-0.2-0.4-0.3c-0.1-0.1-0.4-0.2-0.6-0.3
				c-0.7-0.4-0.8-0.1-1.5-0.1c-0.4,0-0.7-0.2-0.9-0.1c-0.3,0.1-0.7,0.6-0.7,0.7c-0.3,0.5-0.4,1.3-1.5,1.2c0-0.5,0.5-0.9,0.6-1.2
				C36.2,55.6,36.1,55.4,36.3,55.2z"/>
			<path class="st2" d="M142.3,54.5c0,0,0-0.2,0-0.3c-0.1-0.2-0.6-0.4-0.7-0.4c-0.3-0.1-0.5,0.2-0.9,0.1c0,0-0.2-0.3-0.3-0.3
				c-0.2-0.1-0.5,0.1-0.6-0.1c1-0.3,2.1-0.3,2.6,0c0.6,0.4,1,0.7,1.5,1.2c0.4,0.4,0.8,0.8,0.6,1.3c-0.7,0.2-0.8-0.8-1.3-1.2
				C143,54.6,142.6,54.7,142.3,54.5z"/>
			<path class="st2" d="M122.1,54.5c-0.2-0.5,0.4-0.6,0.7-0.7c0.7-0.4,1.4-0.6,2.3-0.4c0.3,0.4,0.4,0.8,0.4,1.5
				c0.5-0.1,0.8,1.2,1.5,1.2c0.3,0,0.4-0.3,0.6-0.6c0.3-0.4,0.5-0.8,0.9-1c0.2-0.2,0.3-0.3,0.4-0.4c0.6-0.5,2.9-0.3,3.5-0.1
				c0.2,0.1,0.6,0,0.9,0.1c0,0,0.1,0.3,0.1,0.3c0.1,0.1,0.3,0,0.4,0.1c0.7,0.4,0.9,0.8,1.5,1.3c0.3-0.3,0.5-0.8,1.2-0.9
				c0.2,0.7-0.6,0.9-0.9,1.3c-0.3,0.4-0.3,1.1-1,1.2c0-1.5-1.2-2.2-2.5-2.5c-0.7-0.1-2.1-0.3-2.8-0.1c0,0-0.2,0.3-0.3,0.3
				c-0.1,0.1-0.3,0.1-0.4,0.1c-0.4,0.3-0.5,0.8-0.9,1.2c-0.2,0.2-0.4,0.2-0.6,0.4c-0.2,0.2-0.2,0.6-0.6,0.6c-0.4-0.4-0.5-0.9-1-1.2
				c-0.3-0.2-0.6-0.1-0.9-0.3c0.1-0.6,0.4-0.7,0.1-1.2C124.3,53.7,122.9,54.8,122.1,54.5z"/>
			<path class="st2" d="M65.6,53.3c0.7-0.1,1,0.2,1.2,0.6C66.2,53.9,65.7,53.9,65.6,53.3z"/>
			<path class="st2" d="M137.1,54.5c-0.1-0.5,0.7-0.5,0.9-0.3C138.1,54.7,137.4,54.4,137.1,54.5z"/>
			<path class="st2" d="M73.2,55.8c0.2,0.1,0.4,0,0.6,0.1c0.2,0.2,0.3,0.6,0.4,0.7c0.4,0.5,1,0.5,1.7,0.3c0.4-0.1,0.8-0.4,1.2-0.6
				c0.2-0.1,0.5-0.1,0.7-0.1c0,0,0.1-0.3,0.1-0.3c0.4-0.2,0.8,0.2,1,0.3c0.2,0.1,0.6,0.1,0.4,0.6c-1.2-0.3-2.6-0.1-3.1,0.9
				c-0.5,0-0.6-0.2-1,0C74.9,58,75.1,59,74.2,59c-0.6-0.2-0.1-0.6-0.3-1c-0.1-0.2-0.4-0.5-0.6-0.7c-0.2-0.3-0.3-0.6-0.6-0.7
				c-1-0.6-1.8-0.2-2.5,0.3c-0.6,0.5-0.9,0.9-0.7,1.9c-0.4,0.2-0.6-0.4-0.7,0c0.1,0.8,0.7,1,0.6,1.9c-1-0.4-1.4-0.8-1.5-1.6
				c0-0.2,0.2-0.6,0.3-1c0-0.4-0.1-0.7,0-0.9c0.1-0.2,0.2,0.1,0.6-0.3c0.2-0.2,0.2-0.5,0.3-0.6c0,0,0.2,0,0.3,0c0,0,0.1-0.3,0.1-0.3
				c0.1-0.1,0.4-0.1,0.4-0.1c0.4-0.2,1.3-0.5,1.6-0.4c0.5,0.2,1,0.1,1.3,0.1C73,55.5,73.1,55.8,73.2,55.8z"/>
			<path class="st2" d="M29.6,55.9c0.2-1.3,2.5-0.2,1.7,0.9C30.4,56.9,30.4,56,29.6,55.9z"/>
			<path class="st2" d="M62.6,56.5c-0.6,0.5-1-0.4-1.6-0.4C61.4,55.1,62.4,55.7,62.6,56.5z"/>
			<path class="st2" d="M23.8,56.4c-0.1-0.7,0.7-0.3,1-0.4c0.3-0.1,0.4-0.6,0.7-0.4c0,0.2,0.2,0.3,0.1,0.6
				C25.2,56.3,24.3,56.7,23.8,56.4z"/>
			<path class="st2" d="M114.2,56.7c0.1-0.6,1.3-0.9,1.9-0.6c-0.1,0.4-0.2,0.7-0.4,1C115,57.1,114.9,56.6,114.2,56.7z"/>
			<path class="st2" d="M82.5,61.2c-0.1,0.2-0.4,0.7-0.7,0.6c-0.4-0.6-0.1-1.3-0.3-2c-0.1-0.5-0.3-1.2-0.6-1.6
				c-0.3-0.5-1.3-0.7-1-1.3c0.5-0.4,0.7,0.1,0.9,0.3c0.1,0.1,0.3,0,0.4,0.1c0.1,0.1,0.2,0.3,0.3,0.4c0.8,0.7,0.6,0.4,0.9,1.5
				C82.5,59.8,82.7,60.6,82.5,61.2z"/>
			<path class="st2" d="M91,60.7c-0.2-0.4,0-0.9-0.1-1.3c-0.1-0.2-0.5-0.5-0.7-0.6c-0.3-0.1-1,0.1-1.6,0.1c-0.8,0.1-1.2,0-1.7,0.1
				c-0.1,0-0.6,0.5-0.6,0c0.3-0.4,0.8-0.1,1.2-0.3c0.2-0.1,0-0.3,0.3-0.4c-0.1,0,0.1,0.1,0.1,0.1c0.6,0.2,0.8-0.4,1-0.4
				c1-0.4,2,0.1,2.5,0.7c0.1,0.1-0.1,0.4,0,0.6c0,0.1,0.4,0.2,0.4,0.3c0.1,0.2-0.1,0.6,0,0.9c0.1,0.4,0.5,0.7,0.6,1
				c0,0.1-0.2,0.5,0,0.6C91.7,61.9,91.2,61.3,91,60.7z"/>
			<path class="st2" d="M147.2,59.9c-0.6-0.2-1-0.7-1.7-0.7C145.7,57.9,148,58.8,147.2,59.9z"/>
			<path class="st2" d="M48,58.8c0.1,0.3,0.6,0.1,0.4,0.6C48,59.5,47.5,59,48,58.8z"/>
			<path class="st2" d="M63.8,61.2c-0.1,0-0.2,0.3-0.3,0.3c-0.4,0.1-0.8,0-1,0.1c-0.2,0.1-0.2,0.6-0.3,0.7c0,0-0.3,0.1-0.3,0.1
				c-0.3,0.4-0.5,0.7-0.6,0.9c-0.1,0.5-0.1,1.3,0,1.7c0.1,0.2,0.2,0.1,0.4,0.4c0.2,0.2,0.2,0.6,0.3,0.7c0.1,0.1,0.5,0,0.6,0.1
				c0.1,0.2,0.1,0.6,0.1,0.9c0,0.2,0.2,0.5,0,0.7c-0.4,0.2-0.8,0.2-1.2,0c0,0,0-0.2,0-0.3c0,0-0.3-0.1-0.3-0.1
				C61.1,67.4,61,67.1,61,67c-0.4-0.6-1-1.5-1-2c-0.1-1.1,0.3-1.2,0.6-1.9c0.1-0.3,0.1-0.5,0.1-0.7c0.3-0.9,0.4-0.8,1.2-1.2
				c0.6-0.3,1.2-0.5,1.9-0.7c0.9-0.3,1.5-0.1,2.5-0.3c0.4-0.1,0.6-0.4,1-0.3c-0.1,0.7,0.2,1.1,0.4,1.3c0.1,0.2,0.7,0.1,0.4,0.7
				c-0.7,0.2-1.1-0.4-1.5-0.6c-0.2-0.1-0.6-0.1-0.9-0.1c-0.4-0.1-0.4-0.3-0.9-0.3C64.5,60.9,64.1,61.1,63.8,61.2z"/>
			<path class="st2" d="M45.9,60c0.5-0.1,0.6,0.4,0.7,0.7c-0.2,0-0.5,0-0.7,0C45.9,60.5,45.9,60.3,45.9,60z"/>
			<path class="st2" d="M97.4,60.2c0.1,0.7,1.1,0.5,1.6,0.7c0.1,0.1,0.4,0.5,0.6,0.7c0.6,0.8,0.8,1.5,0.9,2.8
				c-0.7,0.1-0.5-0.3-0.6-0.6c0-0.1-0.3-0.1-0.3-0.1c-0.1-0.2-0.1-0.5-0.1-0.7c-0.2-0.7-0.4-1.2-1-1.6c-0.6-0.4-1.4,0.1-1.6-0.9
				C97.1,60.4,97,60,97.4,60.2z"/>
			<path class="st2" d="M96.5,60.3c0,0.2,0,0.4,0,0.6c-0.2,0-0.5,0-0.7,0C95.8,60.5,96,60.3,96.5,60.3z"/>
			<path class="st2" d="M40.6,61.2C41.2,59.9,42,61.9,40.6,61.2L40.6,61.2z"/>
			<path class="st2" d="M37.6,62.5c-0.4,0.2-0.6-0.4-0.9-0.6c-0.2-0.2-0.9-0.1-0.7-0.7C36.6,61,37.6,61.5,37.6,62.5z"/>
			<path class="st2" d="M30.2,61.8C28.9,61.7,30.3,60.3,30.2,61.8L30.2,61.8z"/>
			<path class="st2" d="M27.5,63.2c0,0-0.2,0-0.3,0c-0.2-0.1-0.4-0.5-0.4-0.7c0.3-0.3,0.5,0,0.7,0.1c0.3,0.2,0.7,0.3,0.9,0.4
				c0.1,0.1-0.1,0.5,0,0.6c0.2,0.4,1,0.3,0.7,0.7C28.3,64.4,28,63.6,27.5,63.2z"/>
			<path class="st2" d="M30.9,62.6c0.5,0.3,1.1,0.4,1.2,1.2C31.4,63.7,31,63.3,30.9,62.6z"/>
			<path class="st2" d="M22.3,63.2c-0.3-0.2-0.7,0.1-0.7-0.4c1.2-0.5,1.9,0.6,2,1.6C22.9,64.4,22.8,63.5,22.3,63.2z"/>
			<path class="st2" d="M113.9,68c-0.1-1-0.5-1.4-1-2c-0.3-0.4-0.4-0.6-0.7-0.9c-0.7-0.5-2.8-1.2-3.9-1c-0.7,0.1-0.8,0.5-1.2,1
				c-0.3,0.4-0.5,0.5-0.6,0.9c0,0.4,0.6,0.8,0.3,1.5c-0.5,0.3-0.6-0.4-0.7-0.6c-0.2-0.4-0.5-0.8-0.4-1.3c0.1-0.5,1.2-1.7,1.5-1.9
				c0.1-0.1,0.3,0,0.4,0c0.1,0,0.2-0.3,0.3-0.3c0.6-0.1,2.3,0,3.3,0.1c0.5,0.1,1.4,0.9,1.7,1.2c0.2,0.1,1,0.6,1,0.6
				c0.4,0.4,0.2,0.9,0.7,1c0.5,0.1,0.9-0.4,1.5-0.4c0.4,0,0.9,0,1,0.4c-1-0.1-1.5,0-1.7,0.4c0,0-0.1,0.4-0.1,0.4
				c-0.1,0.2-0.5,0.1-0.7,0.3C114.2,67.7,114.3,68.1,113.9,68z"/>
			<path class="st2" d="M132.4,65c-0.3,0.4-1.1-0.3-0.7-0.6C131.8,64.7,132.6,64.3,132.4,65z"/>
			<path class="st2" d="M32.8,64.4c0.2,0.4,0.6,0.5,0.6,1.2C32.9,65.5,32.2,64.6,32.8,64.4z"/>
			<path class="st2" d="M89.8,67.9c-0.3,0.1-0.4,0.5-0.6,0.7c-0.2,0.2-0.4,0.2-0.6,0.3c-0.2,0.2-0.1,0.7-0.6,0.6
				c-0.1-0.5-0.5-0.8-0.4-1.5c0.6-0.1,1-0.8,1.6-1c0.4-0.2,1,0,1.3-0.4c0-0.6-1.3-0.8-0.7-1.5c0.4,0.4,0.7,0.6,1,0.9
				c0.4,0.3,0.6,0.6,1.2,0.7c0.3,0.1,0.5-0.1,0.6-0.1c0.3,0,0.7,0.2,0.9,0.1c0.3-0.1,0.5-0.3,0.9-0.3c0.5,0.1,1,0.4,1.3,0.9
				c-0.2-0.1-0.6-0.2-0.6,0.1c0,0.2,0.7,0.3,0.7,0.4c0.1,0.1-0.1,0.5,0,0.6c0.3,0.3,0.6,0.1,0.7,0.4c0,0-0.3,0.2-0.3,0.3
				c0.4,0,0.7,0,0.7,0.3c-0.5,0.6-0.8,0.2-1.3-0.3c-0.1-0.1-0.3,0.1-0.4,0C95,69,95,68.5,94.9,68.4c0,0-0.4-0.2-0.6-0.3
				c-0.8-0.4-2.2-0.5-2.6,0.1C91.4,67.4,90.5,67.6,89.8,67.9z"/>
			<path class="st2" d="M137.3,79.9c0,0.5-0.1,0.8-0.2,1.1c0.1,0.1,0.1,0.2,0.2,0.3c0.4-0.8,2.1-0.2,2.5,0.3
				c0.1,0.1,0.2,0.1,0.2,0.2c0.1,0.1,0.3,0.3,0.4,0.5c0,0.1,0,0.1,0,0.2c0.1,0.1,0.2,0.1,0.3,0.2c0-0.2,0-0.6,0-0.9
				c-0.7-0.8-0.8-1.2-1.9-1.6c-0.5-0.2-0.9-0.1-1.2-0.3c0-0.7,0.2-1.3,0-2c-0.1-0.3-0.4-1.3-0.7-1.7c-0.2-0.4-0.7-0.6-1-1
				c-0.2-0.3-0.5-0.9-0.9-1.2c-0.1-0.1-0.5-0.1-0.9-0.3c-0.6-0.3-2-0.9-3.3-0.6c-0.5,0.1-0.8,0.7-1.3,0.9c-0.4,0.2-0.8,0-1.2,0.1
				c-0.2,0.1-0.3,0.5-0.6,0.6c-0.7-0.3-1.4-0.6-2-0.9c0-0.4,0.1-0.7,0.1-1.2c0.2-0.9,0.3-0.9,0-1.9c-0.1-0.3-0.1-0.7-0.1-0.9
				c0-0.1-0.3-0.1-0.3-0.1c-0.1-0.3-0.4-1.1-0.7-1.3c-1.1-0.7-2.5,0-4.1,0.1c-0.4-0.3-0.3-0.8-0.6-1.2c-0.4-0.6-1.4-1.4-2.5-1.5
				c0,0.4,0.3,0.6,0.6,0.7c0.2,0.1,0.7,0.1,0.9,0.3c0.3,0.3,0.4,0.8,0.6,1.2c0.2,0.4,0.3,0.7,0.6,1c0.4,0.2,0.6-0.2,1-0.3
				c1.5-0.2,3.4,0.3,3.6,1.5c0.1,0.5-0.3,1.1-0.3,1.7c0,0.4,0,0.8,0.1,1.3c-0.3,0.5-0.7,0.1-1.3,0.1c-0.3,0.4-0.6,0.7-0.7,1.3
				c0.5,0.1,0.7-0.3,1.3-0.3c0.2,0,0.7,0,1,0.1c0.1,0,0.2,0.3,0.3,0.3c0.1,0,0.3,0,0.4,0c0.5,0.2,1.1,0.5,1.5,0.7
				c0.6,0.4,0.9,1.1,1.6,1.2c0.5-0.6-0.1-0.9,0-1.2c0.1-0.2,1.6-1.1,1.7-1.2c0,0,0.1,0,0.2,0c1.4-0.8,3-0.2,4.2,0.9
				c0.8,0.7,1.5,1.6,1.9,2.6C137.2,78.7,137.3,79.2,137.3,79.9z"/>
			<path class="st2" d="M141.3,83.6c0.1,0.1,0.1,0.2,0.2,0.3c0.2,0.4,0.2,0.6,0,1.5c1-0.5,0.9-1.3,0.4-2.1
				C141.7,83.4,141.5,83.5,141.3,83.6z"/>
			<path class="st2" d="M138.8,68.2c-0.3-0.5-0.9-0.5-1.2-1C138.1,66.3,139.6,67.7,138.8,68.2z"/>
			<path class="st2" d="M104.9,68.3c0.1-0.5-0.4-0.3-0.4-0.6c0.5-0.1,0.9,0.4,1.5,0.4c0.1,0,0.3-0.1,0.6-0.1
				c1.3-0.1,1.8,0.3,2.3,0.9c0.5,0.6,0.8,0.8,0.7,1.9c-0.6,0.1-0.6-0.6-0.9-0.9c-0.1-0.1-0.4,0.1-0.4,0c-0.2-0.2,0-0.5-0.1-0.7
				c-0.2-0.3-0.7-0.3-0.9-0.1c-0.5,0.3-0.7-0.1-1.2-0.1c-0.8-0.1-1.5,0.5-2.3,0.1C104,68.7,104.7,68.7,104.9,68.3z"/>
			<path class="st2" d="M100,69.2c-0.4,0-0.6-0.4-1-0.6c-0.4-0.1-1,0.2-1.2-0.3C99,67.6,99.5,68.6,100,69.2z"/>
			<path class="st2" d="M130.8,68.7c-0.4,0-0.6-0.2-0.6-0.6C130.7,68.1,130.9,68.3,130.8,68.7z"/>
			<path class="st2" d="M74.5,69.5c0.1,0.1,0.4,0.1,0.4,0.1c0.2,0.2,0.3,0.6,0.1,0.9c-0.6,0-0.6-0.7-0.9-1c-0.1-0.1-0.4-0.1-0.4-0.1
				c-0.1-0.1-0.1-0.3-0.1-0.6C74.1,68.7,74.4,69.3,74.5,69.5z"/>
			<path class="st2" d="M33.2,69c0.1,0.5-0.2,0.5-0.3,0.7c-0.6-0.2-1.4-0.1-1.5-0.7C32.2,68.9,32.6,68.6,33.2,69z"/>
			<path class="st2" d="M79.3,71.2c-0.6,0.1-0.8-0.7-1.2-1c-0.4-0.4-1.2-0.5-0.9-1.2c0.6,0,0.7,0.3,1,0.6
				C78.9,70.1,79.3,70.4,79.3,71.2z"/>
			<path class="st2" d="M69.6,79.9c-0.7,0.1-0.8,0.9-1.6,0.7c0.1-0.9,0.6-1.4,1.6-1.6c0.7-0.1,1.2,0.3,1.6,0
				c0.3-0.2,0.1-1.1,0.3-1.5c0.2-0.5,0.9-1,1.2-1.3c0.1-0.2,0-0.5,0.1-0.6c0.1-0.1,0.4-0.1,0.4-0.1c0.4-0.2,0.9-0.6,0.9-1
				c0-0.3-0.4-0.5-0.3-0.7c0.4,0,0.6,0.4,1,0.6c0.5,0.2,1.1,0.1,1.7,0.1c0.5,0.1,1,0.2,1.3,0.3c0.7,0.2,0.9,0.8,1.6,0.7
				c-0.1-0.4,0.1-0.6,0.3-0.9c0.2-0.3,0.5-0.3,0.7-0.4c0.2-0.1,0.4-0.5,0.6-0.6c0.4-0.2,1.1-0.3,1.7-0.4c0.3-0.1,0.5-0.2,0.9-0.3
				c0.2-0.1,0.3-0.1,0.4-0.1c1-0.5,2.3,0.2,3.1,0.1c0.5-1.1-0.5-1.9-0.3-3.2c0.2,0,0.2-0.2,0.4-0.1c0.7,0.7,0.1,1.8,0.7,2.5
				c0,0.3-0.4,0.4-0.4,0.7c0,0.4,0.6,0.9,0.9,1c0.4,0.2,1.1,0.9,1.3,1.2c0.1,0.1,0,0.3,0.1,0.4c0.1,0.1,0.3,0,0.4,0.1
				c0.1,0.1,0.1,0.4,0.1,0.4c0.1,0.2,0.4,0.6,0.4,0.7c0.1,0.4,0.1,1.6-0.3,1.5c-0.9-0.3-0.6-1-0.9-1.5c-0.1-0.2-0.5-0.4-0.7-0.7
				c-0.2-0.3-0.5-0.6-0.7-0.9c-0.5-0.5-0.8-0.4-1.5-0.7c-0.5-0.2-0.9-0.5-1.2-0.6c-1-0.3-1.8-0.1-2.3,0.1c-0.2,0.1-0.6,0.1-0.7,0.1
				c-0.1,0.1-0.1,0.4-0.3,0.6c0,0-0.3,0.1-0.3,0.1c-0.5,0.3-1.3,1-1.5,1.2c-0.3,0.3-0.2,1-0.6,1.2c-0.3,0.1-1,0.1-1.3,0
				c-0.3-0.1-0.3-0.6-0.4-0.7c-0.5-0.8-0.5-0.4-1.5-0.6c-0.1,0-0.3-0.3-0.4-0.3c-0.9-0.3-0.9,0.1-1.6,0.3c-0.4,0.1-0.8,0.2-1,0.3
				c-0.1,0.1-0.3,0.5-0.6,0.7c-0.3,0.3-0.6,0.6-0.7,0.7c-0.3,0.4-0.4,0.9-0.4,1.3c-0.1,0.7,0.4,1.4-0.1,2c-0.6-0.1-0.8-0.7-1.3-0.9
				C70.3,80,70,79.9,69.6,79.9z"/>
			<path class="st2" d="M54.7,77c0.3-0.6,1.3-0.9,1.9-0.9c1,0,1.7,1,2.5,0.9c0.4-0.8-0.4-1.6-0.7-2.3c-0.1-0.2-0.6-0.9-0.6-1.2
				c0-0.4,0.7-1.8,1-2c0.2-0.2,0.8-0.3,1.3-0.4c0.4-0.1,1-0.4,1.2-0.4c0.2,0,1.6,0.5,2,0.7c0.6,0.3,1,1.1,2,0.7
				c0.2-0.7-0.5-0.6-0.9-0.9c-0.2-0.1-0.6-0.5-0.9-0.7c-1.1-0.8-3.2-0.7-4.5,0c-0.1,0.1-0.4,0-0.6,0.1c-0.3,0.2-0.7,0.8-1,1.2
				c-0.1,0.1,0,0.3-0.1,0.4c-0.1,0.1-0.6,0.5-0.7,0.7c-0.2,0.3-0.2,0.8-0.3,1.2c-0.1,0.4-0.1,1-0.3,1.2c-0.4,0.5-1.3,0.2-1.7,0.6
				c-0.2,0.2-0.1,0.4-0.3,0.7c-0.2,0.3-0.4,0.2-0.4,0.6c-0.1,0.8,0.4,1.6,0.7,2.3C54.9,78.7,54.4,77.7,54.7,77z M57.1,73.8
				c0.1,0.5,0.4,0.8,0.3,1.5C56.4,75.7,56.3,73.8,57.1,73.8z"/>
			<path class="st2" d="M85.4,71.1c-0.2-0.3-0.5-0.5-0.6-0.9C85.4,69.7,86.1,70.8,85.4,71.1z"/>
			<path class="st2" d="M39.9,71.2c-0.2-0.3-0.9-0.1-0.7-0.7c0.5-0.5,1.4-0.5,1.7,0.1c0.1,0.2,0,1.1,0,1.5c0,0.2,0.2,0.8-0.4,0.7
				C40,72.5,40,71.8,39.9,71.2z"/>
			<path class="st2" d="M80.2,71.9c0.2,0.2,0.7,0.6,0.4,0.9c-0.5,0.2-0.3-0.4-0.4-0.6c-0.1-0.1-0.4-0.1-0.6-0.3
				c-0.2-0.2-0.3-0.3-0.3-0.6C79.8,71.2,80,71.7,80.2,71.9z"/>
			<path class="st2" d="M67.5,72.1c0.2,0,0.2-0.2,0.4-0.1c0.1,0.1,0.3,0.8,0,0.9C67.9,72.5,67.5,72.5,67.5,72.1z"/>
			<path class="st2" d="M46.9,73.4c-0.1,0-0.1-0.1-0.1-0.1c-0.6,0-0.4,0.1-0.6,0.3c0,0-0.2,0-0.3,0c-0.5,0.2-0.8,0.6-1.2,0.4
				c0.1-1,0.5-0.9,1.5-1.2c0.8-0.3,1.6-0.7,2.5-0.4c0.2,0,0.2,0.3,0.4,0.4c0.2,0.1,0.5,0.2,0.6,0.3c0.1,0.1,0.2,0.5,0.3,0.7
				c0.1,0.1,0.2,0.2,0.3,0.3c0.3,0.5,0,0.9-0.1,1.3c-0.6,0-0.7-0.7-0.9-1c-0.1-0.3-1-0.8-1.2-0.9C47.5,73.3,47.1,73.4,46.9,73.4z"/>
			<path class="st2" d="M143.6,74c0,1.1-0.8,0.7-1.6,0.7c-0.2,0-1.2,0.3-1.3,0.4c-0.6,0.4-0.1,0.9-1,1
				C139.1,74.3,141.9,73.2,143.6,74z"/>
			<path class="st2" d="M63.5,75.9c-0.4-0.1-0.8-0.2-0.9-0.7C63.2,75,63.4,75.4,63.5,75.9z"/>
			<path class="st2" d="M25.3,74.8c-0.2-0.7,0.8-1.2,1.5-1.6c0.3-0.2,0.7-0.4,1.2-0.6c0.1,0,0.1-0.3,0.1-0.3c0.1-0.1,0.3,0.1,0.4,0
				c0.2-0.1,0.3-0.3,0.6-0.3c0.2,0,0.4,0.3,0.7,0.4c0.3,0.1,0.7,0.2,0.9,0.3c0.5,0.3,0.7,1.2,1.5,1.2c0.3-0.6,0.8-1.2,1.3-1.5
				c0.5-0.2,0.9-0.4,1.6-0.4c1-0.1,2.5-0.1,2.8,0c0.2,0.1,0.9,1,0.9,1c0,0-0.3,0.4-0.1,0.6c-0.9-0.2-1.4-0.7-2.2-0.9
				c-1.7-0.3-2.9,0.1-3.3,0.7c-0.5,0.7-0.4,1.8-1.3,2.2c-0.3-1.4-1.3-2.4-2.5-2.6c-1.2-0.2-1.7,0.5-2.3,0.9
				c-0.5,0.3-0.9,0.4-1.2,0.6C25.6,74.6,25.6,74.9,25.3,74.8z"/>
			<path class="st2" d="M105.2,77.3c-0.3,0.1-0.3-0.3-0.4-0.4c-0.1-0.2-0.5-0.2-0.4-0.6C104.8,76.4,105.2,76.7,105.2,77.3z"/>
			<path class="st2" d="M147.5,77.9c0.3,0.3,0.1,0.8,0,1.2c-0.4,0-0.7-0.3-1-0.4C146.6,78.1,146.9,77.8,147.5,77.9z"/>
			<path class="st2" d="M22,75.8c-0.3-0.2-0.7-0.4-1.2-0.3c-0.5,0.1-0.4,1.2-1.5,0.9c-0.1-0.2,0.3-0.5,0.6-0.7
				c0.5-0.5,0.9-0.7,1.9-0.7c1.3,0,1.5,0.5,1.9,1.3c0.1,0.2,0.4,0.2,0.4,0.4c0.1,0.4-0.1,0.3-0.3,0.7C22.9,77.3,22.7,76.2,22,75.8z"
				/>
			<path class="st2" d="M39,82c0.5,0.2,1.2,0,1.5,0.1c-0.6,0.5-1,0.3-1.7,0.4C38.6,82.2,39,82.3,39,82z"/>
			<path class="st2" d="M93.6,83.6c-0.3,0-0.6,0-0.7-0.1C92.8,82.7,93.6,83.1,93.6,83.6z"/>
			<path class="st2" d="M20.5,80.4c0.8-0.1,1.5-0.1,2.2-0.1c0.5,0,1-0.3,1.5-0.1c0.1,0,0.1,0.4,0.1,0.4c0.1,0.1,0.5,0.1,0.7,0.3
				c0.3,0.2,0.6,0.3,0.4,0.7c-1,0.3-1.1-0.9-2-1c-0.6-0.1-0.9,0.2-1.6,0.3c-0.7,0.1-1.9,0.1-2.5,0.3c-0.3,0.1-0.4,0.4-0.7,0.4
				c-0.2,0-0.3-0.1-0.4-0.1c-0.5-0.2-0.4-0.1-0.6,0.1c-0.4,0.4-1.4-0.2-1.6-0.6C17.9,81.2,19.2,80.6,20.5,80.4z"/>
			<path class="st2" d="M111.7,84.9c0.2,0.1,0.5-0.2,0.7,0c0.2,0.2,0.1,0.5,0.3,0.7c0.1,0.1,0.4,0,0.4,0c0.4,0.2,0.4,0.9,1,0.6
				c-0.4,1.1-1.3,0-1.7-0.3c-0.2-0.1-0.3,0-0.4-0.1c-0.1-0.1-0.1-0.2-0.3-0.3c-0.5-0.3-1.3-0.5-1.3-1
				C111.1,84.2,111.4,84.8,111.7,84.9z"/>
			<path class="st2" d="M117.4,85.6c0.3-0.1,0.6-0.3,0.9-0.3c0.4,0,0.3,0.2,0.6,0.3c0.7,0.3,1.8,0.5,1.9,1.2
				c-0.6,0.7-0.9-0.2-1.5-0.6c-0.9-0.7-1.5,0.2-2.5-0.1C116.7,85.7,117.2,85.7,117.4,85.6z"/>
			<path class="st2" d="M108.1,86c-0.5,0-0.8,0.8-1.2,0.4C107.3,86.4,107.6,85.5,108.1,86z"/>
			<path class="st2" d="M121.8,87.9c-0.6,0.1-1.1-0.8-0.6-0.9C121.5,87.3,122,87.3,121.8,87.9z"/>
			<path class="st2" d="M130.7,87.4c0.2,0,0.4,0,0.6,0c0.1,0.6,0.8,0.7,0.9,1.3c-0.7,0-0.9-0.6-1.2-0.9
				C130.8,87.6,130.7,87.6,130.7,87.4z"/>
			<path class="st2" d="M58.5,88.4c0,0.2,0,0.4,0,0.6c-0.6-0.2-1.1-0.4-1.6,0c-0.1-0.3-0.5-0.4-0.6-0.7
				C57.3,88.4,57.8,88.1,58.5,88.4z"/>
			<path class="st2" d="M83.2,88.5c0,0.4-0.7,0.4-1,0.4c-0.2,0-0.5-0.2-0.7-0.3c-0.3-0.1-0.9,0.2-0.7-0.3
				C81.5,88.6,82.8,88.4,83.2,88.5z"/>
			<path class="st2" d="M70.6,89.4c-0.5,0.3-1.2-0.2-1.7-0.4c-0.3-0.1-0.7,0-0.9-0.3c0,0.4,0.2,0.3,0,0.6c-0.5,0-0.9,0-1-0.3
				c0.3-0.3,1-0.6,1.7-0.6C69.4,88.4,70.7,88.6,70.6,89.4z"/>
			<path class="st2" d="M74.2,88.8c0.7,0.1,1.6-0.1,1.6,0.4c-0.9,1-2.7,0.5-3.8,0C72,88.3,73.3,88.7,74.2,88.8z"/>
			<path class="st2" d="M25,85.3c0.5,0,1.1-0.3,1.2,0.3c-0.2,0.4-0.8,0.2-1.3,0.1c-0.3,0-1.1,0.3-1-0.3C23.9,84.9,24.6,85.3,25,85.3
				z"/>
			<path class="st2" d="M23.4,85.4c0,0.3-0.7,0.6-0.9,0.6c-0.4,0-0.8-0.3-1.2-0.3c-0.3,0-0.6,0.5-1.2,0.6c0,0-0.3-0.2-0.4-0.1
				c-0.4,0-1.3,0.4-1.2-0.6C20.4,85.7,22.4,85.2,23.4,85.4z"/>
			<path class="st2" d="M12.1,85.4c0.5-0.1,0.6,0.2,1.2,0.6c0.2,0.1,0.4,0,0.4,0.3c-1-0.1-1.3-0.7-2.5-0.6
				C11.1,85.2,11.9,85.5,12.1,85.4z"/>
			<path class="st2" d="M31.6,88.9c0,0.2,0,0.4,0,0.6c-0.5,0.2-1.5,0.3-1.5-0.4C30.4,88.8,31.2,88.6,31.6,88.9z"/>
			<path class="st2" d="M132.5,92.9c0.5,0,1.5-0.4,1.6,0.7c-0.7-0.1-1.4-0.3-2-0.3c-0.3,0-0.8,0.2-1.2,0.1c-0.4,0-1-0.1-1.2-0.6
				C130.8,92.8,131.6,92.8,132.5,92.9z"/>
			<path class="st2" d="M77,93.6c-0.4,0-1.1,0.2-1.2,0.1c-0.1,0-0.1-0.3-0.3-0.3c-0.2,0-0.4,0.3-0.7,0.1C74.8,92.4,76.7,93,77,93.6z
				"/>
			<path class="st2" d="M74.5,93.2c0.1,0.5-1,0.3-0.9,0C73.9,92.9,74.2,93.1,74.5,93.2z"/>
			<path class="st2" d="M61.9,94c-0.5,0.4-0.9-0.1-1.5-0.1c-0.6-0.1-1.2,0-1.6-0.3C59.3,93.2,62,92.6,61.9,94z"/>
			<path class="st2" d="M122.1,94.3c-0.4,0-0.7-0.3-1.2-0.4c-0.3-0.1-0.9,0.2-1-0.3C120.6,93.5,122.3,93,122.1,94.3z"/>
			<path class="st2" d="M23.1,90.7c-0.7,0.3-1.9-0.3-2-0.9C22.1,89.8,23.1,89.7,23.1,90.7z"/>
			<path class="st2" d="M104.6,40.2c-0.4,0-0.8,0.1-1.2,0.1c-0.3,0-0.3-0.2-0.6-0.1c0,0-0.1,0.3-0.1,0.3c-0.4,0.2-1.4,0.2-1.3-0.1
				c0.6-0.2,1.6,0.2,1.7-0.7c1.1,0.2,2-0.4,2.8,0C106.1,40.6,105.3,40.2,104.6,40.2z"/>
			<path class="st2" d="M78.6,45.2c0,0-0.2,0-0.3,0c0,0-0.1-0.3-0.1-0.3c-0.4-0.3-1.1-0.8-1.5-0.9c-0.2-0.1-0.5,0-0.7,0
				c-0.2,0-0.5-0.3-0.6-0.3c-1,0.1-1.1,1.2-2.2,1.5c-0.2,0-0.4-0.1-0.1-0.1c0.2-0.4,0.8-0.4,1-0.7c0.2-0.2,0.1-0.7,0.4-0.9
				c0.5-0.3,1.6,0,2,0c0.8,0,1.1-0.2,1.5,0.1c0.7,0.7,2.1,1.8,1.9,3.1C79.2,46.6,79.1,45.7,78.6,45.2z"/>
			<path class="st2" d="M25.7,61.3c0.6-0.1,0.7,0.9,1.2,0.4C26.6,62.5,25.8,61.5,25.7,61.3z"/>
			<path class="st2" d="M101.7,69.8c0.2-0.1,0-0.7,0.4-0.6c0.3,0.3,0,0.7-0.1,1c-0.7,0.2-1.7-0.2-1.5-0.6
				C100.7,69.9,101.4,69.7,101.7,69.8z"/>
			<path class="st2" d="M49.9,79.6c0.1-0.1,0.3-0.1,0.4-0.1c0.4-0.2,1-0.6,1.6-0.6c0.9,0.1,1.5,0.8,1.9,1.3c0.3,0.3,0.7,0.7,0.6,1.2
				c-0.6,0.2-0.7-0.6-0.9-0.7c-0.1-0.1-0.3,0-0.4-0.1c-0.5-0.4-0.9-1.2-1.5-1.2c-0.9,0.1-1.6,1-2.6,0.9
				C49.6,80.3,49.8,79.8,49.9,79.6z"/>
			<path class="st2" d="M45.1,80.5c0.4,0.1,0.6,0.4,1,0.4c0.6,0.1,1.1,0.1,1.6-0.3c0,0.1,0,0.3-0.1,0.3c-0.3,0.1-0.1,0.7-0.1,1
				c-0.6,0-0.9-0.5-1.5-0.7c-0.2-0.1-0.5-0.1-0.7-0.1c-0.3-0.1-0.5-0.2-0.7-0.3c-0.6-0.1-1.4,0-2-0.3C43.3,80.4,44.3,80.4,45.1,80.5
				z"/>
		</g>
		<g>
			<path class="st2" d="M46.7,88.2c0.1,0,0.4,0.2,0.5,0.2c0.1,0,0.1-0.1,0.1-0.1c0.1,0,0.2,0.1,0.1,0.1c0.6-0.1,0.7,0,1.1,0.1
				c0.6,0.1,1.3,0,1.9,0.1c0.3,0,0.5,0.2,0.8,0.2c0.4,0,0.5-0.1,0.9-0.3c0.1-0.9-1-0.7-1.8-0.8c-0.2,0-0.4-0.2-0.6-0.2
				c-1.4-0.1-3.3,0-3.8,0.9C46.1,88.4,46.3,88.1,46.7,88.2z"/>
			<path class="st2" d="M49.5,91.8c0.5,0,1.1-0.2,1.5-0.2c0.3,0,0.8,0.3,1.4,0.2c0.6-0.1,1.2-0.1,1-0.8c-0.1-0.4-0.9-0.2-1.9-0.2
				c-0.5,0-1.2-0.1-2-0.1c-1.3,0-2.9,0.2-3.9,0.1c-0.2,0-0.6-0.2-0.8-0.2c-0.2,0-0.6,0.1-0.9,0.1c-0.2,0-0.5-0.1-0.7-0.1
				c0,0-0.1,0.1-0.2,0.1c-0.2,0-0.3-0.1-0.4-0.1c-0.2,0-0.4,0.2-0.6,0.3c-0.4,0-0.6-0.1-1-0.1c-0.2,0-0.4,0.2-0.7,0.3
				c-0.2,0-0.6-0.3-0.6,0.1c1.1,0,2.4,0.2,3.6,0.3c0.7,0,1.5-0.1,2.2-0.1c0.5,0,0.9,0.2,1.4,0.2C47.8,91.8,48.8,91.8,49.5,91.8z"/>
			<path class="st2" d="M48,94.1c0-0.4-0.3-0.4-0.6-0.4C47.3,94.1,47.7,94.1,48,94.1z"/>
			<path class="st2" d="M51.7,94.5c0.3,0.1,1-0.1,1.2,0c0.2,0,0.2,0.2,0.4,0.2c0.6,0.2,1.3,0.2,1.5-0.4c-0.5-0.7-1.5-0.4-2.4-0.4
				c-0.3,0-0.7-0.1-0.9-0.1c-0.3,0-0.5,0.3-0.7,0.3c-0.2,0-0.3-0.2-0.5-0.2c-0.2,0-0.5,0.2-0.6,0.1c-0.3,0-0.6-0.4-0.9-0.2
				c-0.1,0-0.2,0-0.2,0c0,0.2,0,0.4,0.1,0.5c0.8,0,1.5,0.4,2.2,0.3c0.2,0,0.4-0.3,0.6-0.3C51.6,94.2,51.7,94.5,51.7,94.5z"/>
			<path class="st2" d="M28.6,95.2c-0.4-0.3-1.1,0.1-1.4,0c0,0-0.2-0.2-0.3-0.2c-0.5-0.3-1.1,0-1.4,0.2c-0.1,0.1-0.5,0.1-0.4,0.4
				c0.2,0.7,1,0.2,1.6,0.1C27.5,95.6,28.4,95.8,28.6,95.2z"/>
			<path class="st2" d="M33.6,95.9c0.5-1.4-1.6-1.3-1.9-0.3C32.6,95.3,32.7,96,33.6,95.9z"/>
			<path class="st2" d="M42.3,96c0-0.2,0-0.5,0-0.7c-0.3-0.2-1-0.4-1.5-0.3c-0.6,0-1.4,0.2-1.5,0.8C39.9,96.4,41.3,95.7,42.3,96z"/>
			<path class="st2" d="M51.3,96.5c0,0.1,0,0.1-0.1,0.1c0,0.3,0.2,0.4,0.5,0.4C51.7,96.7,51.6,96.5,51.3,96.5z"/>
			<path class="st2" d="M34.1,100.1c-0.2-0.1-0.6,0-0.9-0.1c-0.3-0.1-0.6-0.2-0.8-0.2c-0.8,0-1.5,0.2-1.3,0.9
				c0.2,0.4,0.8,0.1,1.4,0.2c0.6,0.1,2.2,0.7,2.2-0.2C34.7,100.9,34.4,100.3,34.1,100.1z"/>
			<path class="st2" d="M40.9,100.7c0.2-0.2,0.4-0.7,0.1-1c-0.5-0.1-0.8,0.4-1.2,0.5c-0.2,0.1-0.4-0.1-0.5-0.1
				c-0.3,0-0.5,0.3-0.7,0.4c0,0-0.3-0.1-0.5-0.1c-0.3,0-0.4,0.4-0.6,0.1c0.2,0.5,0.7,0.4,1.1,0.5c0.2,0,0.1-0.3,0.2-0.3
				c0.2,0,0.2,0.3,0.5,0.2C39.9,100.9,40.3,100.1,40.9,100.7z"/>
			<path class="st2" d="M42,100.3c0.3,0.2,0.9,0,1.3,0.2c0.2-0.2,0.2-0.7,0-0.9C42.7,99.6,42.2,99.8,42,100.3z"/>
			<path class="st2" d="M26.6,101.2c0.9,0,1.5,0.2,2.2-0.2C29,99.7,26.4,99.9,26.6,101.2z"/>
			<path class="st2" d="M49.8,100.5c0,0.7,1.1,0.3,1.1,0C50.6,100.3,50.3,100.6,49.8,100.5z"/>
			<path class="st2" d="M52.9,100.9c0.2,0,0.4,0.3,0.6,0.4c0.1,0,0.3-0.1,0.5-0.1c0.4,0,0.9,0.3,0.9-0.4c-0.5-0.5-2.4,0-3.4-0.3
				c0,0.3,0,0.5,0.1,0.6C52.2,101.1,52.4,100.9,52.9,100.9z"/>
			<path class="st2" d="M53.8,103.7c-0.3,0-0.5-0.1-0.8-0.1c-0.5,0-1.2-0.2-1.5,0.3c0.2,0.1,0.6,0.4,1,0.5c0.1,0,0.3-0.1,0.5-0.1
				c0.7-0.1,1.6,0.1,2.1-0.2C55.1,103.2,54.3,103.6,53.8,103.7z"/>
			<path class="st2" d="M40.9,104.1c-0.6-0.1-1.2,0.1-1.2,0.9c1-0.2,1.5,0.8,2.2,0.4C41.9,105.1,41.5,104.2,40.9,104.1z"/>
			<path class="st2" d="M46.9,105.1c0.8-0.1,1.1,0.2,1.9,0.1C49.1,104.1,46.7,103.9,46.9,105.1z"/>
			<path class="st2" d="M52.7,97.5c0.8-0.3,1.8,0.3,2.1-0.6c-0.7-0.2-1.8-0.2-2.2-0.1C52.8,96.8,52.6,97.3,52.7,97.5z"/>
		</g>
	</g>
	<g>
		<path class="st2" d="M200.9,63.8c-0.9-0.1-0.5-0.7-0.8-1.4c-0.1-0.2-0.3-0.5-0.3-0.6c-0.1-0.3-0.1-0.6-0.2-0.8
			c-0.1-0.2-0.8-0.5-0.9-0.9c-0.3-0.6-0.6-1-1.7-0.9c-0.1,0-1.4,0.2-1.6,0.3c-0.4,0.3-0.2,0.4-0.6,1.1c-0.6,0.1-0.1-0.8-0.5-0.9
			c-0.5,0-0.6,0.5-0.9,0.8c-0.4,0.4-0.8,0.7-1.1,1.3c-0.1,0.1-0.3,0.2-0.3,0.3c-0.2,0.4-0.1,1.2-0.8,1.3c-0.1-0.7-0.2-1.5,0-2.1
			c0.1-0.2,0.9-1.4,1.6-1.9c0.1-0.1,0.5-0.2,0.8-0.3c0.4-0.3,0.6-0.5,1.3-0.6c0.6-0.1,1.2,0.1,1.7-0.2c0.1,0,0.3,0,0.3,0
			c0.2-0.2,0-0.4,0.5-0.2c0.6,0.4,0.4-0.6,1.1-0.2c0.1,0.4-0.3,0.3-0.3,0.6c0.6,0.5,1.7,0.2,2.1,0.9c0.1,0.5-0.2,0.5-0.3,0.8
			c0.4,0.6,1,0.9,1.1,1.7c1,0,2.1-0.4,3-0.2c0.1,0,0.3,0.3,0.3,0.3c0.1,0,0.4-0.1,0.5,0c0.2,0.1,0.3,0.5,0.5,0.6
			c0.3,0.2,1.1-0.1,0.9,1c-0.2-0.2-0.4-0.2-0.6-0.3c-0.2-0.1-0.4-0.4-0.5-0.5c-0.2-0.1-0.3,0.2-0.5,0.2c-0.2,0-1.3-0.5-1.6-0.5
			c-0.1,0-0.8,0.3-1.1,0.5C201.4,63.3,201.3,63.8,200.9,63.8z"/>
		<path class="st2" d="M204.2,61.1c0-0.4,0-0.6,0.2-0.8c0.8,0,1.4,0.2,1.6,0.8C205.6,61.2,204.6,61.4,204.2,61.1z"/>
		<path class="st2" d="M161.6,66.6c-0.4,0-2.1,0.8-2.4,1.3c-0.1,0.2-0.1,0.4-0.2,0.5c-0.5,0.8,0.2,1.9,0,3.2
			c-0.5-0.3-0.9-1.6-0.9-2.7c0-0.3,0-1.2,0.2-1.4c0,0,1.2-0.8,1.4-0.9c1.1-0.6,1.5-0.8,2.8-0.3c0.6,0.2,1.1,0.6,1.7,0.8
			c0.4,0.1,0.9,0.3,1.1,0.2c0.5-0.2,0.2-0.9,0.5-1.6c0.1-0.2,0.4-0.7,0.6-1.1c0.3-0.5,0.4-0.9,0.6-1.1c0.4-0.3,1.1-0.2,2.1-0.5
			c0.3-0.1,0.8-0.4,1.1-0.5c0.7-0.1,1.5-0.2,1.9,0.2c0,0,0.1,0.3,0.2,0.3c0.3,0.1,0.6,0.1,0.8,0.2c0.2,0.1,0.4,0.5,0.6,0.6
			c0.6,0.5,0.5,0.4,0.9,1.1c0.3,0.5,0.2,0.4,0.3,1.1c0.1,0.8,0.2,1.5-0.8,1.7c0.2-0.7,0-1.1-0.3-1.9c-0.4-0.9-0.6-1.5-1.7-1.7
			c-1.1-0.2-3.1,0-3.8,0.3c-0.2,0.1-0.2,0.3-0.5,0.6c-0.2,0.2-0.5,0.2-0.6,0.3c-0.1,0.1-0.2,0.6-0.3,0.8c-0.1,0.3-0.3,0.6-0.3,0.8
			c-0.1,0.6,0.3,1.5-0.3,2.1c-0.6-0.1-0.5-0.9-1.1-1.3c-0.1,0-0.7-0.2-0.6-0.2c-0.3-0.1-0.5-0.1-0.6-0.2c-0.4-0.1-0.9-0.1-1.3-0.2
			C162.4,67,161.8,66.6,161.6,66.6z"/>
		<path class="st2" d="M219.2,62.2c0,0.8-0.6,0.9-1.1,1.1C218.1,62.6,218.7,62.3,219.2,62.2z"/>
		<path class="st2" d="M213.7,64.2c-0.5,0.5-1.3,0-1.6-0.3c-0.6-0.1-0.7,0.3-1.3,0.2c-0.2-0.2-0.2-0.6-0.2-0.9
			C211.9,62.8,212.9,63.7,213.7,64.2z"/>
		<path class="st2" d="M177.6,67.2c0-0.2-0.1-0.4,0-0.6c0-0.1,0.3-0.3,0.3-0.3c0-0.3-0.3-0.7-0.2-0.9c0.1-0.3,0.6-0.7,1.1-1.1
			c0.1-0.1,0.5-0.2,0.8-0.3c0.4-0.2,0.5-0.5,0.9-0.5c0.7,0.1,2,0.1,2.5,0.3c0.1,0,0.1,0.3,0.2,0.3c0.4,0.2,1.4,0.5,1.7,0.8
			c0.2,0.2,0.2,0.5,0.5,0.9c0.3,0.4,0.6,0.5,0.6,0.8c0.1,0.5-0.3,1.2-0.2,1.4c0.3,0.5,1,0.4,1.7,0.6c0.7,0.3,1.3,0.5,1.6,0.8
			c0.1,0.4-0.5,0.4-0.6,0.5c-0.2,0.1-0.6,0.2-0.8,0.2c-0.6,0-1-0.7-1.4-0.6c-1,0.1-1.1,1.1-2.2,1.1c-0.3-1.3,0.9-2,0.9-3
			c0-0.9-0.6-1.1-0.8-2.1c-0.8,0.3-1.4-0.7-1.9-0.8c-0.8-0.1-1.9,0.3-2.5,0.5c-0.4,0.1-0.6,0.1-0.8,0.2c-0.9,0.6-0.7,1.7-1.3,2.7
			C177.1,68,177.5,67.5,177.6,67.2z"/>
		<path class="st2" d="M200.5,66c0.1,0.4-0.6,0.2-0.6,0.5C199.4,66.2,200.2,65.5,200.5,66z"/>
		<path class="st2" d="M174.4,69.3c-0.7,0.2-1.4,1.4-2.4,0.6c0-0.8,1.1-1.2,1.9-1.4c0.4-0.1,0.8-0.2,0.9-0.2
			c0.3,0.2,1.2,0.1,1.4,0.2c0.1,0,0.1,0.3,0.2,0.3c0.3,0.1,1.3,0.5,1.3,1.1c-0.8,0.3-1.2-0.5-1.7-0.6
			C175.6,69.2,174.9,69.2,174.4,69.3z"/>
		<path class="st2" d="M191.5,71.2c0.6-0.6,1.6-1,2.8-0.6c0.2,0,0.5,0.5,0.6,0.6c0.2,0.1,0.9,0.1,1.1,0.3c0.3,0.2,0.5,0.5,0.3,0.8
			c-1,0.3-1.5-0.7-2.1-0.9c-0.2-0.1-0.6,0-0.8,0c-0.4-0.1-0.8-0.3-1.3,0.2c-0.4,0.4-0.4,1.1-1.4,0.8
			C190.6,71.8,191.1,71.5,191.5,71.2z"/>
		<path class="st2" d="M200.9,70.7c0.4,0.1,1.3,1.2,1.4,1.6c-0.7,0.6-1.1-0.6-1.7-0.8c-0.5-0.1-0.8,0.1-1.4,0.2
			C199.3,70.8,200.3,70.6,200.9,70.7z"/>
		<path class="st2" d="M151.8,72.3c-0.6,0.4-1.2-0.7-2.5-0.3c0-0.2,0-0.4,0-0.6C150.5,70.7,151.3,71.8,151.8,72.3z"/>
		<path class="st2" d="M157,72.6c-0.4,0.7-1.5,0.6-2.4,0.8C154.4,72.1,156.1,72.8,157,72.6z"/>
		<path class="st2" d="M160.3,74.7c-0.2,0-0.3,0.2-0.6,0.3c-0.1,0-0.5,0.1-0.6,0.2c-0.6,0.4-0.3,1.3-1.1,1.4
			c0.1-0.3-0.3-0.5-0.3-0.8c0-0.7,1.1-1.8,2.2-1.9c0.6,0,1.4,0.4,1.9,0.5C161.7,75,160.9,74.5,160.3,74.7z"/>
		<path class="st2" d="M162.9,74.8c-0.3-0.1-1.1,0.3-0.9-0.3C162.2,74.3,163,74.2,162.9,74.8z"/>
		<path class="st2" d="M198.4,75.8c0.1-0.1,0.1-0.4,0.2-0.5c0.2-0.2,0.5-0.7,1.1-0.6c0.1,0.9-0.6,0.8-1.1,1.1
			c-0.1,0.7-0.4,1.2-1.1,1.3C197.2,76.5,198,76.2,198.4,75.8z"/>
		<path class="st2" d="M170.9,75.8c0,0,0-0.3,0-0.3c0.1-0.1,0.4-0.1,0.5-0.2c0.4-0.2,1.9-0.7,1.9,0.5c-1.4-0.3-1.8,1.1-3,0.5
			C170,75.7,170.7,76,170.9,75.8z"/>
		<path class="st2" d="M171.4,79.9c0.5-0.1,1.1,0.2,1.7,0.2c0.2,0,0.3-0.3,0.5-0.3c0.9-0.3,1.8,0.1,1.6,0.9
			c-0.4,0.1-0.6-0.3-0.9-0.3c-0.3-0.1-1-0.2-1.3-0.2c-0.4,0-0.6,0.4-0.9,0.5c-0.6,0.2-1,0.1-1.6,0.2C170.5,80.6,170.9,80,171.4,79.9
			z"/>
		<path class="st2" d="M176.6,81c-0.3,0.5-0.6-0.4-1.1-0.2C175.7,80.1,176.2,80.9,176.6,81z"/>
		<path class="st2" d="M156.7,81.3c0.7,0,1.4-0.4,2.4-0.3c0.1,0,0.2,0.2,0.3,0.2c0.1,0,1-0.3,1.3,0c-0.1,0.7-0.9,0.1-1.3,0.2
			c-0.3,0-0.5,0.3-0.8,0.3c-0.6,0-1.2-0.1-1.7,0c-0.5,0.1-1.3,0.6-2.2,0.2c0.3-0.4,1-0.5,1.6-0.6C156.5,81.1,156.5,81.3,156.7,81.3z
			"/>
		<path class="st2" d="M195.6,65c-0.1,0.8-0.9,0.9-1.6,1.1c0-0.3,0.3-0.2,0.5-0.3C194.8,65.6,195,65,195.6,65z"/>
		<path class="st2" d="M198.4,71.8c0.3-0.1,0.5-0.5,0.6-0.2c-0.2,0.2-0.7,0.2-0.5,0.8c-0.8,0.2-1.3-0.4-1.6,0.2
			C196.5,72.3,197.9,72,198.4,71.8z"/>
		<path class="st2" d="M180.6,81c0.2-0.2,0.4-0.5,0.6-0.6c0.3-0.2,0.9-0.2,1.3-0.3c0.2-0.1,0-0.3,0.2-0.3c0.6-0.3,1.2-0.9,1.9-0.6
			c0,0.5-0.9,0.4-1.4,0.6c-0.2,0.1-0.7,0.4-0.8,0.6c0,0.1,0,0.3,0,0.3c-0.2,0.1-0.5,0-0.6,0.2c-0.3,0.3-0.6,0.6-0.8,0.9
			c-0.3,0-0.6,0-0.9,0C179.9,81.4,180.3,81.2,180.6,81z"/>
	</g>
</g>
<g class="st1">
	<g>
		<path class="st2" d="M409.8,74.7c-0.1-0.1-0.3-0.4-0.4-0.5c-0.4-0.6-0.5-0.5-1.2-0.7c-0.7-0.2-0.9-0.2-1.8-0.1
			c-0.3,0-0.6,0.2-0.9,0c-0.2-0.6,0.5-1.1,0.9-0.9c0.3,0.1,0.7,0.2,1.2,0.3c0,0,0-0.1,0.1-0.1c0.6,0,2.1,0.4,2.3,0.5
			c0,0,0,0.2,0,0.3c0,0,0.2,0.1,0.3,0.1c0.7,0.9,0.8,2.1,0.3,3.1C409.7,76.4,410.1,75.3,409.8,74.7z"/>
		<path class="st2" d="M425.4,80.7c0.3-1.6,2.3-0.5,1.5,0.7C426.3,81.3,426.3,80.6,425.4,80.7z"/>
		<path class="st2" d="M403.3,74.2c-0.3,0.2-0.6-0.2-0.8-0.3c-0.2-0.1-0.7,0.2-0.5-0.3c0.4,0.3,1-0.5,1.6,0
			C403.6,74,403.3,73.9,403.3,74.2z"/>
		<path class="st2" d="M422.4,77.5c-0.3-0.5-0.4-0.9-0.8-1.2c-0.6-0.4-1.1-0.3-1.6-0.3c-0.3,0-0.5-0.2-0.7-0.1
			c-0.4,0.1-0.5,0.7-1.1,0.7c-0.2-0.5,0.3-0.8,0.4-0.9c0.1-0.1,0.2-0.2,0.3-0.3c0.6-0.3,2.4-0.4,3-0.1c0.2,0.1,0.2,0.3,0.4,0.4
			c0.2,0.1,0.4,0.2,0.5,0.3c0.2,0.2,0.3,0.6,0.4,0.8c0.1,0.2,0.3,0.7,0.4,0.8c0.2,0.2,0.9,0.2,0.9,0.5
			C423.6,79.1,423,78.3,422.4,77.5z"/>
		<path class="st2" d="M417.2,76.4c0.4,0.6,0.4,1.1,0.5,1.9c-0.7,0.2-0.4-0.6-0.5-0.8c-0.1-0.1-0.3-0.2-0.4-0.3
			c-0.1-0.2,0-0.4-0.1-0.5c-0.2-0.2-0.6-0.3-0.9-0.4c-0.1,0-0.5,0.3-0.9,0.3c-0.3,0-0.7-0.2-0.8,0.1c0-0.5,0.7-0.7,1.2-0.8
			c0.2,0,0.3,0.1,0.5,0.1c0.4,0,0.8-0.2,0.9-0.1C416.8,75.9,417,76.1,417.2,76.4z"/>
		<path class="st2" d="M427.9,76.2c0,0,0.2,0.2,0.3,0.3c0.7,0.4,1.1,0.2,0.9,0.9c0.4-0.2,0.8,0.1,0.8,0.7c-1.1,0.4-2.3-2.2-3.2-1.2
			C426.2,76.2,427.2,76.1,427.9,76.2z"/>
		<path class="st2" d="M426.3,76.8c-0.1,0.6-0.4,1-1.1,0.9C425.3,77.1,425.8,76.9,426.3,76.8z"/>
		<path class="st2" d="M403.1,78.7c0.1,0.3,0.9,0.6,0.3,0.8C403.3,79.4,402.7,78.9,403.1,78.7z"/>
		<path class="st2" d="M389.7,79.8c-0.4,0-0.8-0.7-0.4-0.9C389.5,79.1,389.5,79.5,389.7,79.8z"/>
		<path class="st2" d="M384.6,78.9c0.2-0.2,0.8-0.2,0.7,0.3C384.9,79.2,384.6,79.2,384.6,78.9z"/>
		<path class="st2" d="M408.3,80c-0.2-0.2-0.4-0.1-0.5-0.3c-0.1-0.2-0.1-0.6-0.1-0.8c1,0.2,1.4,1,1.8,1.9
			C409,81.2,408.5,80.2,408.3,80z"/>
		<path class="st2" d="M399.6,79.6c-0.3,0-0.6-0.1-0.5-0.5C399.5,79,399.7,79.2,399.6,79.6z"/>
		<path class="st2" d="M404.4,80c0.7,0,0.7,0.6,0.8,1.1C404.7,80.9,404.4,80.6,404.4,80z"/>
		<path class="st2" d="M393.5,82.6c0.1,0,0.1-0.2,0.1-0.3c0.1-0.1,0.3,0,0.4,0c0.7-0.3,1-0.2,2-0.3c0.7,0,1.4-0.2,1.9-0.1
			c0.2,0,0.6,0.4,0.8,0.5c0.4,0.2,0.7,0.4,0.9,0.5c0.8,0.4,1.6,0.5,1.9,1.1c-0.9,0.3-2,0-2.6-0.3c-0.4-0.2-0.6-0.5-0.9-0.7
			c-0.6-0.3-0.6-0.1-1.2-0.1c-0.2,0-0.5-0.1-0.7-0.1c-0.4,0-0.8,0.1-1.1,0.1c-0.3,0-0.4-0.3-0.5-0.3c-0.2,0-0.6,0.1-0.7,0.1
			c-0.5,0.2-0.5,1.3-1.4,0.5C392.4,82.7,393.2,82.8,393.5,82.6z"/>
		<path class="st2" d="M402.9,83.1c0.3-0.1,0.4,0.1,0.7,0c0.2,0,0.5-0.2,0.8-0.3c0.2,0,0.5,0.1,0.7,0c0.5-0.2,0.8-0.7,1.2-0.7
			c0.7,0,1.3,0.6,2,0.8c0.2,0.1,0.5,0,0.7,0c0.8,0.1,1.8,0.9,2.3,0.3c-0.1-0.3-0.5-0.1-0.4-0.5c0.6-0.1,0.7,0.6,0.9,0.8
			c0.1,0.1,0.4,0,0.5,0.1c0.1,0.1,0.1,0.3,0.1,0.5c-0.6,0.4-1.1-0.1-1.4-0.4c-0.3,0.5-0.9,0.4-1.5,0.3c-0.2-0.1-0.5-0.4-0.8-0.4
			c0,0-0.1,0.1-0.3,0.1c-0.4,0-1,0-1.4-0.1c-0.2-0.1-0.4-0.4-0.4-0.4c-0.2-0.1-0.4-0.1-0.7-0.1c-0.3,0-0.5,0.3-0.8,0.4
			c-0.2,0.1-0.4-0.1-0.7-0.1c-1,0-1.7,0.7-2.7,0.4C402.1,83.4,402.5,83.2,402.9,83.1z"/>
		<path class="st2" d="M414.2,82.9c0.4-0.1,1.1-0.1,1.5-0.1c0.6,0,0.9,0.1,1.4-0.1c0.1,0.3,0.4,0.4,0.4,0.8
			c-0.5,0.2-1.1-0.2-1.6-0.1c-0.3,0-0.6,0.2-0.8,0.3c-0.7,0.1-1.4-0.2-2,0.1C413,83.1,413.7,83,414.2,82.9z"/>
		<path class="st2" d="M446.7,84.2c0.4-0.4,0.9-0.8,1.8-0.7C448.7,84.4,447.2,84.8,446.7,84.2z"/>
		<path class="st2" d="M440.9,84.1c0.1,0,0.3-0.3,0.4-0.3c0,0,0.3,0.3,0.4,0.3c0.5,0.1,1,0,1.4,0.3c0,0.8-0.7,0.7-1.2,0.7
			c-0.2,0-0.7-0.6-1.2-0.7c-0.5-0.1-0.7,0.4-0.8-0.1C440,83.8,440.5,84.2,440.9,84.1z"/>
		<path class="st2" d="M422.1,84.5c-0.7-0.4-1.3,0.6-1.5-0.3c0.7,0,1.1-0.2,1.6-0.3C422.2,84.2,422.2,84.4,422.1,84.5z"/>
		<path class="st2" d="M432.4,84.8c-0.7,0.3-1.5,0.3-2-0.1C430.9,84.3,431.9,84.6,432.4,84.8z"/>
		<path class="st2" d="M382.6,85.7c0.4,0,0.8,0,1.2,0c0.2,0.5-0.4,0.2-0.7,0.4c-0.4,0.2-0.3,0.5-0.7,0.5c-0.3,0-0.5-0.1-0.8-0.1
			c-0.3,0.1,0,0.6-0.3,0.8c0,0-0.4,0.1-0.4,0.1c-0.4,0.1-1.1,0.2-1.1-0.3c0.5-0.5,1.3-0.8,2.3-0.8C382.2,86.1,382.4,86,382.6,85.7z"
			/>
		<path class="st2" d="M408.4,87.5c-0.3,0.2-1.5,0.3-1.5-0.3C407.3,86.9,408.2,87.2,408.4,87.5z"/>
		<path class="st2" d="M418.4,87.9c0.3-0.2,0.2-0.4,0.5-0.4c0.2,0,0.6,0.1,0.8,0.1c0.5,0,1.6-0.1,1.8-0.1c0.1,0,0.1,0.2,0.3,0.1
			c0.3-0.1,1.1-0.5,1.4-0.4c0.1,0,0.2,0.1,0.3,0.1c0,0.1,0,0.3,0,0.4c-1.3,0.9-4,0.5-5.6,0.4C417.7,87.7,418.3,88,418.4,87.9z"/>
		<path class="st2" d="M388.6,90.6c-0.4,0-0.9-0.3-1.2-0.4c-0.5-0.2-0.5-0.4-0.9-0.5c-0.1,0-0.3,0.3-0.5,0.3
			c-0.3-0.1-0.2-0.3-0.3-0.5C386.8,89.5,389.1,89,388.6,90.6z"/>
		<path class="st2" d="M384.7,90c-0.1,0.4-0.6,0.8-0.9,0.5C383.8,90.1,384.2,90,384.7,90z"/>
		<path class="st2" d="M419.2,84.2c0.2,0.1,0.5-0.1,0.7,0c0,0,0.6,0.5,0.3,0.4c-0.6-0.4-1.4,0-1.9-0.3c-0.4-0.2-0.4-0.7-0.8-0.8
			C418.2,82.9,418.5,83.8,419.2,84.2z"/>
		<path class="st2" d="M418.3,87.3c0.2,0.6-0.8,0-0.5,0.5C417.2,87.9,417.9,87.2,418.3,87.3z"/>
	</g>
	<g>
		<path class="st2" d="M348.3,35.5c0.3-0.2,0.8,0,1,0.2C348.9,36,348.3,36,348.3,35.5z"/>
		<path class="st2" d="M344.6,35.8c0-0.3,0.2-0.4,0.4-0.5c0.1,0.2,0.4,0.3,0.3,0.7C344.9,36.1,344.9,35.9,344.6,35.8z"/>
		<path class="st2" d="M322.1,47.2c0-1.1-0.9-1.6-1.9-1.6c-0.6,0-0.9,0.6-1.5,0.5c-0.3-1,1-0.8,1.1-1.6c0.1-0.5-0.3-0.5-0.5-1
			c-0.1-0.1-0.1-0.4-0.1-0.5c-0.3-0.9,0.1-2.7,0-3.4c-0.1-1.1-0.8-1.1-1.8-1.5c-0.7-0.2-1.5-0.5-1.8-0.5c-0.4,0-1.3,0-1.8,0.1
			c0,0-0.2,0.2-0.3,0.2c-0.2,0.1-0.4,0-0.5,0.1c-0.2,0.1-0.6,0.7-0.7,0.8c-0.2,0.4-0.5,0.6-0.7,1c-0.1,0.2-0.2,0.6-0.5,0.6
			c-0.3-0.8,0.7-1.8,1.1-2.2c0.4-0.4,0.5-0.5,0.8-0.6c0,0,0.1-0.2,0.1-0.2c0,0,0.4-0.1,0.7-0.1c0.1,0,0.3-0.1,0.3-0.1
			c0.1,0,0.2,0.2,0.4,0.1c0.3-0.1,0.1-0.5,0.4-0.2c0.2,0.1,0.6-0.2,0.7-0.2c0,0,0.3,0.2,0.5,0.1c0.3,0,0.5,0.2,1,0.4
			c0.3,0.1,0.6,0,1,0.1c0,0,0.2,0.2,0.3,0.2c0.1,0,0.4-0.1,0.5,0c0.1,0.1,0.1,0.3,0.1,0.4c0.3,0.4,0.7,0.5,1.1,0.7
			c-0.1,0.4,0,0.7,0,1.2c0,0.6-0.4,1.2-0.4,1.7c0,0.7,0.6,0.9,0.7,1.3c0,0.1-0.1,0.5-0.1,0.7c0,0,0.2,0.1,0.1,0.2
			c0,0-0.3,0.2-0.1,0.4c0.3,0.4,0.9,0.2,1.5,0.4c0.7,0.1,1.2,0.9,1.2,1.3C322.9,46.6,322.8,47,322.1,47.2z"/>
		<path class="st2" d="M356.6,40.9c-0.7,0.2-0.4-0.4-0.5-0.8c0-0.1-0.2-0.3-0.3-0.5c-0.1-0.5-0.1-0.7-0.3-1
			c-0.1-0.2-0.2-0.5-0.3-0.6c-0.2-0.3-1.2-0.2-0.5-0.6c0,0.2,0.3,0.1,0.4,0.2c0.2,0.1,0.6,0.7,0.7,0.8c0.2,0.2,0.5,0.4,0.5,0.5
			c0.3,0.4-0.1,0.6,0,1C356.4,40.2,356.8,40.6,356.6,40.9z"/>
		<path class="st2" d="M349.9,37.5c0.2,0.2,0.1,0.5,0.1,0.9C349.6,38.6,349.4,37.4,349.9,37.5z"/>
		<path class="st2" d="M379.1,44.8c0.3-0.1,0.3-0.5,0.4-0.7c0.4-1,0.3-1.2-0.5-1.6c-0.8-0.4-1.8-0.5-2.7-0.2c0,0-0.2,0.2-0.3,0.2
			c-0.2,0.1-0.3,0.1-0.5,0.1c-0.1,0-0.1,0.2-0.3,0.2c-0.3,0-0.3-0.1-0.5-0.1c0-0.3,0.3-0.7,0.3-1.1c0-0.2-0.1-0.1-0.3-0.5
			c-0.1-0.3,0-0.4-0.1-0.6c-0.1-0.1-0.3-0.2-0.4-0.4c-0.1-0.3,0-0.6-0.1-0.7c-0.3-0.4-0.7-0.4-1.2-0.6c-0.3-0.1-0.6-0.2-0.8-0.2
			c-1.1-0.3-1.8,0.5-2.3,1c-0.4,0.4-0.9,1-1.2,1.6c-0.3,0.5-0.1,1.2-0.8,1.3c-0.2-1.3,0.8-2.4,1.5-3.2c0.5-0.5,0.9-0.8,1.5-1.1
			c0.2-0.1,0.4-0.3,0.5-0.4c0.9-0.3,1.1,0.1,1.8,0.4c0.2,0.1,0.5,0.1,0.7,0.1c0.8,0.3,0.7,0.4,1.1,1.2c0.2,0.4,0.4,0.8,0.4,1.1
			c0.1,0.8,0,1.2,0.5,1.3c0.1,0,0.4-0.1,0.7-0.2c0.5-0.2,1.3-0.5,1.9-0.5c0.2,0,0.3,0.2,0.4,0.2c0.1,0,0.3,0,0.4,0
			c0.1,0,0.1,0.2,0.1,0.2c0.5,0.2,0.7,0.1,1.2,0.4c0.2,0.8-0.2,1.8-0.4,2.1C379.7,44.4,379.3,45.1,379.1,44.8z"/>
		<path class="st2" d="M331.1,40.9c-0.3,0.3-0.7,0.5-1.2,0.2c0-0.3,0.4-0.4,0.4-0.7c0-0.3-0.1-0.5-0.1-0.8c0.7,0,0.4-0.9,1.2-0.8
			c0.1,0.8-0.5,0.9-0.7,1.5C330.9,40.4,331.1,40.6,331.1,40.9z"/>
		<path class="st2" d="M349.6,40.2c-0.5,0.1-0.6-0.8-0.3-1C349.3,39.7,349.8,39.6,349.6,40.2z"/>
		<path class="st2" d="M349.8,41c-1.1-0.2-1.2,0.5-2.2,0.6c-0.2-0.5,0.3-0.4,0.4-0.5c0.4-0.4,0.3-0.4,1-0.5c0.4-0.1,0.4-0.2,0.8-0.2
			c0.4,0,0.9,0.3,1.2,0.4c0.8,0.2,0.7,0.3,1.1,0.6c0.1,0.1,0.3,0,0.4,0.1c0.1,0.1,0.1,0.2,0.1,0.4C351.6,42.1,350.9,41.2,349.8,41z"
			/>
		<path class="st2" d="M360.8,43.1c-0.3-0.2-0.9,0-1.2-0.2c-0.3-0.2,0-0.4-0.4-0.5c-0.6,0.2-1.4,0.7-2,0.5c0.1-0.6,1.2-0.7,2-0.7
			c1.5,0,3.2,0.5,2.9,1.8C361.3,44.1,361.3,43.4,360.8,43.1z"/>
		<path class="st2" d="M325.3,44.1c0.1-0.3,0.5-0.5,0.7-0.7c0.3-0.4,0.3-0.8,0.7-1.1c0,0.4-0.2,0.8-0.4,1.1
			C326,43.6,325.9,44.2,325.3,44.1z"/>
		<path class="st2" d="M303.5,47.8c-0.6-0.1-0.7-1.1-1.1-1.7c0,0-0.2,0-0.3,0c0,0,0-0.2,0-0.2c-0.5-0.5-0.9-1.1-1.8-0.8
			c-0.1,0-0.2,0.3-0.4,0.4c-0.4,0.1-0.8,0.1-1.1,0.2c-0.1,0.1-0.3,0.3-0.4,0.4c-0.2,0.1-0.3,0.2-0.4,0.4c-0.2,0.2,0,0.6-0.3,0.7
			c-0.3,0.3-0.3,0-1,0c-0.1-0.2,0.2-0.3,0.3-0.4c0.2-0.2,0-0.4,0.1-0.6c0.2-0.2,0.6-0.5,0.8-0.6c0,0,0.1-0.2,0.1-0.2
			c0.2-0.1,0.9,0,1.4-0.2c0.2-0.1,0.4-0.4,0.5-0.5c1.7-0.5,2.3,0.3,2.9,1.1c0.3,0.5,0.4,1.1,1,1.5c0.4-0.3,1-0.4,1.4-0.6
			c0.2-0.1,0.3-0.2,0.5-0.2c0.3-0.1,0.8,0.4,1-0.1c-0.3-1.1-1.5-1-1.5-2.1c0-0.3,0.3-1,0.4-1.1c0,0,1.4-0.6,1.4-0.6
			c0.1,0,0.4,0.1,0.7,0.1c0.3,0,0.7,0,0.8,0c0.2,0,0.5-0.1,0.8,0c0.6,0.2,1.1,0.3,0.8,0.9c-0.4,0.3-0.9-0.3-1.4-0.4
			c-0.6-0.1-1.4-0.3-1.9-0.1c-0.5,0.2-1.1,1-1,1.6c0,0.2,0.3,0.1,0.4,0.2c0.1,0.1,0,0.4,0.1,0.5c0.1,0.1,0.3,0,0.4,0
			c0.1,0,0.1,0.3,0.1,0.4c0.2,0.2,0.6,0.2,0.7,0.4c0.1,0.4,0.1,0.8-0.3,1.3c-1.1,0.1-0.9-0.6-1.8-0.6c-0.2,0-0.1,0.2-0.4,0.4
			c-0.2,0.1-0.5,0.1-0.7,0.2C304.1,47.5,303.9,47.9,303.5,47.8z"/>
		<path class="st2" d="M338.2,43.2c0,0,0.2,0.2,0.3,0.2c0.2,0,0.4,0,0.5,0c0.1,0,0.3,0.3,0.4,0.4c0.1,0.1,0.3-0.1,0.4,0
			c0.1,0.1,0,0.2,0.1,0.2c0.5,0.2,1,0.1,1.5,0.2c0.1,0.2,0.2,0.3,0.3,0.5c0.1,0.1,0.1,0.4,0.3,0.6c0.2,0.2,0.6,0.2,0.7,0.4
			c0.2,0.3,0,0.7,0.1,1c0.1,0.3,0.4,0.6,0.7,0.7c0.1,0,0.5-0.1,0.7-0.1c0.3-0.1,0.6-0.2,0.8-0.1c0.8,0.1,1.8,1.6,1.9,2.1
			c0.2,1.2-0.4,1.9-0.5,3c0.8,0.1,1.4,0.3,1.8,0.5c0.7,0.4,1.1,0.9,1.8,1.2c0.1-0.9,0.8-1.1,1.5-1.5c0.4-0.2,0.9-0.6,1.1-0.6
			c1.6-0.3,2.3,0.3,3.1,0.7c0.1,0.1,0.3,0,0.4,0.1c0.1,0.1,0.2,0.2,0.3,0.2c0.3,0.2,0.5,0.3,0.7,0.4c0.2,0.2,0.2,0.6,0.4,0.7
			c0.3,0.2,0.5,0,0.7,0.2c0.3,0.6,0,1.5,0.1,1.9c1-0.3,2.1-0.3,3,0.1c0,0.4,0,0.7,0,1.1c-0.6-0.2-0.7-0.5-1.2-0.6
			c-1-0.1-2.1,0.8-3.1,0.7c0.2-1.1,0.7-2,0.3-2.8c0,0-0.1-0.3-0.1-0.4c-0.1-0.1-1.9-1-2.3-1.2c-0.7-0.3-1.7-0.7-2.5-0.4
			c-0.1,0.1-0.2,0.3-0.4,0.4c-0.3,0.1-0.7,0.1-0.7,0.1c-0.3,0.2-0.5,0.6-0.7,1c-0.6-0.4-0.8,0.2-1.1,0.5c-0.6-0.2-0.7-0.8-1.2-1.1
			c-1.3-0.7-3-0.1-4.5-0.2c0.1-0.5,0.8-0.4,1.2-0.8c0.2-0.2,0-0.6,0.1-0.7c0.1-0.1-0.1,0.1,0,0c0.3-0.4,1.1-1.2,1.1-1.6
			c0-0.1-0.5-1.3-0.5-1.3c-0.1-0.1,0-0.1-0.1-0.2c-0.7-0.9-1.7-0.4-2.7-0.6c-0.5-1.5-0.7-2.8-1.9-3.5c-0.2-0.1-0.5-0.3-0.8-0.4
			c-0.7-0.3-1.2-0.5-1.9-0.6c-0.3-0.1-0.8,0.2-1-0.2C337.6,43.6,337.8,43.2,338.2,43.2z"/>
		<path class="st2" d="M323.9,43.2c0.6-0.1,0.7,0.3,0.8,0.6C324.4,43.7,324,43.6,323.9,43.2z"/>
		<path class="st2" d="M321.3,43.7c-0.1-0.4,0.7-0.7,1-0.4C321.8,43.3,321.9,43.8,321.3,43.7z"/>
		<path class="st2" d="M331.5,53.9c-0.3,0.3,0,0.9-0.7,1.1c-0.1-0.5,0-1.3-0.4-1.6c0.8-0.1,1.3-0.6,1.8-1c-0.2-0.9-1.5-1.4-2.3-1.8
			c-0.3-0.2-0.7-0.4-1-0.5c-0.6-0.1-2.3,0-2.6,0.2c-0.3,0.3-0.4,0.4-0.7,0.8c-0.2,0.3-0.4,0.6-0.4,0.8c0,0.8,0.8,1.2,0.4,2.2
			c-0.6-0.1-0.8-0.7-1.4-1.1c-0.5-0.3-1.3-0.7-1.9-0.6c-0.3,0-0.4,0.3-0.8,0.6c-0.1,0-0.2,0-0.3,0c-0.2,0.1-0.5,0.5-0.5,0.6
			c-0.2,0.4,0.1,0.8-0.1,1.1c-0.4-0.2-0.9-0.1-1.4-0.1c-0.5,0-1.2-0.1-1.4-0.1c-0.3,0-0.5,0.3-0.7,0.4c-0.4,0.1-0.4,0-0.7,0.1
			c-0.1,0.5,0.4,0.5,0.3,1.1c-0.7,0.1-0.9-0.3-1-0.7c-0.1-0.7,0.9-0.7,1-1.2c0-0.3-0.1-0.5-0.3-0.8c-0.1-0.2-0.3-0.6-0.4-0.7
			c-0.1-0.1-0.5-0.2-0.7-0.4c-0.2-0.2-0.3-0.4-0.3-0.7c0.7,0.3,1.3,0.4,1.6,0.8c0.4,0.5,0.4,1.7,0.8,1.9c0.2,0.1,0.5-0.1,0.8-0.1
			c0.6,0,1.5,0.2,1.4-0.7c0-0.2-0.1-0.5,0-0.8c0.8,0.1,1.1-0.6,1.4-0.7c0.2-0.1,0.5,0,0.7,0c0.3-0.1,0.3-0.2,0.5-0.2
			c0.3,0,0.5,0.2,0.8,0.2c1.1,0.2,1.5,0.1,1.9-0.5c0.2-0.2,0.1-0.8,0.4-1.1c0.1-0.1,0.7-0.5,0.7-0.5c0.4-0.3,0.9-0.2,1.6-0.4
			c0,0,0.3-0.2,0.4-0.2c1.2-0.2,1.2,0.5,2.2,0.2c0-0.5-0.2-1-0.1-1.5c0-0.2,0.5-0.8,0.5-1c0.1-0.5,0-0.4,0.3-0.6
			c0.1-0.1,0-0.2,0.1-0.4c0.3-0.4,0.9-0.9,1.1-1.1c0.1-0.1,0-0.3,0.1-0.4c0.2-0.2,0.6-0.3,0.8-0.5c0,0,0-0.2,0-0.2
			c0.1-0.2,0.9-0.4,1.1-0.4c0,0.3,0.2,0.2,0,0.5c-0.4,0.2-0.8,0.4-1.1,0.5c0,0-0.1,0.2-0.1,0.2c-0.2,0.1-0.4,0-0.5,0.1
			c-0.1,0.1,0,0.4-0.1,0.6c-0.1,0.1-0.3,0-0.4,0.1c-0.1,0.1,0,0.4-0.1,0.5c-0.2,0.3-0.4,0.3-0.5,0.6c-0.1,0.2-0.1,0.4-0.1,0.5
			c-0.4,1.1,0.2,2.7,0.7,3.3c0.2,0.2,0.6,0.4,0.7,0.6c0.3,0.7,0.3,1.1,0.7,1.3c0.3,0.2,0.6,0,1,0.1c0.1,0,0.4,0.2,0.5,0.2
			c0.7,0.3,1.5,0.5,1.1,1.3c-0.6,0.1-1-0.4-1.5-0.6C333.1,53.1,332.1,53.2,331.5,53.9z"/>
		<path class="st2" d="M383.7,44.9c-0.4,0-0.9,0.6-1.4,0.1c-0.1-0.3,1.1-0.8,1.8-0.8c1.3-0.2,1.4,0.5,1.2,1.2
			C384.7,45.1,384.4,44.9,383.7,44.9z"/>
		<path class="st2" d="M365.6,45c-0.4-0.1-0.3-0.5-0.7-0.6c-0.1,0-0.4,0.2-0.7,0.1c-0.2,0-0.3-0.1-0.4-0.4c1,0.3,3.2-0.4,3.1,0.8
			C366.3,45,366.1,45.2,365.6,45z"/>
		<path class="st2" d="M387.8,45.5c-0.2,0-0.5,0-0.7,0C387,45,387.8,45.2,387.8,45.5z"/>
		<path class="st2" d="M320.1,47.6c-0.5,0-0.7-0.2-0.8-0.6C319.9,46.9,319.9,47.3,320.1,47.6z"/>
		<path class="st2" d="M285.2,48.3c-0.3,0-1,0.7-1.2,0c0.3-0.5,1.3-0.1,2-0.2c0.2-0.1,0.5-0.2,0.7-0.2c1-0.2,1.1,0.4,1.6,0.5
			c0.1-0.3,0.8-0.4,1-0.5c0.1-0.1,0.1-0.4,0.3-0.5c0.4-0.1,1-0.1,1.4,0c0.8,0.1,0.7,0.3,1.1,0.5c0.1,0.1,0.3,0,0.4,0
			c0.4,0.2,0,0.7-0.1,0.8c-1.1-0.4-1.9-1-3-0.5c-0.5,0.3-0.3,1-1.1,1.1c-0.5-0.1-0.4-0.7-0.8-0.8c-0.5-0.1-0.9,0.2-1.4,0.1
			C285.8,48.5,285.5,48.3,285.2,48.3z"/>
		<path class="st2" d="M366.9,49c-0.1-0.5,0.4-0.4,0.5-0.6C367.6,48.9,367.2,48.9,366.9,49z"/>
		<path class="st2" d="M375.2,48.8c-0.4,0.2-0.6,0.5-1.2,0.5c0-0.2,0-0.3,0-0.5C374.5,49,375,48.5,375.2,48.8z"/>
		<path class="st2" d="M377.6,54c0.2-0.1,0.5-0.4,0.8-0.5c0.3-0.1,0.9,0,1.1-0.4c-0.3-0.6-0.2-1.1-0.5-1.6c-0.2-0.2-0.4-0.3-0.5-0.5
			c-0.2-0.1-0.1-0.3-0.3-0.5c-0.4-0.3-0.7-0.3-0.8-0.7c-0.1-0.2-0.1-0.5,0-0.7c0.6-0.1,0.8,0.1,1,0.2c0.3,0.2,0.3,0.2,0.4,0.5
			c0,0,0.2,0.1,0.3,0.1c0.4,0.3,0.4,0.5,0.7,1c0.1,0.2,0.3,0.4,0.4,0.6c0.2,0.4-0.1,1.2,0.7,1.3c0.5-0.2,0.7-0.8,1.1-1
			c0.2-0.1,1-0.1,1.8-0.2c0.3-0.1,0.7-0.4,0.8-0.5c0.3-0.3,1.2-0.5,1.6-0.5c0.4,0,1.3,0.1,1.5,0.1c0,0,0.2,0.2,0.3,0.2
			c0.6,0.3,0.6,0.4,1.2,1c0.4,0.4,0.8,0.6,1,1c0,0,0.2,0.1,0.3,0.1c0.4,0.7,0.5,1.7,0.4,2.3c-0.1,0.7,0,1-0.3,1.5c0.8,0,1.6,0,2,0.2
			c0,0,0.1,0.2,0.1,0.2c0.3,0.2,0.7,0.2,0.8,0.4c0,0,0.1,0.4,0.1,0.4c0.1,0.4,0.1,1.3-0.7,1.5c0.2-1.7-1.4-1.8-3-1.9
			c-0.4-0.4,0.3-0.5,0.3-0.7c0-0.1-0.3-0.1-0.3-0.2c0-0.5,0.2-1,0.1-1.6c-0.2-1.1-0.8-1.7-1.5-2.3c-0.8-0.7-1.3-1-2.3-1.3
			c-0.9-0.3-1.2-0.2-1.9,0.1c-0.3,0.1-0.5,0.4-1,0.5c0,0.3,0.2,0.2,0,0.5c-0.3,0.1-0.6-0.1-0.8,0c-0.3,0.1-0.4,0.5-0.5,0.7
			c-0.2,0.3-0.7,0.5-0.5,0.8c0.3,0.1,0.7,0.6,0.8,0.8c0.2,0.3,0.3,0.5,0.4,0.7c0.2,0.4,0.1,0.9-0.4,1c-0.8-0.2-0.6-1.1-1.1-1.6
			c-0.2-0.2-0.7-0.2-1.1-0.4c-0.4-0.2-0.6-0.5-1-0.5c-0.7-0.1-1.3,0.4-2.2,0.2C376.9,54.2,377.3,54.2,377.6,54z"/>
		<path class="st2" d="M364.2,50.1c0.8-0.2,1.4-1.2,2.5-0.8c-0.5,0.2-0.5,0.7-1,1c-0.3,0.2-0.7,0-0.8,0.4c-0.2,0.4,0.5,1.5-0.1,1.9
			c-0.9,0.1-1.3-0.6-2-0.5c-0.5,0.1-0.9,0.4-1.1,0.7c-0.2,0.3-0.2,0.6-0.5,0.8c-0.2-0.5-0.1-1.2,0.3-1.7c0,0,0.6-0.4,0.7-0.5
			c0,0,0.1-0.4,0.1-0.4c0.1,0,0.6,0.1,0.8,0.1c0.4,0,0.6,0,1,0C364.1,50.9,364.2,50.6,364.2,50.1z"/>
		<path class="st2" d="M314.2,51.1c-0.4,0.2-0.8,0.3-1-0.1C313.5,50.8,314.1,50.9,314.2,51.1z"/>
		<path class="st2" d="M305.7,53.4c0.5-0.1,0.5,0.1,0.7,0.2c0.3,0.2,0.4,0,0.5,0.2c0.2,0.3,0.3,0.9-0.3,1
			C306.6,54.1,305.8,54,305.7,53.4z"/>
		<path class="st2" d="M291.2,58.9c0.2-0.1,0.2-0.4,0.4-0.5c0.1-0.1,0.3,0,0.4,0c0.1,0,0.2-0.2,0.3-0.2c0.8-0.2,1.7,0.1,2.6,0.1
			c0.1-0.6,0.6-0.9,1-1.3c-0.1-0.2-0.4-0.2-0.3-0.6c0.3-0.5,1.2-0.3,1.8-0.7c0-0.2-0.4-0.2-0.3-0.5c0.7-0.3,0.4,0.4,1,0.1
			c0.4-0.2,0.2,0,0.4,0.1c0,0,0.2,0,0.3,0c0.5,0.2,1,0,1.5,0.1c0.6,0.1,0.7,0.3,1.1,0.5c0.2,0.1,0.6,0.2,0.7,0.2
			c0.6,0.4,1.3,1.3,1.4,1.5c0.1,0.4,0.1,1.1,0,1.6c-0.6,0-0.5-0.7-0.7-1c0-0.1-0.2-0.2-0.3-0.2c-0.3-0.5-0.6-0.6-1-1
			c-0.3-0.2-0.4-0.6-0.8-0.6c-0.3,0.1,0.1,0.8-0.4,0.7c-0.4-0.5-0.2-0.6-0.5-0.8c-0.2-0.1-1.3-0.2-1.4-0.2c-1,0-1.3,0.3-1.5,0.7
			c-0.2,0.3-0.7,0.5-0.8,0.7c-0.1,0.2,0,0.4-0.1,0.6c-0.1,0.1-0.2,0.4-0.3,0.5c-0.2,0.6,0.1,1-0.7,1.1c-0.3,0-0.4-0.4-0.8-0.6
			c-0.3-0.2-0.9-0.4-1-0.4c-0.2,0-1.2,0.4-1.4,0.4c-0.2,0-0.2-0.2-0.4-0.1c-0.1,0-0.2,0.3-0.4,0.4c-0.2,0.1-0.4,0.1-0.5,0.2
			C290.2,58.8,291,59,291.2,58.9z"/>
		<path class="st2" d="M361.9,55.6c0.2-0.2,0.4-0.4,0.7-0.5C362.6,55.4,362.1,55.9,361.9,55.6z"/>
		<path class="st2" d="M397.4,56.3c0.4-0.2,0.8-0.3,1.2-0.2c0,0,0.7,0.4,0.8,0.5c0.3,0.3,1.3,1.5,1.4,1.7c0.1,0.2-0.1,0.5-0.1,0.7
			c0,0.5,0.2,0.8,0.3,1.2c1.8-1.3,6.3-0.8,5.9,1.7c-0.4,0-0.3-0.3-0.4-0.5c-0.3-0.7-0.6-1-1.5-1.2c-0.3-0.1-0.8,0-1.2-0.1
			c-0.4-0.1-0.6-0.3-0.8-0.2c-1,0.1-1.5,0.9-2.5,0.8c-0.1-2-0.8-3-2-3.8C398.1,56.7,397.5,56.8,397.4,56.3z"/>
		<path class="st2" d="M393.8,57.3c-0.1-0.8,0.6-1.4,1.2-1.1c0,0.3-0.3,0.4-0.4,0.5C394.3,56.9,394.2,57.3,393.8,57.3z"/>
		<path class="st2" d="M290.5,57.7c0.2-0.5,0.7-0.6,1.4-0.6c0.1,0.1,0.2,0.3,0.1,0.6C291.7,57.9,290.9,57.8,290.5,57.7z"/>
		<path class="st2" d="M352.9,57.7c0.1,0.4-0.4,0.2-0.3,0.6C351.6,58.2,352.3,57,352.9,57.7z"/>
		<path class="st2" d="M271.8,58.1c0.2,0.2,0.6,0,0.4,0.4c-0.6-0.2-1.2-0.3-1.2-1C271.6,57.5,271.5,57.9,271.8,58.1z"/>
		<path class="st2" d="M344.9,58.4c0.4-0.1,0.4,0.2,0.7,0.1C345.7,59.1,344.7,59,344.9,58.4z"/>
		<path class="st2" d="M319.7,59.8c-1,0.2-1.2,0.7-1.5,1.3c-0.3,0.6-0.4,0.9-0.3,1.5c-0.8-0.2-0.8-0.7-0.7-1.3
			c0.1-0.5,0-0.5,0.3-0.8c0.4-0.5,0.3-0.5,0.8-0.8c0.2-0.1,0.4-0.4,0.5-0.5c0.1-0.1,0.5,0,0.7-0.1c0,0,0.1-0.2,0.1-0.2
			c0.3-0.3,1-0.2,1.6-0.1c0.3,0,0.7,0.3,1,0.4c0.9,0.2,1.4,0.1,1.8,0.4c0.2,0.1,0.3,0.5,0.5,0.8c0.2,0.3,0.5,0.7,0.5,0.8
			c0.2,0.5,0,1,0.4,1.2c0.2,0.1,0.6,0,1-0.1c0.6-0.2,1-0.4,1.5-0.6c1.1-0.4,1.5-0.3,2.4,0.2c0.2,0.1,1.2,0.7,1.2,0.7
			c0.1,0.2,0.1,0.8,0.1,1.1c0,0.8-0.3,1.8-0.8,2.1c-0.2-0.9,0.4-1.8,0-2.4c0-0.1-0.1-0.3-0.1-0.4c-0.3-0.4-1.7-1-2-1
			c-0.2,0-0.6,0.3-1,0.4c-0.3,0.1-0.7,0-1.1,0.1c-0.1,0-0.3,0.1-0.5,0.1c0,0-0.5,0.1-0.5,0.1c-0.5,0.3-0.4,0.9-1,1
			c-0.5-0.4-0.1-1.1-0.3-1.6c0-0.1-0.2-0.4-0.3-0.6c-0.1-0.2-0.2-0.5-0.3-0.6c-0.1-0.1-0.4-0.1-0.5-0.2c-0.3-0.2-0.2-0.4-0.4-0.5
			C322.3,59.8,320.6,59.7,319.7,59.8z"/>
		<path class="st2" d="M280.1,59.4c-0.4-0.2-1-0.3-1-0.9C279.6,58.6,280.1,58.8,280.1,59.4z"/>
		<path class="st2" d="M286.5,59.2c0,0.3,0,0.6-0.1,0.7c-0.5,0.1-0.6-0.2-1.1-0.1c-0.2,0.2-1,0.6-1.4,0.2
			C284.6,59.6,285.4,59,286.5,59.2z"/>
		<path class="st2" d="M307.8,63c0.1-0.2-0.2-0.7-0.1-1.1c0.1-0.3,0.3-0.3,0.5-0.6c0.2-0.3,0.3-0.6,0.4-0.7c0.3-0.2,1.2-0.5,1.5-0.6
			c0,0,0.1-0.2,0.1-0.2c0.4-0.1,1.6-0.2,2.2-0.2c0.4,0,0.5,0.2,0.8,0.4c0.2,0.1,0.6,0.2,0.7,0.2c0.5,0.3,0.9,0.7,1,0.9
			c0.1,0.2-0.2,0.5-0.1,0.7c0,0,0.3,0.2,0.3,0.2c0,0.1,0,0.3,0,0.5c0,0.2,0.4,0.6-0.3,0.6c-0.5-0.7-0.3-1.6-1.1-2.1
			c-0.1-0.1-0.4-0.1-0.7-0.1c-0.6-0.1-1.5-0.5-2.2-0.4c-0.5,0.1-1,0.8-1.6,0.6c-0.2,0.8-0.7,0.9-0.7,1.6c0,0.7,1.1,1.3,0.8,2.3
			c-1,0-1.1-0.8-1.9-0.8c-0.4,0-0.7,0.5-1.2,0.5c-0.2,0-0.5-0.1-0.7-0.1c-0.1,0-0.6-0.1-0.5-0.4c0.2-0.3,0.7-0.4,1.4-0.6
			C306.9,63.3,307.6,63.4,307.8,63z"/>
		<path class="st2" d="M346.2,62.9c0,0,0.2,0,0.3,0c0,0,0.1,0.2,0.1,0.2c0.4,0.3,1,0.6,0.7,1.1c-0.3,0-0.5-0.4-0.7-0.5
			c-0.3-0.1-0.1-0.4-0.3-0.5c-0.1-0.1-0.3,0-0.4,0c0,0-0.7-0.6-0.7-0.6c-0.1-0.1,0-0.3-0.1-0.4c-0.1-0.1-0.3,0-0.4-0.1
			c-0.1-0.2-0.5-0.8,0-0.8c-0.1,0.4,0.6,0.3,0.7,0.5c0.1,0.1-0.1,0.4,0,0.5c0.1,0.1,0.4,0,0.5,0.1C346.1,62.5,346.1,62.8,346.2,62.9
			z"/>
		<path class="st2" d="M295.3,61.4c0.2-0.3,0.9,0.2,0.5,0.4C295.8,61.5,295.3,61.8,295.3,61.4z"/>
		<path class="st2" d="M397.2,62.3c-0.1-0.2-0.5-0.7-0.1-0.9C397.2,61.6,397.8,62.1,397.2,62.3z"/>
		<path class="st2" d="M390.2,62.3c0.1-0.5-0.5-0.5-0.5-0.9c0.6,0,0.9,0.4,1.2,0.7C390.6,62.1,390.6,62.4,390.2,62.3z"/>
		<path class="st2" d="M392.5,63.4c0.1,0.2,0,0.2,0.1,0.4c0.2,0.2,0.5,0.1,0.7,0.2c0,0,0,0.2,0,0.2c0.1,0.3,0.6,0.4,0.8,0.5
			c0.2,0.1,0.3,0.4,0.5,0.6c-0.8,0.5-1.6,0-1.6-0.8c-0.7-0.1-0.9-0.6-1.2-1.1c-0.5-0.1-1-0.3-1-0.8C391.6,62.5,392.3,63,392.5,63.4z
			"/>
		<path class="st2" d="M343.2,63.7c-0.7,0-0.8-0.5-1-0.8C342.9,62.9,343,63.4,343.2,63.7z"/>
		<path class="st2" d="M316,63.6c0.1,0,0.1-0.2,0.1-0.2c0.2-0.1,0.9,0,1.2-0.1c0.1-0.1,0.5,0,0.8,0.1c0.7,0.2,1.6,0.5,1.6,1.1
			c-0.9,0.6-1.4-0.4-2-0.5c-0.4-0.1-1-0.1-1.4,0c-0.4,0.1-0.8,0.7-1.5,0.5C314.9,64,315.7,63.7,316,63.6z"/>
		<path class="st2" d="M378.5,63.2c0,0,0.5,0.1,0.4,0.6C378.1,64.4,377.9,63.2,378.5,63.2z"/>
		<path class="st2" d="M373.1,63.8c0.2,0.1,0.5,0.3,0.5,0.4c0.3,0.1,0.7,0.1,0.8,0.1c0.3,0.2,1.2,1.2,1.2,1.3
			c0.1,0.5,0.1,1.5-0.4,1.5c-0.4-0.4-0.1-0.9-0.3-1.3c-0.1-0.2-0.8-0.7-1.2-1c-0.5-0.3-1.2-0.6-1.6-0.6c-0.3,0-0.7,0.3-0.8-0.1
			C371.6,64,372.7,63.7,373.1,63.8z"/>
		<path class="st2" d="M389,64.3c0.5,0.4,1.3,0.6,1.5,1.1c-1.1,0.1-0.9-0.1-1.4-0.6c-0.5-0.5-0.8-0.4-1.1-0.8
			C388.7,63.8,388.8,64.2,389,64.3z"/>
		<path class="st2" d="M384.8,64.6c-0.3-0.4-0.7-0.2-0.8-0.6c0.7,0.1,0.9,0.4,1.2,0.6c0.5,0.4,1.2,0.5,0.8,1.1
			c-0.4-0.1-0.9-0.4-1.1-0.6C384.8,65,384.9,64.7,384.8,64.6z"/>
		<path class="st2" d="M369.8,64.7c-0.4,0.2-0.6,0.5-1.2,0.5c0-0.2,0-0.3,0-0.5C369.1,64.9,369.6,64.4,369.8,64.7z"/>
		<path class="st2" d="M299.1,65.7c0.2-0.1,0.8-0.1,1-0.2c0.1-0.1,0.4-0.4,0.5-0.5c1.1-0.3,1.9,0,2.5,0.5c0.3,0.3,0.8,0.5,0.5,0.8
			c-0.9,0.2-0.9-0.3-1.2-0.6c-0.4-0.3-0.8-0.2-1.1-0.1c-0.2,0-0.5-0.1-0.7,0c-0.5,0.2-0.9,1-1.8,0.7C298.7,66,298.8,65.9,299.1,65.7
			z"/>
		<path class="st2" d="M345.2,65.1c1.4-0.2,3,0.8,2.7,2.1c-0.5,0.1-0.8-0.3-1.1-0.5c-0.4-0.3-0.5-0.5-1-0.7
			c-1.2-0.4-1.2,0.7-2.3,0.8c-0.2-0.4,0.3-0.7,0.5-1C344.3,65.5,344.7,65.1,345.2,65.1z"/>
		<path class="st2" d="M294.9,65.1c0.6-0.1,1.4,0,1.5,0.7c-0.6,0-0.8-0.2-1.2-0.1c-0.6,0.1-0.9,1-1.5,0.6
			C293.8,66,294.6,65.1,294.9,65.1z"/>
		<path class="st2" d="M339.4,65.5c0,0.2,0,0.3,0,0.5c-1.2-0.3-1.7,0.5-2.2,0.2C337.7,65.9,338.4,65.1,339.4,65.5z"/>
		<path class="st2" d="M334.8,67.1c-0.7-0.2-1.7-0.1-2-0.6C333.5,66.6,335,66.2,334.8,67.1z"/>
		<path class="st2" d="M332.2,68.9c0,0.2-0.3,0.3-0.3,0.6c-0.7-0.1-0.5-0.8-1-1.1c-0.1-0.1-0.5-0.1-0.5-0.1
			c-0.3-0.1-0.4-0.2-0.5-0.2c-0.5-0.1-1.2,0.3-1.2-0.2c0.5,0,1.1-0.4,1.6-0.4C331.2,67.6,332.2,68.4,332.2,68.9z"/>
		<path class="st2" d="M328.5,68c0.1,0.4-0.5,0.2-0.8,0.2C327.6,67.8,328.3,67.8,328.5,68z"/>
		<path class="st2" d="M296.9,68.6c0.1,0.1,0,0.3,0.1,0.4c0.3,0.3,1.1,0.6,0.8,1c-0.6,0-0.9-0.4-1-1c-0.4-0.2-1.1-0.2-1-0.9
			C296.5,68.1,296.8,68.4,296.9,68.6z"/>
		<path class="st2" d="M396.5,68.5c0.5-0.2,1.5,0,1.4,0.7C397.3,69,396.5,69.1,396.5,68.5z"/>
		<path class="st2" d="M318.7,68.9c0-0.9,1.3-0.5,1.6-0.4c0,0,0.3,0.1,0.4,0.1c0,0,0,0.2,0,0.2c0.2,0.2,0.8-0.1,0.5,0.4
			C320.3,69.8,319.9,68.7,318.7,68.9z"/>
		<path class="st2" d="M383.4,71.6c0.3,0.1,0.8,0.2,1,0.2c0.1,0.1,0,0.2,0.1,0.2c0.4,0.1,0.8-0.1,1,0.4c-0.7,0.3-1.4-0.2-1.8-0.4
			c-0.1,0-0.3,0-0.4,0c-0.1,0-0.2-0.2-0.3-0.2c-0.3-0.2-1.1-0.1-0.8-0.6C382.9,71.2,383,71.4,383.4,71.6z"/>
		<path class="st2" d="M318.5,72c0.2,0,0.2,0.2,0.4,0.2c0.6,0,1.1-0.2,1.5-0.1c0.4,0.1,0.7,0.6,0.8,0.7c-0.5-0.1-0.9,0-1.4-0.1
			c-0.3-0.1-0.5-0.3-0.8-0.4c-0.2,0-0.8,0.1-1.1,0.1c-0.3,0-0.4,0.3-0.8,0.2C316.9,72.1,317.7,71.8,318.5,72z"/>
		<path class="st2" d="M397.2,72.3c0,0.1,0,0.2,0,0.4c-0.4-0.1-0.5,0.1-0.8,0.1C396.2,72.3,396.9,72.1,397.2,72.3z"/>
		<path class="st2" d="M316.8,72.8c-0.5-0.2-0.7,0.5-1,0.1C316.2,72.9,316.6,72.3,316.8,72.8z"/>
		<path class="st2" d="M330.7,73.1c0.1,0,0.2-0.1,0.3-0.1c0.9,0,1.4,0.2,2,0.2c0.2,0,0.2-0.2,0.4-0.1c0.5,0.1,1.1,0.1,1.4,0.5
			c-0.8,0.4-1.5,0-1.9-0.1c-0.5-0.1-1,0-1.5,0c-0.2,0-0.4-0.2-0.7-0.2c-0.3,0-1,0.4-1.1-0.1C329.8,72.8,330.6,73,330.7,73.1z"/>
		<path class="st2" d="M343.4,73.6c0.1,0.5-0.8,0.5-0.7,0C342.9,73.6,343.2,73.6,343.4,73.6z"/>
		<path class="st2" d="M360.4,74.4c0.2-0.1,0.3-0.2,0.5-0.2c0,0,0.4,0.1,0.5,0.1c0.5,0,1.2-0.2,1.1,0.4c-0.5,0.5-1.9-0.2-2.6,0
			C359.9,74.3,360.2,74.5,360.4,74.4z"/>
		<path class="st2" d="M375.8,74.8c0.1,0.1,0.3,0,0.4,0.1c0.1,0.1,0.3,0.6,0,0.6c-0.4-0.5-1.7-0.3-1.9-1
			C374.9,73.9,375.5,74.6,375.8,74.8z"/>
		<path class="st2" d="M302.1,74.3c0,0.2,0,0.3,0,0.5c-0.8-0.1-1.2,0-1.6-0.1C300.4,74,301.6,74.4,302.1,74.3z"/>
		<path class="st2" d="M373.1,74.5c0.3,0,0.8-0.3,0.7,0.1c0.4,0.2-0.3,0.1-0.5,0.1c-0.4,0.1-1.3,0.6-1.5,0
			C371.7,74.4,372.7,74.5,373.1,74.5z"/>
		<path class="st2" d="M371.2,74.9c0.3,0.4-0.7,0.5-0.5,0.1C370.6,74.8,370.9,74.9,371.2,74.9z"/>
		<path class="st2" d="M371.4,48.9c0.5,0.3,0.8,0.9,1.2,1c0.1-0.1,0.4-0.6,0.7-0.2c-0.4,0.2-0.6,0.4-0.8,0.8
			c-0.2,0.5,0.2,1.4-0.7,1.5c-0.1-0.4,0.1-0.8,0-1.1c-0.1-0.4-1.5-1.4-1.8-1.6c-0.5-0.3-1.2-0.2-1.5-0.6
			C369.5,47.7,370.6,48.4,371.4,48.9z"/>
		<path class="st2" d="M347.1,60.6c-0.1-0.1,0-0.3-0.1-0.4c0,0-0.2,0-0.3,0c-0.4-0.2-1-1.1-0.8-1.2c0.1,0.3,0.4,0.3,0.5,0.4
			c0.1,0.1,0.1,0.2,0.1,0.2c0.4,0.3,1,0.5,1,1.1c1.1,0,0.9,1.2,1.9,1.3c0.3-0.2,0.3-0.5,0.5-0.7c0.2-0.2,0.8-0.2,0.7-0.6
			c-0.3-0.4-0.7-0.7-1-1c-0.3-0.3-0.3-0.4-0.5-0.5c0,0-0.1-0.2-0.1-0.2c-0.5-0.3-0.6-0.6-1-1c-0.4-0.5-0.8-0.9-1.2-1.3
			c-0.2-0.2-0.6-0.4-0.8-0.6c-0.9-0.8-1.8-1.7-2.9-2.4c0.5-0.1,0.8,0.5,1,0.5c0.3,0,0.4,0.3,0.5,0.4c0.2,0.1,0.5,0,0.7,0.1
			c0.3,0.2,0.8,0.7,1.2,1.1c0.1,0.1,0,0.3,0.1,0.4c0,0,0.2,0,0.3,0c0,0,0.1,0.2,0.1,0.2c0.5,0.5,1.1,1.1,1.5,1.5
			c0.3,0.3,0.5,0.3,0.7,0.5c0,0,0,0.2,0,0.2c0,0,0.2,0.1,0.3,0.1c0.2,0.2,0.6,0.4,0.7,0.6c0.1,0.1,0,0.3,0,0.4c0,0,0.2,0.1,0.3,0.1
			c0.1,0.1-0.1,0.3,0,0.4c0.2,0.4,1.1,0.1,1.4,0c0.2-0.1,0.3-0.4,0.5-0.5c0.1-0.1,0.4,0,0.5,0c0.1,0,0.3-0.2,0.4-0.2
			c0.5-0.1,0.9-0.2,1.2-0.1c0.5,0.1,0.9,0.4,1.1,0.6c0.2,0.1,0.4,0.1,0.5,0.2c0.2,0.1,0.2,0.3,0.4,0.4c0.2,0.1,0.4,0.1,0.5,0.2
			c0.3,0.3,0.4,0.7,0.7,1c1.1-0.7,2.1-1.2,3.7-1.3c0.3,0,0.7-0.1,1-0.1c0.4,0,0.7,0.3,1,0.4c0.1,0,0.2-0.1,0.3-0.1
			c0.3,0,1,0.4,1.1,0.5c0.1,0.1,0.3,0,0.4,0.1c0.8,0.4,1,0.6,1.6,1.1c0.4,0.3,0.9,0.6,1,0.7c0.2,0.3,0,0.6,0.1,1
			c0.1,0.4,0.8,0.9,0.3,1.2c-0.5,0-0.6-0.5-0.8-0.9c-0.5-0.7-0.9-1.3-1.5-1.7c-0.4-0.2-0.9-0.5-1.4-0.7c-0.5-0.2-1-0.5-1.5-0.6
			c-0.7-0.1-1.8-0.1-2.6,0c-0.2,0-0.3,0.2-0.7,0.4c-0.2,0.1-0.7,0.1-0.8,0.2c-0.5,0.3-1.1,1-1.2,1.5c-0.2,0.8,0.5,1.4-0.1,2.1
			c-0.8,0.1-1-0.6-1.6-0.6c-0.5,0-0.8,0.7-1.2,0.2c0-1.1,1.4-0.9,2.3-1.2c-0.1-0.6,0.1-1.2,0-1.7c-0.3-0.9-2.3-2-3-2.1
			c-0.8-0.1-1.1,0.1-1.6,0.4c-0.9,0.4-2.2,1.1-2.3,1.8c-0.1,0.3,0.2,0.6,0.3,0.8c0,0.1-0.2,0.2-0.1,0.5c0,0.4,0.4,0.7,0.1,1.2
			c-0.9-0.3-0.9-1.3-1.2-1.9c-0.1-0.1-0.2-0.1-0.3-0.2c-0.1-0.1,0-0.3-0.1-0.5C348.3,61.6,347.4,60.9,347.1,60.6z"/>
		<path class="st2" d="M275.2,57.8c-0.4-0.1-0.5-0.5-0.8-0.7C274.8,57.1,275,57.5,275.2,57.8z"/>
		<path class="st2" d="M299.5,60.7c0.5,0,0.6,0.4,1,0.6c0.2,0.1,0.4,0,0.4,0.2C300.3,61.3,299.6,61.3,299.5,60.7z"/>
		<path class="st2" d="M296.9,66.4c0.2-0.5-0.2-0.4-0.4-0.6c0.1-0.2,0.3,0.1,0.5,0.1c0.4,0.1,1.6,0.4,1.2,0.6
			C298.1,66.1,297.6,66.5,296.9,66.4z"/>
		<path class="st2" d="M310.7,72c0.1,0,0,0.2,0.1,0.2c0.3,0.1,0.8,0.1,1.1,0.2c0.2,0.1,0.3,0.3,0.5,0.5c0.2,0.2,0.6,0.3,0.5,0.6
			c-0.3,0-0.5,0-0.8,0c-0.1-0.3-0.4-0.5-0.7-0.7c-0.1-0.1-0.4,0-0.5-0.1c0,0,0-0.2,0-0.2c-0.1-0.2-0.5-0.4-0.7-0.5
			c-0.4-0.2-1.2-0.1-1.2-0.5C309.6,71.3,310.2,71.7,310.7,72z"/>
	</g>
	<g>
		<path class="st2" d="M421.5,47.3c-0.1,0-0.4,0.2-0.5,0.2c-0.1,0-0.1-0.1-0.1-0.1c-0.1,0-0.2,0.1-0.1,0.1c-0.6-0.1-0.6,0-1.1,0.1
			c-0.6,0.1-1.2,0-1.8,0.1c-0.3,0-0.4,0.2-0.7,0.2c-0.4,0-0.5-0.1-0.9-0.3c-0.1-0.9,1-0.7,1.7-0.8c0.2,0,0.4-0.2,0.6-0.2
			c1.4-0.1,3.3,0,3.8,0.8C422,47.5,421.9,47.2,421.5,47.3z"/>
		<path class="st2" d="M405.4,52.4c-0.5,0-1-0.2-1.5-0.2c-0.3,0-0.8,0.3-1.4,0.2c-0.6-0.1-1.2-0.1-1-0.8c0.1-0.4,0.9-0.2,1.8-0.2
			c0.5,0,1.2-0.1,2-0.1c1.3,0,2.9,0.2,3.8,0.1c0.2,0,0.5-0.2,0.7-0.2c0.2,0,0.6,0.1,0.9,0.1c0.2,0,0.5-0.1,0.7-0.1
			c0,0,0.1,0.1,0.2,0.1c0.2,0,0.3-0.1,0.4-0.1c0.2,0,0.4,0.2,0.6,0.3c0.4,0,0.6-0.1,1-0.1c0.2,0,0.4,0.2,0.7,0.3
			c0.2,0,0.6-0.3,0.6,0.1c-1.1,0-2.3,0.2-3.6,0.3c-0.7,0-1.5-0.1-2.2-0.1c-0.5,0-0.9,0.2-1.4,0.2C407.1,52.4,406.2,52.4,405.4,52.4z
			"/>
		<path class="st2" d="M423.3,51.7c0-0.3,0.3-0.3,0.6-0.4C423.9,51.7,423.6,51.7,423.3,51.7z"/>
		<path class="st2" d="M419.6,52.1c-0.3,0.1-1-0.1-1.2,0c-0.2,0-0.2,0.2-0.4,0.2c-0.6,0.2-1.2,0.2-1.5-0.4c0.5-0.7,1.5-0.4,2.3-0.4
			c0.3,0,0.7-0.1,0.9-0.1c0.3,0,0.5,0.3,0.7,0.3c0.1,0,0.3-0.2,0.5-0.2c0.2,0,0.5,0.2,0.6,0.1c0.3,0,0.5-0.4,0.9-0.2
			c0.1,0,0.2,0,0.2,0c0,0.2,0,0.4-0.1,0.5c-0.8,0-1.5,0.4-2.2,0.3c-0.2,0-0.4-0.3-0.6-0.3C419.7,51.8,419.6,52.1,419.6,52.1z"/>
		<path class="st2" d="M413.6,55.1c0-0.3,0.3-0.3,0.6-0.4C414.2,55.1,413.9,55.1,413.6,55.1z"/>
		<path class="st2" d="M409.9,55.5c-0.3,0.1-1-0.1-1.2,0c-0.2,0-0.2,0.2-0.4,0.2c-0.6,0.2-1.2,0.2-1.5-0.4c0.5-0.7,1.5-0.4,2.3-0.4
			c0.3,0,0.6-0.1,0.9-0.1c0.3,0,0.5,0.3,0.7,0.3c0.1,0,0.3-0.2,0.5-0.2c0.2,0,0.5,0.2,0.6,0.1c0.3,0,0.5-0.4,0.9-0.2
			c0.1,0,0.2,0,0.2,0c0,0.2,0,0.4-0.1,0.5c-0.8,0-1.5,0.4-2.2,0.3c-0.2,0-0.4-0.3-0.6-0.3C410,55.3,409.9,55.5,409.9,55.5z"/>
		<path class="st2" d="M442.5,52.8c0.4-0.3,1,0.1,1.4,0c0,0,0.2-0.2,0.3-0.2c0.5-0.2,1.1,0,1.3,0.2c0.1,0.1,0.5,0.1,0.4,0.4
			c-0.2,0.6-1,0.2-1.6,0.1C443.5,53.2,442.6,53.4,442.5,52.8z"/>
		<path class="st2" d="M437.5,53.4c-0.5-1.3,1.6-1.3,1.9-0.3C438.5,52.9,438.4,53.6,437.5,53.4z"/>
		<path class="st2" d="M428.9,53.6c0-0.2,0-0.5,0-0.7c0.3-0.2,0.9-0.4,1.5-0.3c0.6,0,1.4,0.2,1.5,0.8
			C431.2,54,429.9,53.3,428.9,53.6z"/>
		<path class="st2" d="M411.1,58.9c0-0.2,0-0.5,0-0.7c0.3-0.2,0.9-0.4,1.5-0.3c0.6,0,1.4,0.2,1.5,0.8
			C413.5,59.4,412.1,58.7,411.1,58.9z"/>
		<path class="st2" d="M420,54.1c0,0.1,0,0.1,0.1,0.1c0,0.3-0.2,0.4-0.5,0.4C419.6,54.2,419.7,54,420,54.1z"/>
		<path class="st2" d="M437,57.6c0.2-0.1,0.6,0,0.9-0.1c0.3-0.1,0.6-0.2,0.7-0.2c0.8,0,1.5,0.2,1.3,0.9c-0.2,0.4-0.8,0.1-1.4,0.2
			c-0.6,0.1-2.2,0.7-2.2-0.2C436.4,58.4,436.7,57.8,437,57.6z"/>
		<path class="st2" d="M430.2,58.2c-0.2-0.2-0.4-0.7-0.1-1c0.5-0.1,0.8,0.4,1.2,0.5c0.2,0.1,0.4-0.1,0.5-0.1c0.2,0,0.5,0.3,0.7,0.4
			c0,0,0.3-0.1,0.5-0.1c0.3,0,0.4,0.4,0.6,0.1c-0.2,0.5-0.7,0.4-1.1,0.5c-0.2,0-0.1-0.3-0.2-0.3c-0.2,0-0.2,0.3-0.5,0.2
			C431.2,58.4,430.8,57.7,430.2,58.2z"/>
		<path class="st2" d="M429.2,57.8c-0.3,0.2-0.9,0-1.2,0.2c-0.2-0.2-0.2-0.7,0-0.9C428.5,57.2,429,57.3,429.2,57.8z"/>
		<path class="st2" d="M444.4,58.7c-0.9,0-1.5,0.2-2.2-0.2C442,57.2,444.6,57.5,444.4,58.7z"/>
		<path class="st2" d="M421.5,58.1c0,0.6-1.1,0.3-1.1,0C420.7,57.8,421,58.2,421.5,58.1z"/>
		<path class="st2" d="M418.4,58.5c-0.2,0-0.4,0.3-0.6,0.4c-0.1,0-0.3-0.1-0.5-0.1c-0.4,0-0.9,0.3-0.8-0.4c0.5-0.5,2.3,0,3.3-0.3
			c0,0.3,0,0.5-0.1,0.6C419.2,58.7,418.9,58.4,418.4,58.5z"/>
		<path class="st2" d="M417.5,61.2c0.3,0,0.5-0.1,0.7-0.1c0.4,0,1.2-0.2,1.5,0.3c-0.2,0.1-0.6,0.4-1,0.5c-0.1,0-0.3-0.1-0.5-0.1
			c-0.7-0.1-1.6,0.1-2.1-0.2C416.2,60.7,417,61.1,417.5,61.2z"/>
		<path class="st2" d="M430.2,61.6c0.6-0.1,1.2,0.1,1.2,0.9c-1-0.2-1.5,0.8-2.2,0.4C429.3,62.6,429.7,61.7,430.2,61.6z"/>
		<path class="st2" d="M398.3,51c0.6-0.1,1.2,0.1,1.2,0.9c-1-0.2-1.5,0.8-2.2,0.4C397.4,51.9,397.8,51.1,398.3,51z"/>
		<path class="st2" d="M424.3,62.6c-0.7-0.1-1.1,0.2-1.8,0.1C422.2,61.6,424.6,61.4,424.3,62.6z"/>
		<path class="st2" d="M418.6,55c-0.8-0.3-1.8,0.3-2.1-0.5c0.7-0.2,1.7-0.2,2.2-0.1C418.5,54.4,418.7,54.9,418.6,55z"/>
	</g>
	<g>
		<g>
			<path class="st2" d="M395.8,9c1-0.1,2.9-0.2,3.1,0.6C398.3,9.7,396.2,9.5,395.8,9z"/>
			<path class="st2" d="M407.9,27.3c-2.1-0.1-2.2,2.2-1.7,3.5c-1.1-0.1-1.4-1.2-1.4-1.6c0-0.2,0.5-1.7,0.6-1.9
				c0.4-0.6,1.2-0.8,1.6-1.2c1.1-1.1-0.3-4.1-1-4.5c-1-0.6-2.4-0.1-3.3-1c0-1,0.6-1.6,0.6-2.5c0-0.4-0.4-1.6-0.4-1.6
				c0-0.3,0.3-0.3,0.2-0.6c0-0.1-0.4-0.3-0.4-0.4c-0.1-0.3,0.1-0.7,0-1c0-0.1-0.4-0.3-0.4-0.4c-0.1-0.3,0-0.6-0.2-0.8
				c-0.5-0.8-1.7-1.3-2.1-2.1c0.3,0,0.3-0.3,0.6-0.2c0.6,0.3,0.5,0.8,1,1c0.2,0.1,1,0.1,1,0.2c0.1,0.1,0.8,1.6,0.8,1.7
				c0.3,0.9,0.2,2.1,0.4,3.1c0.3,1,0.7,1,0.4,1.6c-0.2,0.5-0.4,1.6-0.2,1.9c0.5,0.7,2-0.1,2.7,0.2c0.2,0.1,0.9,0.9,1,1
				c0.4,0.6,0.5,1.1,0.8,1.9c0.6,1.6,0.3,1.6-0.2,2.7C408.3,26.6,408.2,27,407.9,27.3z"/>
			<path class="st2" d="M382,16.4c-0.8-0.4-2.1,0.1-2.5-1c0.9-0.2,1.7-0.3,2.5,0c0.2,0.1,0.5,0.7,0.8,0.8c0.5,0.3,0.7,0.4,1.2,0.4
				c-0.1,1.2,1,1.2,1,2.3C383.7,18.6,383.2,17,382,16.4z"/>
			<path class="st2" d="M376.8,16.2c-0.3,0.7-0.9,1-1.9,1c-0.3-0.9,1-0.9,1.4-1c0,0,0-0.4,0-0.4c0.5-0.2,1.4-0.1,2.1-0.2
				C378.3,16.6,377.7,16.2,376.8,16.2z"/>
			<path class="st2" d="M373.9,24.4c-1.8-0.4-2.2-0.3-3.5,0.4c-0.6,0.3-1.2,0.7-1.4,1c-0.6,0.8-0.8,1.7-1,2.5c-0.5,0-1-0.5-1-0.8
				c0-0.2,0.5-1.8,0.6-1.9c0.2-0.2,1.2-0.9,1.4-1c0.4-0.2,0.7-0.4,1-0.6c0.4-0.2,0.8-0.4,1-0.6c0.1-0.1,0.3-0.4,0.4-0.4
				c0.4-0.1,1.1,0.5,1-0.2c-0.4-0.7-0.2-1.2-0.2-1.9c0-0.4-0.2-0.9-0.2-1c0.1-0.3,0.4-0.2,0.6-0.6c0.2-0.3,0.1-0.9,0.2-1
				c0.1-0.1,0.3,0,0.4,0c0.3-0.1,0.4-0.8,0.8-0.8c-0.1,0.8-0.6,1.2-0.8,1.7c-0.3,0.7-0.1,0.3,0.2,0.6c0.3,0.3-0.1,1.3,0,1.9
				C373.7,22.6,375,23.8,373.9,24.4z"/>
			<path class="st2" d="M418,34.3c-0.8-1.3-2.2-2-3.3-2.7c-0.4-0.3-1.1-0.5-1.2-1c0.4-1.2,1-0.3,1.9,0c0.3,0.1,0.8,0.1,1,0.2
				c0.3,0.2,0.7,0.7,1,1c0.6,0.6,1,1,1,1C418.6,33.3,418.7,34.2,418,34.3z"/>
			<path class="st2" d="M406.7,35.7c-0.1-0.1-0.6-0.3-0.8-0.4c-0.1-0.1-0.1-0.3-0.2-0.4c-0.2-0.1-0.5-0.1-0.6-0.2
				c-0.5-0.4-0.9-0.9-1.4-1.2c0-0.3,0.1-0.5,0.4-0.4c1.4,0.6,2.4,2,3.3,2.7c0.4,0.3,0.9,0.3,1.2,0.6c0.4,0.3,0.3,0.9,0.6,1.2
				c0,0,0.4,0.2,0.4,0.2c0.5,0.3,1.1,0.7,0.8,1.2c-1,0.3-1.3-1-1.9-1.4c-0.1-0.1-0.5-0.1-0.6-0.2C407.2,37,407.2,36.3,406.7,35.7z"
				/>
			<path class="st2" d="M353.7,32.3c-0.6,0.1-1.3-0.7-2.3-1c-0.9-0.3-2.1-0.2-2.5,0.2c-0.2,0.2-0.4,0.2-0.6,0.4
				c-0.1,0.1-0.3,0.1-0.4,0.2c-0.3,0.3-0.3,1.3-1.4,1.2c-0.2-1.7,1.6-1.9,2.3-2.5c0.3-0.2,0.3-0.2,0.6-0.4c1.2-0.7,1.4-0.5,2.5-0.2
				c0.7,0.2,1.5,0.3,2.3,0.4c0.5-0.2-0.2-1.6,0.6-1.4c0.1,0.9,0.7,1.4,0.2,1.9C354.4,31.5,354.3,32.2,353.7,32.3z"/>
			<path class="st2" d="M404.9,44.8c-0.4-0.3-0.2-1.4-0.8-1.4c-0.8-0.2-0.7,0.7-1.7,0.4c-0.4-0.7,1-1.1,1.2-1.2
				c0.1-0.1,0.3-0.4,0.4-0.4c0.6,0,1.3,0.3,1.4,0.6C405.6,43.2,405.7,44.6,404.9,44.8z"/>
			<path class="st2" d="M344.8,27.6c1-0.2,1.4,0.3,1.6,0.8C345.6,28.4,344.9,28.4,344.8,27.6z"/>
			<path class="st2" d="M340.5,32.1c-0.9,0.7-1.4-0.6-2.3-0.6C338.8,30.1,340.3,31,340.5,32.1z"/>
			<path class="st2" d="M411.4,30.6c-0.5,0-1.1,0.2-1.7,0.2c-0.4,0-0.5-0.3-0.8-0.2c0,0-0.2,0.4-0.2,0.4c-0.5,0.3-1.9,0.3-1.9-0.2
				c0.8-0.3,2.3,0.3,2.5-1c1.5,0.3,2.9-0.5,3.9,0C413.5,31.1,412.4,30.6,411.4,30.6z"/>
			<path class="st2" d="M363.4,27.8c-0.1-0.1-0.3,0-0.4,0c-0.1,0-0.1-0.4-0.2-0.4c-0.6-0.5-1.6-1.1-2.1-1.2c-0.3-0.1-0.7,0.1-1,0
				c-0.3-0.1-0.7-0.4-0.8-0.4c-1.4,0.2-1.6,1.7-3.1,2.1c-0.2,0-0.5-0.1-0.2-0.2c0.4-0.5,1.1-0.6,1.4-1c0.3-0.3,0.2-1,0.6-1.2
				c0.8-0.4,2.2,0,2.9,0c1.2,0,1.5-0.3,2.1,0.2c1,1,2.9,2.5,2.7,4.3C364.3,29.8,364.1,28.5,363.4,27.8z"/>
		</g>
		<path class="st2" d="M392.4,21.5c-0.5-1.1-1.6-2.1-3.5-1.6c-1,0.2-1.2,0.4-1.9,1c-0.3,0.3-1,0.2-0.6,0.8c0.8-0.2,1.3-0.5,1.9-0.8
			c1.1-0.6,2.6,0.4,3.3,1.2c0.3,0.4,0.3,1.2,1,1.2C393.1,22.7,392.7,22.2,392.4,21.5z"/>
	</g>
</g>
</svg>
