<svg xmlns="http://www.w3.org/2000/svg">
<defs>
<font id="MitreSquare" horiz-adv-x="0" >
  <font-face 
    font-family="MitreSquare"
    font-weight="400"
    font-stretch="normal"
    units-per-em="2048"
    panose-1="2 0 0 0 0 0 0 0 0 0"
    ascent="1638"
    descent="-410"
    x-height="576"
    cap-height="2285"
    bbox="-1099 -1404 4607 2828"
    underline-thickness="20"
    underline-position="-266"
    unicode-range="U+0020-25CA"
  />
<missing-glyph horiz-adv-x="4980" 
d="M1595 2214q25 60 41 125q-50 -16 -108 -63q35 -39 67 -62zM1515 2301q51 43 128 69q15 52 11.5 118.5t-27 94t-54 25.5t-52.5 -25.5t-35 -74.5t-7 -107t36 -100zM1584 2189q-54 36 -77 70q-37 -29 -76 -85.5t-47 -99.5t1 -65.5t28.5 -21.5t40 13.5t55 49.5t75.5 139z
M1620 2199q28 -19 67 -44t95.5 -39.5t123.5 -4.5q38 30 77 55q-2 69 -24 110.5t-64.5 64.5t-95 27t-127.5 -17q-21 -67 -52 -152zM1975 2121q-58 -37 -72.5 -60t-15 -35.5t25 -8t47.5 37t15 66.5zM2652 2185q2 58 16.5 109t22 97.5t7 68t-5 33.5t-18.5 11t-29.5 -57
t-27 -126t-17 -86.5t-10.5 -28.5l10 -2q17 10 24.5 7t11.5 -10t16 -16zM1678 2379q57 16 96.5 17.5t79 -6t79 -30t63.5 -60.5t33 -114q57 27 90 31.5t57.5 -2.5t35.5 -29t11.5 -52.5t-2 -55t-0.5 -35t17 -10.5t40.5 13.5t48.5 38t29.5 35t24.5 12t26 -5.5q-2 -32 -8.5 -48.5
t-2 -28.5t26.5 -11t50 23t59 67t35 66t16.5 92.5t21 117t22 76t27 45.5t37 21.5t38 -11.5t16 -41.5t-12 -86t-37.5 -138.5t-26 -103t-20 -43.5t-17 -36t36 -20.5t74 15.5t67.5 44.5t45 52.5t22 35.5t25.5 14t30.5 -11.5t13 -37t-11 -44t-17 -49.5t3.5 -36.5t41.5 -2t71.5 21
t55 29.5q-13 34 -2 59.5t29 40t41 20.5t39.5 3t21.5 -18.5t-5 -32t-26 -27.5t-35 -26q16 -23 47 -33.5t77 2t56 34.5t-5.5 45t-30.5 29.5t-15 13.5l4 9q27 -6 48.5 -27t27 -48t-8.5 -48.5t-53.5 -36.5t-81.5 -15.5t-73.5 10t-44.5 29.5q-52 -31 -104 -47t-80 -14t-37.5 15
t-6 44.5t9 54.5t2.5 35.5t-11 1.5t-31.5 -39t-67 -55t-84 -31.5t-67.5 1.5t-43 28.5t-19 50.5q-18 -30 -43.5 -57t-49.5 -41.5t-53.5 -16.5t-49 10t-16.5 30.5t-5 18.5q-42 -39 -65 -52t-48 -14.5t-43.5 8.5t-18.5 46t1 67t-6 46t-25 17.5t-53.5 -7t-44 -20t-16 -47.5

<glyph glyph-name=".notdef" unicode="&#x2126;" horiz-adv-x="4980" 
d="M1595 2214q25 60 41 125q-50 -16 -108 -63q35 -39 67 -62zM1515 2301q51 43 128 69q15 52 11.5 118.5t-27 94t-54 25.5t-52.5 -25.5t-35 -74.5t-7 -107t36 -100zM1584 2189q-54 36 -77 70q-37 -29 -76 -85.5t-47 -99.5t1 -65.5t28.5 -21.5t40 13.5t55 49.5t75.5 139z
M1620 2199q28 -19 67 -44t95.5 -39.5t123.5 -4.5q38 30 77 55q-2 69 -24 110.5t-64.5 64.5t-95 27t-127.5 -17q-21 -67 -52 -152zM1975 2121q-58 -37 -72.5 -60t-15 -35.5t25 -8t47.5 37t15 66.5zM2652 2185q2 58 16.5 109t22 97.5t7 68t-5 33.5t-18.5 11t-29.5 -57
t-27 -126t-17 -86.5t-10.5 -28.5l10 -2q17 10 24.5 7t11.5 -10t16 -16zM1678 2379q57 16 96.5 17.5t79 -6t79 -30t63.5 -60.5t33 -114q57 27 90 31.5t57.5 -2.5t35.5 -29t11.5 -52.5t-2 -55t-0.5 -35t17 -10.5t40.5 13.5t48.5 38t29.5 35t24.5 12t26 -5.5q-2 -32 -8.5 -48.5
t-2 -28.5t26.5 -11t50 23t59 67t35 66t16.5 92.5t21 117t22 76t27 45.5t37 21.5t38 -11.5t16 -41.5t-12 -86t-37.5 -138.5t-26 -103t-20 -43.5t-17 -36t36 -20.5t74 15.5t67.5 44.5t45 52.5t22 35.5t25.5 14t30.5 -11.5t13 -37t-11 -44t-17 -49.5t3.5 -36.5t41.5 -2t71.5 21
t55 29.5q-13 34 -2 59.5t29 40t41 20.5t39.5 3t21.5 -18.5t-5 -32t-26 -27.5t-35 -26q16 -23 47 -33.5t77 2t56 34.5t-5.5 45t-30.5 29.5t-15 13.5l4 9q27 -6 48.5 -27t27 -48t-8.5 -48.5t-53.5 -36.5t-81.5 -15.5t-73.5 10t-44.5 29.5q-52 -31 -104 -47t-80 -14t-37.5 15
t-6 44.5t9 54.5t2.5 35.5t-11 1.5t-31.5 -39t-67 -55t-84 -31.5t-67.5 1.5t-43 28.5t-19 50.5q-18 -30 -43.5 -57t-49.5 -41.5t-53.5 -16.5t-49 10t-16.5 30.5t-5 18.5q-42 -39 -65 -52t-48 -14.5t-43.5 8.5t-18.5 46t1 67t-6 46t-25 17.5t-53.5 -7t-44 -20t-16 -47.5
t-27 -68.5t-49 -49t-52.5 -17.5t-33.5 17.5t-6 40.5t27.5 57q-70 -11 -144.5 13.5t-129.5 65.5q-42 -93 -81 -140.5t-74.5 -65.5t-62.5 -12t-39 23.5t-12 54.5q0 33 13.5 68.5t34.5 68t49.5 60.5t52.5 52q-27 43 -38.5 93t-5.5 98.5t22.5 85.5t44 60t57.5 23q36 0 62.5 -19
t39.5 -53.5t16 -87t-11 -103.5zM3142 2132q21 14 34 24t15.5 22.5t-5 17.5t-22.5 0t-24 -20t2 -44zM2465 2448q24 -3 38 -14.5t20.5 -23.5t-4 -14.5t-21.5 -4t-19 8.5t-16.5 5t-22.5 -3.5t-13.5 13.5t11.5 22t27 11zM3838 1885q-8 -13 -18 -34t-6.5 -61t12 -81.5t25 -73.5
t27.5 -38.5t18 8t17.5 51t22.5 79.5q-45 68 -98 150zM3843 1356q24 -41 32.5 -48t22 -5.5t1 21.5t-55.5 32zM3856 484q14 -28 26 -45t19 -11t2 21t-17.5 24t-29.5 11zM3900 -131q27 -35 38 -35.5t15 8.5t-11 18.5t-42 8.5zM3738 1641q-7 44 -7 67.5t5.5 53t18 50.5t23 38.5
t15 38.5t2.5 44t-7 41q-60 80 -116.5 154t-123 145t-113.5 106.5t-79.5 44.5t-63.5 8l4 13q14 4 31 4q12 0 34.5 -3.5t54.5 -20.5t78.5 -61t112.5 -120.5t107 -136t84 -121.5q37 -6 39 -15.5t3.5 -28.5t17.5 -43.5t39.5 -61.5t49.5 -75q21 79 52 123.5t61.5 56.5t57 9.5
t66.5 -30.5t80 -75t66 -96t31 -69t-5 -24t-15.5 14.5t-27 60t-67.5 90.5t-90.5 66t-78 1.5t-59 -62.5t-43.5 -108q85 -121 139.5 -178.5t115 -100t89 -47.5t45 13t21.5 48.5t3 60.5t-9 52t-2 25t13.5 -14.5t12.5 -40t4 -50.5q0 -49 -9 -76.5t-30.5 -40t-61.5 -3.5
t-95.5 52.5t-116 111.5t-128.5 163q-17 -66 -29 -102t-27 -44.5t-32 3.5t-38 55.5t-30.5 85t-13.5 104.5q-12 -13 -22.5 -30.5t-17.5 -45.5t-5 -79h-13zM3770 1481q-17 26 -24 61.5t-4 72.5l8 5q6 -40 7.5 -64.5t17.5 -68.5zM3913 1031q-22 46 -52.5 74.5t-70.5 54.5
t-114.5 51t-147 44t-165 54.5t-129.5 62.5t-43.5 42.5t-7.5 31.5q7 14 14.5 18.5t20.5 1t20 -7.5t45.5 -17t87.5 -30t120 -39t161.5 -49.5t115 -36.5t31 -7.5t-2 18t-14 39.5t-0.5 40.5t21 29.5q-14 21 -28 58l6 6q21 -37 35 -59q42 1 68 -21.5t40 -53t15 -50t-9.5 -25.5
t-23.5 -2t-31 25t-31.5 47.5t-22 26.5t-12 -14.5t2.5 -30t15 -33.5t8.5 -29.5t-15 -11.5t-52.5 13t-90 31.5t-140.5 43.5t-167.5 52.5t-108.5 39.5t-31.5 6.5t6 -17t40.5 -28.5t69.5 -30t79.5 -30t120 -37t131 -41t98.5 -47t82 -63.5t50 -61.5t13 -37zM3785 621
q-9 17 -11.5 53.5t2.5 58t24.5 37t67.5 11.5q-8 20 -24.5 50t-39.5 60t-45 51q8 17 19.5 18t31.5 -6t53.5 -12t49.5 2t16 26.5t-10 42.5l8 5q20 -29 23.5 -56t-4 -43t-24.5 -22.5t-36 -5t-41 9t-25 2.5q41 -55 64 -97t27 -65.5t-5.5 -29t-21.5 1t-41.5 5t-41 -16t-12 -37.5
t2.5 -40zM3799 611q8 -22 13.5 -34.5t15.5 -30.5q21 0 42 -8.5t37 -33t22 -49t0.5 -40.5t-20.5 -16t-21 -5q10 -9 15.5 -16.5t1.5 -26.5q-18 4 -36.5 3.5t-38.5 -10.5t-22 -34.5t4.5 -44.5t22 -40t34 -34.5t36.5 -28t31 -33.5t18 -34t-3 -27t-34 -8.5t-46 8t-40.5 2.5
t-25 -17.5t-1.5 -35.5t14.5 -44t36.5 -48q28 10 62 -1t47.5 -31t17.5 -43.5t-0.5 -32t-17 -12t-33.5 8.5t-35 31.5t-22 19t-17.5 -5.5t-20.5 -25t-7 -76.5t8.5 -99t14 -88t17.5 -121t15 -115.5t6.5 -72t-9.5 -60.5t-25 -51.5t-24.5 -47.5t-8.5 -29.5t-6 -13q-13 1 -10 28.5
t18 51.5t24.5 52.5t12 54.5t-5 82.5t-13 121.5t-18 143.5t-19.5 142.5t-1.5 106t36.5 74q-30 34 -44.5 72.5t-13 73.5t15.5 45.5t35 15t46 5.5t22.5 6.5t-22 19.5t-49.5 48.5t-39 70t-6 67t35 58.5q-30 15 -39 43t-2 56.5t35 41.5q-22 41 -28 68zM3842 483q-28 -1 -33 -19
t3 -32.5t21.5 -18t30 -1.5t15.5 4.5t-10 17t-27 49.5zM3255 -720q-25 -61 -41 -126q50 16 109 64q-36 38 -68 62zM3335 -808q-51 -42 -127 -68q-16 -53 -11 -123t29.5 -94.5t53 -21.5t50 26t35.5 72t7 107.5t-37 101.5zM3266 -696q54 -35 78 -70q36 30 75.5 86t47 99.5
t-1.5 65.5t-28 21t-39.5 -13.5t-55 -49.5t-76.5 -139zM2868 -673q2 -69 23.5 -110t64 -64t95.5 -27.5t127 16.5q21 68 52 152q-28 19 -67 44t-95.5 39.5t-123.5 5.5q-38 -31 -76 -56zM2875 -628q59 37 73 60t14.5 35.5t-25 8t-47.5 -37t-15 -66.5zM2198 -692
q-1 -58 -16 -108.5t-22.5 -97t-7 -68t5.5 -33.5t18.5 -11t29 56.5t27 125.5t17 86.5t11.5 28.5l-11 2q-17 -9 -24.5 -6.5t-11 10t-16.5 15.5zM3360 -788q26 -44 38 -94t6 -98.5t-23 -85.5t-48 -60t-60 -23q-32 0 -62 24.5t-43.5 91.5t4.5 148q-57 -17 -96.5 -18t-79 6.5
t-79 29.5t-63.5 60t-33 114q-57 -27 -90 -31t-57 2.5t-35.5 28.5t-12 52.5t2.5 55t0.5 35t-17 10.5t-40 -13t-49 -38t-30 -35.5t-24.5 -12t-26 6.5q2 32 9 48t2.5 28t-27 11t-50.5 -23t-59 -67t-34.5 -66t-16.5 -92.5t-21.5 -116.5t-21.5 -76t-27 -46t-37.5 -21.5t-37.5 12
t-15.5 41.5t11.5 86t37 138.5t26 103t20 43.5t17.5 35.5t-36 21t-74.5 -15.5t-67.5 -45t-45 -52.5t-22 -35.5t-25.5 -13.5t-30 11.5t-12.5 36.5t10.5 44.5t17 50t-3 36.5t-42 2t-71.5 -21.5t-55.5 -29q13 -34 2 -60t-29 -38.5t-38.5 -19t-39 -5t-23.5 17.5t5 32t24.5 29.5
t35.5 23.5q-15 24 -46.5 34t-77.5 -2t-55.5 -31.5t6 -43.5t28.5 -34t14 -17l-5 -9q-18 12 -43 37t-29.5 46.5t9.5 43t53 36.5t81 16t73.5 -10t45.5 -30q52 31 104 47t79.5 14t37 -14.5t6.5 -44t-9 -55t-2.5 -35.5t11 -1.5t31.5 38.5t67 55t83.5 32t67.5 -1.5t43.5 -29
t18.5 -49.5q19 29 44.5 56t49 41.5t53.5 17t49 -10t16 -31t5 -18.5q43 40 66 52.5t47.5 14t43.5 -8.5t19 -45.5t-1 -67t5.5 -46.5t24.5 -17.5t54 7t44.5 20t16 48t26.5 69t48.5 48.5t53 17t33.5 -17t6 -40t-28 -57q70 10 145 -14.5t129 -64.5q42 93 81.5 140t74.5 65t62 12
t39.5 -23.5t12.5 -54.5q0 -33 -13.5 -68.5t-35 -68t-50 -60.5t-51.5 -51zM1709 -639q-24 -9 -36 -21.5t-14.5 -25t5 -17.5t23 0t24.5 20t-2 44zM2385 -955q-24 3 -38 14.5t-20.5 23.5t4.5 14.5t21.5 4.5t18.5 -8.5t17 -5t22.5 4t13 -14t-11 -22.5t-27.5 -11zM1012 -392
q8 13 18 34.5t7 61.5t-12 81.5t-25.5 73.5t-27 38t-17.5 -8t-17.5 -51t-23.5 -80q45 -68 98 -150zM1007 137q-24 41 -32 48.5t-22 5.5t-1 -21.5t55 -32.5zM995 1010q-15 29 -27 45t-19 10t-2 -20.5t17.5 -24t30.5 -10.5zM950 1624q-27 36 -38 36t-15 -9t11 -18t42 -9z
M1112 -148q8 -44 7.5 -67.5t-6 -53t-18 -50.5t-23 -38.5t-15 -38t-2.5 -44t7 -41.5q61 -79 117 -153.5t123 -145.5t114 -107.5t81 -44.5t62 -7l-5 -12q-15 -5 -33 -5q-11 0 -33 3.5t-53.5 21t-78.5 61t-113 120t-107 136t-84 121.5q-36 6 -38.5 15.5t-4 29t-17.5 43.5
t-39.5 61t-49.5 76q-21 -80 -52 -124.5t-61.5 -56.5t-56.5 -9t-66 30.5t-80.5 74.5t-66.5 96t-31 69t5 24.5t15.5 -14.5t27 -60t67.5 -90.5t90.5 -66.5t78 -1.5t59 62.5t43.5 108q-84 121 -139 179t-115 100.5t-89 47t-45.5 -13.5t-21.5 -48.5t-3 -60t9.5 -52t2.5 -25
t-13.5 14.5t-13 39.5t-4.5 50.5q0 49 9 76.5t30.5 40.5t62 3.5t96 -52.5t116 -111t127.5 -164q17 67 29 102.5t27 44t32 -3t38 -55t31 -85t13 -104.5q13 12 23 30t17 45.5t5 78.5h13zM1081 12q16 -26 23 -61.5t4 -72.5l-8 -4q-6 39 -7.5 63.5t-17.5 69.5zM937 462
q23 -45 53 -73.5t70.5 -55t114.5 -51t146.5 -44t165 -55t129.5 -62t43.5 -42.5t7.5 -32q-6 -14 -14 -18t-21 -1t-20 7t-45.5 17t-87.5 30t-119.5 39t-161.5 49.5t-115.5 36.5t-31 7.5t2 -18t14 -39.5t0.5 -40.5t-21 -29.5q14 -21 28 -58l-5 -6q-22 38 -35 59
q-42 -1 -68.5 21.5t-40.5 53t-15 50.5t9.5 25.5t23.5 1.5t31 -25t31.5 -47.5t22.5 -26.5t12 14.5t-2.5 30t-15 33.5t-8.5 29.5t15 11.5t52.5 -12.5t90 -31t140 -43.5t168 -53t108.5 -40t31 -6t-5.5 17t-40 28t-70 30t-80 30t-120 37t-130.5 41t-98 47.5t-82.5 64t-50 61
t-13.5 36.5zM923 475q-20 29 -23 56t4 43t24.5 22.5t36.5 5t40.5 -9t25.5 -2.5q-42 56 -65 97.5t-26.5 65t5.5 29.5t21 -1t41.5 -5.5t41 16t12 38t-2.5 40.5l7 2q9 -17 11.5 -53t-2 -58t-24 -37.5t-68.5 -11.5q8 -20 24.5 -49.5t40 -60t44.5 -51.5q-7 -16 -19 -17.5t-31.5 6
t-53.5 12t-50 -2.5t-16 -26.5t10 -41.5zM1052 883q-9 22 -14 34t-16 30q-20 0 -41.5 8.5t-37.5 33t-21.5 49t-0.5 40.5t20 16t22 5q-11 10 -16.5 17.5t-0.5 25.5q17 -4 36 -3t38.5 11t21.5 34.5t-4.5 44.5t-21.5 40t-34 34t-37 28t-30.5 33.5t-18 33.5t2.5 27t34 8.5t46 -8
t40.5 -2t25.5 17.5t1.5 35.5t-15 44.5t-35.5 48q-29 -11 -62.5 0.5t-47.5 31t-17.5 43.5t0.5 32.5t17 11.5t33.5 -8.5t34.5 -31.5t22.5 -19.5t17.5 5.5t20 25t7.5 76.5t-8.5 99t-14.5 88.5t-17.5 121.5t-15 115t-6.5 71.5t9.5 60.5t25 51.5t24.5 47.5t8.5 30t7 12.5
q12 -1 9 -28.5t-18 -51.5t-24.5 -52t-12 -54.5t5.5 -82.5t13 -121.5t18 -144t20 -142.5t1 -106t-37 -74q30 -34 45 -72.5t13 -73t-16 -45.5t-35 -15.5t-45.5 -5.5t-22 -6.5t21.5 -19t49.5 -48.5t39.5 -70.5t5.5 -67t-35.5 -58.5q30 -15 39 -43t2 -56t-34 -41q21 -42 27 -69z
M1008 1010q29 3 33.5 20t-3 31.5t-21 18t-30.5 1.5t-16 -4t10 -16t27 -51z" />
    <glyph glyph-name=".notdef" unicode="&#x222b;" horiz-adv-x="4980" 
d="M1595 2214q25 60 41 125q-50 -16 -108 -63q35 -39 67 -62zM1515 2301q51 43 128 69q15 52 11.5 118.5t-27 94t-54 25.5t-52.5 -25.5t-35 -74.5t-7 -107t36 -100zM1584 2189q-54 36 -77 70q-37 -29 -76 -85.5t-47 -99.5t1 -65.5t28.5 -21.5t40 13.5t55 49.5t75.5 139z
M1620 2199q28 -19 67 -44t95.5 -39.5t123.5 -4.5q38 30 77 55q-2 69 -24 110.5t-64.5 64.5t-95 27t-127.5 -17q-21 -67 -52 -152zM1975 2121q-58 -37 -72.5 -60t-15 -35.5t25 -8t47.5 37t15 66.5zM2652 2185q2 58 16.5 109t22 97.5t7 68t-5 33.5t-18.5 11t-29.5 -57
t-27 -126t-17 -86.5t-10.5 -28.5l10 -2q17 10 24.5 7t11.5 -10t16 -16zM1678 2379q57 16 96.5 17.5t79 -6t79 -30t63.5 -60.5t33 -114q57 27 90 31.5t57.5 -2.5t35.5 -29t11.5 -52.5t-2 -55t-0.5 -35t17 -10.5t40.5 13.5t48.5 38t29.5 35t24.5 12t26 -5.5q-2 -32 -8.5 -48.5
t-2 -28.5t26.5 -11t50 23t59 67t35 66t16.5 92.5t21 117t22 76t27 45.5t37 21.5t38 -11.5t16 -41.5t-12 -86t-37.5 -138.5t-26 -103t-20 -43.5t-17 -36t36 -20.5t74 15.5t67.5 44.5t45 52.5t22 35.5t25.5 14t30.5 -11.5t13 -37t-11 -44t-17 -49.5t3.5 -36.5t41.5 -2t71.5 21
t55 29.5q-13 34 -2 59.5t29 40t41 20.5t39.5 3t21.5 -18.5t-5 -32t-26 -27.5t-35 -26q16 -23 47 -33.5t77 2t56 34.5t-5.5 45t-30.5 29.5t-15 13.5l4 9q27 -6 48.5 -27t27 -48t-8.5 -48.5t-53.5 -36.5t-81.5 -15.5t-73.5 10t-44.5 29.5q-52 -31 -104 -47t-80 -14t-37.5 15
t-6 44.5t9 54.5t2.5 35.5t-11 1.5t-31.5 -39t-67 -55t-84 -31.5t-67.5 1.5t-43 28.5t-19 50.5q-18 -30 -43.5 -57t-49.5 -41.5t-53.5 -16.5t-49 10t-16.5 30.5t-5 18.5q-42 -39 -65 -52t-48 -14.5t-43.5 8.5t-18.5 46t1 67t-6 46t-25 17.5t-53.5 -7t-44 -20t-16 -47.5
t-27 -68.5t-49 -49t-52.5 -17.5t-33.5 17.5t-6 40.5t27.5 57q-70 -11 -144.5 13.5t-129.5 65.5q-42 -93 -81 -140.5t-74.5 -65.5t-62.5 -12t-39 23.5t-12 54.5q0 33 13.5 68.5t34.5 68t49.5 60.5t52.5 52q-27 43 -38.5 93t-5.5 98.5t22.5 85.5t44 60t57.5 23q36 0 62.5 -19
t39.5 -53.5t16 -87t-11 -103.5zM3142 2132q21 14 34 24t15.5 22.5t-5 17.5t-22.5 0t-24 -20t2 -44zM2465 2448q24 -3 38 -14.5t20.5 -23.5t-4 -14.5t-21.5 -4t-19 8.5t-16.5 5t-22.5 -3.5t-13.5 13.5t11.5 22t27 11zM3838 1885q-8 -13 -18 -34t-6.5 -61t12 -81.5t25 -73.5
t27.5 -38.5t18 8t17.5 51t22.5 79.5q-45 68 -98 150zM3843 1356q24 -41 32.5 -48t22 -5.5t1 21.5t-55.5 32zM3856 484q14 -28 26 -45t19 -11t2 21t-17.5 24t-29.5 11zM3900 -131q27 -35 38 -35.5t15 8.5t-11 18.5t-42 8.5zM3738 1641q-7 44 -7 67.5t5.5 53t18 50.5t23 38.5
t15 38.5t2.5 44t-7 41q-60 80 -116.5 154t-123 145t-113.5 106.5t-79.5 44.5t-63.5 8l4 13q14 4 31 4q12 0 34.5 -3.5t54.5 -20.5t78.5 -61t112.5 -120.5t107 -136t84 -121.5q37 -6 39 -15.5t3.5 -28.5t17.5 -43.5t39.5 -61.5t49.5 -75q21 79 52 123.5t61.5 56.5t57 9.5
t66.5 -30.5t80 -75t66 -96t31 -69t-5 -24t-15.5 14.5t-27 60t-67.5 90.5t-90.5 66t-78 1.5t-59 -62.5t-43.5 -108q85 -121 139.5 -178.5t115 -100t89 -47.5t45 13t21.5 48.5t3 60.5t-9 52t-2 25t13.5 -14.5t12.5 -40t4 -50.5q0 -49 -9 -76.5t-30.5 -40t-61.5 -3.5
t-95.5 52.5t-116 111.5t-128.5 163q-17 -66 -29 -102t-27 -44.5t-32 3.5t-38 55.5t-30.5 85t-13.5 104.5q-12 -13 -22.5 -30.5t-17.5 -45.5t-5 -79h-13zM3770 1481q-17 26 -24 61.5t-4 72.5l8 5q6 -40 7.5 -64.5t17.5 -68.5zM3913 1031q-22 46 -52.5 74.5t-70.5 54.5
t-114.5 51t-147 44t-165 54.5t-129.5 62.5t-43.5 42.5t-7.5 31.5q7 14 14.5 18.5t20.5 1t20 -7.5t45.5 -17t87.5 -30t120 -39t161.5 -49.5t115 -36.5t31 -7.5t-2 18t-14 39.5t-0.5 40.5t21 29.5q-14 21 -28 58l6 6q21 -37 35 -59q42 1 68 -21.5t40 -53t15 -50t-9.5 -25.5
t-23.5 -2t-31 25t-31.5 47.5t-22 26.5t-12 -14.5t2.5 -30t15 -33.5t8.5 -29.5t-15 -11.5t-52.5 13t-90 31.5t-140.5 43.5t-167.5 52.5t-108.5 39.5t-31.5 6.5t6 -17t40.5 -28.5t69.5 -30t79.5 -30t120 -37t131 -41t98.5 -47t82 -63.5t50 -61.5t13 -37zM3785 621
q-9 17 -11.5 53.5t2.5 58t24.5 37t67.5 11.5q-8 20 -24.5 50t-39.5 60t-45 51q8 17 19.5 18t31.5 -6t53.5 -12t49.5 2t16 26.5t-10 42.5l8 5q20 -29 23.5 -56t-4 -43t-24.5 -22.5t-36 -5t-41 9t-25 2.5q41 -55 64 -97t27 -65.5t-5.5 -29t-21.5 1t-41.5 5t-41 -16t-12 -37.5
t2.5 -40zM3799 611q8 -22 13.5 -34.5t15.5 -30.5q21 0 42 -8.5t37 -33t22 -49t0.5 -40.5t-20.5 -16t-21 -5q10 -9 15.5 -16.5t1.5 -26.5q-18 4 -36.5 3.5t-38.5 -10.5t-22 -34.5t4.5 -44.5t22 -40t34 -34.5t36.5 -28t31 -33.5t18 -34t-3 -27t-34 -8.5t-46 8t-40.5 2.5
t-25 -17.5t-1.5 -35.5t14.5 -44t36.5 -48q28 10 62 -1t47.5 -31t17.5 -43.5t-0.5 -32t-17 -12t-33.5 8.5t-35 31.5t-22 19t-17.5 -5.5t-20.5 -25t-7 -76.5t8.5 -99t14 -88t17.5 -121t15 -115.5t6.5 -72t-9.5 -60.5t-25 -51.5t-24.5 -47.5t-8.5 -29.5t-6 -13q-13 1 -10 28.5
t18 51.5t24.5 52.5t12 54.5t-5 82.5t-13 121.5t-18 143.5t-19.5 142.5t-1.5 106t36.5 74q-30 34 -44.5 72.5t-13 73.5t15.5 45.5t35 15t46 5.5t22.5 6.5t-22 19.5t-49.5 48.5t-39 70t-6 67t35 58.5q-30 15 -39 43t-2 56.5t35 41.5q-22 41 -28 68zM3842 483q-28 -1 -33 -19
t3 -32.5t21.5 -18t30 -1.5t15.5 4.5t-10 17t-27 49.5zM3255 -720q-25 -61 -41 -126q50 16 109 64q-36 38 -68 62zM3335 -808q-51 -42 -127 -68q-16 -53 -11 -123t29.5 -94.5t53 -21.5t50 26t35.5 72t7 107.5t-37 101.5zM3266 -696q54 -35 78 -70q36 30 75.5 86t47 99.5
t-1.5 65.5t-28 21t-39.5 -13.5t-55 -49.5t-76.5 -139zM2868 -673q2 -69 23.5 -110t64 -64t95.5 -27.5t127 16.5q21 68 52 152q-28 19 -67 44t-95.5 39.5t-123.5 5.5q-38 -31 -76 -56zM2875 -628q59 37 73 60t14.5 35.5t-25 8t-47.5 -37t-15 -66.5zM2198 -692
q-1 -58 -16 -108.5t-22.5 -97t-7 -68t5.5 -33.5t18.5 -11t29 56.5t27 125.5t17 86.5t11.5 28.5l-11 2q-17 -9 -24.5 -6.5t-11 10t-16.5 15.5zM3360 -788q26 -44 38 -94t6 -98.5t-23 -85.5t-48 -60t-60 -23q-32 0 -62 24.5t-43.5 91.5t4.5 148q-57 -17 -96.5 -18t-79 6.5
t-79 29.5t-63.5 60t-33 114q-57 -27 -90 -31t-57 2.5t-35.5 28.5t-12 52.5t2.5 55t0.5 35t-17 10.5t-40 -13t-49 -38t-30 -35.5t-24.5 -12t-26 6.5q2 32 9 48t2.5 28t-27 11t-50.5 -23t-59 -67t-34.5 -66t-16.5 -92.5t-21.5 -116.5t-21.5 -76t-27 -46t-37.5 -21.5t-37.5 12
t-15.5 41.5t11.5 86t37 138.5t26 103t20 43.5t17.5 35.5t-36 21t-74.5 -15.5t-67.5 -45t-45 -52.5t-22 -35.5t-25.5 -13.5t-30 11.5t-12.5 36.5t10.5 44.5t17 50t-3 36.5t-42 2t-71.5 -21.5t-55.5 -29q13 -34 2 -60t-29 -38.5t-38.5 -19t-39 -5t-23.5 17.5t5 32t24.5 29.5
t35.5 23.5q-15 24 -46.5 34t-77.5 -2t-55.5 -31.5t6 -43.5t28.5 -34t14 -17l-5 -9q-18 12 -43 37t-29.5 46.5t9.5 43t53 36.5t81 16t73.5 -10t45.5 -30q52 31 104 47t79.5 14t37 -14.5t6.5 -44t-9 -55t-2.5 -35.5t11 -1.5t31.5 38.5t67 55t83.5 32t67.5 -1.5t43.5 -29
t18.5 -49.5q19 29 44.5 56t49 41.5t53.5 17t49 -10t16 -31t5 -18.5q43 40 66 52.5t47.5 14t43.5 -8.5t19 -45.5t-1 -67t5.5 -46.5t24.5 -17.5t54 7t44.5 20t16 48t26.5 69t48.5 48.5t53 17t33.5 -17t6 -40t-28 -57q70 10 145 -14.5t129 -64.5q42 93 81.5 140t74.5 65t62 12
t39.5 -23.5t12.5 -54.5q0 -33 -13.5 -68.5t-35 -68t-50 -60.5t-51.5 -51zM1709 -639q-24 -9 -36 -21.5t-14.5 -25t5 -17.5t23 0t24.5 20t-2 44zM2385 -955q-24 3 -38 14.5t-20.5 23.5t4.5 14.5t21.5 4.5t18.5 -8.5t17 -5t22.5 4t13 -14t-11 -22.5t-27.5 -11zM1012 -392
q8 13 18 34.5t7 61.5t-12 81.5t-25.5 73.5t-27 38t-17.5 -8t-17.5 -51t-23.5 -80q45 -68 98 -150zM1007 137q-24 41 -32 48.5t-22 5.5t-1 -21.5t55 -32.5zM995 1010q-15 29 -27 45t-19 10t-2 -20.5t17.5 -24t30.5 -10.5zM950 1624q-27 36 -38 36t-15 -9t11 -18t42 -9z
M1112 -148q8 -44 7.5 -67.5t-6 -53t-18 -50.5t-23 -38.5t-15 -38t-2.5 -44t7 -41.5q61 -79 117 -153.5t123 -145.5t114 -107.5t81 -44.5t62 -7l-5 -12q-15 -5 -33 -5q-11 0 -33 3.5t-53.5 21t-78.5 61t-113 120t-107 136t-84 121.5q-36 6 -38.5 15.5t-4 29t-17.5 43.5
t-39.5 61t-49.5 76q-21 -80 -52 -124.5t-61.5 -56.5t-56.5 -9t-66 30.5t-80.5 74.5t-66.5 96t-31 69t5 24.5t15.5 -14.5t27 -60t67.5 -90.5t90.5 -66.5t78 -1.5t59 62.5t43.5 108q-84 121 -139 179t-115 100.5t-89 47t-45.5 -13.5t-21.5 -48.5t-3 -60t9.5 -52t2.5 -25
t-13.5 14.5t-13 39.5t-4.5 50.5q0 49 9 76.5t30.5 40.5t62 3.5t96 -52.5t116 -111t127.5 -164q17 67 29 102.5t27 44t32 -3t38 -55t31 -85t13 -104.5q13 12 23 30t17 45.5t5 78.5h13zM1081 12q16 -26 23 -61.5t4 -72.5l-8 -4q-6 39 -7.5 63.5t-17.5 69.5zM937 462
q23 -45 53 -73.5t70.5 -55t114.5 -51t146.5 -44t165 -55t129.5 -62t43.5 -42.5t7.5 -32q-6 -14 -14 -18t-21 -1t-20 7t-45.5 17t-87.5 30t-119.5 39t-161.5 49.5t-115.5 36.5t-31 7.5t2 -18t14 -39.5t0.5 -40.5t-21 -29.5q14 -21 28 -58l-5 -6q-22 38 -35 59
q-42 -1 -68.5 21.5t-40.5 53t-15 50.5t9.5 25.5t23.5 1.5t31 -25t31.5 -47.5t22.5 -26.5t12 14.5t-2.5 30t-15 33.5t-8.5 29.5t15 11.5t52.5 -12.5t90 -31t140 -43.5t168 -53t108.5 -40t31 -6t-5.5 17t-40 28t-70 30t-80 30t-120 37t-130.5 41t-98 47.5t-82.5 64t-50 61
t-13.5 36.5zM923 475q-20 29 -23 56t4 43t24.5 22.5t36.5 5t40.5 -9t25.5 -2.5q-42 56 -65 97.5t-26.5 65t5.5 29.5t21 -1t41.5 -5.5t41 16t12 38t-2.5 40.5l7 2q9 -17 11.5 -53t-2 -58t-24 -37.5t-68.5 -11.5q8 -20 24.5 -49.5t40 -60t44.5 -51.5q-7 -16 -19 -17.5t-31.5 6
t-53.5 12t-50 -2.5t-16 -26.5t10 -41.5zM1052 883q-9 22 -14 34t-16 30q-20 0 -41.5 8.5t-37.5 33t-21.5 49t-0.5 40.5t20 16t22 5q-11 10 -16.5 17.5t-0.5 25.5q17 -4 36 -3t38.5 11t21.5 34.5t-4.5 44.5t-21.5 40t-34 34t-37 28t-30.5 33.5t-18 33.5t2.5 27t34 8.5t46 -8
t40.5 -2t25.5 17.5t1.5 35.5t-15 44.5t-35.5 48q-29 -11 -62.5 0.5t-47.5 31t-17.5 43.5t0.5 32.5t17 11.5t33.5 -8.5t34.5 -31.5t22.5 -19.5t17.5 5.5t20 25t7.5 76.5t-8.5 99t-14.5 88.5t-17.5 121.5t-15 115t-6.5 71.5t9.5 60.5t25 51.5t24.5 47.5t8.5 30t7 12.5
q12 -1 9 -28.5t-18 -51.5t-24.5 -52t-12 -54.5t5.5 -82.5t13 -121.5t18 -144t20 -142.5t1 -106t-37 -74q30 -34 45 -72.5t13 -73t-16 -45.5t-35 -15.5t-45.5 -5.5t-22 -6.5t21.5 -19t49.5 -48.5t39.5 -70.5t5.5 -67t-35.5 -58.5q30 -15 39 -43t2 -56t-34 -41q21 -42 27 -69z
M1008 1010q29 3 33.5 20t-3 31.5t-21 18t-30.5 1.5t-16 -4t10 -16t27 -51z" />
    <glyph glyph-name=".notdef" unicode="&#x2202;" horiz-adv-x="4980" 
d="M1595 2214q25 60 41 125q-50 -16 -108 -63q35 -39 67 -62zM1515 2301q51 43 128 69q15 52 11.5 118.5t-27 94t-54 25.5t-52.5 -25.5t-35 -74.5t-7 -107t36 -100zM1584 2189q-54 36 -77 70q-37 -29 -76 -85.5t-47 -99.5t1 -65.5t28.5 -21.5t40 13.5t55 49.5t75.5 139z
M1620 2199q28 -19 67 -44t95.5 -39.5t123.5 -4.5q38 30 77 55q-2 69 -24 110.5t-64.5 64.5t-95 27t-127.5 -17q-21 -67 -52 -152zM1975 2121q-58 -37 -72.5 -60t-15 -35.5t25 -8t47.5 37t15 66.5zM2652 2185q2 58 16.5 109t22 97.5t7 68t-5 33.5t-18.5 11t-29.5 -57
t-27 -126t-17 -86.5t-10.5 -28.5l10 -2q17 10 24.5 7t11.5 -10t16 -16zM1678 2379q57 16 96.5 17.5t79 -6t79 -30t63.5 -60.5t33 -114q57 27 90 31.5t57.5 -2.5t35.5 -29t11.5 -52.5t-2 -55t-0.5 -35t17 -10.5t40.5 13.5t48.5 38t29.5 35t24.5 12t26 -5.5q-2 -32 -8.5 -48.5
t-2 -28.5t26.5 -11t50 23t59 67t35 66t16.5 92.5t21 117t22 76t27 45.5t37 21.5t38 -11.5t16 -41.5t-12 -86t-37.5 -138.5t-26 -103t-20 -43.5t-17 -36t36 -20.5t74 15.5t67.5 44.5t45 52.5t22 35.5t25.5 14t30.5 -11.5t13 -37t-11 -44t-17 -49.5t3.5 -36.5t41.5 -2t71.5 21
t55 29.5q-13 34 -2 59.5t29 40t41 20.5t39.5 3t21.5 -18.5t-5 -32t-26 -27.5t-35 -26q16 -23 47 -33.5t77 2t56 34.5t-5.5 45t-30.5 29.5t-15 13.5l4 9q27 -6 48.5 -27t27 -48t-8.5 -48.5t-53.5 -36.5t-81.5 -15.5t-73.5 10t-44.5 29.5q-52 -31 -104 -47t-80 -14t-37.5 15
t-6 44.5t9 54.5t2.5 35.5t-11 1.5t-31.5 -39t-67 -55t-84 -31.5t-67.5 1.5t-43 28.5t-19 50.5q-18 -30 -43.5 -57t-49.5 -41.5t-53.5 -16.5t-49 10t-16.5 30.5t-5 18.5q-42 -39 -65 -52t-48 -14.5t-43.5 8.5t-18.5 46t1 67t-6 46t-25 17.5t-53.5 -7t-44 -20t-16 -47.5
t-27 -68.5t-49 -49t-52.5 -17.5t-33.5 17.5t-6 40.5t27.5 57q-70 -11 -144.5 13.5t-129.5 65.5q-42 -93 -81 -140.5t-74.5 -65.5t-62.5 -12t-39 23.5t-12 54.5q0 33 13.5 68.5t34.5 68t49.5 60.5t52.5 52q-27 43 -38.5 93t-5.5 98.5t22.5 85.5t44 60t57.5 23q36 0 62.5 -19
t39.5 -53.5t16 -87t-11 -103.5zM3142 2132q21 14 34 24t15.5 22.5t-5 17.5t-22.5 0t-24 -20t2 -44zM2465 2448q24 -3 38 -14.5t20.5 -23.5t-4 -14.5t-21.5 -4t-19 8.5t-16.5 5t-22.5 -3.5t-13.5 13.5t11.5 22t27 11zM3838 1885q-8 -13 -18 -34t-6.5 -61t12 -81.5t25 -73.5
t27.5 -38.5t18 8t17.5 51t22.5 79.5q-45 68 -98 150zM3843 1356q24 -41 32.5 -48t22 -5.5t1 21.5t-55.5 32zM3856 484q14 -28 26 -45t19 -11t2 21t-17.5 24t-29.5 11zM3900 -131q27 -35 38 -35.5t15 8.5t-11 18.5t-42 8.5zM3738 1641q-7 44 -7 67.5t5.5 53t18 50.5t23 38.5
t15 38.5t2.5 44t-7 41q-60 80 -116.5 154t-123 145t-113.5 106.5t-79.5 44.5t-63.5 8l4 13q14 4 31 4q12 0 34.5 -3.5t54.5 -20.5t78.5 -61t112.5 -120.5t107 -136t84 -121.5q37 -6 39 -15.5t3.5 -28.5t17.5 -43.5t39.5 -61.5t49.5 -75q21 79 52 123.5t61.5 56.5t57 9.5
t66.5 -30.5t80 -75t66 -96t31 -69t-5 -24t-15.5 14.5t-27 60t-67.5 90.5t-90.5 66t-78 1.5t-59 -62.5t-43.5 -108q85 -121 139.5 -178.5t115 -100t89 -47.5t45 13t21.5 48.5t3 60.5t-9 52t-2 25t13.5 -14.5t12.5 -40t4 -50.5q0 -49 -9 -76.5t-30.5 -40t-61.5 -3.5
t-95.5 52.5t-116 111.5t-128.5 163q-17 -66 -29 -102t-27 -44.5t-32 3.5t-38 55.5t-30.5 85t-13.5 104.5q-12 -13 -22.5 -30.5t-17.5 -45.5t-5 -79h-13zM3770 1481q-17 26 -24 61.5t-4 72.5l8 5q6 -40 7.5 -64.5t17.5 -68.5zM3913 1031q-22 46 -52.5 74.5t-70.5 54.5
t-114.5 51t-147 44t-165 54.5t-129.5 62.5t-43.5 42.5t-7.5 31.5q7 14 14.5 18.5t20.5 1t20 -7.5t45.5 -17t87.5 -30t120 -39t161.5 -49.5t115 -36.5t31 -7.5t-2 18t-14 39.5t-0.5 40.5t21 29.5q-14 21 -28 58l6 6q21 -37 35 -59q42 1 68 -21.5t40 -53t15 -50t-9.5 -25.5
t-23.5 -2t-31 25t-31.5 47.5t-22 26.5t-12 -14.5t2.5 -30t15 -33.5t8.5 -29.5t-15 -11.5t-52.5 13t-90 31.5t-140.5 43.5t-167.5 52.5t-108.5 39.5t-31.5 6.5t6 -17t40.5 -28.5t69.5 -30t79.5 -30t120 -37t131 -41t98.5 -47t82 -63.5t50 -61.5t13 -37zM3785 621
q-9 17 -11.5 53.5t2.5 58t24.5 37t67.5 11.5q-8 20 -24.5 50t-39.5 60t-45 51q8 17 19.5 18t31.5 -6t53.5 -12t49.5 2t16 26.5t-10 42.5l8 5q20 -29 23.5 -56t-4 -43t-24.5 -22.5t-36 -5t-41 9t-25 2.5q41 -55 64 -97t27 -65.5t-5.5 -29t-21.5 1t-41.5 5t-41 -16t-12 -37.5
t2.5 -40zM3799 611q8 -22 13.5 -34.5t15.5 -30.5q21 0 42 -8.5t37 -33t22 -49t0.5 -40.5t-20.5 -16t-21 -5q10 -9 15.5 -16.5t1.5 -26.5q-18 4 -36.5 3.5t-38.5 -10.5t-22 -34.5t4.5 -44.5t22 -40t34 -34.5t36.5 -28t31 -33.5t18 -34t-3 -27t-34 -8.5t-46 8t-40.5 2.5
t-25 -17.5t-1.5 -35.5t14.5 -44t36.5 -48q28 10 62 -1t47.5 -31t17.5 -43.5t-0.5 -32t-17 -12t-33.5 8.5t-35 31.5t-22 19t-17.5 -5.5t-20.5 -25t-7 -76.5t8.5 -99t14 -88t17.5 -121t15 -115.5t6.5 -72t-9.5 -60.5t-25 -51.5t-24.5 -47.5t-8.5 -29.5t-6 -13q-13 1 -10 28.5
t18 51.5t24.5 52.5t12 54.5t-5 82.5t-13 121.5t-18 143.5t-19.5 142.5t-1.5 106t36.5 74q-30 34 -44.5 72.5t-13 73.5t15.5 45.5t35 15t46 5.5t22.5 6.5t-22 19.5t-49.5 48.5t-39 70t-6 67t35 58.5q-30 15 -39 43t-2 56.5t35 41.5q-22 41 -28 68zM3842 483q-28 -1 -33 -19
t3 -32.5t21.5 -18t30 -1.5t15.5 4.5t-10 17t-27 49.5zM3255 -720q-25 -61 -41 -126q50 16 109 64q-36 38 -68 62zM3335 -808q-51 -42 -127 -68q-16 -53 -11 -123t29.5 -94.5t53 -21.5t50 26t35.5 72t7 107.5t-37 101.5zM3266 -696q54 -35 78 -70q36 30 75.5 86t47 99.5
t-1.5 65.5t-28 21t-39.5 -13.5t-55 -49.5t-76.5 -139zM2868 -673q2 -69 23.5 -110t64 -64t95.5 -27.5t127 16.5q21 68 52 152q-28 19 -67 44t-95.5 39.5t-123.5 5.5q-38 -31 -76 -56zM2875 -628q59 37 73 60t14.5 35.5t-25 8t-47.5 -37t-15 -66.5zM2198 -692
q-1 -58 -16 -108.5t-22.5 -97t-7 -68t5.5 -33.5t18.5 -11t29 56.5t27 125.5t17 86.5t11.5 28.5l-11 2q-17 -9 -24.5 -6.5t-11 10t-16.5 15.5zM3360 -788q26 -44 38 -94t6 -98.5t-23 -85.5t-48 -60t-60 -23q-32 0 -62 24.5t-43.5 91.5t4.5 148q-57 -17 -96.5 -18t-79 6.5
t-79 29.5t-63.5 60t-33 114q-57 -27 -90 -31t-57 2.5t-35.5 28.5t-12 52.5t2.5 55t0.5 35t-17 10.5t-40 -13t-49 -38t-30 -35.5t-24.5 -12t-26 6.5q2 32 9 48t2.5 28t-27 11t-50.5 -23t-59 -67t-34.5 -66t-16.5 -92.5t-21.5 -116.5t-21.5 -76t-27 -46t-37.5 -21.5t-37.5 12
t-15.5 41.5t11.5 86t37 138.5t26 103t20 43.5t17.5 35.5t-36 21t-74.5 -15.5t-67.5 -45t-45 -52.5t-22 -35.5t-25.5 -13.5t-30 11.5t-12.5 36.5t10.5 44.5t17 50t-3 36.5t-42 2t-71.5 -21.5t-55.5 -29q13 -34 2 -60t-29 -38.5t-38.5 -19t-39 -5t-23.5 17.5t5 32t24.5 29.5
t35.5 23.5q-15 24 -46.5 34t-77.5 -2t-55.5 -31.5t6 -43.5t28.5 -34t14 -17l-5 -9q-18 12 -43 37t-29.5 46.5t9.5 43t53 36.5t81 16t73.5 -10t45.5 -30q52 31 104 47t79.5 14t37 -14.5t6.5 -44t-9 -55t-2.5 -35.5t11 -1.5t31.5 38.5t67 55t83.5 32t67.5 -1.5t43.5 -29
t18.5 -49.5q19 29 44.5 56t49 41.5t53.5 17t49 -10t16 -31t5 -18.5q43 40 66 52.5t47.5 14t43.5 -8.5t19 -45.5t-1 -67t5.5 -46.5t24.5 -17.5t54 7t44.5 20t16 48t26.5 69t48.5 48.5t53 17t33.5 -17t6 -40t-28 -57q70 10 145 -14.5t129 -64.5q42 93 81.5 140t74.5 65t62 12
t39.5 -23.5t12.5 -54.5q0 -33 -13.5 -68.5t-35 -68t-50 -60.5t-51.5 -51zM1709 -639q-24 -9 -36 -21.5t-14.5 -25t5 -17.5t23 0t24.5 20t-2 44zM2385 -955q-24 3 -38 14.5t-20.5 23.5t4.5 14.5t21.5 4.5t18.5 -8.5t17 -5t22.5 4t13 -14t-11 -22.5t-27.5 -11zM1012 -392
q8 13 18 34.5t7 61.5t-12 81.5t-25.5 73.5t-27 38t-17.5 -8t-17.5 -51t-23.5 -80q45 -68 98 -150zM1007 137q-24 41 -32 48.5t-22 5.5t-1 -21.5t55 -32.5zM995 1010q-15 29 -27 45t-19 10t-2 -20.5t17.5 -24t30.5 -10.5zM950 1624q-27 36 -38 36t-15 -9t11 -18t42 -9z
M1112 -148q8 -44 7.5 -67.5t-6 -53t-18 -50.5t-23 -38.5t-15 -38t-2.5 -44t7 -41.5q61 -79 117 -153.5t123 -145.5t114 -107.5t81 -44.5t62 -7l-5 -12q-15 -5 -33 -5q-11 0 -33 3.5t-53.5 21t-78.5 61t-113 120t-107 136t-84 121.5q-36 6 -38.5 15.5t-4 29t-17.5 43.5
t-39.5 61t-49.5 76q-21 -80 -52 -124.5t-61.5 -56.5t-56.5 -9t-66 30.5t-80.5 74.5t-66.5 96t-31 69t5 24.5t15.5 -14.5t27 -60t67.5 -90.5t90.5 -66.5t78 -1.5t59 62.5t43.5 108q-84 121 -139 179t-115 100.5t-89 47t-45.5 -13.5t-21.5 -48.5t-3 -60t9.5 -52t2.5 -25
t-13.5 14.5t-13 39.5t-4.5 50.5q0 49 9 76.5t30.5 40.5t62 3.5t96 -52.5t116 -111t127.5 -164q17 67 29 102.5t27 44t32 -3t38 -55t31 -85t13 -104.5q13 12 23 30t17 45.5t5 78.5h13zM1081 12q16 -26 23 -61.5t4 -72.5l-8 -4q-6 39 -7.5 63.5t-17.5 69.5zM937 462
q23 -45 53 -73.5t70.5 -55t114.5 -51t146.5 -44t165 -55t129.5 -62t43.5 -42.5t7.5 -32q-6 -14 -14 -18t-21 -1t-20 7t-45.5 17t-87.5 30t-119.5 39t-161.5 49.5t-115.5 36.5t-31 7.5t2 -18t14 -39.5t0.5 -40.5t-21 -29.5q14 -21 28 -58l-5 -6q-22 38 -35 59
q-42 -1 -68.5 21.5t-40.5 53t-15 50.5t9.5 25.5t23.5 1.5t31 -25t31.5 -47.5t22.5 -26.5t12 14.5t-2.5 30t-15 33.5t-8.5 29.5t15 11.5t52.5 -12.5t90 -31t140 -43.5t168 -53t108.5 -40t31 -6t-5.5 17t-40 28t-70 30t-80 30t-120 37t-130.5 41t-98 47.5t-82.5 64t-50 61
t-13.5 36.5zM923 475q-20 29 -23 56t4 43t24.5 22.5t36.5 5t40.5 -9t25.5 -2.5q-42 56 -65 97.5t-26.5 65t5.5 29.5t21 -1t41.5 -5.5t41 16t12 38t-2.5 40.5l7 2q9 -17 11.5 -53t-2 -58t-24 -37.5t-68.5 -11.5q8 -20 24.5 -49.5t40 -60t44.5 -51.5q-7 -16 -19 -17.5t-31.5 6
t-53.5 12t-50 -2.5t-16 -26.5t10 -41.5zM1052 883q-9 22 -14 34t-16 30q-20 0 -41.5 8.5t-37.5 33t-21.5 49t-0.5 40.5t20 16t22 5q-11 10 -16.5 17.5t-0.5 25.5q17 -4 36 -3t38.5 11t21.5 34.5t-4.5 44.5t-21.5 40t-34 34t-37 28t-30.5 33.5t-18 33.5t2.5 27t34 8.5t46 -8
t40.5 -2t25.5 17.5t1.5 35.5t-15 44.5t-35.5 48q-29 -11 -62.5 0.5t-47.5 31t-17.5 43.5t0.5 32.5t17 11.5t33.5 -8.5t34.5 -31.5t22.5 -19.5t17.5 5.5t20 25t7.5 76.5t-8.5 99t-14.5 88.5t-17.5 121.5t-15 115t-6.5 71.5t9.5 60.5t25 51.5t24.5 47.5t8.5 30t7 12.5
q12 -1 9 -28.5t-18 -51.5t-24.5 -52t-12 -54.5t5.5 -82.5t13 -121.5t18 -144t20 -142.5t1 -106t-37 -74q30 -34 45 -72.5t13 -73t-16 -45.5t-35 -15.5t-45.5 -5.5t-22 -6.5t21.5 -19t49.5 -48.5t39.5 -70.5t5.5 -67t-35.5 -58.5q30 -15 39 -43t2 -56t-34 -41q21 -42 27 -69z
M1008 1010q29 3 33.5 20t-3 31.5t-21 18t-30.5 1.5t-16 -4t10 -16t27 -51z" />
    <glyph glyph-name=".null" horiz-adv-x="701" 
 />
    <glyph glyph-name="nonmarkingreturn" horiz-adv-x="878" 
 />
    <glyph glyph-name="space" unicode=" " horiz-adv-x="612" 
 />
    <glyph glyph-name="exclam" unicode="!" horiz-adv-x="1124" 
d="M463 510q177 472 206 688t23.5 284.5t51 116t100.5 48.5q38 -1 47 -36.5t9 -65.5q0 -54 -20 -171.5t-100.5 -330.5t-247.5 -600zM295 -5q-90 49 -70.5 89.5t-44.5 87.5q9 79 161 84q101 -24 109 -109q-12 -95 -45 -121.5t-110 -30.5z" />
    <glyph glyph-name="quotedbl" unicode="&#x22;" horiz-adv-x="1123" 
d="M619 1202l16 127q13 96 63.5 170.5t107.5 129.5l31 -10q18 -32 18 -66v-8q-2 -33 -21 -68q-41 -74 -58.5 -121t-35 -142.5t-56.5 -130.5q-16 33 -65 119zM328 1222q0 23 5 49q12 71 27 161t85 156q67 62 99 62h3q32 -4 32 -65q-53 -135 -90.5 -221t-59 -172.5
t-46.5 -92.5q-19 1 -41 51q-14 31 -14 72z" />
    <glyph glyph-name="numbersign" unicode="#" horiz-adv-x="3134" 
d="M2578 1120q-109 -62 -142 -130t-15.5 -138t56 -89.5t76 18.5t54 96t14.5 121t-43 122zM2571 1293q74 -75 110 -138.5t48 -141.5q2 -20 2 -40q0 -58 -24 -117q-34 -80 -86.5 -118.5t-79 -29t-41.5 -6t-93 -22.5q-59 0 -93.5 22t-55 65.5t-23.5 91.5q5 78 53 147t100.5 102
t104.5 43t61.5 -3t14.5 20t-35 87zM2208 1092q-120 -36 -197 -99.5t-137.5 -135t-128 -183t-126.5 -217t-95 -221t-43 -179.5t-51.5 -72t-53.5 43.5t48 303.5t187.5 664t180 566t42.5 148t-57.5 -121t-111 -295.5t-132 -380t-183.5 -396t-228 -301.5t-231.5 -175
t-206.5 -95.5t-201 -25.5q-43 0 -91.5 19.5t-83.5 60.5t-39 85q7 45 46.5 67t71.5 20.5t49 -19t31 -57.5t67.5 -61.5t115 -12t173 68t214.5 152t189.5 224t162.5 314t163.5 446.5t175 481t138.5 336t133 118q64 0 68.5 -59t-42 -200t-135.5 -418t-160 -488.5t-93.5 -292.5
t-22 -89t76 106.5t134.5 182.5t153.5 134t215.5 92z" />
    <glyph glyph-name="dollar" unicode="$" horiz-adv-x="2461" 
d="M894 292q-164 -131 -230 -208q30 -10 63 -17q170 -37 245.5 -19t75.5 58t-95 133q-27 27 -59 53zM1797 1766q-281 -46 -600 -195t-500 -313t-180 -308t114 -274q107 -123 285 -263q224 183 363.5 337t294 409t223.5 607zM756 -617q-64 -5 -117 -5q-83 0 -150 62
t-84.5 163.5t15 222t90.5 187.5q-146 30 -208 56q-80 34 -87 71q52 91 113.5 99.5t145.5 -62.5q41 -37 106 -65q83 100 222 208q14 12 29 23q-58 46 -129 92q-155 105 -231.5 205t-82.5 255.5t122.5 320t421.5 322t499 221.5t383 96q15 159 12 252t17 174l23 -5
q18 -35 77 -69q18 -63 8.5 -148t-11.5 -179q161 19 279.5 14t202 -26.5t133.5 -75.5t50 -125q0 -105 -163 -132l-15 13q95 50 84.5 133.5t-89 109.5t-219 24.5t-290.5 -28.5q0 -66 -72 -319.5t-322.5 -568t-523.5 -526.5q-7 -5 -15 -11q144 -118 168 -183
q26 -76 -41.5 -137.5t-173.5 -73.5q-108 -13 -339 25q-76 -87 -102.5 -223t24.5 -242.5t247 -107.5z" />
    <glyph glyph-name="percent" unicode="%" horiz-adv-x="1794" 
d="M495 1582q-61 -91 -78 -155.5t-13.5 -115t21.5 -69.5t61 -10.5t81.5 66.5t38.5 115.5t-3.5 89.5t-28.5 57.5t-79 21.5zM1195 1582q-28 -33 -59 -60q-101 -90 -208.5 -95t-158.5 29.5t-75 41.5q14 -92 -10 -161.5t-62.5 -110t-72.5 -63t-102 -29.5q-45 0 -95.5 24
t-82.5 95t-32 151t52 146t130 98.5t100.5 57.5t93.5 25q31 -63 94 -123t146 -91t160 -2t142 93q64 63 151 183q64 113 113 118q44 -17 52 -38q-6 -73 -113 -258.5t-186 -316t-242.5 -453t-256 -500t-159 -245t-102.5 -83.5q-28 7 -28 49q40 54 143 264t224.5 429t292.5 540
q89 166 151 285zM1416 683q-55 -15 -119.5 -115.5t-85 -171t-1.5 -106t75 -35.5t97.5 64.5t41.5 170.5q0 145 -8 193zM1497 859q16 -5 26 -61t10 -187q-10 -209 -43 -277t-88.5 -128t-113.5 -60q-88 0 -126 23.5t-59 75t-21 95.5q0 43 17.5 106t60.5 142t87.5 141t111.5 92
t138 38z" />
    <glyph glyph-name="ampersand" unicode="&#x26;" horiz-adv-x="2267" 
d="M1416 747q81 -47 123 -135.5t6.5 -198t-133 -200t-226.5 -147t-257 -56.5q-195 0 -327.5 80.5t-191 190.5t-58.5 214q0 141 46.5 230.5t109 146.5t136.5 97q-66 127 -14 236t182 169.5t275 60.5q198 0 261 -78.5t3 -137t-80 -34.5q-14 19 21.5 64t-44 80t-215 18.5
t-235 -110t-46.5 -227.5q110 20 177 -30.5t60.5 -114.5t-72 -74t-119.5 24t-97 87q-84 -37 -134 -106t-59.5 -173t33.5 -223.5t159.5 -210.5t278.5 -82t282.5 91.5t171 187.5t27 183.5t-87 121.5t-131.5 20.5t-96 -70.5t9 -65t25.5 -63.5t-58 -73t-95.5 19t-36.5 128
t97.5 145.5t191 86t203.5 42.5t152.5 57t53.5 82.5t-36 54.5t-58 4t-32 8t28.5 36t97 22.5t91 -13t31 -93q-11 -54 -63.5 -111.5t-134 -97.5t-195.5 -63zM804 939q24 -37 58 -53.5t39 5t-25.5 43.5t-71.5 5z" />
    <glyph glyph-name="quotesingle" unicode="'" horiz-adv-x="840" 
d="M325 1150q-14 31 -14 72q0 23 5 49q12 71 27 161t85 156q67 62 99 62h3q32 -4 32 -65q-53 -135 -90.5 -221t-59 -172.5t-46.5 -92.5q-19 1 -41 51z" />
    <glyph glyph-name="parenleft" unicode="(" horiz-adv-x="960" 
d="M1087 1835q-139 -20 -278 -157t-262 -403.5t-150.5 -504t18 -436.5t143 -313t163 -147.5t154.5 -59.5l-8 -18l-104 8q-69 7 -163.5 56.5t-175 131.5t-137 228t-56.5 399l4 146q5 106 51.5 241.5t110.5 267t141 231t161 177.5t195.5 135t216.5 59z" />
    <glyph glyph-name="parenright" unicode=")" horiz-adv-x="938" 
d="M218 1900q70 0 185 -89t178 -195t98.5 -224.5t43.5 -231.5t12 -218q-7 -100 -25.5 -220t-73.5 -272.5t-184.5 -350t-276.5 -299.5l-17 22q93 107 173 240.5t135 310t70.5 397.5t-1.5 406t-85.5 330.5t-147 238.5t-105 40t-42.5 -33q3 111 33 148h30z" />
    <glyph glyph-name="asterisk" unicode="*" horiz-adv-x="1410" 
d="M332 1761q27 -13 55.5 -20.5t53 -11t47 6t37.5 21.5q-9 8 -21 14.5t-43.5 3.5t-58 -4.5t-44 -3t-26.5 -6.5zM112 1763q2 8 6 13.5t20.5 5.5t44.5 2.5t74.5 6.5t105.5 7.5t103.5 6t71 -9t52.5 -29.5q-7 -13 -28.5 -29.5t-58.5 -33t-100.5 -3t-136 36t-101.5 23t-33 -10.5
l-11 7zM971 1755q-8 5 -25.5 6t-44.5 2.5t-58 4.5t-43.5 -3t-21.5 -14q16 -13 38 -22.5t46.5 -6t53.5 11t55 21.5zM1183 1749l-12 -7q-3 11 -32 10.5t-101.5 -23t-136.5 -36t-100.5 3t-58 33t-28.5 29.5q26 18 52.5 29.5t70.5 9t103.5 -6t106 -7.5t74.5 -6.5t44 -2.5
t20.5 -5.5t6.5 -13.5zM415 1998q12 -27 28.5 -52t33 -43.5t39.5 -25.5t43 -8q-1 12 -6.5 25t-31 31t-47 34.5t-35.5 26.5t-24 12zM249 2142q7 6 13.5 7t19 -9.5t35.5 -26.5t61 -43.5t85 -63.5t82.5 -63t48 -53t20.5 -56q-14 -6 -41 -4.5t-66 13t-78.5 63.5t-79.5 116
t-62 83.5t-32 13.5l-4 13zM900 1995q-10 -2 -24 -12t-35.5 -26.5t-47 -35t-31 -31t-6.5 -24.5q20 0 43 7.5t39.5 26t33 43.5t28.5 52zM1064 2129l-4 -14q-10 7 -32 -12.5t-62 -83.5t-79.5 -116t-78.5 -63.5t-66 -13t-41 4.5q9 30 21 56t47.5 53t82.5 63t85 63t61 43t35.5 27
t19 10t13.5 -7zM665 2103q-13 -26 -21 -55t-11.5 -53.5t5.5 -47t22 -37.5q8 9 14 21.5t3.5 43.5t-3.5 58t-2.5 44.5t-6.5 25.5zM667 2324q9 -2 14 -6.5t5 -21t2.5 -44.5t6.5 -74t7 -105.5t5.5 -104t-9.5 -70.5t-29 -52q-14 7 -30 28.5t-32.5 58.5t-3 100.5t36.5 136
t24 101.5t-11 32l8 12zM748 1633q1 -11 6.5 -24t31 -31t47 -34.5t35.5 -26.5t24 -12q-12 27 -28.5 51.5t-33 43t-39.5 26t-43 7.5zM1058 1360q-6 -5 -13 -6t-19.5 9.5t-35.5 26.5t-60.5 43t-85 63.5t-83 63.5t-47.5 52.5t-20 56.5q13 6 40 4.5t66 -13t78.5 -63.5t80 -116
t62 -83.5t31.5 -13.5l4 -13zM408 1508q9 2 23.5 12t35.5 26.5t46.5 34.5t31 31t6.5 25q-19 0 -42.5 -7.5t-39.5 -26t-33 -43.5t-28 -52zM243 1374l5 14q9 -7 31 12.5t62.5 83.5t80 116t78 63.5t65.5 13t41 -4.5q-8 -30 -20.5 -56t-48 -53t-82.5 -63t-85 -63.5t-61 -43.5
t-35 -26.5t-19 -9.5t-14 7zM642 1400q14 26 21.5 55t11 53t-5.5 46.5t-22 38.5q-8 -9 -14 -21.5t-3.5 -43.5t4 -58t2.5 -44.5t6 -25.5zM640 1190q-9 1 -14 5.5t-5 21t-2.5 44.5t-6.5 74.5t-7 105.5t-5.5 103.5t9.5 71t30 51.5q13 -6 29.5 -27.5t33 -58.5t2.5 -101t-37 -136
t-24 -101.5t11 -32.5l-8 -12z" />
    <glyph glyph-name="plus" unicode="+" horiz-adv-x="1236" 
d="M1055 422q-7 -53 -33.5 -77.5t-84 -40t-141 -14t-156.5 3.5q-39 -86 -86 -170.5t-106 -107.5l-20 24q22 56 37.5 147t24.5 125q-107 9 -177 36q-23 26 -23 56q122 -5 227 -7q33 100 72 142.5t72 64.5t135 32q-64 -107 -81.5 -162t-29.5 -84q149 -7 239.5 -4t114.5 37z
" />
    <glyph glyph-name="comma" unicode="," horiz-adv-x="751" 
d="M414 224q55 0 90.5 -36.5t35.5 -122.5q0 -79 -82.5 -200.5t-181.5 -195.5q-71 -63 -101 -63t-30 47q0 32 41.5 64.5t91 87.5t68.5 124.5t-8.5 123.5t-7 112.5t83.5 58.5z" />
    <glyph glyph-name="hyphen" unicode="-" horiz-adv-x="1201" 
d="M249 456q0 13 4 18t26.5 7.5t71.5 4.5t111.5 4t164.5 9t182 24t150 31q41 -12 49 -47q-24 -19 -78.5 -28.5t-109 -28.5t-157 -31t-171.5 -14t-128 -2q-15 0 -59.5 0.5t-49 14t-6.5 38.5z" />
    <glyph glyph-name="hyphen" unicode="&#x2010;" horiz-adv-x="1201" 
d="M249 456q0 13 4 18t26.5 7.5t71.5 4.5t111.5 4t164.5 9t182 24t150 31q41 -12 49 -47q-24 -19 -78.5 -28.5t-109 -28.5t-157 -31t-171.5 -14t-128 -2q-15 0 -59.5 0.5t-49 14t-6.5 38.5z" />
    <glyph glyph-name="period" unicode="." horiz-adv-x="790" 
d="M409 -2q-85 46 -66.5 84.5t-42.5 83.5q9 75 153 79q95 -22 103 -103q-11 -90 -42.5 -115t-104.5 -29z" />
    <glyph glyph-name="slash" unicode="/" horiz-adv-x="937" 
d="M1102 2074q46 -20 54 -46q-6 -88 -117 -312t-193 -382t-252 -547.5t-266 -604t-165 -296.5t-106 -101q-29 9 -29 59q42 66 148.5 319.5t232.5 518t303.5 652.5t255 560.5t134.5 179.5z" />
    <glyph glyph-name="zero" unicode="0" horiz-adv-x="952" 
d="M425 122q53 0 97.5 40t75.5 143.5t33.5 257t-33.5 169.5q-34 1 -76.5 -58.5t-100.5 -187.5t-53.5 -246t57.5 -118zM758 787q0 -63 -20.5 -282t-98.5 -363t-229 -145q-96 6 -149.5 68.5t-53.5 192.5q0 125 74 278t152.5 269t114.5 149t98 33q68 0 90 -30t22 -170z" />
    <glyph glyph-name="one" unicode="1" horiz-adv-x="928" 
d="M808 1345q28 -12 46 -52q-15 -39 -114.5 -244t-208.5 -444t-198.5 -419t-107.5 -195t-31 -15h-2q-2 33 -2 60v18q21 87 73 233.5t156 415t249 600.5q67 26 86.5 27t53.5 15z" />
    <glyph glyph-name="two" unicode="2" horiz-adv-x="1579" 
d="M849 232q262 126 272 301.5t-90 258.5t-245.5 93t-237 -10.5t-128.5 11t-45 72t16.5 104t78 113.5t151.5 53q51 -7 75.5 -52.5t-44 -76t-70.5 -80t155 -38t274.5 -33.5t183 -110t81 -183t-73.5 -244t-196 -206q179 -42 343 -128q-4 -71 -65 -77q-101 45 -173 72.5
t-161 43t-175.5 5.5t-210.5 -64.5t-209.5 -50.5t-113.5 71q20 61 154.5 101t248 49t205.5 5z" />
    <glyph glyph-name="three" unicode="3" horiz-adv-x="1369" 
d="M856 876q-13 77 5.5 105t-7 45.5t-108.5 3t-136.5 1.5t-64 68.5t38.5 109t119.5 89.5t120.5 33q9 -47 -30 -71.5t-75 -55.5t-1.5 -67.5t135 -12.5t143 -27t24 -127t-57.5 -106q107 -20 165.5 -97.5t58.5 -164.5q0 -79 -29 -177t-119.5 -210.5t-204.5 -173t-260 -60.5
q-93 0 -183 68t-188 115t-137 22t-11.5 -55.5t74.5 -49t119 -47.5t17 -39t-175.5 35t-158.5 120l-5 31q24 45 98.5 92t139 53t147 -52t205.5 -137t191 -73t146 65.5t136.5 186.5t58 242.5t-39.5 170.5t-97 53q-61 -74 -137.5 -106.5t-113 -9t-25.5 68t65.5 86t156.5 55.5z
" />
    <glyph glyph-name="four" unicode="4" horiz-adv-x="2133" 
d="M628 419q-123 16 -191 14.5t-130.5 -9.5t-94.5 -22.5t-40 -49.5q16 -16 60 -40t134.5 -18.5t261.5 125.5zM1049 -184q83 144 125.5 217.5t125.5 310.5q-235 35 -329.5 45.5l-265.5 29.5q-80 -56 -154.5 -108t-168 -60t-160 12t-86.5 44t-20 61q13 40 65 65.5t157.5 37.5
t345.5 4q45 40 166.5 190.5t177.5 290.5t93 276q91 32 176 32q0 -53 -40 -166.5t-86.5 -193.5t-166.5 -216t-208 -229q125 -24 257 -32t284 -19q115 296 145.5 340t104 73.5t153.5 82.5q-51 -85 -93.5 -165t-138.5 -339q400 -40 504 -38.5t152 21.5t96 73l29 -13l-32 -51
q-48 -56 -152 -70.5t-226.5 -22.5t-434.5 13q-107 -189 -219 -329t-184 -196z" />
    <glyph glyph-name="five" unicode="5" horiz-adv-x="1430" 
d="M460 797q21 102 84 221t133 211t124 106t145 18q0 -58 -88.5 -158.5t-235.5 -327.5q173 -53 280.5 -118.5t178 -181t51 -242t-118.5 -219.5t-247.5 -115t-245.5 -22q-140 7 -217 32t-138.5 81t-61.5 125q0 82 87.5 145t178.5 75t182.5 -8.5t149 -72.5t72.5 -105.5t-5 -81
t-68.5 -31t-64 48.5t-87 100.5t-156 52t-138.5 -40t-54 -86.5t117 -102.5t252 -63t248.5 56t146.5 173t-4.5 212.5t-138 180.5t-361.5 137.5zM1858 1103q-131 -90 -292.5 -89t-287.5 50.5t-206.5 42.5t-149.5 -7q-2 88 43 118q95 24 184.5 11t151.5 -43.5t127.5 -57.5
t164 -30.5t253.5 51.5z" />
    <glyph glyph-name="six" unicode="6" horiz-adv-x="1077" 
d="M482 124q103 -28 171.5 -12t103 56t34.5 106.5t-51.5 95t-99.5 19t-91.5 -55t-66.5 -209.5zM923 272q0 -41 -17 -92.5t-98 -105t-191 -69.5q-119 5 -232 55t-156 154t-48 200q11 251 57 431.5t162.5 399.5t182.5 287.5t107 84.5t60 16q22 0 40.5 -24t6 -96t-100.5 -181.5
t-130.5 -154t-106 -158.5t-115 -295.5t-40 -330t97.5 -212.5q19 148 81.5 216.5t150.5 81t156.5 -14.5t100.5 -75t32 -117z" />
    <glyph glyph-name="seven" unicode="7" horiz-adv-x="1069" 
d="M232 -235q0 88 32.5 187t112.5 264.5t198 370t223.5 388t98.5 219t-37.5 46t-92 3.5t-152 -48t-138 -73t-75.5 -91t-48.5 -106t-48.5 -58.5t-50.5 -11.5t-27 44t5.5 70.5t32.5 60.5t11.5 47t-43 15t-36 46q0 27 12.5 51t103.5 102q38 4 58.5 0.5t20.5 -34t-29.5 -56.5
t-26 -37.5t29.5 -13.5t54.5 3t113.5 49.5t182.5 76.5t198.5 32q99 0 99 -89q0 -61 -37.5 -136t-109 -182t-154.5 -263.5t-183.5 -376.5t-128 -366.5t5 -250.5t102 -165.5t114 -73t77 -9.5t43 -7t1.5 -26.5t-80 -17.5q-45 0 -96 4t-124 37t-124 98t-70 130.5t-19 147.5z" />
    <glyph glyph-name="eight" unicode="8" horiz-adv-x="1142" 
d="M943 1227q-219 15 -352 -17.5t-197 -82.5t-86 -111t3 -120.5t188 -238.5q117 108 201 203.5t140 178t103 188.5zM453 471q-82 -90 -135 -155t-72 -132t-1.5 -104t63 -50t111.5 -7t103.5 43.5t59.5 92t0 118.5t-129 194zM1525 1075q-232 83 -313.5 104t-184.5 35
q-29 -73 -97.5 -190t-143 -204.5t-217.5 -237.5q79 -101 115.5 -182.5t26 -164.5t-61.5 -144.5t-131.5 -94t-181.5 -32.5q-83 0 -136 49t-53 125t54.5 177t181.5 231q-114 140 -166 235t-47.5 182.5t82 165.5t250 130.5t460.5 31.5l8 23q15 42 22.5 84t6.5 85l20 9
q18 -16 26 -77t-6 -133q91 -17 207.5 -57t290.5 -125z" />
    <glyph glyph-name="nine" unicode="9" horiz-adv-x="1071" 
d="M676 747q122 256 139.5 341.5t0 131t-80 44t-115 -51t-108 -146.5t-46.5 -184.5t51.5 -118t158.5 -16.5zM659 685q-115 -47 -184.5 -37t-120 57.5t-59 108t17 147t108 176t158 141.5t129 68.5t83.5 16.5q18 0 55.5 -16t62 -72.5t-8.5 -180.5l11 -6q53 18 70.5 -2
t17.5 -83q0 -38 -49.5 -99t-91.5 -123t-93.5 -201.5t-87 -218.5t-101 -183.5t-140.5 -197.5t-165.5 -155.5t-172 -94t-143.5 -33.5l-7 41q115 49 217 123.5t175.5 185.5t136 215t95 186t87.5 237z" />
    <glyph glyph-name="colon" unicode=":" horiz-adv-x="900" 
d="M548 138q-11 -88 -41.5 -112t-100.5 -28q-83 45 -65 82t-41 81q8 72 148 77q93 -22 100 -100zM670 653q-8 -78 -101 -100q-139 5 -148 77q59 44 41 81t65 82q71 -4 101.5 -28t41.5 -112z" />
    <glyph glyph-name="semicolon" unicode=";" horiz-adv-x="847" 
d="M191 -447q54 94 67 158.5t26.5 155t57 139.5t72.5 78t75 13.5t43.5 -67.5t-31 -94.5t-41.5 -94t-68 -141t-165 -193.5zM553 520q102 -8 119 -67q-30 -41 -41.5 -61t2 -47t-35.5 -64q-74 4 -105 29t-43 106q8 81 104 104z" />
    <glyph glyph-name="less" unicode="&#x3c;" horiz-adv-x="951" 
d="M453 495q41 27 27.5 106t-81.5 83t-120.5 -33t-105 -117t-54.5 -172.5t60.5 -91.5t135.5 67t74.5 101.5t63.5 56.5zM279 -109q-193 -120 -322.5 -278.5t-190 -381t-25 -365t91.5 -142.5q45 0 89.5 36t112 213t118 389t126.5 529zM421 -29q-93 -373 -129.5 -537.5
t-105.5 -376.5t-152 -326.5t-190 -114.5q-60 0 -94.5 36.5t-61.5 139t-27 214.5q0 113 50.5 294t184.5 348t405 329q50 142 77 327q-155 -123 -242.5 -119.5t-124 102t-15 212t88 182t154 86t124.5 17.5q59 0 124 -42.5t76.5 -131t-18.5 -215t-97 -341.5q85 42 201.5 107.5
t301.5 189.5h60q-167 -135 -279.5 -202.5t-310.5 -177.5z" />
    <glyph glyph-name="equal" unicode="=" horiz-adv-x="1180" 
d="M288 421q-37 15 -44 59q22 23 71 35t98.5 20t142 23t155 17.5t116.5 2.5q13 0 53 -0.5t44 -17.5t6 -48q0 -16 -3.5 -22.5t-24 -9.5t-65 -5.5t-100.5 -5t-148.5 -11t-164.5 -14t-136 -23.5zM302 239q-36 18 -41 63q23 23 73 32.5t99.5 15t143 16t156 9.5t115.5 -4
q14 0 54 -3t43 -20.5t3 -49.5q-1 -17 -5 -23.5t-24.5 -8.5t-65 -2t-100.5 0.5t-149 -3.5t-165 -5.5t-137 -16.5z" />
    <glyph glyph-name="greater" unicode="&#x3e;" horiz-adv-x="1012" 
d="M0 351q86 44 128.5 84t93.5 94.5t114 28t41 -72t-62.5 -77.5t-76 -88.5t-18 -131.5t89 -67t230.5 132q18 25 38.5 109.5t65.5 216.5t76.5 227.5t76.5 138.5t89 43q56 0 56 -44q0 -53 -23.5 -172.5t-114 -287.5t-168.5 -275q-191 -423 -295 -699t-147.5 -511t-3.5 -235
q50 0 118.5 116.5t125.5 287t79 294.5t67 221l29 -6q5 -75 -29.5 -247.5t-79 -312t-117 -280.5t-120.5 -191t-102 -50q-44 15 -73.5 69t-25.5 161.5t74 345t177 524.5t183 438q-140 -108 -233.5 -111.5t-139 63.5t-27 170.5t33.5 120.5l-70 -26h-60z" />
    <glyph glyph-name="question" unicode="?" horiz-adv-x="1501" 
d="M415 479q0 127 25 212t84.5 149t161 104t215.5 86.5t180 126.5t50 166.5t-95 155t-188 68t-181.5 -70t-62 -160t93.5 -136.5l-36 -33q-117 41 -160 105t-43 146q0 86 125.5 163t242.5 77q84 0 197.5 -29t202 -122t88.5 -210q0 -128 -95.5 -196t-228.5 -107.5t-222 -75
t-133.5 -97.5t-66.5 -295zM390 233q95 -23 102 -103q-11 -89 -42 -113.5t-103 -28.5q-85 46 -66.5 84t-41.5 82q8 74 151 79z" />
    <glyph glyph-name="at" unicode="@" horiz-adv-x="2366" 
d="M1212 1018q-60 70 -148 41.5t-141 -105.5t-20.5 -185.5t97 -131t123.5 48.5t89 332zM2043 422q-124 -188 -266 -259t-261 -100t-302 -29t-363 72t-312.5 207t-189 296t-56.5 312v5q1 153 58 283.5t144.5 247.5t288.5 235t513 118q250 0 413 -99.5t233.5 -258.5t64.5 -334
t-90 -309.5t-185 -204.5t-216.5 -77t-185 49t-112.5 58.5t-61.5 -37t-82 -61t-98.5 -21.5q-32 0 -72 18.5t-80 72.5t-61.5 99.5t-21.5 96.5q0 57 60.5 162t147.5 164t193 67q119 -5 197 -103q28 30 59.5 29t29 -49t-55 -136.5t-31 -167.5t119.5 -123t191 9t174.5 158t94 287
t-55.5 327.5t-206 225t-339 81.5t-361 -66t-272.5 -182.5t-161.5 -233.5t-55 -263.5t32 -293.5t147 -285t300 -215t422 -61t382 102t233 206z" />
    <glyph glyph-name="A" unicode="A" horiz-adv-x="2612" 
d="M3692 1524q-284 91 -403.5 125t-329 68t-556 30.5t-633.5 -70t-595 -213.5t-523.5 -372t-253 -477t93.5 -422.5t354 -189t460 45t468 233.5q-20 147 4 292.5t64 222.5t81 113t164 34q-23 -225 -69.5 -372t-126.5 -293q-14 -82 83.5 -129.5t275 5.5t362.5 196h60
q-150 -163 -314.5 -252.5t-317 -84.5t-243.5 198q-171 -128 -399.5 -218t-343 -105t-214.5 -15q-128 0 -276.5 40t-256.5 161t-135 347q0 145 36 266t167 296t395.5 352t536.5 283t542 156t544 50q366 0 590.5 -41.5t425 -109.5t284.5 -113z" />
    <glyph glyph-name="B" unicode="B" horiz-adv-x="1571" 
d="M938 923q137 260 185.5 421t45 209.5t-30.5 60.5t-92 -61.5t-103 -205t-31.5 -256.5t26.5 -168zM797 1936q29 -3 55 -39.5t15.5 -105.5t-54.5 -113t-85 -126t-75 -161.5t-68.5 -208t-86.5 -216.5t-94.5 -176t-103 -237.5t-70.5 -241t6.5 -150.5t79 -20.5t164.5 139.5
t200 240.5t149 227.5q12 123 -2 147.5t-28 138t4 236t78.5 249.5t137 167.5t134.5 40.5t77.5 -11.5t40.5 -44t12 -104t-88 -284.5t-134 -301.5t-73 -116.5t-13.5 -72.5t113.5 -155.5t208.5 -213t99.5 -177q0 -39 -11.5 -75.5t-59.5 -89t-125 -77.5t-135 -25
q-31 0 -90.5 11.5t-175 91.5t-139.5 125.5t2 73.5t73 42t103 -2.5t96.5 -85.5t70.5 -113.5t100 -44.5t111 56.5t29 121.5t-98.5 153.5t-143.5 164t-116 124.5q-122 -159 -201 -276t-220 -250.5t-234 -136.5q-52 7 -90.5 61.5t-41.5 156.5q0 79 40 190t79 232.5t100.5 294
t102 277.5t83 233.5t100.5 220t92.5 153.5t99.5 82z" />
    <glyph glyph-name="C" unicode="C" horiz-adv-x="2526" 
d="M1877 1649q-91 -96 -157.5 -243.5t-88 -308t21.5 -268t134.5 -128.5t188.5 41.5t159.5 168t71 226.5t-72.5 262t-257 250zM2586 351q-202 -225 -524 -335t-857 -112q-215 0 -394 53.5t-329.5 150.5t-258.5 269.5t-112 365.5q0 211 64.5 370.5t200.5 295.5t323 235
t364.5 137.5t321 36.5t242.5 -19t198 -56l175 147q22 -17 22 -36.5t-103 -148.5q134 -87 201 -159.5t114.5 -168t51.5 -197t-49.5 -230t-153 -217.5t-216 -117t-226 13t-149 185.5t-11 304t108.5 303.5t189 268q-199 78 -412.5 72t-450.5 -90t-402.5 -245.5t-202 -390
t19.5 -426.5t174 -325.5t318.5 -205t399.5 -84t446.5 14t444.5 93.5t412 248h60z" />
    <glyph glyph-name="D" unicode="D" horiz-adv-x="1912" 
d="M1458 400q127 274 73.5 530t-166.5 394t-215.5 204.5t-269.5 104.5q-27 -116 -20 -258.5t65 -303t171 -336.5t362 -335zM747 1232q-146 -354 -204 -524q130 44 189 -40.5t143 -271t137.5 -240t97 -68t114 13.5t194.5 228q-196 102 -339 281.5t-211 315t-121 305.5z
M166 -46q-49 10 -63.5 24.5t-14.5 48.5q74 81 102.5 138.5t22 145t70 136.5t142 208.5t172 470t81.5 443t124 195.5q103 253 168.5 408.5t75 270.5t82.5 144q48 -15 75.5 -73t-21.5 -146t-60.5 -252.5t-48.5 -164t-3 209.5q-86 -237 -141 -401q173 -44 270 -97.5t248.5 -211
t199.5 -464.5t-105 -635q43 -36 125 -53t245 52h60q-249 -186 -477 -63q-85 -141 -179.5 -220t-179 -89t-164.5 21t-143 128t-128.5 237t-116 193.5t-101.5 -21.5t-77.5 -167.5t-88 -239t-151.5 -176.5z" />
    <glyph glyph-name="E" unicode="E" horiz-adv-x="1908" 
d="M1109 1294q141 198 190 300t74.5 235t-12 212.5t-109.5 100.5t-187 -63t-154.5 -240.5t-18.5 -313.5t105 -250zM1155 1234l-57 -51q49 -39 128.5 -79t170.5 -72t164 -26.5t114.5 62.5t-0.5 101.5t-191.5 70.5t-328.5 -6zM916 1198q-240 -52 -360.5 -150.5t-160 -195
t-38.5 -214.5q225 149 372 276t247 238zM1387 158q61 102 49 221t-98 189.5t-210 82t-219.5 -52t-83.5 -159t93.5 -166.5t177 -101.5t291.5 -13.5zM1968 351q-81 -91 -229 -161.5t-294 -84.5q-87 -70 -209 -105.5t-304 -35.5q-141 0 -323 63.5t-285 186.5t-126 247
q-89 -43 -202.5 -93.5t-256.5 -80.5l-9 42q138 48 229.5 87t225.5 125q5 106 34.5 200.5t120.5 202t217.5 182t313.5 121.5q-93 132 -119 248.5t16 270.5t107.5 243t156.5 142.5t227 58.5q103 -19 147.5 -91.5t53.5 -182t-51.5 -278t-210.5 -360.5q103 19 250.5 7.5
t236.5 -63.5q80 -46 80 -118q-10 -97 -80.5 -132t-185 -28t-243 52.5t-217.5 104.5q-139 -158 -237 -239.5t-185 -145.5t-245 -171q43 -186 127.5 -290.5t216.5 -165.5t293 -61t319 55q-184 -14 -309 20.5t-214.5 119t-100.5 176t49.5 162.5t177 113t241 21.5t217.5 -93.5
t114 -194t-38 -263q123 21 223 58.5t220 127.5h60z" />
    <glyph glyph-name="F" unicode="F" horiz-adv-x="1754" 
d="M1550 1461q145 156 205.5 338t54.5 277t-40.5 83.5t-69 -129.5t-150.5 -569zM1810 2408q110 -17 116 -196q-3 -136 -22 -267t-125.5 -336t-280.5 -332q-104 -347 -132 -445q179 0 438 -11q-34 -52 -92 -63.5t-156 -11.5t-225 -6q-98 -300 -153 -459t-121.5 -222
t-112.5 -77.5t-144 -26.5q-162 6 -260 40.5t-184.5 54.5t-147 69.5t-69.5 89.5q3 46 58 66.5t127 -3t124 -72.5t80.5 -86.5t106.5 -57.5t133 -29t127 8.5t138.5 110t112.5 257t81 325.5q-277 -11 -398 -25.5t-173 -52t-69.5 -17.5t23 57.5t144.5 69.5t231 46.5t271 14.5
q87 265 104 392q-133 -23 -193.5 6t-86.5 86.5t-11.5 112.5t-29 66.5t-110 66.5t-11.5 104t107 57.5t83.5 -20.5t69.5 -55t49.5 -129.5t2.5 -173t147 -51.5q110 386 170.5 631.5t127 361t135.5 132.5z" />
    <glyph glyph-name="G" unicode="G" horiz-adv-x="2124" 
d="M375 815q557 200 960.5 402.5t612 365t273.5 303t42 202t-104.5 87.5t-293 -39t-426.5 -188.5t-456 -325.5t-387.5 -410.5t-220.5 -396.5zM230 683q-516 -221 -729.5 -277.5t-382.5 -65.5l-33 26q144 22 291 64.5t315.5 107t555.5 230.5q118 346 355.5 616t569.5 498
t583 306.5t414 78.5q84 -13 143 -75t65 -153q-6 -79 -35.5 -163.5t-192.5 -250.5t-581 -388t-1197 -514q7 -98 81.5 -143.5t179 10t241 120.5t299.5 120.5t316 35.5t270.5 -85t163 -185.5t-29.5 -296.5t-225 -257t-332 -88q-169 7 -374.5 20t-283.5 58.5t-130 61.5
t-107.5 35.5t-36 59t133.5 55.5t273.5 -65.5t345 -110.5t309.5 3.5t205.5 104t91 189t-42.5 228t-182 146.5t-293 19.5t-374.5 -130.5t-312.5 -140t-182.5 -13t-111 62t-33.5 146z" />
    <glyph glyph-name="H" unicode="H" horiz-adv-x="2724" 
d="M2784 351q-94 -136 -216 -184t-237.5 -48t-141.5 -9t-27.5 -62t-60.5 -45t-60 145q-247 91 -312 197q-164 -169 -289 -247.5t-265.5 -104t-264.5 -25.5q-121 1 -257 37.5t-305.5 150t-191.5 232.5q16 48 72.5 64.5t140 16.5t172.5 -57t194 -151t209 -122.5t188.5 -16
t144.5 33.5q-22 -54 -140.5 -75.5t-277.5 21.5t-256 102.5t-148 78.5t-70 -8t16 -70t155 -96.5t223 -70t279 -3.5t329 123.5t247.5 275t100 350.5t-71.5 361.5t-164 254.5t-225 78.5t-268.5 -49.5t-195 -47t-90 32t-23 116t54 226t123.5 185.5t131 56t80.5 -32.5t0 -67.5
t-60.5 -35.5t-80.5 -92.5t-54.5 -195.5t22 -111.5t183 45.5t283 24.5t253.5 -110t186 -226.5t80.5 -280.5t-13.5 -237t8.5 -110.5t32 -62t62 -131.5t86.5 -83.5t56.5 296t106 568.5t91.5 458t12.5 258.5t51 134.5t106 59.5q41 0 56.5 -60.5t-19 -190t-102.5 -381
t-138 -546.5t-116 -667q203 -28 327 2t218 128h60z" />
    <glyph glyph-name="I" unicode="I" horiz-adv-x="3096" 
d="M2629 803q112 304 139 702.5t-61.5 552.5t-196 162t-185.5 -133.5t-78 -327t99 -425.5t283 -531zM2135 173q-490 -30 -831.5 -32t-493.5 28q-68 -24 -63 -68q334 -73 614 -70.5t484 40t290 102.5zM3146 351q-12 -29 -115.5 -62t-265 -63.5t-415.5 -48.5
q-148 -99 -396.5 -158t-584.5 -59q-362 0 -604.5 60t-352 99.5t-177.5 89t-68 70.5q0 26 26 41.5t136 15.5t206.5 -36.5t250.5 -59t487 -33.5t938 25q264 216 381 488q-215 295 -324.5 567t-115 434t44.5 287t133.5 193t182.5 84q84 0 162.5 -44.5t146 -162t75.5 -337
t-34.5 -491.5t-147.5 -562q68 -81 131.5 -153t196.5 -186l-16 -12q-186 91 -350 279q-70 -156 -271 -374q201 11 390 38t300 71h50z" />
    <glyph glyph-name="J" unicode="J" horiz-adv-x="2410" 
d="M1864 646q201 553 254 827t32.5 434t-120.5 235q-89 3 -197 -95t-184.5 -253t-117.5 -384t-15 -365.5t108.5 -235t239.5 -163.5zM1722 321q-312 -44 -576.5 -120t-498.5 -205.5t-432 -326t-250.5 -370.5t24 -317t256 -175t400 28t368 212.5t297 407t412.5 866.5z
M2248 438q-189 28 -319 78l-46 -107q163 23 365 29zM2520 337q-175 66 -337 49t-333 -47q-327 -684 -504.5 -985t-348.5 -424.5t-349.5 -165t-304.5 -41.5q-181 0 -317.5 82t-170.5 175.5t-34 144.5q0 69 33.5 203t222 349t454.5 362.5t477 213.5t374.5 95t376.5 48l72 162
q-181 66 -282.5 192.5t-120.5 322t32 439t169 413t219.5 239t189.5 69.5q114 -6 187 -117t79 -238q0 -177 -67.5 -471.5t-264.5 -801.5q153 -69 290.5 -100t270.5 -111z" />
    <glyph glyph-name="K" unicode="K" horiz-adv-x="3028" 
d="M1741 1263q-87 83 -153.5 108t-106.5 -1t-28.5 -86t70.5 -96.5t187 -42.5zM3088 351q-132 -174 -278 -272.5t-343 -98.5q-161 0 -245.5 121.5t-113 385t-77 379.5t-93.5 167q-64 -10 -111 -8q-40 -118 -82.5 -262t-109 -300t-202 -267t-269 -153.5t-205 -42t-108.5 0.5
q-77 0 -182 7.5t-192.5 34.5t-148.5 44t-126.5 -2.5t-116.5 4.5t-68 58t-17 74q0 34 19.5 41t48.5 12t80 -9.5t151 -60.5t214 -83t235.5 -54t226 -9.5t214 58.5t185 121.5t130.5 192.5t89 274.5t92 333.5q-184 29 -257 78t-95.5 108.5t5.5 125.5t98 102t151.5 21t186.5 -90
q33 116 97 291t97 289t65 145t77 31q14 0 24 -8q31 -26 43 -87t-29.5 -152.5t-115 -257t-127.5 -357.5q60 -59 108 -130q94 -13 201.5 66.5t189.5 196t156.5 246t123 193.5t122.5 96t116 -3.5t35 -84.5t-70.5 -64t-182.5 -138.5t-195 -236.5t-184 -219t-257 -143
q89 -133 132 -324.5t58.5 -357t87 -238t217 -63.5t244.5 82.5t221 195.5h60z" />
    <glyph glyph-name="L" unicode="L" horiz-adv-x="1685" 
d="M2401 -214q-119 -108 -233 -186t-272.5 -134t-298.5 -56q-160 0 -274 35.5t-223 157t-205 274.5t-174 246t-187 73q-51 -104 -90 -187t-98.5 -153t-111.5 -75t-62 23.5t-16 80.5q6 47 31.5 111.5t93 121.5t109 93t75 98.5t88 257t106.5 368t78 303.5t67.5 267t90.5 233
t90.5 124.5t103.5 33.5q47 -10 54.5 -38.5t10.5 -83t-7.5 -106.5t-36.5 -119t-54.5 -64.5t-13 57t18 83t-10.5 31t-57 -104t-90.5 -285t-116.5 -373t-205 -599.5q145 0 256.5 -111.5t241.5 -292.5t202.5 -259t168.5 -114t235.5 -33.5t264 46.5t267.5 150t184 143v-37z" />
    <glyph glyph-name="M" unicode="M" horiz-adv-x="3442" 
d="M1231 1569q88 288 96.5 417.5t-47 231.5t-113.5 149t-124 41.5t-110 -52.5t-77 -140.5t-11 -226t96.5 -243t181.5 -208.5zM1319 1410q61 -77 165.5 -138t357.5 -180q76 92 175 164q-86 159 -195.5 216.5t-215.5 63.5t-259 -32zM2104 993q-7 90 -53 183l-118 -115z
M2725 787q171 347 187.5 441t-38.5 140.5t-179 49.5t-237 -27.5t-324 -157.5q56 -127 62 -286q221 -83 529 -160zM1087 1426q-225 -102 -377 -246.5t-243 -304.5t-124 -306t-16.5 -254t60.5 -182.5t110 -99t198.5 152t224.5 421.5t152 416.5t93 358.5zM1871 969
q-61 -39 -163 -215.5t-121.5 -333.5t38.5 -259.5t152 -52.5t171 234.5t110 322.5t44 221zM3502 351q-101 -119 -268 -183.5t-343.5 -62t-237 60.5t-80 129.5t22 182t96.5 231.5q-231 61 -491 144q-60 -315 -170.5 -524.5t-196 -262t-151.5 -52.5t-124 55.5t-77.5 193
t44 322.5t256.5 422q-154 77 -272.5 143.5t-247.5 146.5q-16 -52 -51 -182t-176 -485.5t-265 -507t-176.5 -171t-123.5 -24.5q-78 27 -133 93t-88 190t-33 196q0 94 41.5 234.5t127 286.5t195.5 254t220.5 185t215.5 116q-50 60 -149 179t-135 284.5t16.5 292t143.5 179
t184 52.5q105 0 190.5 -69t124 -160t41.5 -234.5t-82 -412.5q162 32 287 25.5t245.5 -71.5t210.5 -232q160 100 318 144.5t316 36t230 -55.5t99.5 -121.5t-14 -212t-156.5 -370.5q73 -25 163 -68q-1 -46 -54.5 -33.5t-141.5 36.5q-83 -170 -108 -276q-31 -127 13.5 -185
t208.5 -42t273.5 60t201.5 123h60z" />
    <glyph glyph-name="N" unicode="N" horiz-adv-x="2323" 
d="M735 1129q-177 -221 -247 -325t-157 -266t-95.5 -366.5t53 -246t127.5 129.5t158.5 492t160.5 582zM824 1573q26 232 15.5 381t-46 213t-94.5 67.5t-90 -68.5t16 -226.5t199 -366.5zM2383 351q-120 -141 -294 -227t-316 -93.5t-204 29t-84 113t34.5 255.5t157.5 492
t86 459t-105.5 232t-275 36t-403.5 -253q238 -230 369 -322t154.5 -124t24 -52.5t-121.5 51t-479 387.5l-62 -80q-119 -487 -195 -712.5t-127.5 -397.5t-128.5 -267t-159 -96q-92 8 -112 134t-20 193q0 111 39.5 247.5t160 333t418.5 552.5q50 110 51 216
q-170 251 -235.5 402t-46 266t68.5 152t102 37q41 -3 86 -12.5t91 -70t62 -272t-30 -486.5l34 -34q152 150 309.5 234t295 82t226.5 -90t120.5 -208t23 -191t-48 -264.5t-104.5 -378.5t-94 -311t38 -173.5t189.5 -23t222.5 78.5t222 157h60z" />
    <glyph glyph-name="O" unicode="O" horiz-adv-x="2730" 
d="M978 330q-218 90 -292.5 205t-76 227.5t66 255t202.5 255t320 177.5t362.5 61t326 -50t298.5 -162t229 -281.5t60.5 -333t-141 -307.5t-300 -218.5t-374 -128.5t-531.5 -50q-277 0 -450 59t-291.5 157.5t-156 188.5t-37.5 195q0 100 27.5 230t166.5 315t331.5 316
t396.5 207.5t379 107.5t325 31q187 -7 312 -58t242.5 -157t140.5 -176l-50 -7q-102 143 -258.5 235.5t-366.5 101.5t-484 -68.5t-498 -228t-326.5 -339t-112.5 -342t50 -285t177.5 -220t340 -138.5t424 -38.5t446.5 97.5t375 221t147.5 284t-45 299t-214 279.5t-354 176
t-365 20.5t-305 -97.5t-230 -186.5t-120 -280t30.5 -289t232 -216z" />
    <glyph glyph-name="P" unicode="P" horiz-adv-x="2195" 
d="M1527 1330l43 324q-115 -77 -126 -152t83 -172zM1734 1744q-19 -80 -33 -179q65 60 105 200zM1752 1840l79 18q32 123 33 198.5t-11.5 95.5t-47 -60t-53.5 -252zM2058 1085q153 74 233 133.5t118 153.5t10 186.5t-146 169.5t-377 52q-64 -173 -109 -232t-109 -106l-13 92
l-50 -274q259 -215 339 -328.5t92 -180.5t-5 -116.5t-122 -103.5l-44 25q129 65 86 163.5t-113.5 170t-262.5 223.5q-40 -151 -64.5 -333.5t-94.5 -417t-227 -343t-360 -117.5q-225 4 -352 48.5t-229.5 64.5t-152 34.5t-111.5 12t-77 15t-21 46.5q11 41 33.5 58t81.5 17
t89 -29.5t129.5 -47.5t197 -64.5t224.5 -73.5t257 -12.5t214.5 71.5t148.5 200t105 362t94 592q-117 119 -139.5 200t-1 159.5t72.5 108t73.5 37.5t30.5 50t111 65q68 367 115.5 454t80 109.5t62.5 27.5q40 -5 62.5 -47.5t25 -147.5t-52.5 -340q218 13 346.5 -26.5
t197.5 -94t104.5 -121t35.5 -127.5q0 -73 -37 -139.5t-154 -159t-338 -163.5z" />
    <glyph glyph-name="Q" unicode="Q" horiz-adv-x="2207" 
d="M1390 240q-8 93 -88 81.5t-117.5 -59t-26.5 -84t47.5 -37.5t82.5 24t102 75zM997 30q-115 -30 -312 -17.5t-297.5 80t-140.5 167.5t-40 180q0 95 30 200t147.5 312.5t323 402.5t358 276.5t245.5 108t181 26.5q55 0 110 -28t82.5 -70.5t22.5 -82.5q210 -107 297.5 -241
t87.5 -294q0 -168 -103.5 -326.5t-405.5 -436.5q23 -63 3.5 -167.5t23 -144.5t140.5 -21t208.5 104t248.5 293h60q-134 -252 -298 -386.5t-292 -134.5q-89 0 -151 39.5t-98 117.5t-36 173q-100 -76 -165 -85.5t-101.5 5.5t-55 47.5t-11 75t50 92.5t114.5 78.5t155 27.5
t156 -51q82 57 201 230t139 350t-54.5 346t-166.5 230t-184.5 64t-131 -5.5t-44.5 27.5q43 25 126.5 32.5t204.5 -17.5q2 38 -32 70.5t-137.5 31.5t-267 -95t-370 -319t-299 -422.5t-106 -362.5t58.5 -272.5t211 -146.5t314 -31v-30z" />
    <glyph glyph-name="R" unicode="R" horiz-adv-x="2593" 
d="M1673 1263q-18 -78 -62 -242q70 -9 168 14t243 81q-73 36 -152 69t-197 78zM2111 1157q155 79 197 225t42 276.5t-58 232t-172.5 151.5t-239.5 58q-88 -339 -188 -747q141 -63 241.5 -105.5t177.5 -90.5zM1756 2104q-209 -2 -321.5 -50.5t-173.5 -157.5t-28.5 -223.5
t130.5 -170t226 -108.5q112 438 167 710zM2087 2362q12 78 36.5 176t-10 137.5t-75.5 -37.5t-139 -441q159 -23 266.5 -64t196.5 -116t131.5 -165t42.5 -230q-21 -173 -110.5 -290.5t-259.5 -214.5q39 -86 7 -150.5t-119 -141.5l-38 22q50 60 74.5 112.5t-20.5 106.5
q-83 -37 -181.5 -65.5t-272.5 -48.5q85 -33 156 -187t69.5 -358t53.5 -272.5t175.5 -58t273 103t249.5 171.5h60q-112 -109 -272 -209t-255.5 -122t-208.5 -5t-161 115t-49 227.5t-28.5 271.5t-108.5 235q-139 -422 -268 -596.5t-277.5 -232.5t-308.5 -68
q-165 0 -342.5 27.5t-267.5 82.5t-175 47.5t-127.5 2.5t-42.5 45q45 55 85 75t130 -7.5t175 -85t170 -90t277.5 -30t312.5 35t212 121t172.5 235t168.5 497.5q-81 37 -143 19.5t-93 -19t-31.5 28.5t15 66.5t93 35t189.5 -13.5q38 104 77 269q-233 92 -312 180t-96.5 193
t37 222t184 196.5t397.5 96.5q54 211 117.5 357t126.5 210t102 64h5q35 -20 53.5 -84t0 -168.5t-70.5 -220.5z" />
    <glyph glyph-name="S" unicode="S" horiz-adv-x="2071" 
d="M1223 709q270 208 449.5 405.5t309.5 410.5t163.5 309t13 179t-93.5 112t-210.5 18.5t-296 -62.5t-330 -156t-278.5 -213t-157.5 -204.5t-75 -203t17.5 -217.5t158.5 -189.5t329.5 -188.5zM1155 569q-83 -47 -261 -174q152 -118 282 -227q169 41 217 77t50.5 86t-59.5 97
t-229 141zM698 335q-98 55 -161.5 46.5t-89 -66.5t50.5 -113zM1013 129q-89 72 -144 112t-102 63q-115 -72 -218 -144q118 -49 229 -54.5t235 23.5zM2131 351q-222 -224 -401.5 -307t-327.5 -81.5t-220.5 38t-119.5 76.5q-221 -53 -358.5 -34t-229.5 68
q-228 -145 -449 -316.5t-327.5 -301.5t-127 -270t31.5 -192t5 -94q-73 57 -99 120q-13 31 -13 79q0 49 13 113q26 130 135 265t236.5 244t537.5 390q-105 83 -74.5 190t160.5 148t328 -55q96 65 262 174q-192 91 -322 183.5t-185.5 223.5t-35 246.5t92 230t188 234
t267.5 215.5t320 163.5t314.5 88.5t244.5 21q93 -5 155.5 -36.5t88.5 -81t26 -106.5q-5 -52 -20.5 -127t-130 -272.5t-307 -424t-498.5 -485.5q228 -125 280.5 -183.5t49 -127t-81 -129.5t-307.5 -122q33 -31 131.5 -59.5t278 25t429.5 269.5h60z" />
    <glyph glyph-name="T" unicode="T" horiz-adv-x="1755" 
d="M1673 1262q100 154 137 289.5t38 182t-36 -19t-56 -138t-83 -314.5zM1488 1087q-125 -4 -211.5 59.5t-117 180.5t-14.5 194t-16.5 107.5t-35 60.5t49 58.5t91 21.5t65.5 -42.5t33 -100.5t-21 -154t3 -188t208 -77q44 199 98 357.5t120.5 287.5t109 171t93.5 51
q51 -19 56 -89q-1 -127 -44 -312t-119 -328.5t-189 -229.5q-136 -462 -203 -625.5t-158 -247.5t-205.5 -145t-282.5 -100.5t-313 -39.5q-150 5 -201 30.5t-158.5 72.5t-156.5 72.5t-79.5 32.5t-35.5 40q10 28 56.5 51t102.5 32.5t114.5 -37t161 -107.5t257 -79.5t308.5 16.5
t240.5 88.5t147.5 159t107 268t139 490.5z" />
    <glyph glyph-name="U" unicode="U" horiz-adv-x="2208" 
d="M568 1068q123 262 146.5 394.5t-46 181.5t-191.5 38.5t-221 -103t-84 -199t104.5 -175t291.5 -137.5zM670 500q213 85 266 174t27.5 141.5t-104.5 81t-180 59.5q-168 -320 -190 -508t87.5 -285.5t250 -71t233.5 114.5t197.5 259t137.5 307t74 370t90 429t144.5 262.5
t118.5 116t72 53.5q26 -33 21.5 -108.5t-28.5 -162t-129 -329t-187 -459.5t-95.5 -416t36 -345t146 -184t186 5t168.5 111t196 236h60q-102 -161 -187 -252t-183.5 -143t-187.5 -52q-48 0 -117.5 30.5t-125.5 100.5t-90 215t-25 259q-111 -209 -195.5 -307.5t-189.5 -146
t-251.5 -46.5t-239.5 82.5t-122 213.5t11 269t173 429l-64 22q-174 63 -271 145t-104 231q0 117 72 199q78 89 191.5 132t226.5 44t191 -43.5t100.5 -123.5t-27 -235.5t-152.5 -355.5q128 -36 195 -64.5t101.5 -69t35.5 -115.5t-68 -146.5t-281 -143.5z" />
    <glyph glyph-name="V" unicode="V" horiz-adv-x="1021" 
d="M-2 1260q65 32 91.5 58.5t61 18.5t69 -50.5t80 -67.5t120.5 -3t136.5 59.5t125.5 165.5t91.5 250.5t79.5 213t100.5 139.5t91.5 49q38 0 48.5 -21.5t-18.5 -136t-79.5 -217.5t-126 -208.5t-112.5 -200t-100 -242.5t-123 -355t-97.5 -353.5t-45.5 -194.5t18.5 -50.5
t58.5 64t120.5 251t179 401t237.5 411.5t401 328.5t531.5 195t553 69.5t590.5 -35t554 -110t465 -187t327 -238t102 -174l5 -65l-44 21q-5 66 -73 156.5t-232 196.5t-410 192.5t-694.5 150t-860 2t-678.5 -192.5t-411.5 -304.5t-304.5 -542.5t-243 -516t-131 -184t-96 -48
q-32 11 -42.5 29.5t-16 86t34.5 257.5t106 407t112 319.5t33 126.5t-94.5 -24.5t-221.5 -40t-204.5 48.5t-64.5 94z" />
    <glyph glyph-name="W" unicode="W" horiz-adv-x="1846" 
d="M627 1451q29 205 -5 370t-95.5 230t-94.5 0t8 -197.5t187 -402.5zM581 922q78 73 147 123q-17 54 -63 169q-38 -161 -84 -292zM414 688q-189 -225 -255 -376.5t-30 -153t113.5 133t171.5 396.5zM1246 392q-158 -164 -191 -288.5t-0.5 -135t86.5 35t78.5 140t26.5 248.5z
M1931 1453q52 203 -14 349.5t-182.5 173.5t-181 -20t-69 -156.5t104.5 -208.5t342 -138zM549 780q-83 -248 -162 -415t-173 -258t-142 -97.5t-57 23.5t-9 44q0 57 35.5 166.5t114.5 231t298 343.5q62 153 92 269t54 228q-141 258 -206 421t-55 270t53 143t77 36
q53 -4 114.5 -65.5t106 -224.5t37.5 -302t-28 -252q65 -161 105 -238q217 124 335.5 93.5t166.5 -184.5t64 -386q228 257 343 421.5t199 339.5q-303 52 -430 180t-103.5 280t145 204t258.5 6.5t216 -201.5t18 -416q260 -24 785.5 41t973 77t832.5 -60l-18 -27
q-610 84 -1176.5 31.5t-903.5 -95.5t-511 -25q-120 -270 -295 -499.5t-320 -373.5q3 -271 -45.5 -400t-127 -190t-149.5 -63q-74 4 -98.5 74t1.5 162t78.5 176t199.5 248q-5 155 -27.5 294t-58.5 219.5t-120.5 76t-197.5 -70.5q54 -127 78.5 -192.5t46 -136t12 -126.5
t-42 -69t-96 45.5t-7.5 71t18.5 134.5t-80.5 221q-121 -96 -218 -203z" />
    <glyph glyph-name="X" unicode="X" horiz-adv-x="2226" 
d="M688 810q135 66 220.5 97t187.5 65q77 244 96.5 387.5t-3.5 230t-128 92.5q-116 0 -219.5 -148t-144.5 -284.5t-35 -255t26 -184.5zM924 524q107 220 141 354q-148 -44 -336 -142q57 -121 195 -212zM658 711q-221 -129 -324 -239.5t-119.5 -214.5t58 -141t251 32.5
t359.5 309.5q-82 54 -132 106t-93 147zM1553 1100q172 54 299.5 146t205 217t89 286t-61.5 201t-147.5 -43.5t-155 -265.5t-229.5 -541zM1238 925q-108 -303 -204 -466q33 -24 112 -41q21 71 55 177t135 355zM2307 351q-169 -306 -379.5 -419.5t-388.5 -113.5
q-154 0 -258 82.5t-135 200.5t-15 241q-78 21 -144 59q-138 -190 -257 -283.5t-241 -130.5t-210 -11.5t-125 90.5t-37 140q0 125 116 267t383 307q-38 125 -32.5 276.5t66.5 301.5t157.5 258t195 143t192 16.5t138.5 -111.5t36.5 -229t-110.5 -419l112 30q32 79 69 167
q178 429 244.5 563.5t166.5 204t221 69.5q125 0 159 -125t9.5 -254.5t-110.5 -265.5t-243.5 -239.5t-370.5 -171.5q-136 -289 -182.5 -413.5t-72.5 -211.5q102 -40 202 -64.5t96 -62.5q-163 10 -224 28.5t-87 29.5q-16 -100 23 -208.5t146.5 -153.5t256.5 -23t299.5 120.5
t273.5 315.5h60z" />
    <glyph glyph-name="Y" unicode="Y" horiz-adv-x="1610" 
d="M682 -569q-132 -83 -257 -130q-51 -139 -63.5 -219.5t11 -132.5t81 -46.5t128 56t102 130.5t27.5 159t-29 183zM462 -255q-154 111 -310.5 134t-285.5 -32t-176 -156t11.5 -232t207 -165t407.5 54q79 219 146 397zM544 -333q-53 -150 -99 -283q95 35 217 112
q-57 127 -118 171zM813 650q-102 -99 -240 -170t-253.5 -54t-155 113t-39.5 199q0 102 51 269t149 359t194.5 294t128.5 89t41 -39t-13 -62t-109 -175.5t-159 -310.5t-93.5 -344t23.5 -232t139.5 -47.5t212.5 104.5t242 316q128 366 224 684.5t167 507.5t168 243
q71 -44 53.5 -137.5t-84 -307.5t-191.5 -485q-115 -251 -232.5 -539.5t-216 -535.5t-249.5 -640q91 -77 157 -216q132 78 259.5 184t258 240t216.5 220t148 174h60q-118 -151 -238 -280t-242 -248t-228.5 -206.5t-207.5 -145.5q28 -79 35 -202.5t-52.5 -237t-166.5 -173.5
t-197 -64q-104 11 -122 85t-7.5 172t44.5 208q-160 -53 -303 -53q-208 0 -323 117t-115 259q0 98 87.5 196.5t243.5 147t315.5 15t295.5 -126.5q34 66 106 252.5t117.5 320.5t100.5 263z" />
    <glyph glyph-name="Z" unicode="Z" horiz-adv-x="1923" 
d="M541 394q-189 -19 -274.5 -130.5t-48 -135.5t180.5 127zM1549 962q-160 43 -283 67q-217 -227 -503 -541q50 -11 125 -45t162.5 -112.5t144 -157.5t135 -124.5t171.5 -34t193 95t229 241.5h60q-199 -292 -330 -373t-254 -81q-124 0 -231.5 54.5t-175.5 147.5
t-132.5 180.5t-191.5 102.5q-178 -185 -248 -253.5t-142 -102.5t-122 -17.5t-58 51.5t-8 64q0 58 29 121q43 96 179 185.5t337 84.5q283 256 528 536q-252 50 -564 39q-8 67 195 69t397 -30l35 -6q281 331 295 423q-151 -17 -342.5 -41.5t-440 -20t-322.5 52t-76 117.5
q2 60 58 98t140 38q14 0 76 -5l-2 -15q-115 -24 -86 -101t178 -101.5t451.5 9t367.5 70.5q-14 90 148 99q109 5 108.5 -57.5t-49.5 -149.5t-312 -354q-40 -40 -81 -82q152 -31 353 -77z" />
    <glyph glyph-name="bracketleft" unicode="[" horiz-adv-x="820" 
d="M103 370q109 89 163 132t30.5 68.5t-74 13.5t-83.5 -65t-36 -149zM114 306q15 -64 55.5 -117t111 -80t151 -19t183.5 67t205 194h60q-129 -188 -240 -252.5t-188.5 -81.5t-132.5 -17q-38 0 -115 16.5t-148 78.5t-93.5 130t-22.5 121q0 59 24.5 136t99 142.5t167.5 65.5
q76 -3 125.5 -43.5t38.5 -77t-74.5 -91t-206.5 -172.5z" />
    <glyph glyph-name="backslash" unicode="\" horiz-adv-x="730" 
d="M856 -169q-8 -26 -54 -46q-57 7 -134.5 179.5t-255 560.5t-303.5 652.5t-232.5 518t-148.5 319.5q0 50 29 59q37 -19 106 -101t165 -297t266 -603t252 -547t193 -383.5t117 -311.5z" />
    <glyph glyph-name="bracketright" unicode="]" horiz-adv-x="1019" 
d="M284 459q-56 -3 -114 -60.5t-62 -161.5t44.5 -136t102 -1.5t97.5 92t64 154.5zM437 483q-1 244 -50 466.5t-134 357.5t-142 120.5t-69.5 -130t56.5 -327t339 -487.5zM201 558q-180 208 -239 375.5t-59 261.5q0 115 15 184t55.5 115.5t106.5 54.5q74 0 153.5 -71.5
t153.5 -246.5t101.5 -381t22.5 -439q47 -57 114 -94.5t159 -41t153.5 24.5t81.5 51h60q-32 -45 -110 -93.5t-180.5 -52.5t-173 19t-124.5 66q-37 -119 -129.5 -219.5t-220.5 -100.5q-122 12 -171.5 115.5t-21.5 211t101 171t152 90.5z" />
    <glyph glyph-name="asciicircum" unicode="^" horiz-adv-x="1839" 
d="M1494 715q-30 -67 -72 -134t-119.5 -124.5t-190.5 -67.5q-70 0 -150.5 33t-159 94t-171 111.5t-143.5 3t-41 -109.5t33 -81l-18 -14q-48 15 -81.5 55t-33.5 89q0 59 30.5 105t86.5 76t150 31q36 0 116 -27t177 -93t193 -97t179 4t163 144z" />
    <glyph glyph-name="underscore" unicode="_" horiz-adv-x="1058" 
d="M1055 -412h-1055v52h1055v-52z" />
    <glyph glyph-name="grave" unicode="`" 
d="M356 710q-174 63 -265 138.5t-91 153.5q0 53 53 53q60 0 82 -54t61.5 -101t94.5 -88t88 -75z" />
    <glyph glyph-name="a" unicode="a" horiz-adv-x="1017" 
d="M393 406q-71 74 -110 17t-121 -97t-54.5 -129t87.5 -109t115 42.5t83 275.5zM1077 351q-109 -131 -234.5 -229t-204 -106t-138.5 29.5t-100 40t-57.5 -32.5t-76.5 -54t-92 -19q-30 0 -67 16.5t-74.5 64t-57.5 87.5t-20 85q0 50 56.5 134t137.5 136t180 59q111 -4 184 -91
q26 27 55.5 26t27 -43.5t-51.5 -111.5t-29 -139t66.5 -89.5t116.5 4.5t138.5 72.5t180.5 160.5h60z" />
    <glyph glyph-name="b" unicode="b" horiz-adv-x="803" 
d="M109 573q27 -9 165 228t237 466.5t115 370t-12.5 178t-84 -51.5t-122.5 -245.5t-128 -337.5t-99.5 -327t-70.5 -281zM300 206q-158 52 -184 147q-17 -36 -24 -109t6.5 -112t53 -39.5t79 31.5t69.5 82zM863 351q-88 -110 -219.5 -149.5t-267.5 -12.5q-43 -77 -93.5 -125.5
t-105 -65.5t-79.5 -17q-35 8 -65.5 36t-40.5 88.5t-10 145.5q0 60 19 195.5t91.5 420.5t197.5 608t187 399t113.5 102t91.5 26q55 0 70 -121t-38 -322t-159.5 -434t-395.5 -658q114 133 185.5 138.5t98.5 -74t-37 -270.5q77 -31 192 -11t205 101h60zM332 297
q40 108 12 140.5t-92.5 -11.5t80.5 -129z" />
    <glyph glyph-name="c" unicode="c" horiz-adv-x="1021" 
d="M1081 351q-103 -127 -243 -214t-248.5 -120t-220.5 -33q-107 0 -199.5 32.5t-143.5 102.5t-51 149q7 92 48 158.5t116 102t161 34.5q17 27 43.5 53.5t72.5 49.5q16 -9 34 -38q-33 -31 -52 -75q87 -40 106.5 -103t8 -108t-82 -56t-117.5 35.5t-45 156.5q-96 1 -135.5 -71
t-23.5 -155.5t101 -132.5t185 -56t197.5 17t227.5 104.5t201 166.5h60z" />
    <glyph glyph-name="d" unicode="d" horiz-adv-x="1222" 
d="M387 346q-111 33 -175.5 22.5t-102 -72.5t-45.5 -113t21.5 -83t96.5 0t122.5 103.5t82.5 142.5zM1282 351q-84 -143 -178 -216t-186 -103.5t-117 -30.5q-103 0 -178 45.5t-95.5 154t-40.5 106t-45.5 -52t-90 -120.5t-152 -103.5t-157.5 -32.5q-150 15 -155 125
q1 103 55.5 166t147 117.5t185 46t138.5 -19.5t81 27t51.5 124.5t10.5 169t61 268t83 362.5t48.5 269.5t81.5 134t144 42.5q-14 -260 -66 -449.5t-112.5 -344.5t-129 -379t-55 -353t72.5 -182.5t158 -45.5t199.5 77t180.5 198h60z" />
    <glyph glyph-name="e" unicode="e" horiz-adv-x="870" 
d="M337 528q121 64 130.5 117.5t-38 108t-98 27t-61.5 -67t-2.5 -96t38.5 -85.5zM402 447q76 -35 76.5 -16.5t-76.5 16.5zM930 351q-112 -134 -210 -205t-189 -106.5t-184 -39.5q-115 4 -194 36.5t-127 102.5t-48 126q3 58 36.5 113.5t110 85t72.5 44.5q-37 52 -48 97.5
t14 116.5t96 101.5t97 44.5t62 14q33 -3 70 -40t51 -94t-23 -122t-75.5 -84t-25.5 -28t60.5 -7t69.5 -34.5t10 -57.5t-25.5 -40t-44.5 -20t-62 23.5t-97 36t-121.5 -18.5t-66.5 -107.5t50 -140.5t167 -70t199 36.5t158 95t158 141.5h60z" />
    <glyph glyph-name="f" unicode="f" horiz-adv-x="777" 
d="M357 852q96 133 205.5 353.5t127.5 427.5t-36.5 126t-130.5 -312t-166 -595zM74 -83q-24 -30 -54.5 -114.5t-122.5 -341t-109.5 -336.5t-17.5 -125t20 -45t60 90t94.5 281.5t129.5 590.5zM837 351q-82 -83 -222 -150t-234 -67.5t-145.5 21t-49 -110t-94.5 -540.5
t-172 -534t-120 -180q-50 0 -80 7.5t-55 87.5q7 167 82.5 452.5t188.5 516.5t101 280t-4.5 88t43 79t101.5 216q-83 -114 -117 -168h-60q104 126 185.5 277t102.5 265t97 389t133.5 411.5t112.5 239t110 117.5q60 0 77.5 -42.5t5 -82.5t-15 -122.5t-17.5 -187.5
t-85.5 -284.5t-205.5 -390.5t-188 -339.5t-77 -219.5t11.5 -136t123 -48t186 36.5t221.5 119.5h60z" />
    <glyph glyph-name="g" unicode="g" horiz-adv-x="537" 
d="M144 476q57 114 69 207.5t-17 128.5t-71.5 34.5t-60.5 -61.5t80 -309zM95 -17q-273 -155 -431.5 -312t-240 -322t-84 -281.5t75 -170.5t185 -6t228 211.5t200 388.5t67.5 492zM597 351q-44 -64 -128 -134.5t-257 -179.5q3 -243 -37 -414.5t-127.5 -344.5t-190 -291.5
t-194 -160t-149.5 -41.5q-74 0 -131.5 34t-89 95t-31.5 136q0 133 104.5 327.5t252 339t469.5 332.5q-12 191 -51.5 311t-79 203.5t-38.5 173t68.5 162.5t159.5 73q90 0 123 -109.5t-1.5 -217t-108.5 -229.5q35 -133 44 -312q148 85 222.5 146.5t110.5 100.5h60z" />
    <glyph glyph-name="h" unicode="h" horiz-adv-x="1493" 
d="M404 921q85 119 118.5 216.5t66.5 204.5t41 182.5t-15 94.5q-40 -8 -79 -147t-83.5 -305.5t-48.5 -245.5zM1553 351q-65 -109 -228 -204t-301.5 -124t-264.5 -29q-89 0 -150.5 34t-102.5 107.5t-64 93.5t-78 -38t-55 -82t-14.5 -46t-42.5 -36.5t-82 -18.5t-73.5 9
t-20.5 48t19.5 94t36.5 135.5t51 193.5l-123 -137h-60q68 73 133.5 162t90 195t72.5 311.5t124.5 459t125 444.5t99.5 259.5t99 73.5q48 -17 52 -53t-5 -164.5t-52 -390.5t-124 -466t-298 -540q-61 -259 -73 -357.5t-5.5 -117t28 -2.5t68 75t79.5 110.5t77.5 82.5t93.5 21
t55.5 -45t14.5 -107t56.5 -128.5t128.5 -66.5t186.5 2t247 79t219.5 163h60z" />
    <glyph glyph-name="i" unicode="i" horiz-adv-x="654" 
d="M714 351q-63 -71 -133 -139t-143.5 -114.5t-142.5 -71t-141 -26.5q-81 2 -109.5 42.5t-46.5 86t-18 109.5q0 76 19.5 122.5t40.5 92t60.5 52t62 27.5t54.5 13t32 -41.5t-32 -78.5t-53.5 -111t0.5 -142t92.5 -73t146 44t135 95.5t116.5 112.5h60zM234 987q38 0 55.5 -43.5
t17.5 -94.5t-35 -67t-49.5 0t-17.5 51t-30.5 35t-38.5 29t24 59.5t74 30.5z" />
    <glyph glyph-name="j" unicode="j" horiz-adv-x="636" 
d="M389 1034q-40 9 -34 69t1.5 91.5t24.5 42t91 17.5q31 -16 41.5 -38.5t19.5 -88.5q-36 -39 -66 -47t-39 -42t-39 -4zM190 -1134q43 129 132 324q-120 73 -196.5 181t-99 237t-6 310.5t167.5 533.5l-128 -103h-60q87 71 172.5 170.5t117 177t50.5 130t121 53.5
q80 -5 57.5 -104.5t-54.5 -151t-107.5 -137.5t-144.5 -258.5t-90.5 -346.5t28.5 -340t203 -281q99 217 175.5 312t174.5 135.5t197 20t163 -90.5t64 -167t-49 -186t-139.5 -132.5t-223.5 -59.5q-74 -2 -65 33q138 7 218 67.5t109 147t11.5 155.5t-70.5 114t-136 30.5
t-172 -92t-214 -323.5q20 -25 47 -41.5t68.5 -39t109.5 -25.5q-1 -17 -28.5 -21t-88.5 12q-58 14 -142 57q-91 -184 -140 -314z" />
    <glyph glyph-name="k" unicode="k" horiz-adv-x="1146" 
d="M1206 351q-81 -139 -262.5 -264.5t-362.5 -125.5q-131 0 -226.5 50.5t-165 162t-93 113t-34 -111.5t-36.5 -147t-63 -68q-37 3 -37 102q21 259 110 400q21 239 122 612.5t169.5 533.5t120.5 207t94 47q37 0 65.5 -36.5t13 -185.5t-97 -423.5t-165.5 -462t-205 -320.5
q54 -25 99 -87q124 3 201 38.5t99.5 86.5t-50.5 53.5t-242 -140.5l-21 18q138 160 239.5 203.5t159 36t89 -41.5t16 -103.5t-143 -140.5t-304.5 -78q72 -146 175.5 -200.5t219 -32t238 101t218.5 203.5h60zM100 498q20 4 82.5 94t121 250.5t135.5 417t81.5 349t-63.5 -38.5
t-170.5 -462t-186.5 -610z" />
    <glyph glyph-name="l" unicode="l" horiz-adv-x="801" 
d="M92 418q213 297 330.5 509.5t199.5 431t95 287t2.5 99.5t-45 26t-90.5 -65t-188.5 -304.5t-217.5 -525t-86 -458.5zM861 351q-83 -92 -171.5 -171t-197 -151.5t-222.5 -72.5q-78 0 -132.5 42.5t-94 130t-53.5 229.5q-3 25 -3 56q0 137 58.5 369t134.5 408.5t184.5 352.5
t154 233t86.5 83t102 26q47 0 78 -46.5t30 -130.5t-97 -335t-223.5 -475t-392.5 -554q13 -149 60 -222t113.5 -82t136 19t164.5 99t225 192h60z" />
    <glyph glyph-name="m" unicode="m" horiz-adv-x="1932" 
d="M1992 351q-110 -153 -279 -253.5t-282.5 -101t-165.5 34t-43.5 123.5t-7.5 127.5t-59 26t-94.5 -45t-113.5 -102.5t-98 -103.5t-77.5 -36.5t-55 41t21.5 119t31 145t-95.5 47.5t-185 -79t-149.5 -130t-87.5 -129.5t-46.5 -65.5t-38 -9.5q-30 0 -49 38.5t-17.5 76.5t43 92
t105 176t48.5 148.5t-81 -16t-156 -123.5h-60q62 60 122 114t113.5 87.5t111.5 33.5q43 0 67.5 -44t9.5 -112t-79 -173q123 100 252.5 153t198 58.5t107 -31.5t25.5 -198q71 61 164.5 104t174 47.5t101 -48t-2 -142.5t15.5 -123.5t147.5 -3.5t225 110t178.5 168h60z" />
    <glyph glyph-name="n" unicode="n" horiz-adv-x="1030" 
d="M1090 351q-102 -149 -183.5 -216.5t-151 -101t-132.5 -33.5t-102.5 20.5t-65.5 75.5t-31 152q-78 -23 -159 -81.5t-121 -88.5t-107.5 -17.5t-67.5 87.5t32.5 182.5t67.5 150t91 45.5q65 0 112 -39.5t-8 -94t-110 -144.5t-30 -97.5t125.5 65t176 115t123 36.5t66.5 -37.5
t11.5 -109t2.5 -114t101 -5.5t176 110.5t124 139.5h60z" />
    <glyph glyph-name="o" unicode="o" horiz-adv-x="805" 
d="M123 224q6 -90 51.5 -94.5t85.5 78t21 161.5t-47 95t-73 -67t-38 -173zM865 351q-63 -82 -134.5 -122t-145 -55t-131.5 6.5t-78 45t-35.5 -23.5t-69.5 -128t-119 -81q-47 0 -110 45t-75 185q6 117 17.5 176t56 101t83 70.5t84.5 28.5q8 0 43 -17.5t80 -34t36.5 -72.5
t19 -119t76.5 -103.5t119 -29.5t129 48t94 80h60z" />
    <glyph glyph-name="p" unicode="p" horiz-adv-x="1330" 
d="M418 225q56 47 121 44t112 -32t91.5 -22.5t23 68.5t-78.5 103t-130.5 14t-154.5 -147zM1390 351q-82 -122 -213 -238t-284.5 -153.5t-280 3t-182 100.5t-61.5 131q-81 -28 -138 -125.5t-188 -404.5t-222.5 -580.5t-107.5 -311.5t-51 -49q-42 17 -48 55q6 32 100.5 302.5
t217 596.5t329.5 877q-71 -102 -201 -205h-60q88 89 199 235.5t209 392.5t165 358.5t132 139.5q60 -5 68 -40.5t-17.5 -131.5t-83.5 -254t-174 -347.5t-170 -290t-64.5 -138.5t12.5 -37t102 100.5t163.5 149.5t167 48t138.5 -60t66 -161t-9 -146.5t-107 -65t-171 30
t-128 17.5q29 -63 139.5 -101t236.5 -12t224.5 98t231.5 217h60z" />
    <glyph glyph-name="q" unicode="q" horiz-adv-x="1008" 
d="M328 340q117 228 144.5 291t85 131t101.5 90t72 -17.5t-21.5 -159t-205.5 -275.5q-120 -227 -227.5 -487.5t-203 -533.5t-122 -380.5t-4 -123t48 14t107.5 164t223.5 419t235 484t181 339t164 230.5t150.5 127t139 8t80 -103h-164q-12 48 -51 27t-108 -103t-171.5 -264.5
t-186.5 -374.5t-173.5 -376.5t-163 -312t-150.5 -254.5t-116 -143.5t-61 -16.5q-30 0 -66 24t-36 83q0 105 90.5 362t172 490.5t192.5 539.5q-107 -67 -187.5 -11t-104.5 125t-24 168q0 84 68.5 191.5t164 184.5t241 130t371.5 53q225 0 429 -23t660 -97l4 -34
q-317 51 -520 73t-392 22t-351 -25.5t-271.5 -86t-173.5 -161t-78 -200t16.5 -189t77.5 -79.5t114 60z" />
    <glyph glyph-name="r" unicode="r" horiz-adv-x="960" 
d="M1020 351q-73 -109 -166.5 -187.5t-196 -123.5t-199.5 -45q-33 0 -99 7.5t-120.5 72.5t-33.5 142.5t74 139.5t36.5 76t-61.5 22t-82 7t-60.5 -31.5t-51.5 -81.5h-60q29 41 54 95t15.5 99.5t-30.5 72.5t-9.5 58t42.5 73t70 53q39 -28 44.5 -92.5t25 -103.5t104 -63
t140.5 -50.5t0 -99.5t-56 -183t97.5 -121.5t241.5 69.5t221 195h60z" />
    <glyph glyph-name="s" unicode="s" horiz-adv-x="648" 
d="M26 271q-15 -90 33 -147.5t108 -38t101 102t-20 320.5q-46 -52 -100 -116t-122 -121zM-124 368q28 32 90 33t57 -56q67 53 126 121t86 137q-13 37 0 84.5t55.5 77.5t73.5 30q33 0 64 -16.5t34 -59.5q-1 -26 -32.5 -71.5t-16.5 -111t23 -163.5t-34 -184.5t-119 -137
t-140 -54.5q-70 0 -134.5 37.5t-112.5 104.5t-49 134q0 64 29 95z" />
    <glyph glyph-name="t" unicode="t" horiz-adv-x="791" 
d="M233 752q20 71 58 197l-168 -11l-11 56q84 25 208 43q110 260 170 368t157 126q36 -5 32 -62t-30 -127.5t-144 -287.5q390 30 887.5 52t762.5 40t451.5 40t355.5 45l-4 -25q-267 -52 -522.5 -75t-428 -31.5t-445 -21t-469.5 -31.5t-342 -39t-281 -40q-58 -94 -125 -228
t-111 -373t0 -284t145.5 -17.5t214 108.5t197.5 177h60q-92 -129 -222 -220.5t-202 -118t-160 -26.5q-77 0 -115 57t-34 176q5 141 44 257q-45 -56 -102 -125h-60q35 37 84 103.5t89 146.5t60 151z" />
    <glyph glyph-name="u" unicode="u" horiz-adv-x="1272" 
d="M1332 351q-79 -140 -207.5 -226.5t-228.5 -110t-150 -23.5t-114.5 17t-121.5 119q-80 -80 -151.5 -103.5t-133.5 -22t-107.5 19.5t-81 49.5t-50 90t-14.5 95.5q0 28 10 70.5t44 112.5t61 110t67 52.5t57 12.5q23 0 39 -18.5t20 -60.5t-46 -102t-73 -157.5t6.5 -147
t103.5 -47.5t137.5 38t86.5 72q9 119 29 173t71.5 70t101.5 8t16 -70t-40 -159.5t67 -120.5t171.5 0t204 96t166.5 163h60z" />
    <glyph glyph-name="v" unicode="v" horiz-adv-x="1032" 
d="M220 505q109 117 117 164.5t-28 14.5t-89 -179zM1092 351q-60 -70 -178.5 -94.5t-257.5 56.5q-48 -115 -101 -185.5t-131 -112t-158 -41.5q-82 0 -126 64t-53.5 142t11.5 180l-38 -11h-60q71 42 112 80q47 185 97.5 259t104 112.5t112.5 38.5q54 -4 60.5 -53.5t-52 -133
t-230.5 -231.5q-30 -127 3.5 -214.5t107.5 -113.5t134 20.5t92.5 129.5t-5.5 108.5t-55 61.5t-14 83.5t45.5 67t81.5 15t55.5 -55t61.5 -122.5t131 -92t190 42h60z" />
    <glyph glyph-name="w" unicode="w" horiz-adv-x="1323" 
d="M1383 351q-71 -53 -147 -80t-161.5 -18.5t-167.5 56.5q-6 -114 -41.5 -182.5t-81.5 -97.5t-87 -29q-24 0 -71.5 7t-85.5 62t-38 145q-120 -96 -189 -138t-117 -57.5t-96 -15.5q-17 0 -35 1q-62 1 -89.5 50t-27.5 86q0 38 17 103.5t48.5 133.5t90 125t113.5 74
q77 -23 61 -57.5t-65.5 -94.5t-80 -146t-30.5 -145t55 -71.5t156.5 58.5t143 110t80.5 84q60 10 115 -5v-130q15 -80 42.5 -92.5t61.5 2.5t55.5 64t27 103.5t-8 93.5t-41 69t-2.5 55l55 44l31 -4q26 -69 73 -130.5t139 -80.5t238 48h60z" />
    <glyph glyph-name="x" unicode="x" horiz-adv-x="1382" 
d="M1442 351q-153 -200 -267.5 -256.5t-232.5 -62t-202 29t-152 138.5h-26q-64 -52 -102 -59t-57 -19t2 -30.5t46.5 -30t38.5 -49.5l-34 -19q-55 19 -116.5 42t-102 68t-81 64t-38.5 56.5t36.5 55t85 11.5t63.5 -46t34.5 -56.5t61.5 -14t85 45.5t57 102.5t-10 108t-62 74.5
t-108 20.5t-134.5 -43t-166.5 -132.5h-60q96 100 161 149t143 78.5t148 26.5t94 -31.5t43.5 -48.5t63.5 -18q135 140 270 140q128 0 181.5 -104.5t29 -146t-77.5 -28t-93 55.5t-71 115q-41 16 -93 5.5t-78 -61t-30 -127t40 -141.5t127.5 -88.5t159 -15t165 55.5t199.5 186
h60z" />
    <glyph glyph-name="y" unicode="y" horiz-adv-x="962" 
d="M414 -425q64 -251 195.5 -390.5t261.5 -207t283.5 -83t210 19t35 124.5t-141 204.5t-361 206t-483.5 126.5zM60 349h-60q44 43 62.5 75t28.5 90.5t25 93.5t60 33t78.5 -45t20 -87t-51 -81t-36 -106t48.5 -96.5t124 7.5q69 32 152 154q75 119 126 306t58 295t64 108
q79 0 96 -38t1.5 -110t-73.5 -218t-135 -286q-126 -246 -186.5 -467t-49.5 -333q287 -42 505 -130.5t331.5 -170t172.5 -175.5t59 -208q-6 -58 -58 -101.5t-143 -43.5q-81 0 -190 15t-282.5 99.5t-309.5 262t-171 394.5q-290 16 -527 -17t-423 -118.5t-268.5 -168
t-78 -151.5t47.5 -97.5t118 -18.5t131 39.5t92 65t71 15.5q-97 -111 -165.5 -140.5t-133.5 -42t-141 -3.5t-112.5 55t-36.5 101q0 50 22.5 100t125 137t293.5 171.5t437 118t545 20.5q-2 96 20.5 215t80.5 319q-91 -71 -157 -77t-103.5 23.5t-59.5 89t-19 142.5z" />
    <glyph glyph-name="z" unicode="z" horiz-adv-x="980" 
d="M610 38q-140 -94 -246.5 -194.5t-147.5 -217.5t-3 -211t113.5 -101t175 39.5t167 155t53.5 254.5t-112 275zM1040 351q-76 -71 -145.5 -124.5t-174.5 -122.5q133 -156 135 -338.5t-82 -303.5t-203 -169.5t-222 -48.5q-119 0 -180 114.5t-25 243.5t132 235.5t296 243.5
q-48 70 -198 63q-36 -1 -85.5 -45.5t-128.5 -48.5t-79 40.5t37 90t95 44t102 12t87.5 60.5t52 130.5t-68 97t-151.5 -33t-174 -142.5h-60q110 116 209.5 202.5t180.5 86.5q69 0 117 -19t74.5 -79.5t-1 -144.5t-165.5 -168q133 -1 261 -88q143 85 304 212h60z" />
    <glyph glyph-name="braceleft" unicode="{" horiz-adv-x="1021" 
d="M323 181q-117 134 -147 131t-6 -48t153 -83zM314 394q42 84 144 378t186 549.5t96 342.5t-27 102t-106 -87t-119.5 -218t-89.5 -268t-76 -310t-215 -457q147 37 207 -32zM1081 350q-90 -139 -231.5 -228.5t-284.5 -105.5t-224 -16q-101 0 -159 36t-101 113.5t-40.5 139
t-40.5 62.5q59 85 90.5 142t91 195.5t103 309t90 325t98 288.5t114.5 203t123 75t108 12q48 -24 54 -87t-21 -186t-126 -381.5t-220.5 -587t-83 -389.5t56.5 -113t125 -43.5t220 74t198 162.5h60z" />
    <glyph glyph-name="bar" unicode="|" horiz-adv-x="2662" 
d="M1679 1230q136 50 247.5 153t162.5 234.5t48 259.5t-38.5 170t-106 -44.5t-166.5 -317.5t-147 -455zM1264 297q113 387 209 766q-172 -65 -401 -141q-60 -167 -176 -407q181 -138 368 -218zM550 729q-222 -97 -322.5 -189t-138.5 -182t-2 -159t134 -90t189 24.5
t183 125.5t179 236q-181 131 -222 234zM810 574q101 168 138 308q-178 -61 -300 -123q69 -132 162 -185zM612 849q132 59 373 141q71 241 87.5 423t-19 236.5t-83.5 54.5t-120 -44.5t-148.5 -158t-115.5 -273t26 -379.5zM2722 351q-149 -155 -234 -230t-154.5 -102
t-120.5 -27q-71 0 -154.5 26.5t-163 162t-105 167t-79 44.5t-118.5 -25t-141.5 -118t-107 -136.5t-50 -84t-60.5 -27.5q-17 0 -39.5 11t3 85.5t52.5 154.5q-196 60 -393 186q-123 -188 -228 -272.5t-200.5 -121t-160.5 -36.5q-49 0 -126 25t-117.5 93t-40.5 142
q0 58 26.5 125t129 177.5t376.5 234.5q-78 248 -31.5 442t144.5 320.5t209.5 189t194.5 41.5t124 -95.5t18 -281t-70 -394.5q189 49 401 132q114 423 197 600t167 282.5t142 128t80 22.5t67.5 -35.5t74.5 -154t9 -253t-112.5 -274.5t-230.5 -228t-260 -120
q-122 -372 -260 -838q9 -12 51 31t109.5 91.5t122 68t131.5 16t131.5 -52t106.5 -162.5t92.5 -155t119 -45t174 72t244.5 198h60z" />
    <glyph glyph-name="braceright" unicode="}" horiz-adv-x="1192" 
d="M336 635q51 -43 76 -126q33 103 114 339l-20 -6q-53 -69 -83 -101.5t-87 -105.5zM289 454q55 -62 73 9q-38 89 -93 76q-17 -23 20 -85zM1252 351q-85 -87 -230.5 -147.5t-300 -62.5t-272.5 40q-23 -87 -32 -112.5t-21.5 -45t-41 -41.5t-83.5 -22q-28 36 -1 119.5
t35 147.5q-171 87 -184 189q-21 -30 -61 -65h-60q58 56 101 111q-14 135 35.5 174t142.5 24q66 85 94.5 120t91.5 114.5t113 162.5t81 171t61 203.5t44.5 202.5t33 127.5t69.5 78.5t113 63l28 -1q30 -100 -3 -226t-150 -349t-197 -458.5t-124 -361.5t-56 -220
q84 -53 210 -64t260 20.5t244 107.5h60z" />
    <glyph glyph-name="asciitilde" unicode="~" horiz-adv-x="878" 
d="M302 646q53 37 61 66.5t-8 45t-51 0.5t-29 -47t27 -65zM111 178q4 -28 60 -61.5t115.5 -34t80.5 11.5q-61 6 -125.5 23t-130.5 61zM393 163q15 38 -31 116q-53 91 -149 214l-159 -150q20 -57 99.5 -112t239.5 -68zM938 351q-143 -149 -271 -202.5t-222 -57.5
q-18 -49 -60.5 -77.5t-116.5 -28.5q-92 0 -172 33t-138 119t-74 201q4 83 69 93.5t82 -36.5l148 145q-33 49 -38 97.5t18.5 94.5t64.5 77t84 31q55 0 81 -23.5t30.5 -54t-10 -74t-82.5 -99.5q145 -227 152 -341q0 -50 -12 -90q208 8 407 193h60z" />
    <glyph glyph-name="Adieresis" unicode="&#xc4;" horiz-adv-x="2612" 
d="M3692 1524q-284 91 -403.5 125t-329 68t-556 30.5t-633.5 -70t-595 -213.5t-523.5 -372t-253 -477t93.5 -422.5t354 -189t460 45t468 233.5q-20 147 4 292.5t64 222.5t81 113t164 34q-23 -225 -69.5 -372t-126.5 -293q-14 -82 83.5 -129.5t275 5.5t362.5 196h60
q-150 -163 -314.5 -252.5t-317 -84.5t-243.5 198q-171 -128 -399.5 -218t-343 -105t-214.5 -15q-128 0 -276.5 40t-256.5 161t-135 347q0 145 36 266t167 296t395.5 352t536.5 283t542 156t544 50q366 0 590.5 -41.5t425 -109.5t284.5 -113zM1454 2051q0 20 28.5 44.5
t37.5 61t51 36.5q36 0 48 -33t12 -55q0 -31 -25.5 -74t-76.5 -43q-31 0 -53 21t-22 42zM1201 2051q0 20 28.5 44.5t37.5 51t51 26.5q36 0 48 -23t12 -45q0 -31 -25 -74t-77 -43q-31 0 -53 21t-22 42z" />
    <glyph glyph-name="Aring" unicode="&#xc5;" horiz-adv-x="2612" 
d="M3692 1524q-284 91 -403.5 125t-329 68t-556 30.5t-633.5 -70t-595 -213.5t-523.5 -372t-253 -477t93.5 -422.5t354 -189t460 45t468 233.5q-20 147 4 292.5t64 222.5t81 113t164 34q-23 -225 -69.5 -372t-126.5 -293q-14 -82 83.5 -129.5t275 5.5t362.5 196h60
q-150 -163 -314.5 -252.5t-317 -84.5t-243.5 198q-171 -128 -399.5 -218t-343 -105t-214.5 -15q-128 0 -276.5 40t-256.5 161t-135 347q0 145 36 266t167 296t395.5 352t536.5 283t542 156t544 50q366 0 590.5 -41.5t425 -109.5t284.5 -113zM1479 2257q-87 -19 -117 -73
t-14.5 -101t48 -57t61.5 5.5t46.5 54t13.5 88t-38 83.5zM1426 2381q103 -13 154 -72.5t51 -147.5q0 -42 -32 -88.5t-87 -80.5t-160 -34q-57 0 -99.5 24.5t-64 59.5t-21.5 71q0 58 38.5 101t90.5 63.5t112.5 28t50.5 24.5t-43 24z" />
    <glyph glyph-name="Ccedilla" unicode="&#xc7;" horiz-adv-x="2526" 
d="M1877 1649q-91 -96 -157.5 -243.5t-88 -308t21.5 -268t134.5 -128.5t188.5 41.5t159.5 168t71 226.5t-72.5 262t-257 250zM2586 351q-202 -225 -524 -335t-857 -112q-215 0 -394 53.5t-329.5 150.5t-258.5 269.5t-112 365.5q0 211 64.5 370.5t200.5 295.5t323 235
t364.5 137.5t321 36.5t242.5 -19t198 -56l175 147q22 -17 22 -36.5t-103 -148.5q134 -87 201 -159.5t114.5 -168t51.5 -197t-49.5 -230t-153 -217.5t-216 -117t-226 13t-149 185.5t-11 304t108.5 303.5t189 268q-199 78 -412.5 72t-450.5 -90t-402.5 -245.5t-202 -390
t19.5 -426.5t174 -325.5t318.5 -205t399.5 -84t446.5 14t444.5 93.5t412 248h60zM1285.79 -100.899q-50.5986 -49.499 -76.998 -76.999q-26.3994 -27.499 -30.249 -43.4482q-3.84961 -15.9502 58.8486 -45.0996t70.9482 -60.498q8.25 -31.3496 8.25 -45.6494
q0 -39.5996 -24.749 -86.8984q-24.75 -47.2988 -76.999 -78.6475q-52.249 -31.3496 -89.0977 -36.8496q-36.8496 -5.5 -59.9482 -5.5q-33 0 -79.749 8.7998t-91.8477 49.499t-62.1484 85.248t-17.0498 62.1484t14.2998 31.8994t40.6992 22.5498t46.1982 8.25
q19.7998 0 17.5996 -19.7998q-2.19922 -19.7998 -4.94922 -43.999t3.2998 -58.2988t38.499 -50.5986q32.4492 -16.5 74.248 -13.2002q41.7998 3.2998 79.1982 36.8496q37.3994 33.5488 59.3994 73.1484q21.999 39.5986 -9.34961 75.3477q-31.3496 35.75 -79.1992 43.4492
q-47.8486 7.7002 -64.8984 33.5498q-17.0488 25.8496 2.75 50.0488q19.7998 24.1992 78.0986 87.998q79.1982 -3.2998 174.896 -3.2998z" />
    <glyph glyph-name="Eacute" unicode="&#xc9;" horiz-adv-x="1908" 
d="M1109 1294q141 198 190 300t74.5 235t-12 212.5t-109.5 100.5t-187 -63t-154.5 -240.5t-18.5 -313.5t105 -250zM1155 1234l-57 -51q49 -39 128.5 -79t170.5 -72t164 -26.5t114.5 62.5t-0.5 101.5t-191.5 70.5t-328.5 -6zM916 1198q-240 -52 -360.5 -150.5t-160 -195
t-38.5 -214.5q225 149 372 276t247 238zM1387 158q61 102 49 221t-98 189.5t-210 82t-219.5 -52t-83.5 -159t93.5 -166.5t177 -101.5t291.5 -13.5zM1968 351q-81 -91 -229 -161.5t-294 -84.5q-87 -70 -209 -105.5t-304 -35.5q-141 0 -323 63.5t-285 186.5t-126 247
q-89 -43 -202.5 -93.5t-256.5 -80.5l-9 42q138 48 229.5 87t225.5 125q5 106 34.5 200.5t120.5 202t217.5 182t313.5 121.5q-93 132 -119 248.5t16 270.5t107.5 243t156.5 142.5t227 58.5q103 -19 147.5 -91.5t53.5 -182t-51.5 -278t-210.5 -360.5q103 19 250.5 7.5
t236.5 -63.5q80 -46 80 -118q-10 -97 -80.5 -132t-185 -28t-243 52.5t-217.5 104.5q-139 -158 -237 -239.5t-185 -145.5t-245 -171q43 -186 127.5 -290.5t216.5 -165.5t293 -61t319 55q-184 -14 -309 20.5t-214.5 119t-100.5 176t49.5 162.5t177 113t241 21.5t217.5 -93.5
t114 -194t-38 -263q123 21 223 58.5t220 127.5h60zM468 2228.68q38.499 33 98.998 79.1992q60.498 46.1982 101.197 97.3477q40.6992 51.1484 66.5488 112.197t91.8477 61.0488q58.2988 0 58.2988 -58.2988q0 -85.7988 -100.098 -168.847t-291.493 -152.347z" />
    <glyph glyph-name="Ntilde" unicode="&#xd1;" horiz-adv-x="2323" 
d="M735 1129q-177 -221 -247 -325t-157 -266t-95.5 -366.5t53 -246t127.5 129.5t158.5 492t160.5 582zM824 1573q26 232 15.5 381t-46 213t-94.5 67.5t-90 -68.5t16 -226.5t199 -366.5zM2383 351q-120 -141 -294 -227t-316 -93.5t-204 29t-84 113t34.5 255.5t157.5 492
t86 459t-105.5 232t-275 36t-403.5 -253q238 -230 369 -322t154.5 -124t24 -52.5t-121.5 51t-479 387.5l-62 -80q-119 -487 -195 -712.5t-127.5 -397.5t-128.5 -267t-159 -96q-92 8 -112 134t-20 193q0 111 39.5 247.5t160 333t418.5 552.5q50 110 51 216
q-170 251 -235.5 402t-46 266t68.5 152t102 37q41 -3 86 -12.5t91 -70t62 -272t-30 -486.5l34 -34q152 150 309.5 234t295 82t226.5 -90t120.5 -208t23 -191t-48 -264.5t-104.5 -378.5t-94 -311t38 -173.5t189.5 -23t222.5 78.5t222 157h60zM1361 2132.98
q-52 -3.30078 -88 39.0488q-36 42.3486 -36 77.5479q0 43.999 17 78.0986t52 56.0986t91 23.0996q23 0 71 -20.3496t106.5 -76.4482t112.5 -80.8486q54 -24.749 111.5 9.90039t101.5 102.848l30 7.7002q-20 -57.1992 -45 -107.248t-72 -92.9482t-115 -49.499
q-42 0 -91 24.75q-49 24.749 -95.5 77.5479t-103 90.748t-81.5 6.0498t-15.5 -81.9482t51.5 -64.3486z" />
    <glyph glyph-name="Odieresis" unicode="&#xd6;" horiz-adv-x="2730" 
d="M978 330q-218 90 -292.5 205t-76 227.5t66 255t202.5 255t320 177.5t362.5 61t326 -50t298.5 -162t229 -281.5t60.5 -333t-141 -307.5t-300 -218.5t-374 -128.5t-531.5 -50q-277 0 -450 59t-291.5 157.5t-156 188.5t-37.5 195q0 100 27.5 230t166.5 315t331.5 316
t396.5 207.5t379 107.5t325 31q187 -7 312 -58t242.5 -157t140.5 -176l-50 -7q-102 143 -258.5 235.5t-366.5 101.5t-484 -68.5t-498 -228t-326.5 -339t-112.5 -342t50 -285t177.5 -220t340 -138.5t424 -38.5t446.5 97.5t375 221t147.5 284t-45 299t-214 279.5t-354 176
t-365 20.5t-305 -97.5t-230 -186.5t-120 -280t30.5 -289t232 -216zM1484.29 1983.28q0 21.999 31.3486 48.9492q31.3496 26.9492 41.25 67.0977q9.89941 40.1494 56.0986 40.1494q39.5986 0 52.7988 -36.2988q13.1992 -36.2998 13.1992 -60.499
q0 -34.0996 -28.0488 -81.3984q-28.0498 -47.2988 -84.1484 -47.2988q-34.0996 0 -58.2988 23.0996t-24.1992 46.1992zM1206 1983.28q0 21.999 31.3496 48.9492q31.3486 26.9492 41.249 56.0986q9.89941 29.1494 56.0986 29.1494q39.5986 0 52.7988 -25.2998
q13.1992 -25.2998 13.1992 -49.499q0 -34.0996 -27.499 -81.3984t-84.6982 -47.2988q-34.0996 0 -58.2988 23.0996t-24.1992 46.1992z" />
    <glyph glyph-name="Udieresis" unicode="&#xdc;" horiz-adv-x="2208" 
d="M568 1068q123 262 146.5 394.5t-46 181.5t-191.5 38.5t-221 -103t-84 -199t104.5 -175t291.5 -137.5zM670 500q213 85 266 174t27.5 141.5t-104.5 81t-180 59.5q-168 -320 -190 -508t87.5 -285.5t250 -71t233.5 114.5t197.5 259t137.5 307t74 370t90 429t144.5 262.5
t118.5 116t72 53.5q26 -33 21.5 -108.5t-28.5 -162t-129 -329t-187 -459.5t-95.5 -416t36 -345t146 -184t186 5t168.5 111t196 236h60q-102 -161 -187 -252t-183.5 -143t-187.5 -52q-48 0 -117.5 30.5t-125.5 100.5t-90 215t-25 259q-111 -209 -195.5 -307.5t-189.5 -146
t-251.5 -46.5t-239.5 82.5t-122 213.5t11 269t173 429l-64 22q-174 63 -271 145t-104 231q0 117 72 199q78 89 191.5 132t226.5 44t191 -43.5t100.5 -123.5t-27 -235.5t-152.5 -355.5q128 -36 195 -64.5t101.5 -69t35.5 -115.5t-68 -146.5t-281 -143.5zM1214.29 1986.28
q0 21.999 31.3486 48.9492q31.3496 26.9492 41.25 67.0977q9.89941 40.1494 56.0986 40.1494q39.5986 0 52.7988 -36.2988q13.1992 -36.2998 13.1992 -60.499q0 -34.0996 -28.0488 -81.3984q-28.0498 -47.2988 -84.1484 -47.2988q-34.0996 0 -58.2988 23.0996
t-24.1992 46.1992zM936 1986.28q0 21.999 31.3496 48.9492q31.3486 26.9492 41.249 56.0986q9.89941 29.1494 56.0986 29.1494q39.5986 0 52.7988 -25.2998q13.1992 -25.2998 13.1992 -49.499q0 -34.0996 -27.499 -81.3984t-84.6982 -47.2988q-34.0996 0 -58.2988 23.0996
t-24.1992 46.1992z" />
    <glyph glyph-name="aacute" unicode="&#xe1;" horiz-adv-x="1017" 
d="M393 406q-71 74 -110 17t-121 -97t-54.5 -129t87.5 -109t115 42.5t83 275.5zM1077 351q-109 -131 -234.5 -229t-204 -106t-138.5 29.5t-100 40t-57.5 -32.5t-76.5 -54t-92 -19q-30 0 -67 16.5t-74.5 64t-57.5 87.5t-20 85q0 50 56.5 134t137.5 136t180 59q111 -4 184 -91
q26 27 55.5 26t27 -43.5t-51.5 -111.5t-29 -139t66.5 -89.5t116.5 4.5t138.5 72.5t180.5 160.5h60zM275 783.318q31.501 27 81.002 64.8018q49.502 37.8008 82.8027 79.6514q33.3008 41.8516 54.4512 91.8027t75.1523 49.9512q47.7012 0 47.7012 -47.7012
q0 -70.2012 -81.9023 -138.153t-238.507 -124.653z" />
    <glyph glyph-name="agrave" unicode="&#xe0;" horiz-adv-x="1017" 
d="M393 406q-71 74 -110 17t-121 -97t-54.5 -129t87.5 -109t115 42.5t83 275.5zM1077 351q-109 -131 -234.5 -229t-204 -106t-138.5 29.5t-100 40t-57.5 -32.5t-76.5 -54t-92 -19q-30 0 -67 16.5t-74.5 64t-57.5 87.5t-20 85q0 50 56.5 134t137.5 136t180 59q111 -4 184 -91
q26 27 55.5 26t27 -43.5t-51.5 -111.5t-29 -139t66.5 -89.5t116.5 4.5t138.5 72.5t180.5 160.5h60zM508.408 759.018q-156.604 56.7012 -238.506 124.653t-81.9023 138.153q0 47.7012 47.7012 47.7012q54.002 0 73.8018 -48.6006q19.8008 -48.6016 55.3516 -90.9033
q35.5518 -42.3008 85.0527 -79.2012q49.501 -36.9014 79.2021 -67.502z" />
    <glyph glyph-name="acircumflex" unicode="&#xe2;" horiz-adv-x="1017" 
d="M393 406q-71 74 -110 17t-121 -97t-54.5 -129t87.5 -109t115 42.5t83 275.5zM1077 351q-109 -131 -234.5 -229t-204 -106t-138.5 29.5t-100 40t-57.5 -32.5t-76.5 -54t-92 -19q-30 0 -67 16.5t-74.5 64t-57.5 87.5t-20 85q0 50 56.5 134t137.5 136t180 59q111 -4 184 -91
q26 27 55.5 26t27 -43.5t-51.5 -111.5t-29 -139t66.5 -89.5t116.5 4.5t138.5 72.5t180.5 160.5h60zM616.014 823.819q-27.9014 -23.4014 -56.7021 -34.2012t-58.501 -15.75q-29.7012 -4.9502 -45.4521 1.7998q-15.75 6.75 -31.5 66.1514q-15.751 59.4014 -31.501 92.7031
q-15.751 33.3008 -23.8506 36.9004q-8.10059 3.60059 -30.6016 -15.75q-22.5 -19.3506 -65.7012 -67.9521t-68.8525 -84.1523q-25.6504 -35.5508 -48.1504 -44.5508l-25.2012 23.4004q39.6016 57.6016 90.002 117.003q50.4023 59.4014 94.0527 108.453
q43.6514 49.0518 90.4531 49.0518q59.4014 0 84.1523 -53.5518q24.75 -53.5518 42.3008 -95.8525t23.4004 -56.7012q5.85059 -14.4004 48.1514 -5.40039z" />
    <glyph glyph-name="adieresis" unicode="&#xe4;" horiz-adv-x="1017" 
d="M393 406q-71 74 -110 17t-121 -97t-54.5 -129t87.5 -109t115 42.5t83 275.5zM1077 351q-109 -131 -234.5 -229t-204 -106t-138.5 29.5t-100 40t-57.5 -32.5t-76.5 -54t-92 -19q-30 0 -67 16.5t-74.5 64t-57.5 87.5t-20 85q0 50 56.5 134t137.5 136t180 59q111 -4 184 -91
q26 27 55.5 26t27 -43.5t-51.5 -111.5t-29 -139t66.5 -89.5t116.5 4.5t138.5 72.5t180.5 160.5h60zM438 773q0 20 28.5 44.5t37.5 61t51 36.5q36 0 48 -33t12 -55q0 -31 -25.5 -74t-76.5 -43q-31 0 -53 21t-22 42zM185 773q0 20 28.5 44.5t37.5 51t51 26.5q36 0 48 -23
t12 -45q0 -31 -25 -74t-77 -43q-31 0 -53 21t-22 42z" />
    <glyph glyph-name="atilde" unicode="&#xe3;" horiz-adv-x="1017" 
d="M393 406q-71 74 -110 17t-121 -97t-54.5 -129t87.5 -109t115 42.5t83 275.5zM1077 351q-109 -131 -234.5 -229t-204 -106t-138.5 29.5t-100 40t-57.5 -32.5t-76.5 -54t-92 -19q-30 0 -67 16.5t-74.5 64t-57.5 87.5t-20 85q0 50 56.5 134t137.5 136t180 59q111 -4 184 -91
q26 27 55.5 26t27 -43.5t-51.5 -111.5t-29 -139t66.5 -89.5t116.5 4.5t138.5 72.5t180.5 160.5h60zM215.604 786.018q-46.8018 -2.69922 -79.2031 31.9512q-32.4004 34.6514 -32.4004 63.4521q0 36.001 15.3008 63.9014q15.2998 27.9004 46.8008 45.9014t81.9023 18.9004
q20.7002 0 63.9014 -16.6504t95.8525 -62.5518q52.6523 -45.9014 101.253 -66.1514q48.6016 -20.251 100.353 8.09961q51.752 28.3506 91.3525 84.1523l27.001 6.30078q-18 -46.8018 -40.501 -87.7529t-64.8018 -76.0518t-103.503 -40.501q-37.8008 0 -81.9023 20.25
q-44.1006 20.251 -85.9521 63.4521t-92.7021 74.252q-50.8516 31.0508 -73.3525 4.9502q-22.5 -26.1006 -13.9502 -67.0518t46.3516 -52.6514z" />
    <glyph glyph-name="aring" unicode="&#xe5;" horiz-adv-x="1017" 
d="M393 406q-71 74 -110 17t-121 -97t-54.5 -129t87.5 -109t115 42.5t83 275.5zM1077 351q-109 -131 -234.5 -229t-204 -106t-138.5 29.5t-100 40t-57.5 -32.5t-76.5 -54t-92 -19q-30 0 -67 16.5t-74.5 64t-57.5 87.5t-20 85q0 50 56.5 134t137.5 136t180 59q111 -4 184 -91
q26 27 55.5 26t27 -43.5t-51.5 -111.5t-29 -139t66.5 -89.5t116.5 4.5t138.5 72.5t180.5 160.5h60zM490.808 1037.12q-78.3018 -17.1006 -105.303 -65.7021q-27.001 -48.6006 -13.0508 -90.9023q13.9502 -42.3008 43.2012 -51.3018q29.251 -9 55.3516 4.9502
q26.1006 13.9512 41.8516 48.6016q15.75 34.6514 12.1504 79.2021q-3.60059 44.5518 -34.2012 75.1523zM443.106 1148.73q92.7021 -11.7002 138.604 -65.251q45.9014 -53.5518 45.9014 -132.754q0 -37.8008 -28.8008 -79.6523t-78.3018 -72.4521
q-49.502 -30.6006 -144.004 -30.6006q-51.3018 0 -89.5527 22.0508t-57.6016 53.5508q-19.3506 31.501 -19.3506 63.9023q0 52.2012 34.6514 90.9023q34.6504 38.7012 81.4521 57.1514q46.8008 18.4502 101.252 25.2012q54.4521 6.75 45.4512 22.0498
q-9 15.3008 -38.7002 21.6016z" />
    <glyph glyph-name="ccedilla" unicode="&#xe7;" horiz-adv-x="1021" 
d="M1081 351q-103 -127 -243 -214t-248.5 -120t-220.5 -33q-107 0 -199.5 32.5t-143.5 102.5t-51 149q7 92 48 158.5t116 102t161 34.5q17 27 43.5 53.5t72.5 49.5q16 -9 34 -38q-33 -31 -52 -75q87 -40 106.5 -103t8 -108t-82 -56t-117.5 35.5t-45 156.5q-96 1 -135.5 -71
t-23.5 -155.5t101 -132.5t185 -56t197.5 17t227.5 104.5t201 166.5h60zM392.211 -20.1006q-41.4014 -40.501 -63.002 -63.001q-21.6006 -22.501 -24.751 -35.5518q-3.15039 -13.0498 48.1514 -36.9004t58.0518 -49.502q6.75 -25.6504 6.75 -37.3506
q0 -32.4004 -20.251 -71.1016q-20.25 -38.7012 -63.001 -64.3525q-42.751 -25.6504 -72.9023 -30.1504q-30.1504 -4.5 -49.0518 -4.5q-27 0 -65.251 7.2002t-75.1523 40.501t-50.8516 69.752t-13.9502 50.8516t11.7002 26.1006t33.3008 18.4502t37.8018 6.75
q16.2002 0 14.4004 -16.2002q-1.80078 -16.2002 -4.05078 -36.001t2.7002 -47.7012t31.501 -41.4014q26.5508 -13.5 60.752 -10.7998q34.2002 2.7002 64.8018 30.1504q30.6006 27.4512 48.6006 59.8516q18.001 32.4014 -7.64941 61.6523q-25.6514 29.25 -64.8018 35.5508
q-39.1514 6.2998 -53.1016 27.4502q-13.9512 21.1504 2.25 40.9512q16.2002 19.8008 63.9014 72.002q64.8018 -2.7002 143.104 -2.7002z" />
    <glyph glyph-name="eacute" unicode="&#xe9;" horiz-adv-x="820" 
d="M103 370q109 89 163 132t30.5 68.5t-74 13.5t-83.5 -65t-36 -149zM114 306q15 -64 55.5 -117t111 -80t151 -19t183.5 67t205 194h60q-129 -188 -240 -252.5t-188.5 -81.5t-132.5 -17q-38 0 -115 16.5t-148 78.5t-93.5 130t-22.5 121q0 59 24.5 136t99 142.5t167.5 65.5
q76 -3 125.5 -43.5t38.5 -77t-74.5 -91t-206.5 -172.5zM40 783.318q31.501 27 81.002 64.8018q49.502 37.8008 82.8027 79.6514q33.3008 41.8516 54.4512 91.8027t75.1523 49.9512q47.7012 0 47.7012 -47.7012q0 -70.2012 -81.9023 -138.153t-238.507 -124.653z" />
    <glyph glyph-name="egrave" unicode="&#xe8;" horiz-adv-x="820" 
d="M103 370q109 89 163 132t30.5 68.5t-74 13.5t-83.5 -65t-36 -149zM114 306q15 -64 55.5 -117t111 -80t151 -19t183.5 67t205 194h60q-129 -188 -240 -252.5t-188.5 -81.5t-132.5 -17q-38 0 -115 16.5t-148 78.5t-93.5 130t-22.5 121q0 59 24.5 136t99 142.5t167.5 65.5
q76 -3 125.5 -43.5t38.5 -77t-74.5 -91t-206.5 -172.5zM360.408 759.018q-156.604 56.7012 -238.506 124.653t-81.9023 138.153q0 47.7012 47.7012 47.7012q54.002 0 73.8018 -48.6006q19.8008 -48.6016 55.3516 -90.9033q35.5518 -42.3008 85.0527 -79.2012
q49.501 -36.9014 79.2021 -67.502z" />
    <glyph glyph-name="ecircumflex" unicode="&#xea;" horiz-adv-x="820" 
d="M103 370q109 89 163 132t30.5 68.5t-74 13.5t-83.5 -65t-36 -149zM114 306q15 -64 55.5 -117t111 -80t151 -19t183.5 67t205 194h60q-129 -188 -240 -252.5t-188.5 -81.5t-132.5 -17q-38 0 -115 16.5t-148 78.5t-93.5 130t-22.5 121q0 59 24.5 136t99 142.5t167.5 65.5
q76 -3 125.5 -43.5t38.5 -77t-74.5 -91t-206.5 -172.5zM466.014 823.819q-27.9014 -23.4014 -56.7021 -34.2012t-58.501 -15.75q-29.7012 -4.9502 -45.4521 1.7998q-15.75 6.75 -31.5 66.1514q-15.751 59.4014 -31.501 92.7031q-15.751 33.3008 -23.8506 36.9004
q-8.10059 3.60059 -30.6016 -15.75q-22.5 -19.3506 -65.7012 -67.9521t-68.8525 -84.1523q-25.6504 -35.5508 -48.1504 -44.5508l-25.2012 23.4004q39.6016 57.6016 90.002 117.003q50.4023 59.4014 94.0527 108.453q43.6514 49.0518 90.4531 49.0518
q59.4014 0 84.1523 -53.5518q24.75 -53.5518 42.3008 -95.8525t23.4004 -56.7012q5.85059 -14.4004 48.1514 -5.40039z" />
    <glyph glyph-name="edieresis" unicode="&#xeb;" horiz-adv-x="820" 
d="M103 370q109 89 163 132t30.5 68.5t-74 13.5t-83.5 -65t-36 -149zM114 306q15 -64 55.5 -117t111 -80t151 -19t183.5 67t205 194h60q-129 -188 -240 -252.5t-188.5 -81.5t-132.5 -17q-38 0 -115 16.5t-148 78.5t-93.5 130t-22.5 121q0 59 24.5 136t99 142.5t167.5 65.5
q76 -3 125.5 -43.5t38.5 -77t-74.5 -91t-206.5 -172.5zM237.706 815.719q0 18.001 25.6504 40.0508q25.6514 22.0508 33.751 54.9023q8.10059 32.8506 45.9014 32.8506q32.4014 0 43.2012 -29.7012q10.8008 -29.7002 10.8008 -49.501q0 -27.9004 -22.9512 -66.6016
q-22.9502 -38.7012 -68.8516 -38.7012q-27.9004 0 -47.7012 18.9004t-19.8008 37.8008zM10 815.719q0 18.001 25.6504 40.0508q25.6514 22.0508 33.751 45.9014q8.10059 23.8506 45.9014 23.8506q32.4014 0 43.2012 -20.7002q10.8008 -20.7002 10.8008 -40.501
q0 -27.9004 -22.501 -66.6016t-69.3018 -38.7012q-27.9004 0 -47.7012 18.9004t-19.8008 37.8008z" />
    <glyph glyph-name="iacute" unicode="&#xed;" horiz-adv-x="654" 
d="M714 351q-63 -71 -133 -139t-143.5 -114.5t-142.5 -71t-141 -26.5q-81 2 -109.5 42.5t-46.5 86t-18 109.5q0 76 19.5 122.5t40.5 92t57.5 51.5t51 17t27.5 18t34 7q39 0 39 -38t-32 -83t-53.5 -111t0.5 -142t92.5 -73t146 44t135 95.5t116.5 112.5h60zM188 783.318
q31.501 27 81.002 64.8018q49.502 37.8008 82.8027 79.6514q33.3008 41.8516 54.4512 91.8027t75.1523 49.9512q47.7012 0 47.7012 -47.7012q0 -70.2012 -81.9023 -138.153t-238.507 -124.653z" />
    <glyph glyph-name="igrave" unicode="&#xec;" horiz-adv-x="654" 
d="M714 351q-63 -71 -133 -139t-143.5 -114.5t-142.5 -71t-141 -26.5q-81 2 -109.5 42.5t-46.5 86t-18 109.5q0 76 19.5 122.5t40.5 92t57.5 51.5t51 17t27.5 18t34 7q39 0 39 -38t-32 -83t-53.5 -111t0.5 -142t92.5 -73t146 44t135 95.5t116.5 112.5h60zM370.408 759.018
q-156.604 56.7012 -238.506 124.653t-81.9023 138.153q0 47.7012 47.7012 47.7012q54.002 0 73.8018 -48.6006q19.8008 -48.6016 55.3516 -90.9033q35.5518 -42.3008 85.0527 -79.2012q49.501 -36.9014 79.2021 -67.502z" />
    <glyph glyph-name="icircumflex" unicode="&#xee;" horiz-adv-x="654" 
d="M714 351q-63 -71 -133 -139t-143.5 -114.5t-142.5 -71t-141 -26.5q-81 2 -109.5 42.5t-46.5 86t-18 109.5q0 76 19.5 122.5t40.5 92t57.5 51.5t51 17t27.5 18t34 7q39 0 39 -38t-32 -83t-53.5 -111t0.5 -142t92.5 -73t146 44t135 95.5t116.5 112.5h60zM489.014 823.819
q-27.9014 -23.4014 -56.7021 -34.2012t-58.501 -15.75q-29.7012 -4.9502 -45.4521 1.7998q-15.75 6.75 -31.5 66.1514q-15.751 59.4014 -31.501 92.7031q-15.751 33.3008 -23.8506 36.9004q-8.10059 3.60059 -30.6016 -15.75q-22.5 -19.3506 -65.7012 -67.9521
t-68.8525 -84.1523q-25.6504 -35.5508 -48.1504 -44.5508l-25.2012 23.4004q39.6016 57.6016 90.002 117.003q50.4023 59.4014 94.0527 108.453q43.6514 49.0518 90.4531 49.0518q59.4014 0 84.1523 -53.5518q24.75 -53.5518 42.3008 -95.8525t23.4004 -56.7012
q5.85059 -14.4004 48.1514 -5.40039z" />
    <glyph glyph-name="idieresis" unicode="&#xef;" horiz-adv-x="654" 
d="M714 351q-63 -71 -133 -139t-143.5 -114.5t-142.5 -71t-141 -26.5q-81 2 -109.5 42.5t-46.5 86t-18 109.5q0 76 19.5 122.5t40.5 92t57.5 51.5t51 17t27.5 18t34 7q39 0 39 -38t-32 -83t-53.5 -111t0.5 -142t92.5 -73t146 44t135 95.5t116.5 112.5h60zM345 773
q0 20 28.5 44.5t37.5 61t51 36.5q36 0 48 -33t12 -55q0 -31 -25.5 -74t-76.5 -43q-31 0 -53 21t-22 42zM92 773q0 20 28.5 44.5t37.5 51t51 26.5q36 0 48 -23t12 -45q0 -31 -25 -74t-77 -43q-31 0 -53 21t-22 42z" />
    <glyph glyph-name="ntilde" unicode="&#xf1;" horiz-adv-x="1030" 
d="M1090 351q-102 -149 -183.5 -216.5t-151 -101t-132.5 -33.5t-102.5 20.5t-65.5 75.5t-31 152q-78 -23 -159 -81.5t-121 -88.5t-107.5 -17.5t-67.5 87.5t32.5 182.5t67.5 150t91 45.5q65 0 112 -39.5t-8 -94t-110 -144.5t-30 -97.5t125.5 65t176 115t123 36.5t66.5 -37.5
t11.5 -109t2.5 -114t101 -5.5t176 110.5t124 139.5h60zM298.604 786.018q-46.8018 -2.69922 -79.2031 31.9512q-32.4004 34.6514 -32.4004 63.4521q0 36.001 15.3008 63.9014q15.2998 27.9004 46.8008 45.9014t81.9023 18.9004q20.7002 0 63.9014 -16.6504t95.8525 -62.5518
q52.6523 -45.9014 101.253 -66.1514q48.6016 -20.251 100.353 8.09961q51.752 28.3506 91.3525 84.1523l27.001 6.30078q-18 -46.8018 -40.501 -87.7529t-64.8018 -76.0518t-103.503 -40.501q-37.8008 0 -81.9023 20.25q-44.1006 20.251 -85.9521 63.4521t-92.7021 74.252
q-50.8516 31.0508 -73.3525 4.9502q-22.5 -26.1006 -13.9502 -67.0518t46.3516 -52.6514z" />
    <glyph glyph-name="oacute" unicode="&#xf3;" horiz-adv-x="805" 
d="M123 224q6 -90 51.5 -94.5t85.5 78t21 161.5t-47 95t-73 -67t-38 -173zM865 351q-63 -82 -134.5 -122t-145 -55t-131.5 6.5t-78 45t-35.5 -23.5t-69.5 -128t-119 -81q-47 0 -110 45t-75 185q6 117 17.5 176t56 101t83 70.5t84.5 28.5q8 0 43 -17.5t80 -34t36.5 -72.5
t19 -119t76.5 -103.5t119 -29.5t129 48t94 80h60zM222 783.318q31.501 27 81.002 64.8018q49.502 37.8008 82.8027 79.6514q33.3008 41.8516 54.4512 91.8027t75.1523 49.9512q47.7012 0 47.7012 -47.7012q0 -70.2012 -81.9023 -138.153t-238.507 -124.653z" />
    <glyph glyph-name="ograve" unicode="&#xf2;" horiz-adv-x="805" 
d="M123 224q6 -90 51.5 -94.5t85.5 78t21 161.5t-47 95t-73 -67t-38 -173zM865 351q-63 -82 -134.5 -122t-145 -55t-131.5 6.5t-78 45t-35.5 -23.5t-69.5 -128t-119 -81q-47 0 -110 45t-75 185q6 117 17.5 176t56 101t83 70.5t84.5 28.5q8 0 43 -17.5t80 -34t36.5 -72.5
t19 -119t76.5 -103.5t119 -29.5t129 48t94 80h60zM464.408 759.018q-156.604 56.7012 -238.506 124.653t-81.9023 138.153q0 47.7012 47.7012 47.7012q54.002 0 73.8018 -48.6006q19.8008 -48.6016 55.3516 -90.9033q35.5518 -42.3008 85.0527 -79.2012
q49.501 -36.9014 79.2021 -67.502z" />
    <glyph glyph-name="ocircumflex" unicode="&#xf4;" horiz-adv-x="805" 
d="M123 224q6 -90 51.5 -94.5t85.5 78t21 161.5t-47 95t-73 -67t-38 -173zM865 351q-63 -82 -134.5 -122t-145 -55t-131.5 6.5t-78 45t-35.5 -23.5t-69.5 -128t-119 -81q-47 0 -110 45t-75 185q6 117 17.5 176t56 101t83 70.5t84.5 28.5q8 0 43 -17.5t80 -34t36.5 -72.5
t19 -119t76.5 -103.5t119 -29.5t129 48t94 80h60zM563.014 823.819q-27.9014 -23.4014 -56.7021 -34.2012t-58.501 -15.75q-29.7012 -4.9502 -45.4521 1.7998q-15.75 6.75 -31.5 66.1514q-15.751 59.4014 -31.501 92.7031q-15.751 33.3008 -23.8506 36.9004
q-8.10059 3.60059 -30.6016 -15.75q-22.5 -19.3506 -65.7012 -67.9521t-68.8525 -84.1523q-25.6504 -35.5508 -48.1504 -44.5508l-25.2012 23.4004q39.6016 57.6016 90.002 117.003q50.4023 59.4014 94.0527 108.453q43.6514 49.0518 90.4531 49.0518
q59.4014 0 84.1523 -53.5518q24.75 -53.5518 42.3008 -95.8525t23.4004 -56.7012q5.85059 -14.4004 48.1514 -5.40039z" />
    <glyph glyph-name="odieresis" unicode="&#xf6;" horiz-adv-x="805" 
d="M123 224q6 -90 51.5 -94.5t85.5 78t21 161.5t-47 95t-73 -67t-38 -173zM865 351q-63 -82 -134.5 -122t-145 -55t-131.5 6.5t-78 45t-35.5 -23.5t-69.5 -128t-119 -81q-47 0 -110 45t-75 185q6 117 17.5 176t56 101t83 70.5t84.5 28.5q8 0 43 -17.5t80 -34t36.5 -72.5
t19 -119t76.5 -103.5t119 -29.5t129 48t94 80h60zM349 773q0 20 28.5 44.5t37.5 61t51 36.5q36 0 48 -33t12 -55q0 -31 -25.5 -74t-76.5 -43q-31 0 -53 21t-22 42zM96 773q0 20 28.5 44.5t37.5 51t51 26.5q36 0 48 -23t12 -45q0 -31 -25 -74t-77 -43q-31 0 -53 21t-22 42z
" />
    <glyph glyph-name="otilde" unicode="&#xf5;" horiz-adv-x="805" 
d="M123 224q6 -90 51.5 -94.5t85.5 78t21 161.5t-47 95t-73 -67t-38 -173zM865 351q-63 -82 -134.5 -122t-145 -55t-131.5 6.5t-78 45t-35.5 -23.5t-69.5 -128t-119 -81q-47 0 -110 45t-75 185q6 117 17.5 176t56 101t83 70.5t84.5 28.5q8 0 43 -17.5t80 -34t36.5 -72.5
t19 -119t76.5 -103.5t119 -29.5t129 48t94 80h60zM168.198 786.018q-41.5986 -2.69922 -70.3984 31.9512q-28.7998 34.6514 -28.7998 63.4521q0 36.001 13.5996 63.9014t41.5996 45.9014t72.7988 18.9004q18.3994 0 56.7988 -16.6504t85.1992 -62.5518
q46.7988 -45.9014 89.998 -66.1514q43.1992 -20.251 89.1992 8.09961q45.999 28.3506 81.1982 84.1523l24 6.30078q-16 -46.8018 -35.999 -87.7529q-20 -40.9512 -57.5996 -76.0518t-91.999 -40.501q-33.5986 0 -72.7988 20.25q-39.1992 20.251 -76.3984 63.4521
t-82.3984 74.252t-65.1992 4.9502t-12.4004 -67.0518q7.60059 -40.9512 41.2002 -52.6514z" />
    <glyph glyph-name="uacute" unicode="&#xfa;" horiz-adv-x="1272" 
d="M1332 351q-79 -140 -207.5 -226.5t-228.5 -110t-150 -23.5t-114.5 17t-121.5 119q-80 -80 -151.5 -103.5t-133.5 -22t-107.5 19.5t-81 49.5t-50 90t-14.5 95.5q0 28 10 70.5t44 112.5t61 110t67 52.5t57 12.5q23 0 39 -18.5t20 -60.5t-46 -102t-73 -157.5t6.5 -147
t103.5 -47.5t137.5 38t86.5 72q9 119 29 173t71.5 70t101.5 8t16 -70t-40 -159.5t67 -120.5t171.5 0t204 96t166.5 163h60zM463 783.318q31.501 27 81.002 64.8018q49.502 37.8008 82.8027 79.6514q33.3008 41.8516 54.4512 91.8027t75.1523 49.9512
q47.7012 0 47.7012 -47.7012q0 -70.2012 -81.9023 -138.153t-238.507 -124.653z" />
    <glyph glyph-name="ugrave" unicode="&#xf9;" horiz-adv-x="1272" 
d="M1332 351q-79 -140 -207.5 -226.5t-228.5 -110t-150 -23.5t-114.5 17t-121.5 119q-80 -80 -151.5 -103.5t-133.5 -22t-107.5 19.5t-81 49.5t-50 90t-14.5 95.5q0 28 10 70.5t44 112.5t61 110t67 52.5t57 12.5q23 0 39 -18.5t20 -60.5t-46 -102t-73 -157.5t6.5 -147
t103.5 -47.5t137.5 38t86.5 72q9 119 29 173t71.5 70t101.5 8t16 -70t-40 -159.5t67 -120.5t171.5 0t204 96t166.5 163h60zM655.408 759.018q-156.604 56.7012 -238.506 124.653t-81.9023 138.153q0 47.7012 47.7012 47.7012q54.002 0 73.8018 -48.6006
q19.8008 -48.6016 55.3516 -90.9033q35.5518 -42.3008 85.0527 -79.2012q49.501 -36.9014 79.2021 -67.502z" />
    <glyph glyph-name="ucircumflex" unicode="&#xfb;" horiz-adv-x="1272" 
d="M1332 351q-79 -140 -207.5 -226.5t-228.5 -110t-150 -23.5t-114.5 17t-121.5 119q-80 -80 -151.5 -103.5t-133.5 -22t-107.5 19.5t-81 49.5t-50 90t-14.5 95.5q0 28 10 70.5t44 112.5t61 110t67 52.5t57 12.5q23 0 39 -18.5t20 -60.5t-46 -102t-73 -157.5t6.5 -147
t103.5 -47.5t137.5 38t86.5 72q9 119 29 173t71.5 70t101.5 8t16 -70t-40 -159.5t67 -120.5t171.5 0t204 96t166.5 163h60zM794.014 823.819q-27.9014 -23.4014 -56.7021 -34.2012t-58.501 -15.75q-29.7012 -4.9502 -45.4521 1.7998q-15.75 6.75 -31.5 66.1514
q-15.751 59.4014 -31.501 92.7031q-15.751 33.3008 -23.8506 36.9004q-8.10059 3.60059 -30.6016 -15.75q-22.5 -19.3506 -65.7012 -67.9521t-68.8525 -84.1523q-25.6504 -35.5508 -48.1504 -44.5508l-25.2012 23.4004q39.6016 57.6016 90.002 117.003
q50.4023 59.4014 94.0527 108.453q43.6514 49.0518 90.4531 49.0518q59.4014 0 84.1523 -53.5518q24.75 -53.5518 42.3008 -95.8525t23.4004 -56.7012q5.85059 -14.4004 48.1514 -5.40039z" />
    <glyph glyph-name="udieresis" unicode="&#xfc;" horiz-adv-x="1272" 
d="M1332 351q-79 -140 -207.5 -226.5t-228.5 -110t-150 -23.5t-114.5 17t-121.5 119q-80 -80 -151.5 -103.5t-133.5 -22t-107.5 19.5t-81 49.5t-50 90t-14.5 95.5q0 28 10 70.5t44 112.5t61 110t67 52.5t57 12.5q23 0 39 -18.5t20 -60.5t-46 -102t-73 -157.5t6.5 -147
t103.5 -47.5t137.5 38t86.5 72q9 119 29 173t71.5 70t101.5 8t16 -70t-40 -159.5t67 -120.5t171.5 0t204 96t166.5 163h60zM620 773q0 20 28.5 44.5t37.5 61t51 36.5q36 0 48 -33t12 -55q0 -31 -25.5 -74t-76.5 -43q-31 0 -53 21t-22 42zM367 773q0 20 28.5 44.5t37.5 51
t51 26.5q36 0 48 -23t12 -45q0 -31 -25 -74t-77 -43q-31 0 -53 21t-22 42z" />
    <glyph glyph-name="dagger" unicode="&#x2020;" horiz-adv-x="1736" 
d="M855 1611q23 43 35 90.5t18 86.5t-9 76t-36 63q-13 -15 -23 -35.5t-13 -71t0 -95.5t11.5 -72.5t16.5 -41.5zM207 1306q15 -13 35.5 -23t71 -13.5t95.5 0t73 11.5t41 17q-43 22 -90.5 34.5t-86.5 18t-76 -9t-63 -35.5zM1476 1310q-26 21 -63 35.5t-76 9t-86.5 -18
t-89.5 -35.5q13 -8 40.5 -16t72.5 -11.5t96 0t71 13t35 23.5zM830 790q-28 -71 -43.5 -170.5t-22.5 -165t11 -142.5t45 -120q16 24 28 63.5t16 134.5t0 190t-14 141.5t-20 68.5zM750 1446q26 13 53 20q-4 20 -9 43q-19 78 -25.5 145t-6.5 108q0 39 5.5 93t29.5 103t53 90
q21 -10 48 -45t47.5 -92.5t20.5 -102.5q0 -38 -16.5 -104t-53.5 -184q-9 -27 -16 -50q38 -5 75 -24q50 -27 78 -77q9 -17 15 -33q10 3 21 7q118 37 184 53.5t104 16.5q46 0 103 -20.5t92 -47.5t45 -49q-41 -29 -90 -52.5t-103 -29.5t-93 -6q-41 0 -108 7q-66 6 -143 24
q-5 -41 -26 -79q-28 -50 -77 -77q-36 -20 -74 -26q8 -61 23 -124q23 -102 31 -214t8 -221q0 -65 -7 -170.5t-36.5 -193t-65.5 -155.5q-26 16 -59.5 75t-59 165t-25.5 203q0 63 20.5 194t67.5 298q22 76 34 145q-34 6 -65 24q-50 27 -77 77q-22 39 -27 81q-9 -3 -19 -5
q-79 -19 -146 -25.5t-108 -6.5q-39 0 -93 6t-103 29.5t-90 53.5q10 21 45 48t92.5 47.5t102.5 20.5q38 0 104 -16.5t184 -53.5q21 -7 40 -13q7 22 18 43q28 50 78 77z" />
    <glyph glyph-name="degree" unicode="&#xb0;" horiz-adv-x="1051" 
d="M626 1626q-124 -26 -166 -102.5t-20 -143t67.5 -80.5t86.5 7.5t66 76t19.5 124.5t-53.5 118zM551 1802q145 -19 217.5 -103t72.5 -208q0 -61 -45.5 -127t-124 -113.5t-225.5 -47.5q-81 0 -141.5 35t-90.5 84t-30 101q0 81 54 142t128 90t160 39.5t71.5 35t-60.5 34.5z
" />
    <glyph glyph-name="cent" unicode="&#xa2;" horiz-adv-x="1322" 
d="M812 701q0 -103 32.5 -166t63.5 -73.5t39 35.5q9 81 -31 133.5t-104 70.5zM1202 332q-48 -97 -143.5 -172t-190 -117t-221.5 -62q-26 -3 -49 -5q-20 -53 -39 -122q-52 -189 -63.5 -205.5t-21.5 -16.5q-4 45 -4 79q11 91 48 268q-75 6 -150.5 38t-121 106t-45.5 179
q0 154 65.5 245.5t127.5 132t131 67.5q55 21 159 30q26 113 34 174t15.5 75t35 23t59.5 12q19 -10 33 -49q-8 -35 -19.5 -84.5t-15 -79t-7.5 -77.5q77 -25 123 -72t62.5 -106t3.5 -122.5t-43 -86t-76 -16.5t-93 39.5t-69 96.5q-30 -118 -53 -212q-29 -113 -55 -214
q91 1 190.5 35t185 90t167.5 137zM674 733q-37 0 -82 -9q-64 -14 -131.5 -58.5t-105.5 -124t-28 -195.5t70.5 -181t137.5 -78q25 124 62 298q34 163 77 348z" />
    <glyph glyph-name="sterling" unicode="&#xa3;" horiz-adv-x="1724" 
d="M937 1479q-205 -175 -380.5 -307.5t-278 -180t-129.5 -9.5q124 52 240 132.5t262 203.5t324 312q48 109 64.5 182.5t54 170.5t81 160.5t81 75.5t57.5 12q27 0 55 -19t30.5 -75.5t-17.5 -130t-86 -173.5t-185 -211q-98 -262 -205 -569q113 5 232 -28q-38 -62 -105.5 -71.5
t-132.5 -14t-75.5 -35.5t-48.5 -111q119 -5 175.5 2t70 -12t5.5 -35.5t-59.5 -26t-108 -14t-110.5 -4.5q-76 -160 -149 -373q92 78 174.5 60.5t157 -111.5t151 -187.5t168.5 -107.5t173 38t99.5 111t0 118t-5.5 80.5t50 7.5q30 -12 30 -106v-36q-7 -128 -90.5 -201.5
t-213.5 -87.5q-151 5 -234.5 57t-158 124t-116 146.5t-75 78t-90 -66t-108 -162t-93.5 -130.5t-69 -23.5t-27 38t70 145.5t239 578q-153 19 -169 50t0 64q92 -24 200 -19q48 85 64 142q-302 -10 -318 61q86 5 148 12t214 26q54 152 81 237t86 213z" />
    <glyph glyph-name="section" unicode="&#xa7;" horiz-adv-x="1615" 
d="M798 829q-192 -44 -244.5 -111t5 -125t209 -98t275 11t80.5 160t-325 163zM1460 1190q-23 -58 -48.5 -74t-73.5 -29.5t-137 31t-221 95t-204 27t-116 -90.5t2 -110.5t199 -83t276.5 -108.5t114 -204t-263.5 -214q95 -33 130 -88.5t20 -128t-108.5 -142t-271.5 -69.5
q-79 0 -173 24.5t-197.5 78.5t-127.5 6.5t-67 -38.5q-2 7 -2 13q0 37 45.5 87t107 64t140.5 -24.5t195 -82.5t193.5 -46t136.5 47t32 98t-215 106.5t-295 122.5t-86.5 200.5t288.5 198.5q-118 46 -149 109t-6 147.5t125 152t240 67.5q98 0 182 -38.5t176.5 -81t158.5 -22.5z
" />
    <glyph glyph-name="bullet" unicode="&#x2022;" horiz-adv-x="1100" 
d="M652 435q0 -85 -29 -126t-75 -61.5t-89 -20.5q-51 0 -95.5 21t-78 64t-33.5 92q0 43 24.5 81.5t61 64.5t64 43t98.5 23q97 -6 124.5 -60t27.5 -121z" />
    <glyph glyph-name="paragraph" unicode="&#xb6;" horiz-adv-x="1008" 
d="M923 2189q-137 -391 -255.5 -724.5t-238.5 -790.5t-214.5 -719t-146.5 -389t-91 -143.5t-61 -16.5q-30 0 -66 24t-36 83q0 105 71.5 508t250.5 1180q-175 76 -223 313q7 275 76 475t190.5 365t329.5 266t434 101q225 0 791 -17t1326 27l3 -42q-825 -58 -1331 -79.5
t-698.5 -51.5t-289.5 -130.5t-183.5 -322.5t-189 -522t-255.5 -1055.5t-179.5 -828.5t-4 -88.5t48 14t103.5 264t250 791.5t300 898t249 627z" />
    <glyph glyph-name="germandbls" unicode="&#xdf;" horiz-adv-x="1071" 
d="M147 29q-167 -125 -275 -345.5t-137 -482t48 -247.5q49 -8 104 68t105.5 317.5t75 369.5t79.5 320zM771 354q-106 -64 -187 -103q15 -54 30 -96t61.5 -60t78.5 18t31.5 76.5t-14.5 164.5zM876 558q31 20 40.5 57.5t1.5 64.5t-33 6t-9 -128zM0 349q126 101 196.5 170.5
t127 168t119.5 292.5t114 429.5t130 360t136.5 142.5t98.5 18t43 -52.5t-10.5 -117t-58.5 -177t-99.5 -213.5t-110.5 -218t-130.5 -248.5t-138 -297.5t-135.5 -401q63 22 144 57q-11 72 9 105t55 33t51.5 -20.5t25.5 -52.5q53 17 118.5 63t65.5 115t11 129.5t44 110t77 69
t91.5 -2.5t47.5 -121q0 -42 -19.5 -105.5t-93.5 -135.5q16 -217 -7 -290t-74.5 -114t-132 -39t-139.5 41.5t-106 153.5q-80 -35 -129 -55.5t-74 -62t-96.5 -429.5t-119 -555.5t-102.5 -239.5t-111 -82q-66 4 -103 59.5t-51.5 109t-14.5 92.5q0 69 14 210.5t76 312.5
t159 301.5t180.5 196t115.5 162.5t56 172t46 146q-62 -44 -94.5 -75.5t-141.5 -114.5h-60z" />
    <glyph glyph-name="registered" unicode="&#xae;" horiz-adv-x="2400" 
d="M1400 1092q-25 13 -72.5 32.5t-84.5 41.5q-8 -35 -39 -126q34 -1 81.5 12.5t114.5 39.5zM1366 1674q-51 -196 -104 -440q54 -29 115 -55t94 -44q63 44 91.5 136t24.5 162.5t-45.5 141t-175.5 99.5zM1155 1273q65 252 95 404q-81 10 -148 -21.5t-104.5 -89t-28.5 -130
t66 -105t120 -58.5zM1742 703q-59 -160 -125.5 -214t-126.5 -67.5t-124.5 1.5t-103 73t-48.5 125t-20 149.5t-35 113.5q-58 -215 -148 -315.5t-183 -137.5h1l59 -36q182 -101 378 -101q200 0 382.5 101t283 283.5t100.5 383.5q0 200 -102.5 384t-285.5 284t-378 100
q-190 0 -374.5 -100t-287 -284t-102.5 -384q0 -201 102 -383q68 -122 166 -203q55 18 105 65q54 51 101.5 138.5t91.5 259.5q-36 17 -72 6.5t-62 -11.5t-22.5 38.5t14.5 65.5t62.5 25.5t109.5 -7.5q20 55 42 146q-146 50 -198.5 105t-55 122t31.5 140.5t135 128t226 54.5
q120 0 211.5 -32t146.5 -79t81.5 -102.5t26.5 -143.5q-13 -107 -67.5 -179t-152.5 -128q22 -48 1.5 -89.5t-80.5 -94.5l-41 23q36 43 49.5 72t-4.5 49q-42 -18 -102 -35t-113 -23q27 -12 60 -106.5t41 -185.5t45.5 -146.5t90.5 -55t110 40t95 166.5h65zM567 450q59 0 86 3
q-73 71 -134 179q-113 205 -113 430q0 221 115.5 429t322 318.5t422.5 110.5q221 0 426.5 -110.5t322 -318.5t116.5 -429q0 -225 -114 -429.5t-319 -318.5t-432 -114q-223 0 -427 114q-70 39 -123 77q-48 -9 -114 -12.5t-136.5 3t-131 19.5t-97.5 35.5t-37 64.5
q19 36 71.5 55t84 -22t79.5 -60.5t132 -23.5z" />
    <glyph glyph-name="copyright" unicode="&#xa9;" horiz-adv-x="3539" 
d="M710 592q-109 -12 -61 61q180 78 88 245q-103 -20 -217 -270q-240 -80 -268 230q6 419 73 548.5t191.5 221.5t209.5 167t141 197t174 -204q184 455 303 560q95 -108 185 -267q205 146 513 141t558 -178t391 -438q111 54 122.5 82t51 21t83.5 -57t52 -92q-3 -66 -35 -95
q-42 -46 -153 -113q146 -453 46 -912t-428 -744t-867 -352q-93 -8 -179 -8q-285 0 -576.5 84.5t-487 295t-160.5 460.5t537 532q44 476 -177 956q-192 -65 -266.5 -152.5t-89 -368.5t25 -304t226.5 223q137 16 174 -144q40 -156 -180 -326zM2879 1574q-108 234 -316 384.5
t-491.5 168.5t-495.5 -131l98 -159q169 107 337 67t307.5 -181.5t267.5 -165t293 16.5zM1214 1973q-115 -177 -130 -402q98 176 212 318zM1364 1815q-120 -147 -165.5 -225.5t-42.5 -139.5l304 241zM1364 -302q-131 16 -229 80.5t-132 136.5t-11 361l15 324
q-374 -174 -349 -495t256.5 -473t538.5 -186t646.5 39t604 327t354.5 645t-49 868q-330 -99 -644 41q-88 -151 -119 -318q320 -219 512 120q104 -16 82 -164q-150 -196 -104.5 -337.5t-23.5 -120.5q-90 65 -86 267q-196 -37 -381 45q-39 -140 128 -339t172 -353
t-111.5 -315.5t-383 -190.5t-463 105t-246.5 300t-26 291.5t96.5 203t168.5 93.5q29 182 220 327q70 51 177 82q11 236 129 478q-220 233 -373 181q140 -243 140 -405.5t-103 -278.5t-562 -346l6 -392q-24 -358 14.5 -422t182.5 -115zM1535 1615l-345 -249q-28 -368 0 -561
q349 193 429.5 269t77.5 223t-162 318zM1982 874q-153 26 -275 -217q131 -12 237 -106.5t112 -253.5t-127 -197t-262.5 68t-103.5 391q-153 -54 -153 -256.5t105.5 -336.5t277 -183.5t336 -7.5t231.5 199.5t-72 289.5t-212.5 265t-93.5 345zM1688 570q-21 -173 30.5 -262.5
t146.5 -105t97 105.5t-98 191.5t-176 70.5z" />
    <glyph glyph-name="trademark" unicode="&#x2122;" horiz-adv-x="3559" 
d="M2012 1793q33 -41 94.5 -77.5t205.5 -102.5q41 48 94 88q-47 86 -110 119.5t-124 37t-145 -17.5zM2438 1631l-48 -47l70 -28q-2 35 -22 75zM2842 1428q98 200 107.5 253.5t-20 78t-101 26.5t-138 -16t-184.5 -89q31 -71 35 -162q126 -48 301 -91zM1858 1790
q-127 -59 -218 -144.5t-145 -181t-73.5 -182.5t-9.5 -151t35 -106t58 -54.5t110 89.5t132.5 249.5t91.5 251t55 209.5zM2459 1468l-124 46q-29 -19 -90 -123.5t-72.5 -197t20 -148.5t81 -29.5t95 135.5t65 192t25.5 125zM1936 1895q19 62 29 101q-85 -12 -171 -14
q34 -50 91 -102zM1749 2060q93 1 234 14l9 67q5 74 -27.5 134.5t-64.5 86t-66.5 23t-65.5 -28.5t-43.5 -80.5t0.5 -132.5zM3341 1162q-76 -90 -179.5 -130t-214.5 -38t-150 39t-51.5 83t13 114t54.5 131q-128 35 -271 80q-35 -179 -102.5 -307.5t-122 -162t-99 -33.5
t-82.5 36.5t-50 122t26.5 199.5t149.5 249q-83 41 -154.5 81.5t-135.5 79.5q-5 -17 -26.5 -95.5t-106.5 -294t-161.5 -309t-111 -106t-81.5 -16.5q-53 19 -88 61t-55.5 118.5t-20.5 120.5q0 58 25.5 144t77.5 175t119.5 155.5t135.5 113.5t119 66q-21 27 -81 98l-29 40
q-58 -2 -116 -1l-117 10q-25 -95 -88.5 -275t-91.5 -268.5t-67.5 -181.5t-122 -157t-129.5 -81.5t-85 -26t-90 -11.5q-89 -1 -151.5 4t-114 21t-85 25t-73 -2.5t-73 4.5t-45 38.5t-11.5 46.5q0 27 16 33t55 13q63 -34 120.5 -53.5t123.5 -40.5t136 -30.5t129 -5.5t121.5 33
t105 69t101 199.5t124.5 377.5t81 285q-81 14 -152 31q-92 23 -146 18.5t-75 -19.5t-37.5 -38.5t-76.5 -20.5q-80 36 -50 92.5t94.5 81.5t111.5 25q84 0 259 -51t378 -60l-14 52q-23 102 10.5 181.5t91.5 113t118 33.5q68 0 122.5 -44t78 -101t25.5 -145l-4 -68
q190 14 446 56l-63 -57q-235 -51 -398 -74q-10 -45 -26 -93q81 16 159 12t153.5 -44.5t125.5 -133.5q120 71 211.5 95t173 22t132.5 -33.5t70 -86t-7 -139.5t-91 -218q35 -11 96 -40q-2 -46 -41.5 -37t-82.5 21q-46 -93 -62 -161t7.5 -98.5t118 -21.5t158.5 34.5t121 75.5
h65z" />
    <glyph glyph-name="acute" unicode="&#xb4;" 
d="M0 737q35 30 90 72t92 88.5t60.5 102t83.5 55.5q53 0 53 -53q0 -78 -91 -153.5t-265 -138.5z" />
    <glyph glyph-name="dieresis" unicode="&#xa8;" 
d="M253 773q0 20 28.5 44.5t37.5 61t51 36.5q36 0 48 -33t12 -55q0 -31 -25.5 -74t-76.5 -43q-31 0 -53 21t-22 42zM0 773q0 20 28.5 44.5t37.5 51t51 26.5q36 0 48 -23t12 -45q0 -31 -25 -74t-77 -43q-31 0 -53 21t-22 42z" />
    <glyph glyph-name="notequal" unicode="&#x2260;" horiz-adv-x="1272" 
d="M331 421q-37 15 -44 59q22 23 120.5 46t291.5 46q78 162 113 236.5t64.5 83t40.5 8.5q23 0 24 -15t-52 -115.5t-105 -192.5q99 1 139 0.5t50 -65.5q-7 -29 -27.5 -32t-65 -5.5t-150.5 -7.5q-20 -43 -44 -95q51 4 101.5 3t124 -5.5t79.5 -71.5q-9 -30 -29.5 -32t-121 -1.5
t-204.5 -3.5q-46 -102 -83 -181.5t-78 -132t-76 -52.5q-14 0 -19 12q22 32 67 137t99 213q-34 -1 -85 -2t-116 -16q-36 18 -41 63q23 23 82 36t213 25q22 45 47 97q-124 -12 -187.5 -16.5t-127.5 -22.5z" />
    <glyph glyph-name="AE" unicode="&#xc6;" horiz-adv-x="3278" 
d="M2805 978q-51 46 -101.5 62t-133.5 17q70 -59 118 -71t117 -8zM1527 918q-69 4 -135 3q-220 -7 -471.5 -71t-438 -179.5t-201.5 -242t106 -203t353 -55.5t399 137.5t283 369.5q56 124 105 241zM2896 924q-155 -44 -272 -12.5t-231 132.5q-201 -62 -303 -161
q-8 -5 -15 -11q106 -38 171 -74q120 -66 240 -179t163 -242l-11 -35q-108 152 -222.5 246.5t-215.5 150.5q-65 35 -190 76q-98 -102 -122 -232q-32 -176 41.5 -310t202 -169.5t277 -32t304 46t268 87t295.5 146.5h60q-131 -111 -323.5 -205t-386.5 -145q-145 -38 -292 -38
q-50 0 -174 11t-242.5 84.5t-160 169.5t-41.5 175t15 149t94 189q38 57 83 105q-25 7 -53 15q-116 31 -227 46q-100 -258 -220 -449t-275.5 -297.5t-289 -125t-266.5 -13.5q-134 4 -289 84.5t-155 252.5q0 124 127 255.5t326.5 216t442 129.5t445.5 39q42 -2 83 -5
q32 81 61 159q80 224 204.5 431t303 305t364.5 98q111 0 96 -50l-5 -73q155 69 280.5 72.5t214 -31t133 -100.5t44.5 -143q-13 -130 -145 -220q-27 -1 -40 17q99 102 98 188.5t-68 143.5t-181.5 58.5t-210.5 -35.5t-186.5 -133t-120 -249.5t85.5 -296.5q136 6 246 -28
t185 -155zM1972 906q19 17 39 32q151 118 323 161q-48 55 -72.5 135.5t-19.5 171t46 180t163 201.5q24 71 11 110q-222 -8 -375.5 -146t-267.5 -392q-89 -197 -161 -377q107 -15 211 -45q54 -15 103 -31z" />
    <glyph glyph-name="Oslash" unicode="&#xd8;" horiz-adv-x="2730" 
d="M1664 1443q-138 -267 -308 -656.5t-308 -694.5q188 -35 362 -25q201 11 446 97t375 221t147.5 284t-51 323t-238 307t-425.5 144zM2464 1389q-102 143 -258.5 235.5t-399.5 102.5q-63 -127 -112 -225q128 -8 261 -55.5t256.5 -155.5t202.5 -273.5t60.5 -333t-141 -307.5
t-284 -220.5t-388 -134.5t-416 -48t-254.5 10q-89 -188 -172 -199q-59 9 44 211q-103 15 -284.5 102.5t-283.5 232t-102 299.5q0 100 27.5 230t166.5 310t328 306.5t414.5 215t556.5 96.5q121 279 178 286q46 -20 54 -46q-5 -73 -83 -242q172 -13 310 -70.5t242 -153.5
t127 -166zM1529 1453q-84 6 -197.5 -18t-246 -92t-232 -189t-125 -265t12.5 -285t117 -213l-12 -27q-126 90 -180.5 188t-56.5 221.5t57.5 254t205.5 250.5t327 178t356 55q54 117 103 214q-220 0 -438.5 -71.5t-412.5 -213t-294.5 -315t-114.5 -327t37.5 -291t166.5 -236.5
t319 -150q124 296 250 560.5t358 771.5z" />
    <glyph glyph-name="infinity" unicode="&#x221e;" horiz-adv-x="1747" 
d="M927 483q103 -179 203 -206t154 43.5t37 187.5t-114 135t-162 -43.5t-118 -116.5zM767 444q-45 59 -120.5 105.5t-178.5 11.5t-111 -102t78.5 -113.5t169 -9.5t162.5 108zM886 540q18 22 93.5 99t174.5 80q102 0 171.5 -64.5t69.5 -175.5q0 -157 -83.5 -234t-229.5 -77
q-90 0 -149.5 58t-92 110t-43.5 50t-60.5 -40.5t-132 -70.5t-159 -7.5t-112.5 80t-36 96.5q0 79 66 140.5t160.5 86t180 -3.5t182.5 -127z" />
    <glyph glyph-name="yen" unicode="&#xa5;" horiz-adv-x="1643" 
d="M488 67q209 0 228 111l16 105l-333 -27q-49 12 -58 49q28 19 401 63q6 36 7.5 66t2.5 47l-388 -18q-50 15 -58 52q33 19 447 52l2 98q-103 26 -154 146t-66.5 250.5t-11.5 266.5q-40 -55 -143 -88t-179.5 -18.5t-115.5 39.5t-54 77q23 62 64.5 73.5t61.5 -9t69.5 -66.5
t148 -5.5t142 108.5t45 141t30.5 209.5t142 165.5q49 -8 79.5 -73t-16.5 -151.5t-91 -172.5t-53.5 -249.5t56.5 -333.5t143 -157.5t113 126t70.5 315t90 339t144 224t173 99t113 -44t30.5 -124.5q-2 -68 -43.5 -66t-34.5 57t-25.5 79t-92 -6.5t-122 -128.5t-101 -267
t-66 -342t-90.5 -275t-152 -130l-1 -100q74 3 253.5 -1.5t185 -18.5t-1 -40t-36.5 -27.5t-167.5 -1.5t-235.5 -2l-1 -104q60 4 223 5.5t169 -13t1.5 -39t-31 -27t-152.5 -6.5t-211 -8l-5 -126q-7 -77 100 -83t98 -49q-5 -26 -83 -26q-48 0 -126 11q-229 -9 -305 -17z" />
    <glyph glyph-name="mu" unicode="&#xb5;" horiz-adv-x="3367" 
d="M1715 2637q500 0 948 -617q367 -557 367 -1315q0 -1140 -814 -1753q-245 -161 -528 -161q-501 0 -948 617q-367 556 -367 1315q0 1140 814 1753q245 161 528 161zM1008 2252v-9l45 -9l-18 27l9 9h9l9 -27h9l9 9h9l-9 9v18h9l26 -9v18h9l18 -18l-18 -36l-9 9h-9l-35 -26
l-27 9l-18 -18q0 26 -18 26h-18q0 -26 -53 -53q-12 -45 -27 -45l-9 9q-313 -432 -385 -841l99 -71q21 -66 71 -99q0 -87 98 -340l9 -26h9q6 53 27 53l9 -9h9l9 9v-9l-9 -9v-9l18 -17l-9 -9v-9h9l9 9l9 -9h18l9 26l35 -17l9 9v17l-9 -9h-8v18q26 0 26 27h9l18 -18h-18v-9
l18 -18h9l9 36l-9 9v18h45l-9 -9v-9l9 -9h36v9q-16 0 -54 54l27 36l-18 18q27 0 27 26h36l26 -35l45 17l-18 54l9 27h-18v18l27 9q0 -25 72 -36l-9 -9v-18h9v18h18l26 -27v-36l-62 -26l18 -18v18l98 -9l-9 -9v-9h27l9 9h9v-36l-9 -9v-9q27 0 27 -18v-27q0 -18 -36 -18v-8
l45 -9h35l27 9l45 -9h72l35 9l9 -9h27v9h-27q0 80 72 80h18l44 -9l-9 9v9h9l36 -18v9l-27 27h9q54 -42 54 -90v-9l-63 -17v-9l63 9h98l9 9h9l9 -9v-9l9 9h72v-18l-18 -27l-54 18h-134l-18 -18v-107h-18v116h-9v-170h-53l53 -54v-18q-21 -53 -71 -62q-72 9 -72 71v18
q15 36 54 36l-18 18l-36 -9l-9 9v188q-27 0 -27 -36l-71 18l-9 -9h-9l-9 9h-9l-9 -9l-45 9h-35l-18 -18v-125l9 -313h-27v-18q27 0 27 -27l-9 -27l9 -54l-27 -26h-9l-9 26l-161 9l-9 -9h-9l-27 9l-27 -62l18 -18h125l9 9l9 -9h81l36 -9l26 9v-9l-17 -18l-27 9v-18l9 -9v-9
l-18 -18v-9l36 -18h9v-17q-16 -14 -27 -117l9 -27l-9 -35l9 -81l-9 -27l9 -35l-9 -9l9 -9h-9l9 -9v-9l-9 -27l9 9h18v-36l-36 -9l9 -27l44 9q21 0 27 -44l-9 -9h18l9 44v36q-27 0 -27 45v331l-9 44q18 0 18 36h27q98 0 98 -44h-26l9 -9v-27l-9 -54l9 -9l-9 -45v-53l9 -54
l-9 -45q0 -59 35 -89q0 -27 -44 -27v-27h9l9 9h9q53 0 53 -107h9v125l-18 27v250l-9 36l9 9v9l-9 98h18v36l-27 9l9 9v27h-9l-26 -9l-9 9v9l26 18l18 -18l9 9v9l-9 44q0 66 108 81h9q71 0 89 -98l-18 -18q18 0 18 -27h9l27 18l18 -18l18 18l9 -9v-18l-54 -9l-27 9v-9l-9 -54
q36 0 36 -27l-18 -71v-81q-27 0 -27 -17v-9l9 9h18v-63l-9 -9l9 -9v-36h-9l-9 9h-9l-9 -45h9l27 -8v-18l9 -63q-29 -9 -36 -36l9 -9h9l45 90l9 -9h18v62h17v18h-17l-9 278q12 62 35 62h45v45h-45v9l18 18l18 -18h9v71q54 43 54 108h9l-9 9v161l-9 80l9 9v9l-9 81l9 26l-9 36
v36h18l18 -45l26 18q23 -80 81 -80q36 -5 -18 -45v-9h18l72 -27l-9 -9q26 0 44 -36l-71 -35l-9 9l-9 -9l9 -36h9q27 18 27 -36h17l45 36l-9 9v143l27 36v27l-9 44h9q18 0 18 -36l9 9h9q18 0 18 -44l9 -9h9v89l205 206l9 -9h81l9 9h9l-9 63v44q19 99 62 99v44l-18 27l54 27
l9 -9v-18l-18 -27v-9q0 -66 27 -71q0 54 18 54l18 -18l-18 -45l9 9h9l9 -9q0 54 18 54l9 -36h9v18h8l-8 9v35h17l9 -9h9l-9 -35q9 -54 27 -54h18q0 201 -188 716q-419 831 -1055 831q-363 0 -689 -313zM1661 2467h18v-45h-9zM1679 2395l27 -35q0 -18 -27 -18q9 -39 45 -54
l-9 -45v-9q27 -107 44 -330h9l9 -9h9l-9 -45v-63l-9 -9l18 -71v-27l-18 -18l18 -89l-9 -36v-9l9 -45l-9 -9h-9l-9 9v9l-17 313h-9l-27 -27v-44l27 -9q0 -99 -27 -99h-9v9l9 36l-9 27h-9v-18l9 -27h-18v-9l9 -9v-9q-29 -9 -36 -36h9l27 9l9 -9v-35l-18 -18l-9 45l-9 -9h-9
l18 -63l-9 -9q-36 0 -36 54l-9 -9h-9v27l9 -9h9l9 80l-9 9h-9q-27 -71 -27 -143h-8l8 -9v-9l-8 -9v-9l17 -36h-26l-9 9h-9l18 179l-9 9v9q26 46 26 90v107l-8 45q30 0 44 170l-9 71l18 27l-9 9v9l18 54v17l-9 45q18 0 36 54h-18v27zM856 2038v-18l-18 -18v18zM1715 1895
l9 -45v-18h-18v54h-9q0 -63 -18 -63l-9 9h-9v-27h36l27 18l9 -9v81h-18zM1634 1877v-36l9 9h9l9 -9v18h9l-9 27zM758 1886v-27l-18 18l9 9h9zM1786 1653h27l9 -107v-9h-9zM1715 1608h18l9 -26l-9 -9h-9l-9 9v26zM1625 1403l27 -9v-9l-9 -9v-9h9q-12 -54 -27 -54v9l-9 -9h-18
q0 45 -17 45h-27v9h18v9l-9 9v9h18q0 -27 17 -27q0 36 27 36zM1688 1403h9l9 -9l9 -27h9l-9 -54h-27l-18 18v27l9 9l-9 9v9zM1759 1403l36 -45q0 -45 -18 -45l-27 9l9 9v9l-17 54l8 9h9zM1572 1331q0 -20 44 -27v-18h-62v-35h-18l-9 53h36l-9 9v9l9 9h9zM1849 1304l9 -9v-9
l-9 -9h-18v9zM1643 1295h27v-18h-27v18zM1706 1295h44q45 -82 45 -152v-98h-18v116h-9v-116h-18v116h-8v-116l-9 -9h-54l-18 18v36q0 63 -18 98h18l-9 9v9q0 24 45 45q36 0 36 -63h17q0 32 -35 72v8h18v9h-27v18zM1536 1215l18 -18v-143l-18 -18l-9 9v125l9 9v9h-9z
M1849 1197h18l27 -27h-9l-36 9v18zM1348 1009l420 -9h260l-9 -45h-18v18h-367l-9 9l-9 -9l-44 9v-9l-9 9h-72l-9 -9l-18 9l-36 -9l-35 9v-36l-45 54v9zM632 973v-27l18 -17v17l-9 27h-9zM928 973h9l-27 -27v9zM990 973l9 -9v-18l-45 9v9zM1858 946h27v-17h-27v17zM2922 938
v-81l27 27v54h-27zM972 938l9 -9v-9l-9 -9h-27zM928 911h9v-27l-36 -9v18q27 0 27 18zM454 884l-9 -90l9 -26l-9 -9v-9l9 -27v-18h-9l9 -89v-99h17v322l-9 45h-8zM1133 875v-9l27 -27h18v27zM2725 857v-9h99l9 9v9zM2770 794v-71h18q0 20 63 71l-45 9zM820 794v-17h27v8z
M981 777l-27 -54l9 -27h-26l-9 9l-9 -9v-9h-9q0 24 -45 36q0 18 -45 18l-9 9v-9q24 -36 45 -36l-18 -18l36 -98h9q0 27 18 27v-18h18v18h18v-27h8l18 18l-9 26l9 9h9v-53l-9 -45l9 -9h9l9 9l-9 9v9l18 36l-9 9h9l9 -9h9l27 35q-9 36 -45 36l18 27h-9l9 9v18l-9 -9h-18v18
q27 0 27 27zM928 759v-9l26 -9v18h-26zM919 714h26v18h-8zM1464 705h9l-9 -63h-18v45zM1527 705h9l18 -18v-9h-9l-18 18v9zM1500 678h9q27 0 27 -54h9l-9 -8v-99h-27l-18 99h18v8l-27 36zM1903 678h17q18 0 18 -54h9q-9 -107 -27 -107q-4 90 -35 90v17q35 0 35 18h-9l-8 -9
h-9l-9 9v18zM1795 589h18v-27h-18v27zM1473 517l18 -18l-18 -18l9 -9v-9l-18 -17h-9v53zM1938 508h18v-36h-9zM668 437l36 -36h27v9q-37 0 -45 45zM1500 446h18q20 0 27 -45l-9 -9h27v-18l-27 -9l9 -45l-9 -53h-9q-18 0 -27 116h9l-9 45l-27 -18v9zM1903 437h17l36 -54h9v-9
h-18v-89l-18 -18l-26 107l8 9h9zM1634 428h36l18 -18v-9q-45 0 -45 -18h-9l-18 18v9zM1786 428h27l9 -45v-98l-18 -18v116l-18 27v18zM650 383v-27l18 18l-9 9h-9zM1706 374h18q26 -9 26 -54l-26 -18h-18l-27 27v18zM731 356v-9l27 -27v18l-18 18h-9zM1652 365q0 -52 27 -80
v-9h-9q-18 0 -18 26q-18 0 -18 -35h-18l9 9v80zM2090 338q0 -27 -26 -27l8 -9v-8l27 8v36h-9zM695 285h9l18 17h-9zM1598 258h18v-9q-45 -46 -62 -134h-27l-18 18v8zM1733 258v-18l-72 -9q6 27 72 27zM1750 249q80 0 108 -125l-9 -9h-9q-30 116 -90 116v18zM1634 222h9
l-36 -36v9zM1062 141v-8l9 -27h18l-18 35h-9zM1464 97l18 -18l18 18l18 -27l-9 -9l-72 9zM1545 97l18 -18l-18 -18l-18 18zM1098 52q8 -36 35 -36l-9 -9v-18q27 0 27 -107h-9l9 -9v-259h18q0 40 36 80v9l-27 54l9 62l-18 81l98 80h9v-17q52 37 72 80v9h-9l-36 -9l-62 9h-90
l-9 9zM2743 -118v-36h9v36h-9zM677 -145v-18l27 -9v9l-18 18h-9zM749 -181v-17h27v17h-27zM623 -198l-8 -9v-9q58 -1 205 -63q0 34 -197 81zM2654 -216v-36h9l9 27l-9 9h-9zM641 -270v-18h36v-18h-18v-9l36 -80l27 18l18 -18v-81l44 -80h9v125q0 18 -26 18v18h9
q35 -14 35 -27v-143l9 -45h9v152l-9 54l9 27q0 25 -62 44v9h9l44 -9v18l-143 45h-36zM838 -279l27 -27h9v18zM972 -315v-27h18l9 27h-27zM1062 -350v-45h9v45h-9zM1929 -359l9 -9l18 -18l-9 -27q18 0 18 -45l36 -18h9v-27l9 -44h-18q0 60 -107 107l-9 -9v-9q62 0 62 -71
l63 -143l9 8h9q27 0 27 -26l9 -9h8l9 27l-9 53v27h18l9 -45l9 9h9l45 -44h18l-9 98h9l27 27v9h-18q0 -27 -18 -27l-9 62l27 -17h9v35q-20 42 -63 63h-18l9 -9l17 -7l10 -38v-9l-27 27l9 9q-45 0 -45 54l-80 18l9 -9l-7 -40q-55 67 -83 67zM1795 -395v-9l9 -27l18 18l-18 18
h-9zM2045 -436l72 -58q-18 0 -27 -71h-18q0 54 -53 107v18zM1348 -467l9 -27h9l9 36zM1106 -485v-80h9l9 27l-9 53h-9zM1420 -494l8 -35h9v35h-17zM2484 -503v-17h27v9zM1804 -511l-9 -9v-9q21 0 54 -45v9q-12 37 -45 54zM1455 -529l-18 -45v-27q27 9 27 54v18h-9z
M2439 -538v-27l81 -27l-9 45l9 9h-27l-9 -9l-9 9h-9l-9 -9h-9zM1500 -556v-90h18v90h-18zM2269 -637l-9 36h-27l18 -89q75 30 117 71h18q4 -36 26 -36h9v18l-9 9v9h18l27 -27l-18 -18h9l18 18q-20 90 -80 90q-62 -21 -117 -81zM1911 -583q36 -72 36 -125h18l-36 125h-18z
M2099 -574h9l18 -18v-9h-9l-18 18v9zM892 -619v-9l18 18v9zM1276 -601v-9l36 -36v9l-9 36h-27zM2484 -601v-54h18l-9 54h-9zM2511 -601v-45h9v45h-9zM1366 -610v-45l18 18v27h-18zM1607 -610l9 -54h9l9 27l-9 27h-18zM2010 -601h9l18 -18v-27h-27v45zM1062 -637l18 -18h18
v27zM2529 -637q0 -35 -27 -35v-9h27l9 26v18h-9zM2099 -646v-26h18v8zM919 -681h9l26 26h-9zM972 -664v-26h9l18 18l-9 8h-18zM1080 -690v-9q18 0 18 -36l8 -9h9v54l-9 -9l-8 9h-18zM1947 -726v-9l18 -18h9zM999 -825l9 -8h9l9 26l-9 9v9l9 54q-27 0 -27 -90zM2278 -735
l-9 -63v-9q21 0 27 72h-18zM2180 -744l9 -27h9v27h-18zM1169 -762l-18 -27v-9l27 36h-9zM2386 -789h-9l9 -27l8 9h9l9 -9q0 27 27 27l9 9v18l-36 -9l-26 9v-27zM2314 -798v-27l36 27l-9 27zM1205 -780v-27h27l18 18zM1330 -816v-9h36v9h-36zM1527 -816v-17h45l-18 17h-27z
M2350 -816v-26h9l18 17v9h-27zM1616 -860v-18l143 -54v-18h-26l-27 9v-18l-72 9v9h45v9q-27 0 -90 63h-44l-45 -9v-18q27 0 27 -18l-63 -27q-38 27 -71 27q-170 -16 -170 -63l-9 -9v-8l116 -54h9v9q-27 0 -27 18v9h9q16 0 54 -63l9 9h9l27 -18l35 9l36 -18v18h27l9 -27h-27
v-9q115 -27 206 -27q188 9 188 36q-63 24 -63 45v9q63 0 63 -36h35v9h-18v18l36 9l9 -27h18l9 9h9v-18h9l36 27l-152 45l-9 -9v-9h-9v27h-27l9 -9v-18h-18q0 53 -36 53v18h27q-150 99 -206 99zM1303 -959l9 -9v-18l-18 -17l-9 9v8l9 9l-9 9l9 9h9zM1428 -959h36
q0 -29 108 -89l44 -36l9 9h18v-9l-18 -18h-36q-29 45 -71 45l-90 89v9zM1929 -986q78 -62 161 -62v18q-116 21 -143 44h-18zM1625 -994h18q54 -6 45 -27l-63 9v18zM1724 -1003l26 -9v-9l-17 -18h-18l-8 19l8 17h9zM1375 -1012l36 -36h-9l-27 27v9zM1616 -1012l-9 -27l-18 18
l9 9h18zM1688 -1057q125 -18 125 -36l9 9h18v-18h-161q0 18 -27 18v18h9l27 -9v18z" />
    <glyph glyph-name="mu" unicode="&#x3bc;" horiz-adv-x="3367" 
d="M1715 2637q500 0 948 -617q367 -557 367 -1315q0 -1140 -814 -1753q-245 -161 -528 -161q-501 0 -948 617q-367 556 -367 1315q0 1140 814 1753q245 161 528 161zM1008 2252v-9l45 -9l-18 27l9 9h9l9 -27h9l9 9h9l-9 9v18h9l26 -9v18h9l18 -18l-18 -36l-9 9h-9l-35 -26
l-27 9l-18 -18q0 26 -18 26h-18q0 -26 -53 -53q-12 -45 -27 -45l-9 9q-313 -432 -385 -841l99 -71q21 -66 71 -99q0 -87 98 -340l9 -26h9q6 53 27 53l9 -9h9l9 9v-9l-9 -9v-9l18 -17l-9 -9v-9h9l9 9l9 -9h18l9 26l35 -17l9 9v17l-9 -9h-8v18q26 0 26 27h9l18 -18h-18v-9
l18 -18h9l9 36l-9 9v18h45l-9 -9v-9l9 -9h36v9q-16 0 -54 54l27 36l-18 18q27 0 27 26h36l26 -35l45 17l-18 54l9 27h-18v18l27 9q0 -25 72 -36l-9 -9v-18h9v18h18l26 -27v-36l-62 -26l18 -18v18l98 -9l-9 -9v-9h27l9 9h9v-36l-9 -9v-9q27 0 27 -18v-27q0 -18 -36 -18v-8
l45 -9h35l27 9l45 -9h72l35 9l9 -9h27v9h-27q0 80 72 80h18l44 -9l-9 9v9h9l36 -18v9l-27 27h9q54 -42 54 -90v-9l-63 -17v-9l63 9h98l9 9h9l9 -9v-9l9 9h72v-18l-18 -27l-54 18h-134l-18 -18v-107h-18v116h-9v-170h-53l53 -54v-18q-21 -53 -71 -62q-72 9 -72 71v18
q15 36 54 36l-18 18l-36 -9l-9 9v188q-27 0 -27 -36l-71 18l-9 -9h-9l-9 9h-9l-9 -9l-45 9h-35l-18 -18v-125l9 -313h-27v-18q27 0 27 -27l-9 -27l9 -54l-27 -26h-9l-9 26l-161 9l-9 -9h-9l-27 9l-27 -62l18 -18h125l9 9l9 -9h81l36 -9l26 9v-9l-17 -18l-27 9v-18l9 -9v-9
l-18 -18v-9l36 -18h9v-17q-16 -14 -27 -117l9 -27l-9 -35l9 -81l-9 -27l9 -35l-9 -9l9 -9h-9l9 -9v-9l-9 -27l9 9h18v-36l-36 -9l9 -27l44 9q21 0 27 -44l-9 -9h18l9 44v36q-27 0 -27 45v331l-9 44q18 0 18 36h27q98 0 98 -44h-26l9 -9v-27l-9 -54l9 -9l-9 -45v-53l9 -54
l-9 -45q0 -59 35 -89q0 -27 -44 -27v-27h9l9 9h9q53 0 53 -107h9v125l-18 27v250l-9 36l9 9v9l-9 98h18v36l-27 9l9 9v27h-9l-26 -9l-9 9v9l26 18l18 -18l9 9v9l-9 44q0 66 108 81h9q71 0 89 -98l-18 -18q18 0 18 -27h9l27 18l18 -18l18 18l9 -9v-18l-54 -9l-27 9v-9l-9 -54
q36 0 36 -27l-18 -71v-81q-27 0 -27 -17v-9l9 9h18v-63l-9 -9l9 -9v-36h-9l-9 9h-9l-9 -45h9l27 -8v-18l9 -63q-29 -9 -36 -36l9 -9h9l45 90l9 -9h18v62h17v18h-17l-9 278q12 62 35 62h45v45h-45v9l18 18l18 -18h9v71q54 43 54 108h9l-9 9v161l-9 80l9 9v9l-9 81l9 26l-9 36
v36h18l18 -45l26 18q23 -80 81 -80q36 -5 -18 -45v-9h18l72 -27l-9 -9q26 0 44 -36l-71 -35l-9 9l-9 -9l9 -36h9q27 18 27 -36h17l45 36l-9 9v143l27 36v27l-9 44h9q18 0 18 -36l9 9h9q18 0 18 -44l9 -9h9v89l205 206l9 -9h81l9 9h9l-9 63v44q19 99 62 99v44l-18 27l54 27
l9 -9v-18l-18 -27v-9q0 -66 27 -71q0 54 18 54l18 -18l-18 -45l9 9h9l9 -9q0 54 18 54l9 -36h9v18h8l-8 9v35h17l9 -9h9l-9 -35q9 -54 27 -54h18q0 201 -188 716q-419 831 -1055 831q-363 0 -689 -313zM1661 2467h18v-45h-9zM1679 2395l27 -35q0 -18 -27 -18q9 -39 45 -54
l-9 -45v-9q27 -107 44 -330h9l9 -9h9l-9 -45v-63l-9 -9l18 -71v-27l-18 -18l18 -89l-9 -36v-9l9 -45l-9 -9h-9l-9 9v9l-17 313h-9l-27 -27v-44l27 -9q0 -99 -27 -99h-9v9l9 36l-9 27h-9v-18l9 -27h-18v-9l9 -9v-9q-29 -9 -36 -36h9l27 9l9 -9v-35l-18 -18l-9 45l-9 -9h-9
l18 -63l-9 -9q-36 0 -36 54l-9 -9h-9v27l9 -9h9l9 80l-9 9h-9q-27 -71 -27 -143h-8l8 -9v-9l-8 -9v-9l17 -36h-26l-9 9h-9l18 179l-9 9v9q26 46 26 90v107l-8 45q30 0 44 170l-9 71l18 27l-9 9v9l18 54v17l-9 45q18 0 36 54h-18v27zM856 2038v-18l-18 -18v18zM1715 1895
l9 -45v-18h-18v54h-9q0 -63 -18 -63l-9 9h-9v-27h36l27 18l9 -9v81h-18zM1634 1877v-36l9 9h9l9 -9v18h9l-9 27zM758 1886v-27l-18 18l9 9h9zM1786 1653h27l9 -107v-9h-9zM1715 1608h18l9 -26l-9 -9h-9l-9 9v26zM1625 1403l27 -9v-9l-9 -9v-9h9q-12 -54 -27 -54v9l-9 -9h-18
q0 45 -17 45h-27v9h18v9l-9 9v9h18q0 -27 17 -27q0 36 27 36zM1688 1403h9l9 -9l9 -27h9l-9 -54h-27l-18 18v27l9 9l-9 9v9zM1759 1403l36 -45q0 -45 -18 -45l-27 9l9 9v9l-17 54l8 9h9zM1572 1331q0 -20 44 -27v-18h-62v-35h-18l-9 53h36l-9 9v9l9 9h9zM1849 1304l9 -9v-9
l-9 -9h-18v9zM1643 1295h27v-18h-27v18zM1706 1295h44q45 -82 45 -152v-98h-18v116h-9v-116h-18v116h-8v-116l-9 -9h-54l-18 18v36q0 63 -18 98h18l-9 9v9q0 24 45 45q36 0 36 -63h17q0 32 -35 72v8h18v9h-27v18zM1536 1215l18 -18v-143l-18 -18l-9 9v125l9 9v9h-9z
M1849 1197h18l27 -27h-9l-36 9v18zM1348 1009l420 -9h260l-9 -45h-18v18h-367l-9 9l-9 -9l-44 9v-9l-9 9h-72l-9 -9l-18 9l-36 -9l-35 9v-36l-45 54v9zM632 973v-27l18 -17v17l-9 27h-9zM928 973h9l-27 -27v9zM990 973l9 -9v-18l-45 9v9zM1858 946h27v-17h-27v17zM2922 938
v-81l27 27v54h-27zM972 938l9 -9v-9l-9 -9h-27zM928 911h9v-27l-36 -9v18q27 0 27 18zM454 884l-9 -90l9 -26l-9 -9v-9l9 -27v-18h-9l9 -89v-99h17v322l-9 45h-8zM1133 875v-9l27 -27h18v27zM2725 857v-9h99l9 9v9zM2770 794v-71h18q0 20 63 71l-45 9zM820 794v-17h27v8z
M981 777l-27 -54l9 -27h-26l-9 9l-9 -9v-9h-9q0 24 -45 36q0 18 -45 18l-9 9v-9q24 -36 45 -36l-18 -18l36 -98h9q0 27 18 27v-18h18v18h18v-27h8l18 18l-9 26l9 9h9v-53l-9 -45l9 -9h9l9 9l-9 9v9l18 36l-9 9h9l9 -9h9l27 35q-9 36 -45 36l18 27h-9l9 9v18l-9 -9h-18v18
q27 0 27 27zM928 759v-9l26 -9v18h-26zM919 714h26v18h-8zM1464 705h9l-9 -63h-18v45zM1527 705h9l18 -18v-9h-9l-18 18v9zM1500 678h9q27 0 27 -54h9l-9 -8v-99h-27l-18 99h18v8l-27 36zM1903 678h17q18 0 18 -54h9q-9 -107 -27 -107q-4 90 -35 90v17q35 0 35 18h-9l-8 -9
h-9l-9 9v18zM1795 589h18v-27h-18v27zM1473 517l18 -18l-18 -18l9 -9v-9l-18 -17h-9v53zM1938 508h18v-36h-9zM668 437l36 -36h27v9q-37 0 -45 45zM1500 446h18q20 0 27 -45l-9 -9h27v-18l-27 -9l9 -45l-9 -53h-9q-18 0 -27 116h9l-9 45l-27 -18v9zM1903 437h17l36 -54h9v-9
h-18v-89l-18 -18l-26 107l8 9h9zM1634 428h36l18 -18v-9q-45 0 -45 -18h-9l-18 18v9zM1786 428h27l9 -45v-98l-18 -18v116l-18 27v18zM650 383v-27l18 18l-9 9h-9zM1706 374h18q26 -9 26 -54l-26 -18h-18l-27 27v18zM731 356v-9l27 -27v18l-18 18h-9zM1652 365q0 -52 27 -80
v-9h-9q-18 0 -18 26q-18 0 -18 -35h-18l9 9v80zM2090 338q0 -27 -26 -27l8 -9v-8l27 8v36h-9zM695 285h9l18 17h-9zM1598 258h18v-9q-45 -46 -62 -134h-27l-18 18v8zM1733 258v-18l-72 -9q6 27 72 27zM1750 249q80 0 108 -125l-9 -9h-9q-30 116 -90 116v18zM1634 222h9
l-36 -36v9zM1062 141v-8l9 -27h18l-18 35h-9zM1464 97l18 -18l18 18l18 -27l-9 -9l-72 9zM1545 97l18 -18l-18 -18l-18 18zM1098 52q8 -36 35 -36l-9 -9v-18q27 0 27 -107h-9l9 -9v-259h18q0 40 36 80v9l-27 54l9 62l-18 81l98 80h9v-17q52 37 72 80v9h-9l-36 -9l-62 9h-90
l-9 9zM2743 -118v-36h9v36h-9zM677 -145v-18l27 -9v9l-18 18h-9zM749 -181v-17h27v17h-27zM623 -198l-8 -9v-9q58 -1 205 -63q0 34 -197 81zM2654 -216v-36h9l9 27l-9 9h-9zM641 -270v-18h36v-18h-18v-9l36 -80l27 18l18 -18v-81l44 -80h9v125q0 18 -26 18v18h9
q35 -14 35 -27v-143l9 -45h9v152l-9 54l9 27q0 25 -62 44v9h9l44 -9v18l-143 45h-36zM838 -279l27 -27h9v18zM972 -315v-27h18l9 27h-27zM1062 -350v-45h9v45h-9zM1929 -359l9 -9l18 -18l-9 -27q18 0 18 -45l36 -18h9v-27l9 -44h-18q0 60 -107 107l-9 -9v-9q62 0 62 -71
l63 -143l9 8h9q27 0 27 -26l9 -9h8l9 27l-9 53v27h18l9 -45l9 9h9l45 -44h18l-9 98h9l27 27v9h-18q0 -27 -18 -27l-9 62l27 -17h9v35q-20 42 -63 63h-18l9 -9l17 -7l10 -38v-9l-27 27l9 9q-45 0 -45 54l-80 18l9 -9l-7 -40q-55 67 -83 67zM1795 -395v-9l9 -27l18 18l-18 18
h-9zM2045 -436l72 -58q-18 0 -27 -71h-18q0 54 -53 107v18zM1348 -467l9 -27h9l9 36zM1106 -485v-80h9l9 27l-9 53h-9zM1420 -494l8 -35h9v35h-17zM2484 -503v-17h27v9zM1804 -511l-9 -9v-9q21 0 54 -45v9q-12 37 -45 54zM1455 -529l-18 -45v-27q27 9 27 54v18h-9z
M2439 -538v-27l81 -27l-9 45l9 9h-27l-9 -9l-9 9h-9l-9 -9h-9zM1500 -556v-90h18v90h-18zM2269 -637l-9 36h-27l18 -89q75 30 117 71h18q4 -36 26 -36h9v18l-9 9v9h18l27 -27l-18 -18h9l18 18q-20 90 -80 90q-62 -21 -117 -81zM1911 -583q36 -72 36 -125h18l-36 125h-18z
M2099 -574h9l18 -18v-9h-9l-18 18v9zM892 -619v-9l18 18v9zM1276 -601v-9l36 -36v9l-9 36h-27zM2484 -601v-54h18l-9 54h-9zM2511 -601v-45h9v45h-9zM1366 -610v-45l18 18v27h-18zM1607 -610l9 -54h9l9 27l-9 27h-18zM2010 -601h9l18 -18v-27h-27v45zM1062 -637l18 -18h18
v27zM2529 -637q0 -35 -27 -35v-9h27l9 26v18h-9zM2099 -646v-26h18v8zM919 -681h9l26 26h-9zM972 -664v-26h9l18 18l-9 8h-18zM1080 -690v-9q18 0 18 -36l8 -9h9v54l-9 -9l-8 9h-18zM1947 -726v-9l18 -18h9zM999 -825l9 -8h9l9 26l-9 9v9l9 54q-27 0 -27 -90zM2278 -735
l-9 -63v-9q21 0 27 72h-18zM2180 -744l9 -27h9v27h-18zM1169 -762l-18 -27v-9l27 36h-9zM2386 -789h-9l9 -27l8 9h9l9 -9q0 27 27 27l9 9v18l-36 -9l-26 9v-27zM2314 -798v-27l36 27l-9 27zM1205 -780v-27h27l18 18zM1330 -816v-9h36v9h-36zM1527 -816v-17h45l-18 17h-27z
M2350 -816v-26h9l18 17v9h-27zM1616 -860v-18l143 -54v-18h-26l-27 9v-18l-72 9v9h45v9q-27 0 -90 63h-44l-45 -9v-18q27 0 27 -18l-63 -27q-38 27 -71 27q-170 -16 -170 -63l-9 -9v-8l116 -54h9v9q-27 0 -27 18v9h9q16 0 54 -63l9 9h9l27 -18l35 9l36 -18v18h27l9 -27h-27
v-9q115 -27 206 -27q188 9 188 36q-63 24 -63 45v9q63 0 63 -36h35v9h-18v18l36 9l9 -27h18l9 9h9v-18h9l36 27l-152 45l-9 -9v-9h-9v27h-27l9 -9v-18h-18q0 53 -36 53v18h27q-150 99 -206 99zM1303 -959l9 -9v-18l-18 -17l-9 9v8l9 9l-9 9l9 9h9zM1428 -959h36
q0 -29 108 -89l44 -36l9 9h18v-9l-18 -18h-36q-29 45 -71 45l-90 89v9zM1929 -986q78 -62 161 -62v18q-116 21 -143 44h-18zM1625 -994h18q54 -6 45 -27l-63 9v18zM1724 -1003l26 -9v-9l-17 -18h-18l-8 19l8 17h9zM1375 -1012l36 -36h-9l-27 27v9zM1616 -1012l-9 -27l-18 18
l9 9h18zM1688 -1057q125 -18 125 -36l9 9h18v-18h-161q0 18 -27 18v18h9l27 -9v18z" />
    <glyph glyph-name="ae" unicode="&#xe6;" horiz-adv-x="1217" 
d="M506 328q102 -14 189 33.5t64 89t-81.5 44t-107.5 -36t-64 -130.5zM368 279q-35 30 -126.5 53t-139.5 -26t-23.5 -129t96.5 -94.5t126.5 48t66.5 148.5zM1277 351q-124 -182 -239.5 -256.5t-196.5 -94.5t-192 -20q-83 0 -147.5 45.5t-87.5 121.5q-99 -166 -240 -166
q-123 0 -179.5 68.5t-56.5 153.5t29 128t96 57.5t148.5 5t170.5 -47.5q1 63 -2.5 129t-61.5 125.5t-145.5 52t-65 -54.5t-27 -69.5t-77.5 -5t-30.5 50.5t31.5 76.5t95 59.5t106 16q66 0 122 -26.5t92 -61.5t57 -93q33 33 103.5 58t156 2.5t114.5 -72.5t12 -104.5
t-112 -106.5t-233 -54q-3 -69 31 -118.5t98.5 -67.5t162.5 -4.5t200 74t208 199.5h60z" />
    <glyph glyph-name="oslash" unicode="&#xf8;" horiz-adv-x="847" 
d="M235 459q-58 46 -98 -34.5t-39.5 -155t14.5 -98.5q58 128 123 288zM150 135q7 -5 17 -5q45 -5 84 68.5t34 121.5t-14 86q-34 -72 -76 -168q-25 -57 -45 -103zM907 351q-63 -82 -173.5 -115t-204.5 -25.5t-137.5 23t-59 -31.5t-54.5 -105.5t-88.5 -83.5t-96.5 -7
q-43 -96 -70.5 -128.5t-42.5 -40.5q-12 4 -12 24q17 26 77 168q-35 18 -61.5 72.5t-26.5 131.5q0 97 15.5 161t60 106t83 70.5t88.5 25t89 -28.5q32 71 57 127t48 59q18 -8 18.5 -31t-78.5 -182q28 -19 22 -65q-9 -56 24.5 -106.5t123.5 -80.5t197 -5t142 68h60z" />
    <glyph glyph-name="questiondown" unicode="&#xbf;" horiz-adv-x="1090" 
d="M646 497q0 -127 -25 -212t-84.5 -149t-161 -104t-215.5 -86.5t-180 -126.5t-50 -166.5t95 -155t188 -68t181.5 70t62 160t-93.5 136.5l36 33q117 -41 160 -105t43 -146q0 -86 -125.5 -163t-242.5 -77q-84 0 -197.5 29t-202 122t-88.5 210q0 128 95.5 196t228.5 107.5
t222 75t133.5 97.5t66.5 295zM569 846q11 89 42 113.5t103 28.5q85 -46 66.5 -84t41.5 -82q-8 -74 -151 -79q-95 23 -102 103z" />
    <glyph glyph-name="exclamdown" unicode="&#xa1;" horiz-adv-x="1130" 
d="M534 465q-176 -472 -205.5 -688t-24 -284t-51 -116t-100.5 -49q-38 1 -56 102q0 54 20 172t100.5 330.5t247.5 599.5zM702 980q90 -49 70.5 -89.5t44.5 -87.5q-9 -79 -161 -84q-101 24 -109 109q12 95 45 121.5t110 30.5z" />
    <glyph glyph-name="approxequal" unicode="&#x2248;" horiz-adv-x="1182" 
d="M277 365q-16 52 -16 79q0 33 17 59t52 42.5t91 17.5q23 0 71 -15.5t106.5 -58t112.5 -61t114 8.5t79 83h30q0 -44 -25 -85.5t-72 -70.5t-115 -34q-42 0 -91 19t-95.5 59t-91.5 62.5t-94.5 3t-40.5 -103.5zM291 154q-16 52 -16 78q0 34 17 60t52 42.5t91 17.5
q23 0 71 -15.5t106.5 -58t112.5 -61.5t113.5 8.5t79.5 83.5h30q0 -44 -25 -86t-72 -70.5t-115 -33.5q-42 0 -91 19t-95.5 59t-91.5 62.5t-94.5 2.5t-41.5 -103z" />
    <glyph glyph-name="guillemotleft" unicode="&#xab;" horiz-adv-x="1278" 
d="M235 539q146 50 222.5 104.5t158.5 156.5l53 -15q-55 -91 -112.5 -157.5t-97.5 -92.5q48 -26 111.5 -101t98.5 -205q0 -38 -108 -47q-49 126 -116 188t-210 140v29zM526 552q131 49 199 103.5t142 156.5l48 -14q-50 -92 -101.5 -158.5t-87.5 -91.5q43 -26 100 -101
t89 -205q0 -38 -98 -48q-43 127 -103 188.5t-188 140.5v29z" />
    <glyph glyph-name="guillemotright" unicode="&#xbb;" horiz-adv-x="1369" 
d="M1006 455q-146 -50 -222.5 -104.5t-159.5 -156.5l-53 15q56 91 113.5 157.5t97.5 92.5q-48 26 -111.5 101t-99.5 205q0 38 109 47q49 -126 116 -188t210 -140v-29zM714 442q-130 -49 -198.5 -103.5t-142.5 -156.5l-47 14q50 92 101 158.5t87 91.5q-43 26 -99.5 101
t-88.5 205q0 38 97 48q44 -127 104 -188.5t187 -140.5v-29z" />
    <glyph glyph-name="ellipsis" unicode="&#x2026;" horiz-adv-x="1983" 
d="M350.11 -1.7998q-76.5029 41.4014 -59.8516 76.0518q16.6504 34.6514 -38.251 75.1523q8.09961 67.502 137.703 71.1016q85.502 -19.8008 92.7031 -92.7021q-9.90039 -81.0029 -38.252 -103.503q-28.3506 -22.501 -94.0518 -26.1006zM953.11 -1.7998
q-76.5029 41.4014 -59.8516 76.0518q16.6504 34.6514 -38.251 75.1523q8.09961 67.502 137.703 71.1016q85.502 -19.8008 92.7031 -92.7021q-9.90039 -81.0029 -38.252 -103.503q-28.3506 -22.501 -94.0518 -26.1006zM1556.11 -1.7998q-76.5029 41.4014 -59.8525 76.0518
q16.6514 34.6514 -38.25 75.1523q8.09961 67.502 137.703 71.1016q85.502 -19.8008 92.7031 -92.7021q-9.90039 -81.0029 -38.252 -103.503q-28.3506 -22.501 -94.0518 -26.1006z" />
    <glyph glyph-name="nonbreakingspace" unicode="&#xa0;" horiz-adv-x="612" 
 />
    <glyph glyph-name="Agrave" unicode="&#xc0;" horiz-adv-x="2612" 
d="M3692 1524q-284 91 -403.5 125t-329 68t-556 30.5t-633.5 -70t-595 -213.5t-523.5 -372t-253 -477t93.5 -422.5t354 -189t460 45t468 233.5q-20 147 4 292.5t64 222.5t81 113t164 34q-23 -225 -69.5 -372t-126.5 -293q-14 -82 83.5 -129.5t275 5.5t362.5 196h60
q-150 -163 -314.5 -252.5t-317 -84.5t-243.5 198q-171 -128 -399.5 -218t-343 -105t-214.5 -15q-128 0 -276.5 40t-256.5 161t-135 347q0 145 36 266t167 296t395.5 352t536.5 283t542 156t544 50q366 0 590.5 -41.5t425 -109.5t284.5 -113zM1424.59 1996.98
q-191.396 69.2988 -291.494 152.347t-100.098 168.847q0 58.2988 58.2988 58.2988q65.998 0 90.1982 -59.3984q24.1992 -59.3994 67.6484 -111.098q43.4482 -51.6992 103.947 -96.7988q60.499 -45.0986 96.7979 -82.498z" />
    <glyph glyph-name="Atilde" unicode="&#xc3;" horiz-adv-x="2612" 
d="M3692 1524q-284 91 -403.5 125t-329 68t-556 30.5t-633.5 -70t-595 -213.5t-523.5 -372t-253 -477t93.5 -422.5t354 -189t460 45t468 233.5q-20 147 4 292.5t64 222.5t81 113t164 34q-23 -225 -69.5 -372t-126.5 -293q-14 -82 83.5 -129.5t275 5.5t362.5 196h60
q-150 -163 -314.5 -252.5t-317 -84.5t-243.5 198q-171 -128 -399.5 -218t-343 -105t-214.5 -15q-128 0 -276.5 40t-256.5 161t-135 347q0 145 36 266t167 296t395.5 352t536.5 283t542 156t544 50q366 0 590.5 -41.5t425 -109.5t284.5 -113zM1046 2037q-52 -3 -88 35.5
t-36 70.5q0 40 17 71t52 51t91 21q23 0 71 -18.5t106.5 -69.5t112.5 -73.5t111.5 9t101.5 93.5l30 7q-20 -52 -45 -97.5t-72 -84.5t-115 -45q-42 0 -91 22.5t-95.5 70.5t-103 82.5t-81.5 5.5t-15.5 -74.5t51.5 -58.5z" />
    <glyph glyph-name="Otilde" unicode="&#xd5;" horiz-adv-x="2730" 
d="M978 330q-218 90 -292.5 205t-76 227.5t66 255t202.5 255t320 177.5t362.5 61t326 -50t298.5 -162t229 -281.5t60.5 -333t-141 -307.5t-300 -218.5t-374 -128.5t-531.5 -50q-277 0 -450 59t-291.5 157.5t-156 188.5t-37.5 195q0 100 27.5 230t166.5 315t331.5 316
t396.5 207.5t379 107.5t325 31q187 -7 312 -58t242.5 -157t140.5 -176l-50 -7q-102 143 -258.5 235.5t-366.5 101.5t-484 -68.5t-498 -228t-326.5 -339t-112.5 -342t50 -285t177.5 -220t340 -138.5t424 -38.5t446.5 97.5t375 221t147.5 284t-45 299t-214 279.5t-354 176
t-365 20.5t-305 -97.5t-230 -186.5t-120 -280t30.5 -289t232 -216zM1308.4 1996.98q-57.1982 -3.30078 -96.7969 39.0488q-39.5996 42.3486 -39.5996 77.5479q0 43.999 18.6992 78.0986q18.7002 34.0996 57.1992 56.0986t100.098 23.0996q25.2998 0 78.0986 -20.3496
t117.147 -76.4482q64.3477 -56.0986 123.747 -80.8486q59.3984 -24.749 122.647 9.90039q63.248 34.6494 111.647 102.848l32.999 7.7002q-22 -57.1992 -49.499 -107.248t-79.1982 -92.9482t-126.497 -49.499q-46.1992 0 -100.098 24.75q-53.8994 24.749 -105.048 77.5479
t-113.298 90.748q-62.1484 37.9492 -89.6475 6.0498q-27.5 -31.8994 -17.0498 -81.9482t56.6484 -64.3486z" />
    <glyph glyph-name="OE" unicode="&#x152;" horiz-adv-x="2380" 
d="M1978 910q-48 43 -95 57.5t-124 16.5q65 -55 109.5 -66t109.5 -8zM1539 953q-145 -34 -265 -131t-148.5 -260.5t37.5 -306.5q25 -45 64 -76q150 49 250 145q150 145 157 326q6 165 -95 303zM2440 351q-144 -148 -259 -224.5t-255.5 -137.5t-329.5 -61q-227 0 -415 101
q-195 -45 -314 -45t-263 48t-241 146t-155.5 230t-58.5 319q0 189 77 396.5t223 357.5t321.5 228.5t381.5 78.5q254 0 459 -178q73 77 178 132q112 58 292 63q150 -9 226.5 -58.5t104 -106t27.5 -120.5q0 -69 -37 -127.5t-112 -117.5q-24 -1 -36 16q79 88 105 158t-10 138.5
t-99 102t-165.5 33t-195.5 -38.5t-174 -127.5t-105 -252.5t70 -248q127 6 229 -26t172 -144l-19 -26q-144 -41 -252 -12q-79 21 -156 76q36 -69 56 -154q51 -211 -41.5 -389t-327.5 -293q165 -63 317.5 -55.5t273 51.5t215.5 101.5t233 165.5h60zM1209 1218q141 -6 271 -106
q-50 147 -11.5 266t105.5 191q-146 114 -301.5 139t-322.5 -25.5t-321.5 -185.5t-230 -368t-35.5 -477t218.5 -401.5t461.5 -114.5l17 3q-40 39 -74.5 134.5t-24 199.5t79.5 217.5t178 192t276 123.5q-114 121 -272 135q-175 16 -312 -88t-157.5 -257t39.5 -260
q-60 -47 -94.5 24t-25 192.5t72 224t185 175.5t278.5 66z" />
    <glyph glyph-name="oe" unicode="&#x153;" horiz-adv-x="1201" 
d="M447 328q108 88 161.5 131t30 68t-73.5 13.5t-82.5 -64.5t-35.5 -148zM309 461q-29 52 -76 56q-62 -4 -106.5 -76t-21.5 -189.5t84.5 -121t101.5 115.5q-6 31 -6 58q-4 68 24 157zM1261 351q-171 -228 -281.5 -292t-187.5 -81t-131 -17q-38 0 -114 16.5t-133.5 62
t-84.5 97.5q-66 -141 -165 -141q-81 0 -149.5 67.5t-68.5 198.5q0 85 15.5 158.5t63 118.5t92.5 75.5t110 30.5q92 -4 146 -92q24 35 66 64t134 29q77 -3 125.5 -43.5t38 -76.5t-73.5 -90t-205 -172q15 -62 55 -115t110 -79.5t149.5 -18.5t192 71t236.5 229h60z" />
    <glyph glyph-name="endash" unicode="&#x2013;" horiz-adv-x="1953" 
d="M153 429.5q8 20.5 151 30.5t712 10q227 0 464.5 -16.5t290.5 -39.5q-13 -51 -94 -74q-153 10 -327 12.5t-391 -3.5t-455.5 -7t-274.5 -1q-61 0 -72.5 8.5t-11.5 34.5q0 25 8 45.5z" />
    <glyph glyph-name="emdash" unicode="&#x2014;" horiz-adv-x="3652" 
d="M199.5 440.5q84.5 32.5 433.5 32.5q670 -13 969 -13q298 0 556 -3t756.5 -14.5t610.5 -30.5q-27 -43 -198 -62q-322 9 -685 9h-1100t-956 -3.5t-297 -3.5q-125 0 -149.5 6t-24.5 28t84.5 54.5z" />
    <glyph glyph-name="quotedblleft" unicode="&#x201c;" horiz-adv-x="947" 
d="M258 1104q-50 0 -75.5 30.5t-25.5 73.5q0 63 18 122.5t70 130.5t113 109.5t101 50t56 11.5t16 -30q-80 -28 -147 -82t-88 -136t17 -99.5t49.5 -60.5t-21.5 -81.5t-83 -38.5zM503 1104q-50 0 -75.5 30.5t-25.5 73.5q0 63 18 122.5t70 130.5t113 109.5t101 50t56 11.5
t16 -30q-80 -28 -147 -82t-88 -136t17 -99.5t49.5 -60.5t-21.5 -81.5t-83 -38.5z" />
    <glyph glyph-name="quotedblright" unicode="&#x201d;" horiz-adv-x="1035" 
d="M724 1632q50 0 75.5 -30.5t25.5 -73.5q0 -63 -18 -122.5t-70 -130.5t-113 -110t-101 -50t-56 -11t-16 30q80 28 147 82t88 136t-17 99t-49.5 60.5t21.5 82t83 38.5zM479 1632q50 0 75.5 -30.5t25.5 -73.5q0 -63 -18 -122.5t-70 -130.5t-113 -110t-101 -50t-56 -11t-16 30
q80 28 147 82t88 136t-17 99t-49.5 60.5t21.5 82t83 38.5z" />
    <glyph glyph-name="quoteleft" unicode="&#x2018;" horiz-adv-x="738" 
d="M315 1104q-50 0 -75.5 30.5t-25.5 73.5q0 63 18 122.5t70 130.5t113 109.5t101 50t56 11.5t16 -30q-80 -28 -147 -82t-88 -136t17 -99.5t49.5 -60.5t-21.5 -81.5t-83 -38.5z" />
    <glyph glyph-name="quoteright" unicode="&#x2019;" horiz-adv-x="866" 
d="M511 1632q50 0 75.5 -30.5t25.5 -73.5q0 -63 -18 -122.5t-70 -130.5t-113 -110t-101 -50t-56 -11t-16 30q80 28 147 82t88 136t-17 99t-49.5 60.5t21.5 82t83 38.5z" />
    <glyph glyph-name="ydieresis" unicode="&#xff;" horiz-adv-x="962" 
d="M414 -425q64 -251 195.5 -390.5t261.5 -207t283.5 -83t210 19t35 124.5t-141 204.5t-361 206t-483.5 126.5zM60 349h-60q44 43 62.5 75t28.5 90.5t25 93.5t60 33t78.5 -45t20 -87t-51 -81t-36 -106t48.5 -96.5t124 7.5q69 32 152 154q75 119 126 306t58 295t64 108
q79 0 96 -38t1.5 -110t-73.5 -218t-135 -286q-126 -246 -186.5 -467t-49.5 -333q287 -42 505 -130.5t331.5 -170t172.5 -175.5t59 -208q-6 -58 -58 -101.5t-143 -43.5q-81 0 -190 15t-282.5 99.5t-309.5 262t-171 394.5q-290 16 -527 -17t-423 -118.5t-268.5 -168
t-78 -151.5t47.5 -97.5t118 -18.5t131 39.5t92 65t71 15.5q-97 -111 -165.5 -140.5t-133.5 -42t-141 -3.5t-112.5 55t-36.5 101q0 50 22.5 100t125 137t293.5 171.5t437 118t545 20.5q-2 96 20.5 215t80.5 319q-91 -71 -157 -77t-103.5 23.5t-59.5 89t-19 142.5zM379 892
q0 20 28.5 44.5t37.5 61t51 36.5q36 0 48 -33t12 -55q0 -31 -25.5 -74t-76.5 -43q-31 0 -53 21t-22 42zM126 892q0 20 28.5 44.5t37.5 51t51 26.5q36 0 48 -23t12 -45q0 -31 -25 -74t-77 -43q-31 0 -53 21t-22 42z" />
    <glyph glyph-name="Ydieresis" unicode="&#x178;" horiz-adv-x="1610" 
d="M682 -569q-132 -83 -257 -130q-51 -139 -63.5 -219.5t11 -132.5t81 -46.5t128 56t102 130.5t27.5 159t-29 183zM462 -255q-154 111 -310.5 134t-285.5 -32t-176 -156t11.5 -232t207 -165t407.5 54q79 219 146 397zM544 -333q-53 -150 -99 -283q95 35 217 112
q-57 127 -118 171zM813 650q-102 -99 -240 -170t-253.5 -54t-155 113t-39.5 199q0 102 51 269t149 359t194.5 294t128.5 89t41 -39t-13 -62t-109 -175.5t-159 -310.5t-93.5 -344t23.5 -232t139.5 -47.5t212.5 104.5t242 316q128 366 224 684.5t167 507.5t168 243
q71 -44 53.5 -137.5t-84 -307.5t-191.5 -485q-115 -251 -232.5 -539.5t-216 -535.5t-249.5 -640q91 -77 157 -216q132 78 259.5 184t258 240t216.5 220t148 174h60q-118 -151 -238 -280t-242 -248t-228.5 -206.5t-207.5 -145.5q28 -79 35 -202.5t-52.5 -237t-166.5 -173.5
t-197 -64q-104 11 -122 85t-7.5 172t44.5 208q-160 -53 -303 -53q-208 0 -323 117t-115 259q0 98 87.5 196.5t243.5 147t315.5 15t295.5 -126.5q34 66 106 252.5t117.5 320.5t100.5 263zM841.294 2277.28q0 22 31.3496 48.9492q31.3486 26.9492 41.249 67.0977
q9.89941 40.1494 56.0986 40.1494q39.5986 0 52.7988 -36.2988q13.1992 -36.2998 13.1992 -60.499q0 -34.0996 -28.0488 -81.3984q-28.0498 -47.2988 -84.1484 -47.2988q-34.0996 0 -58.2988 23.0996t-24.1992 46.1992zM563 2277.28q0 22 31.3496 48.9492
q31.3486 26.9492 41.249 56.0986q9.89941 29.1494 56.0986 29.1494q39.5986 0 52.7988 -25.2998q13.1992 -25.2998 13.1992 -49.499q0 -34.0996 -27.499 -81.3984t-84.6982 -47.2988q-34.0996 0 -58.2988 23.0996t-24.1992 46.1992z" />
    <glyph glyph-name="fraction" unicode="&#x2044;" horiz-adv-x="730" 
d="M896 1897q42 -24 47 -49q-8 -51 -100.5 -204.5t-346 -592t-366 -635t-186 -268t-111.5 -86.5q-23 9 -23 46q0 6 1 14q46 59 173 290.5t229.5 403t274 468.5t262.5 454.5t146 158.5z" />
    <glyph glyph-name="Euro" unicode="&#x20ac;" horiz-adv-x="1920" 
d="M1719 254q-129 -122 -270 -183t-231.5 -76.5t-197.5 -15.5q-114 0 -263 63t-256 213t-117 414q-73 -3 -139 -13q-48 15 -54 53q30 19 89 31.5t112 17.5q8 52 17 115q-99 -9 -183 -24q-48 13 -57 50q28 20 87.5 34t172.5 28q24 99 111.5 244t226 267t283 175.5t312.5 53.5
q158 0 361 -113l7 -53q-268 114 -457.5 90t-325 -126t-215 -231t-115.5 -294l329 9q16 0 68 -0.5t57.5 -15.5t7.5 -41q0 -13 -31 -21t-89 -10.5t-140.5 -4.5t-215.5 -11q-4 -55 -10 -106v-1q4 1 8 1q122 -1 212.5 -2t134 -2t95.5 -4t56 -17.5t3.5 -35t-32.5 -28t-90 -7.5
t-140 0.5t-252 -4.5q-15 -187 100 -355.5t325 -199.5t355.5 9.5t319.5 163.5z" />
    <glyph glyph-name="guilsinglleft" unicode="&#x2039;" horiz-adv-x="1076" 
d="M235 539q146 50 222.5 104.5t158.5 156.5l53 -15q-55 -91 -112.5 -157.5t-97.5 -92.5q48 -26 111.5 -101t98.5 -205q0 -38 -108 -47q-49 126 -116 188t-210 140v29z" />
    <glyph glyph-name="guilsinglright" unicode="&#x203a;" horiz-adv-x="1128" 
d="M863 455q-146 -50 -222 -104.5t-159 -156.5l-53 15q56 91 113.5 157.5t96.5 92.5q-47 26 -111 101t-99 205q0 38 109 47q48 -126 115.5 -188t209.5 -140v-29z" />
    <glyph glyph-name="fi" unicode="&#xba;" horiz-adv-x="848" 
d="M396 1719q7 -112 60.5 -111.5t92 79.5t20.5 163.5t-59 93.5t-81 -52t-33 -173zM268 1702q6 112 17 168.5t53.5 97t79.5 67.5t81 27q7 0 16 -1q59 -32 102 -47q36 -14 36 -54q0 -8 -5 -39t-6 -112.5t-16 -126.5t-60.5 -116t-120.5 -84q-73 6 -119.5 46t-57.5 174z" />
    <glyph glyph-name="fi" unicode="&#xfb01;" horiz-adv-x="848" 
d="M396 1719q7 -112 60.5 -111.5t92 79.5t20.5 163.5t-59 93.5t-81 -52t-33 -173zM268 1702q6 112 17 168.5t53.5 97t79.5 67.5t81 27q7 0 16 -1q59 -32 102 -47q36 -14 36 -54q0 -8 -5 -39t-6 -112.5t-16 -126.5t-60.5 -116t-120.5 -84q-73 6 -119.5 46t-57.5 174z" />
    <glyph glyph-name="fi" unicode="&#xf001;" horiz-adv-x="848" 
d="M396 1719q7 -112 60.5 -111.5t92 79.5t20.5 163.5t-59 93.5t-81 -52t-33 -173zM268 1702q6 112 17 168.5t53.5 97t79.5 67.5t81 27q7 0 16 -1q59 -32 102 -47q36 -14 36 -54q0 -8 -5 -39t-6 -112.5t-16 -126.5t-60.5 -116t-120.5 -84q-73 6 -119.5 46t-57.5 174z" />
    <glyph glyph-name="fi" unicode="&#x2272;" horiz-adv-x="848" 
d="M396 1719q7 -112 60.5 -111.5t92 79.5t20.5 163.5t-59 93.5t-81 -52t-33 -173zM268 1702q6 112 17 168.5t53.5 97t79.5 67.5t81 27q7 0 16 -1q59 -32 102 -47q36 -14 36 -54q0 -8 -5 -39t-6 -112.5t-16 -126.5t-60.5 -116t-120.5 -84q-73 6 -119.5 46t-57.5 174z" />
    <glyph glyph-name="fl" unicode="&#xaa;" horiz-adv-x="966" 
d="M551 1742q-31 36 -115 38t-113 -37.5t-13 -97t75.5 -72.5t107 38t58.5 131zM855 1499q-56 -24 -115 -24q-50 0 -94 32.5t-50 122.5q-92 -152 -216 -152q-108 0 -151 63t-43 123q0 46 28 85t79 59t122 21.5t141 -26.5q-5 57 -7.5 104t-25.5 70t-99.5 24t-79 -42t-38 -55
t-54.5 -4.5t-21 38t28 70t83 48.5t76 9q59 0 123.5 -17t99.5 -70.5t40.5 -147t20 -175.5t47.5 -106t98 -9z" />
    <glyph glyph-name="fl" unicode="&#xfb02;" horiz-adv-x="966" 
d="M551 1742q-31 36 -115 38t-113 -37.5t-13 -97t75.5 -72.5t107 38t58.5 131zM855 1499q-56 -24 -115 -24q-50 0 -94 32.5t-50 122.5q-92 -152 -216 -152q-108 0 -151 63t-43 123q0 46 28 85t79 59t122 21.5t141 -26.5q-5 57 -7.5 104t-25.5 70t-99.5 24t-79 -42t-38 -55
t-54.5 -4.5t-21 38t28 70t83 48.5t76 9q59 0 123.5 -17t99.5 -70.5t40.5 -147t20 -175.5t47.5 -106t98 -9z" />
    <glyph glyph-name="fl" unicode="&#xf002;" horiz-adv-x="966" 
d="M551 1742q-31 36 -115 38t-113 -37.5t-13 -97t75.5 -72.5t107 38t58.5 131zM855 1499q-56 -24 -115 -24q-50 0 -94 32.5t-50 122.5q-92 -152 -216 -152q-108 0 -151 63t-43 123q0 46 28 85t79 59t122 21.5t141 -26.5q-5 57 -7.5 104t-25.5 70t-99.5 24t-79 -42t-38 -55
t-54.5 -4.5t-21 38t28 70t83 48.5t76 9q59 0 123.5 -17t99.5 -70.5t40.5 -147t20 -175.5t47.5 -106t98 -9z" />
    <glyph glyph-name="fl" unicode="&#x2273;" horiz-adv-x="966" 
d="M551 1742q-31 36 -115 38t-113 -37.5t-13 -97t75.5 -72.5t107 38t58.5 131zM855 1499q-56 -24 -115 -24q-50 0 -94 32.5t-50 122.5q-92 -152 -216 -152q-108 0 -151 63t-43 123q0 46 28 85t79 59t122 21.5t141 -26.5q-5 57 -7.5 104t-25.5 70t-99.5 24t-79 -42t-38 -55
t-54.5 -4.5t-21 38t28 70t83 48.5t76 9q59 0 123.5 -17t99.5 -70.5t40.5 -147t20 -175.5t47.5 -106t98 -9z" />
    <glyph glyph-name="divide" unicode="&#xf7;" horiz-adv-x="1561" 
d="M365.803 501.589q0 14.2998 4.80078 19.7998q4.7998 5.5 31.7998 8.25t85.8008 4.94922q58.8008 2.2002 133.802 4.40039q75.001 2.19922 197.401 9.89941q122.401 7.7002 218.402 26.3994t180.002 34.0996q49.2002 -13.2002 58.8008 -51.6992
q-28.7998 -20.8994 -94.2012 -31.3496q-65.4004 -10.4492 -130.801 -31.3486q-65.4014 -20.8994 -188.402 -34.0996q-123.001 -13.1992 -205.802 -15.3994t-153.602 -2.2002q-18 0 -71.4014 0.549805q-53.4004 0.550781 -58.7998 15.4004q-5.40039 14.8496 -7.80078 42.3486
zM820.11 669.2q-76.5029 41.4014 -59.8516 76.0518q16.6504 34.6514 -38.251 75.1523q8.09961 67.502 137.703 71.1016q85.502 -19.8008 92.7031 -92.7021q-9.90039 -81.0029 -38.252 -103.503q-28.3506 -22.501 -94.0518 -26.1006zM680.11 30.2002
q-76.5029 41.4014 -59.8516 76.0518q16.6504 34.6514 -38.251 75.1523q8.09961 67.502 137.703 71.1016q85.502 -19.8008 92.7031 -92.7021q-9.90039 -81.0029 -38.252 -103.503q-28.3506 -22.501 -94.0518 -26.1006z" />
    <glyph glyph-name="lozenge" unicode="&#x25ca;" horiz-adv-x="1924" 
d="M979 1595q63 77 87.5 167.5t-25 136.5t-93 33t-60.5 -63.5t1 -101t90 -172.5zM945 444q-66 -85 -99 -176.5t17 -151t113.5 -42.5t79.5 66.5t-8 118.5t-103 185zM1434 1032q68 -80 139 -93.5t102.5 23.5t11 72.5t-61.5 52.5t-89 5.5t-102 -60.5zM502 1023q-59 67 -130 74
t-103.5 -20.5t-14 -71.5t57.5 -54.5t78 -0.5t112 73zM936 1457q-115 -166 -183.5 -259t-139.5 -147q101 -115 206 -250.5t163 -220.5q159 233 223 309t94 109q-121 111 -209.5 231.5t-153.5 227.5zM579 1095q57 43 119 130t205 283q-102 159 -124.5 227.5t5 148t92.5 108.5
t105 29q38 0 90.5 -29t73 -100t-14.5 -147.5t-118 -204.5q60 -88 139 -202.5t238 -259.5q63 57 129.5 73t128 -7t87 -71t25.5 -81q0 -31 -30 -83t-88.5 -72t-121.5 0t-164 125q-54 -57 -124.5 -146.5t-205.5 -286.5q120 -165 143.5 -245t-15.5 -152t-103 -101t-103 -29
q-41 0 -96 31.5t-78 110.5t14 162.5t118 194.5q-35 57 -90 132t-104 137t-166 208q-92 -68 -155 -79.5t-113.5 7t-70 62t-19.5 69.5q0 32 24 75.5t85.5 76.5t132.5 11t150 -105z" />
    <glyph glyph-name="daggerdbl" unicode="&#x2021;" horiz-adv-x="1737" 
d="M865 1927q-33 -56 -41 -106.5t-2.5 -110.5t35.5 -119q30 51 38.5 104.5t7 112.5t-37.5 119zM200 1296q65 -33 160.5 -34t174.5 36q-53 22 -106.5 39.5t-119 8t-109.5 -49.5zM1496 1305q-118 55 -204.5 37t-128.5 -41q68 -24 113 -27.5t96 0t124 31.5zM849 123
q33 56 36 106.5t0 95.5t-28 114q-23 -43 -35 -90.5t-18 -86.5t45 -139zM1520 746q-71 46 -178.5 45t-162.5 -38q45 -35 155.5 -38t185.5 31zM218 749q68 -47 132 -47.5t111.5 12t89.5 35.5q-83 44 -172.5 40t-160.5 -40zM832 584q-38 0 -91.5 28.5t-76.5 101.5
q-119 -49 -211.5 -73t-187.5 6.5t-150 106.5q109 76 190.5 93.5t175.5 -0.5t171 -36q5 41 72 38.5t69 171.5t-63 176t-70 44q-98 -24 -185 -38t-183.5 -5.5t-190.5 95.5q55 65 151.5 99.5t181.5 16.5t235 -83q26 83 74 110t75 27q-30 104 -50.5 181t-20.5 117t19 117.5
t99 169.5q75 -80 95.5 -137.5t20.5 -99t-12.5 -125t-73.5 -223.5q38 0 91.5 -27t76.5 -100q166 75 260.5 76t161.5 -23t127 -93q-96 -76 -189 -90.5t-182 0.5t-166 33q-5 -41 -72 -43.5t-69 -176.5t63 -171t70 -39q98 24 181 40.5t186 -2t192 -90.5q-45 -70 -162.5 -101.5
t-215 -5t-190.5 73.5q-26 -83 -74 -111.5t-75 -28.5q28 -121 52 -205.5t1 -181t-100 -195.5q-73 52 -113 139.5t-6 199t89 243.5z" />
    <glyph glyph-name="periodcentered" unicode="&#xb7;" horiz-adv-x="990" 
d="M510 818q101 -24 109 -109q-12 -95 -45 -121.5t-110 -30.5q-90 49 -70.5 89.5t-44.5 87.5q9 79 161 84z" />
    <glyph glyph-name="periodcentered" unicode="&#x2219;" horiz-adv-x="990" 
d="M510 818q101 -24 109 -109q-12 -95 -45 -121.5t-110 -30.5q-90 49 -70.5 89.5t-44.5 87.5q9 79 161 84z" />
    <glyph glyph-name="quotesinglbase" unicode="&#x201a;" horiz-adv-x="827" 
d="M231 -367q80 28 147 82t88 136t-17 99t-49.5 60.5t21.5 82t83 38.5t75.5 -30.5t25.5 -73.5q0 -63 -18 -122.5t-70 -130.5t-113 -110t-101 -50t-56 -11t-16 30z" />
    <glyph glyph-name="quotedblbase" unicode="&#x201e;" horiz-adv-x="1140" 
d="M749 131q50 0 75.5 -30.5t25.5 -73.5q0 -63 -18 -122.5t-70 -130.5t-113 -110t-101 -50t-56 -11t-16 30q80 28 147 82t88 136t-17 99t-49.5 60.5t21.5 82t83 38.5zM504 131q50 0 75.5 -30.5t25.5 -73.5q0 -63 -18 -122.5t-70 -130.5t-113 -110t-101 -50t-56 -11t-16 30
q80 28 147 82t88 136t-17 99t-49.5 60.5t21.5 82t83 38.5z" />
    <glyph glyph-name="perthousand" unicode="&#x2030;" horiz-adv-x="2385" 
d="M1199 491q-79 -114 -83.5 -237t30.5 -121.5t64 109.5q-5 134 -11 249zM1433 764q-57 -23 -78 -52t-23 -62.5t33 -56t115 -28t168 9.5t173 45.5t108 54t65.5 29.5t61.5 -14t25 -86.5t6 -126.5q0 -52 -5 -150.5t-30 -179t-75 -110t-99 -29.5q-40 0 -80.5 27.5t-55.5 107
t27.5 209.5t113.5 245q-123 -52 -210.5 -75t-190.5 -30.5t-202 28.5q34 -185 21.5 -300.5t-59 -163t-128.5 -42.5t-105 56.5t-23 149.5t40.5 202t87.5 188t114 141t114 60t91 -47zM1977 522q-77 -96 -104 -190t-16 -164.5t42.5 -73t59.5 31t43 107t12.5 146t-37.5 143.5z
M485 1582q-55 -63 -70 -141.5t-11.5 -129t21.5 -69.5t61 -10.5t81.5 66.5t38.5 115.5t-3.5 89.5t-28.5 57.5t-89 21.5zM1471 1871q-6 -73 -113 -258.5t-186 -316t-242.5 -453t-256 -500t-159 -245t-102.5 -83.5q-28 7 -28 49q40 54 143 264t224.5 429t292.5 540
q89 166 151 285q-28 -33 -59 -60q-101 -90 -208.5 -95t-233.5 71q14 -92 -18.5 -181.5t-96.5 -132.5t-132 -50q-45 0 -95.5 24t-82.5 95t-32 151t52 146t130 98.5t100.5 57.5t93.5 25q31 -63 94 -123t146 -91t157 -3.5t141.5 92.5t143 181.5t124.5 121.5q44 -17 52 -38z" />
    <glyph glyph-name="Acircumflex" unicode="&#xc2;" horiz-adv-x="2612" 
d="M3692 1524q-284 91 -403.5 125t-329 68t-556 30.5t-633.5 -70t-595 -213.5t-523.5 -372t-253 -477t93.5 -422.5t354 -189t460 45t468 233.5q-20 147 4 292.5t64 222.5t81 113t164 34q-23 -225 -69.5 -372t-126.5 -293q-14 -82 83.5 -129.5t275 5.5t362.5 196h60
q-150 -163 -314.5 -252.5t-317 -84.5t-243.5 198q-171 -128 -399.5 -218t-343 -105t-214.5 -15q-128 0 -276.5 40t-256.5 161t-135 347q0 145 36 266t167 296t395.5 352t536.5 283t542 156t544 50q366 0 590.5 -41.5t425 -109.5t284.5 -113zM1786.99 2157.18
q-34.0986 -28.5986 -69.2979 -41.7988t-71.499 -19.249q-36.2988 -6.05078 -55.5488 2.19922q-19.249 8.25 -38.498 80.8486q-19.25 72.5986 -38.5 113.298q-19.249 40.6982 -29.1494 45.0986q-9.89941 4.39941 -37.3984 -19.25q-27.5 -23.6494 -80.2988 -83.0479
t-84.1475 -102.848q-31.3496 -43.4492 -58.8496 -54.4492l-30.7988 28.5996q48.3984 70.3984 109.998 142.997q61.5977 72.5986 114.947 132.547q53.3486 59.9482 110.547 59.9482q72.5986 0 102.848 -65.4482q30.25 -65.4482 51.6992 -117.147t28.5996 -69.2988
q7.14941 -17.5996 58.8486 -6.59961z" />
    <glyph glyph-name="Ecircumflex" unicode="&#xca;" horiz-adv-x="1908" 
d="M1109 1294q141 198 190 300t74.5 235t-12 212.5t-109.5 100.5t-187 -63t-154.5 -240.5t-18.5 -313.5t105 -250zM1155 1234l-57 -51q49 -39 128.5 -79t170.5 -72t164 -26.5t114.5 62.5t-0.5 101.5t-191.5 70.5t-328.5 -6zM916 1198q-240 -52 -360.5 -150.5t-160 -195
t-38.5 -214.5q225 149 372 276t247 238zM1387 158q61 102 49 221t-98 189.5t-210 82t-219.5 -52t-83.5 -159t93.5 -166.5t177 -101.5t291.5 -13.5zM1968 351q-81 -91 -229 -161.5t-294 -84.5q-87 -70 -209 -105.5t-304 -35.5q-141 0 -323 63.5t-285 186.5t-126 247
q-89 -43 -202.5 -93.5t-256.5 -80.5l-9 42q138 48 229.5 87t225.5 125q5 106 34.5 200.5t120.5 202t217.5 182t313.5 121.5q-93 132 -119 248.5t16 270.5t107.5 243t156.5 142.5t227 58.5q103 -19 147.5 -91.5t53.5 -182t-51.5 -278t-210.5 -360.5q103 19 250.5 7.5
t236.5 -63.5q80 -46 80 -118q-10 -97 -80.5 -132t-185 -28t-243 52.5t-217.5 104.5q-139 -158 -237 -239.5t-185 -145.5t-245 -171q43 -186 127.5 -290.5t216.5 -165.5t293 -61t319 55q-184 -14 -309 20.5t-214.5 119t-100.5 176t49.5 162.5t177 113t241 21.5t217.5 -93.5
t114 -194t-38 -263q123 21 223 58.5t220 127.5h60zM1434.01 2428q-37.2002 -26 -75.6006 -38t-78.001 -17.5t-60.6006 2t-42.001 73.5q-21 66 -42 103t-31.8008 41q-10.7998 4 -40.7998 -17.5q-30.001 -21.5 -87.6016 -75.5t-91.8008 -93.5t-64.2002 -49.5l-33.6006 26
q52.8008 64 120.001 130q67.2012 66 125.401 120.5q58.2012 54.5 120.602 54.5q79.2012 0 112.201 -59.5t56.4004 -106.5t31.2002 -63t64.2002 -6z" />
    <glyph glyph-name="Aacute" unicode="&#xc1;" horiz-adv-x="2612" 
d="M3692 1524q-284 91 -403.5 125t-329 68t-556 30.5t-633.5 -70t-595 -213.5t-523.5 -372t-253 -477t93.5 -422.5t354 -189t460 45t468 233.5q-20 147 4 292.5t64 222.5t81 113t164 34q-23 -225 -69.5 -372t-126.5 -293q-14 -82 83.5 -129.5t275 5.5t362.5 196h60
q-150 -163 -314.5 -252.5t-317 -84.5t-243.5 198q-171 -128 -399.5 -218t-343 -105t-214.5 -15q-128 0 -276.5 40t-256.5 161t-135 347q0 145 36 266t167 296t395.5 352t536.5 283t542 156t544 50q366 0 590.5 -41.5t425 -109.5t284.5 -113zM1265 2080.68
q38.499 33 98.998 79.1992q60.498 46.1982 101.197 97.3477q40.6992 51.1484 66.5488 112.197t91.8477 61.0488q58.2988 0 58.2988 -58.2988q0 -85.7988 -100.098 -168.847t-291.493 -152.347z" />
    <glyph glyph-name="Edieresis" unicode="&#xcb;" horiz-adv-x="1908" 
d="M1109 1294q141 198 190 300t74.5 235t-12 212.5t-109.5 100.5t-187 -63t-154.5 -240.5t-18.5 -313.5t105 -250zM1155 1234l-57 -51q49 -39 128.5 -79t170.5 -72t164 -26.5t114.5 62.5t-0.5 101.5t-191.5 70.5t-328.5 -6zM916 1198q-240 -52 -360.5 -150.5t-160 -195
t-38.5 -214.5q225 149 372 276t247 238zM1387 158q61 102 49 221t-98 189.5t-210 82t-219.5 -52t-83.5 -159t93.5 -166.5t177 -101.5t291.5 -13.5zM1968 351q-81 -91 -229 -161.5t-294 -84.5q-87 -70 -209 -105.5t-304 -35.5q-141 0 -323 63.5t-285 186.5t-126 247
q-89 -43 -202.5 -93.5t-256.5 -80.5l-9 42q138 48 229.5 87t225.5 125q5 106 34.5 200.5t120.5 202t217.5 182t313.5 121.5q-93 132 -119 248.5t16 270.5t107.5 243t156.5 142.5t227 58.5q103 -19 147.5 -91.5t53.5 -182t-51.5 -278t-210.5 -360.5q103 19 250.5 7.5
t236.5 -63.5q80 -46 80 -118q-10 -97 -80.5 -132t-185 -28t-243 52.5t-217.5 104.5q-139 -158 -237 -239.5t-185 -145.5t-245 -171q43 -186 127.5 -290.5t216.5 -165.5t293 -61t319 55q-184 -14 -309 20.5t-214.5 119t-100.5 176t49.5 162.5t177 113t241 21.5t217.5 -93.5
t114 -194t-38 -263q123 21 223 58.5t220 127.5h60zM1212.29 2470.28q0 22 31.3486 48.9492q31.3496 26.9492 41.25 67.0977q9.89941 40.1494 56.0986 40.1494q39.5986 0 52.7988 -36.2988q13.1992 -36.2998 13.1992 -60.499q0 -34.0996 -28.0488 -81.3984
q-28.0498 -47.2988 -84.1484 -47.2988q-34.0996 0 -58.2988 23.0996t-24.1992 46.1992zM934 2470.28q0 22 31.3496 48.9492q31.3486 26.9492 41.249 56.0986q9.89941 29.1494 56.0986 29.1494q39.5986 0 52.7988 -25.2998q13.1992 -25.2998 13.1992 -49.499
q0 -34.0996 -27.499 -81.3984t-84.6982 -47.2988q-34.0996 0 -58.2988 23.0996t-24.1992 46.1992z" />
    <glyph glyph-name="Egrave" unicode="&#xc8;" horiz-adv-x="1908" 
d="M1109 1294q141 198 190 300t74.5 235t-12 212.5t-109.5 100.5t-187 -63t-154.5 -240.5t-18.5 -313.5t105 -250zM1155 1234l-57 -51q49 -39 128.5 -79t170.5 -72t164 -26.5t114.5 62.5t-0.5 101.5t-191.5 70.5t-328.5 -6zM916 1198q-240 -52 -360.5 -150.5t-160 -195
t-38.5 -214.5q225 149 372 276t247 238zM1387 158q61 102 49 221t-98 189.5t-210 82t-219.5 -52t-83.5 -159t93.5 -166.5t177 -101.5t291.5 -13.5zM1968 351q-81 -91 -229 -161.5t-294 -84.5q-87 -70 -209 -105.5t-304 -35.5q-141 0 -323 63.5t-285 186.5t-126 247
q-89 -43 -202.5 -93.5t-256.5 -80.5l-9 42q138 48 229.5 87t225.5 125q5 106 34.5 200.5t120.5 202t217.5 182t313.5 121.5q-93 132 -119 248.5t16 270.5t107.5 243t156.5 142.5t227 58.5q103 -19 147.5 -91.5t53.5 -182t-51.5 -278t-210.5 -360.5q103 19 250.5 7.5
t236.5 -63.5q80 -46 80 -118q-10 -97 -80.5 -132t-185 -28t-243 52.5t-217.5 104.5q-139 -158 -237 -239.5t-185 -145.5t-245 -171q43 -186 127.5 -290.5t216.5 -165.5t293 -61t319 55q-184 -14 -309 20.5t-214.5 119t-100.5 176t49.5 162.5t177 113t241 21.5t217.5 -93.5
t114 -194t-38 -263q123 21 223 58.5t220 127.5h60zM1136.59 2291.98q-191.396 69.2988 -291.494 152.347t-100.098 168.847q0 58.2988 58.2988 58.2988q65.998 0 90.1982 -59.3984q24.1992 -59.3994 67.6484 -111.098q43.4482 -51.6992 103.947 -96.7988
q60.499 -45.0986 96.7979 -82.498z" />
    <glyph glyph-name="Iacute" unicode="&#xcd;" horiz-adv-x="3096" 
d="M2629 803q112 304 139 702.5t-61.5 552.5t-196 162t-185.5 -133.5t-78 -327t99 -425.5t283 -531zM2135 173q-490 -30 -831.5 -32t-493.5 28q-68 -24 -63 -68q334 -73 614 -70.5t484 40t290 102.5zM3146 351q-12 -29 -115.5 -62t-265 -63.5t-415.5 -48.5
q-148 -99 -396.5 -158t-584.5 -59q-362 0 -604.5 60t-352 99.5t-177.5 89t-68 70.5q0 26 26 41.5t136 15.5t206.5 -36.5t250.5 -59t487 -33.5t938 25q264 216 381 488q-215 295 -324.5 567t-115 434t44.5 287t133.5 193t182.5 84q84 0 162.5 -44.5t146 -162t75.5 -337
t-34.5 -491.5t-147.5 -562q68 -81 131.5 -153t196.5 -186l-16 -12q-186 91 -350 279q-70 -156 -271 -374q201 11 390 38t300 71h50zM2186 2389.68q38.499 33 98.998 79.1992q60.498 46.1982 101.197 97.3477q40.6992 51.1484 66.5488 112.197t91.8477 61.0488
q58.2988 0 58.2988 -58.2988q0 -85.7988 -100.098 -168.847t-291.494 -152.347z" />
    <glyph glyph-name="Icircumflex" unicode="&#xce;" horiz-adv-x="3096" 
d="M2629 803q112 304 139 702.5t-61.5 552.5t-196 162t-185.5 -133.5t-78 -327t99 -425.5t283 -531zM2135 173q-490 -30 -831.5 -32t-493.5 28q-68 -24 -63 -68q334 -73 614 -70.5t484 40t290 102.5zM3146 351q-12 -29 -115.5 -62t-265 -63.5t-415.5 -48.5
q-148 -99 -396.5 -158t-584.5 -59q-362 0 -604.5 60t-352 99.5t-177.5 89t-68 70.5q0 26 26 41.5t136 15.5t206.5 -36.5t250.5 -59t487 -33.5t938 25q264 216 381 488q-215 295 -324.5 567t-115 434t44.5 287t133.5 193t182.5 84q84 0 162.5 -44.5t146 -162t75.5 -337
t-34.5 -491.5t-147.5 -562q68 -81 131.5 -153t196.5 -186l-16 -12q-186 91 -350 279q-70 -156 -271 -374q201 11 390 38t300 71h50zM2765 2503q-31 -26 -63 -38t-65 -17.5t-50.5 2t-35 73.5t-35 103t-26.5 41t-34 -17.5t-73 -75.5t-76.5 -93.5t-53.5 -49.5l-28 26
q44 64 100 130t104.5 120.5t100.5 54.5q66 0 93.5 -59.5t47 -106.5t26 -63t53.5 -6z" />
    <glyph glyph-name="Idieresis" unicode="&#xcf;" horiz-adv-x="3096" 
d="M2629 803q112 304 139 702.5t-61.5 552.5t-196 162t-185.5 -133.5t-78 -327t99 -425.5t283 -531zM2135 173q-490 -30 -831.5 -32t-493.5 28q-68 -24 -63 -68q334 -73 614 -70.5t484 40t290 102.5zM3146 351q-12 -29 -115.5 -62t-265 -63.5t-415.5 -48.5
q-148 -99 -396.5 -158t-584.5 -59q-362 0 -604.5 60t-352 99.5t-177.5 89t-68 70.5q0 26 26 41.5t136 15.5t206.5 -36.5t250.5 -59t487 -33.5t938 25q264 216 381 488q-215 295 -324.5 567t-115 434t44.5 287t133.5 193t182.5 84q84 0 162.5 -44.5t146 -162t75.5 -337
t-34.5 -491.5t-147.5 -562q68 -81 131.5 -153t196.5 -186l-16 -12q-186 91 -350 279q-70 -156 -271 -374q201 11 390 38t300 71h50zM2558.29 2500.28q0 22 31.3486 48.9492q31.3496 26.9492 41.25 67.0977q9.89941 40.1494 56.0986 40.1494q39.5986 0 52.7988 -36.2988
q13.1992 -36.2998 13.1992 -60.499q0 -34.0996 -28.0488 -81.3984q-28.0498 -47.2988 -84.1484 -47.2988q-34.0986 0 -58.2988 23.0996q-24.1992 23.0996 -24.1992 46.1992zM2280 2500.28q0 22 31.3496 48.9492t41.249 56.0986t56.0986 29.1494q39.5996 0 52.7988 -25.2998
t13.1992 -49.499q0 -34.0996 -27.499 -81.3984t-84.6982 -47.2988q-34.0996 0 -58.2988 23.0996t-24.1992 46.1992z" />
    <glyph glyph-name="Igrave" unicode="&#xcc;" horiz-adv-x="3096" 
d="M2629 803q112 304 139 702.5t-61.5 552.5t-196 162t-185.5 -133.5t-78 -327t99 -425.5t283 -531zM2135 173q-490 -30 -831.5 -32t-493.5 28q-68 -24 -63 -68q334 -73 614 -70.5t484 40t290 102.5zM3146 351q-12 -29 -115.5 -62t-265 -63.5t-415.5 -48.5
q-148 -99 -396.5 -158t-584.5 -59q-362 0 -604.5 60t-352 99.5t-177.5 89t-68 70.5q0 26 26 41.5t136 15.5t206.5 -36.5t250.5 -59t487 -33.5t938 25q264 216 381 488q-215 295 -324.5 567t-115 434t44.5 287t133.5 193t182.5 84q84 0 162.5 -44.5t146 -162t75.5 -337
t-34.5 -491.5t-147.5 -562q68 -81 131.5 -153t196.5 -186l-16 -12q-186 91 -350 279q-70 -156 -271 -374q201 11 390 38t300 71h50zM2625.59 2359.98q-191.396 69.2988 -291.494 152.347t-100.098 168.847q0 58.2988 58.2988 58.2988q65.998 0 90.1973 -59.3984
q24.2002 -59.3994 67.6494 -111.098q43.4482 -51.6992 103.947 -96.7988q60.499 -45.0986 96.7979 -82.498z" />
    <glyph glyph-name="Oacute" unicode="&#xd3;" horiz-adv-x="2730" 
d="M978 330q-218 90 -292.5 205t-76 227.5t66 255t202.5 255t320 177.5t362.5 61t326 -50t298.5 -162t229 -281.5t60.5 -333t-141 -307.5t-300 -218.5t-374 -128.5t-531.5 -50q-277 0 -450 59t-291.5 157.5t-156 188.5t-37.5 195q0 100 27.5 230t166.5 315t331.5 316
t396.5 207.5t379 107.5t325 31q187 -7 312 -58t242.5 -157t140.5 -176l-50 -7q-102 143 -258.5 235.5t-366.5 101.5t-484 -68.5t-498 -228t-326.5 -339t-112.5 -342t50 -285t177.5 -220t340 -138.5t424 -38.5t446.5 97.5t375 221t147.5 284t-45 299t-214 279.5t-354 176
t-365 20.5t-305 -97.5t-230 -186.5t-120 -280t30.5 -289t232 -216zM975 1967.68q38.499 33 98.998 79.1982q60.498 46.1992 101.197 97.3486q40.6992 51.1484 66.5488 112.197t91.8477 61.0488q58.2988 0 58.2988 -58.2988q0 -85.7988 -100.098 -168.847t-291.493 -152.347z
" />
    <glyph glyph-name="Ocircumflex" unicode="&#xd4;" horiz-adv-x="2730" 
d="M978 330q-218 90 -292.5 205t-76 227.5t66 255t202.5 255t320 177.5t362.5 61t326 -50t298.5 -162t229 -281.5t60.5 -333t-141 -307.5t-300 -218.5t-374 -128.5t-531.5 -50q-277 0 -450 59t-291.5 157.5t-156 188.5t-37.5 195q0 100 27.5 230t166.5 315t331.5 316
t396.5 207.5t379 107.5t325 31q187 -7 312 -58t242.5 -157t140.5 -176l-50 -7q-102 143 -258.5 235.5t-366.5 101.5t-484 -68.5t-498 -228t-326.5 -339t-112.5 -342t50 -285t177.5 -220t340 -138.5t424 -38.5t446.5 97.5t375 221t147.5 284t-45 299t-214 279.5t-354 176
t-365 20.5t-305 -97.5t-230 -186.5t-120 -280t30.5 -289t232 -216zM1560.99 2066.18q-34.0986 -28.5986 -69.2979 -41.7988t-71.499 -19.249q-36.2988 -6.05078 -55.5488 2.19922q-19.249 8.25 -38.498 80.8486q-19.25 72.5986 -38.5 113.298
q-19.249 40.6982 -29.1494 45.0986q-9.89941 4.39941 -37.3984 -19.25q-27.5 -23.6494 -80.2988 -83.0479t-84.1475 -102.848q-31.3496 -43.4492 -58.8496 -54.4492l-30.7988 28.5996q48.3984 70.3984 109.998 142.997q61.5977 72.5986 114.947 132.547
q53.3486 59.9482 110.547 59.9482q72.5986 0 102.848 -65.4482q30.25 -65.4482 51.6992 -117.147t28.5996 -69.2988q7.14941 -17.5996 58.8486 -6.59961z" />
    <glyph glyph-name="Ograve" unicode="&#xd2;" horiz-adv-x="2730" 
d="M978 330q-218 90 -292.5 205t-76 227.5t66 255t202.5 255t320 177.5t362.5 61t326 -50t298.5 -162t229 -281.5t60.5 -333t-141 -307.5t-300 -218.5t-374 -128.5t-531.5 -50q-277 0 -450 59t-291.5 157.5t-156 188.5t-37.5 195q0 100 27.5 230t166.5 315t331.5 316
t396.5 207.5t379 107.5t325 31q187 -7 312 -58t242.5 -157t140.5 -176l-50 -7q-102 143 -258.5 235.5t-366.5 101.5t-484 -68.5t-498 -228t-326.5 -339t-112.5 -342t50 -285t177.5 -220t340 -138.5t424 -38.5t446.5 97.5t375 221t147.5 284t-45 299t-214 279.5t-354 176
t-365 20.5t-305 -97.5t-230 -186.5t-120 -280t30.5 -289t232 -216zM1426.59 1915.98q-191.396 69.2988 -291.494 152.347t-100.098 168.847q0 58.2988 58.2988 58.2988q65.998 0 90.1982 -59.3984q24.1992 -59.3994 67.6484 -111.098q43.4482 -51.6992 103.947 -96.7988
q60.499 -45.0986 96.7979 -82.498z" />
    <glyph glyph-name="Uacute" unicode="&#xda;" horiz-adv-x="2208" 
d="M568 1068q123 262 146.5 394.5t-46 181.5t-191.5 38.5t-221 -103t-84 -199t104.5 -175t291.5 -137.5zM670 500q213 85 266 174t27.5 141.5t-104.5 81t-180 59.5q-168 -320 -190 -508t87.5 -285.5t250 -71t233.5 114.5t197.5 259t137.5 307t74 370t90 429t144.5 262.5
t118.5 116t72 53.5q26 -33 21.5 -108.5t-28.5 -162t-129 -329t-187 -459.5t-95.5 -416t36 -345t146 -184t186 5t168.5 111t196 236h60q-102 -161 -187 -252t-183.5 -143t-187.5 -52q-48 0 -117.5 30.5t-125.5 100.5t-90 215t-25 259q-111 -209 -195.5 -307.5t-189.5 -146
t-251.5 -46.5t-239.5 82.5t-122 213.5t11 269t173 429l-64 22q-174 63 -271 145t-104 231q0 117 72 199q78 89 191.5 132t226.5 44t191 -43.5t100.5 -123.5t-27 -235.5t-152.5 -355.5q128 -36 195 -64.5t101.5 -69t35.5 -115.5t-68 -146.5t-281 -143.5zM1038 2145.68
q38.499 33 98.998 79.1992q60.498 46.1982 101.197 97.3477q40.6992 51.1484 66.5488 112.197t91.8477 61.0488q58.2988 0 58.2988 -58.2988q0 -85.7988 -100.098 -168.847t-291.493 -152.347z" />
    <glyph glyph-name="Ucircumflex" unicode="&#xdb;" horiz-adv-x="2208" 
d="M568 1068q123 262 146.5 394.5t-46 181.5t-191.5 38.5t-221 -103t-84 -199t104.5 -175t291.5 -137.5zM670 500q213 85 266 174t27.5 141.5t-104.5 81t-180 59.5q-168 -320 -190 -508t87.5 -285.5t250 -71t233.5 114.5t197.5 259t137.5 307t74 370t90 429t144.5 262.5
t118.5 116t72 53.5q26 -33 21.5 -108.5t-28.5 -162t-129 -329t-187 -459.5t-95.5 -416t36 -345t146 -184t186 5t168.5 111t196 236h60q-102 -161 -187 -252t-183.5 -143t-187.5 -52q-48 0 -117.5 30.5t-125.5 100.5t-90 215t-25 259q-111 -209 -195.5 -307.5t-189.5 -146
t-251.5 -46.5t-239.5 82.5t-122 213.5t11 269t173 429l-64 22q-174 63 -271 145t-104 231q0 117 72 199q78 89 191.5 132t226.5 44t191 -43.5t100.5 -123.5t-27 -235.5t-152.5 -355.5q128 -36 195 -64.5t101.5 -69t35.5 -115.5t-68 -146.5t-281 -143.5zM1481.99 2275.18
q-34.0986 -28.5986 -69.2979 -41.7988t-71.499 -19.249q-36.2988 -6.05078 -55.5488 2.19922q-19.249 8.25 -38.498 80.8486q-19.25 72.5986 -38.5 113.298q-19.249 40.6982 -29.1494 45.0986q-9.89941 4.39941 -37.3984 -19.25q-27.5 -23.6494 -80.2988 -83.0479
t-84.1475 -102.848q-31.3496 -43.4492 -58.8496 -54.4492l-30.7988 28.5996q48.3984 70.3984 109.998 142.997q61.5977 72.5986 114.947 132.547q53.3486 59.9482 110.547 59.9482q72.5986 0 102.848 -65.4482q30.25 -65.4482 51.6992 -117.147t28.5996 -69.2988
q7.14941 -17.5996 58.8486 -6.59961z" />
    <glyph glyph-name="Ugrave" unicode="&#xd9;" horiz-adv-x="2208" 
d="M568 1068q123 262 146.5 394.5t-46 181.5t-191.5 38.5t-221 -103t-84 -199t104.5 -175t291.5 -137.5zM670 500q213 85 266 174t27.5 141.5t-104.5 81t-180 59.5q-168 -320 -190 -508t87.5 -285.5t250 -71t233.5 114.5t197.5 259t137.5 307t74 370t90 429t144.5 262.5
t118.5 116t72 53.5q26 -33 21.5 -108.5t-28.5 -162t-129 -329t-187 -459.5t-95.5 -416t36 -345t146 -184t186 5t168.5 111t196 236h60q-102 -161 -187 -252t-183.5 -143t-187.5 -52q-48 0 -117.5 30.5t-125.5 100.5t-90 215t-25 259q-111 -209 -195.5 -307.5t-189.5 -146
t-251.5 -46.5t-239.5 82.5t-122 213.5t11 269t173 429l-64 22q-174 63 -271 145t-104 231q0 117 72 199q78 89 191.5 132t226.5 44t191 -43.5t100.5 -123.5t-27 -235.5t-152.5 -355.5q128 -36 195 -64.5t101.5 -69t35.5 -115.5t-68 -146.5t-281 -143.5zM1289.59 2092.98
q-191.396 69.2988 -291.494 152.347t-100.098 168.847q0 58.2988 58.2988 58.2988q65.998 0 90.1982 -59.3984q24.1992 -59.3994 67.6484 -111.098q43.4482 -51.6992 103.947 -96.7988q60.499 -45.0986 96.7979 -82.498z" />
    <glyph glyph-name="dotlessi" unicode="&#x131;" horiz-adv-x="654" 
d="M714 351q-63 -71 -133 -139t-143.5 -114.5t-142.5 -71t-141 -26.5q-81 2 -109.5 42.5t-46.5 86t-18 109.5q0 76 19.5 122.5t40.5 92t57.5 51.5t51 17t27.5 18t34 7q39 0 39 -38t-32 -83t-53.5 -111t0.5 -142t92.5 -73t146 44t135 95.5t116.5 112.5h60z" />
    <glyph glyph-name="circumflex" unicode="&#x2c6;" 
d="M540 782q-31 -26 -63 -38t-65 -17.5t-50.5 2t-35 73.5t-35 103t-26.5 41t-34 -17.5t-73 -75.5t-76.5 -93.5t-53.5 -49.5l-28 26q44 64 100 130t104.5 120.5t100.5 54.5q66 0 93.5 -59.5t47 -106.5t26 -63t53.5 -6z" />
    <glyph glyph-name="tilde" unicode="&#x2dc;" 
d="M124 740q-52 -3 -88 35.5t-36 70.5q0 40 17 71t52 51t91 21q23 0 71 -18.5t106.5 -69.5t112.5 -73.5t111.5 9t101.5 93.5l30 7q-20 -52 -45 -97.5t-72 -84.5t-115 -45q-42 0 -91 22.5t-95.5 70.5t-103 82.5t-81.5 5.5t-15.5 -74.5t51.5 -58.5z" />
    <glyph glyph-name="macron" unicode="&#xaf;" 
d="M33 948q134 1 247 -6t231.5 -8.5t193 13.5t120.5 32l14 -38q-76 -69 -163.5 -87t-177.5 -22.5t-151 -4.5q-48 0 -124.5 3.5t-222.5 7.5z" />
    <glyph glyph-name="macron" unicode="&#x2c9;" 
d="M33 948q134 1 247 -6t231.5 -8.5t193 13.5t120.5 32l14 -38q-76 -69 -163.5 -87t-177.5 -22.5t-151 -4.5q-48 0 -124.5 3.5t-222.5 7.5z" />
    <glyph glyph-name="breve" unicode="&#x2d8;" 
d="M533 1071q23 -7 23 -34q0 -61 -28.5 -129t-81.5 -118t-105.5 -65t-118.5 -15q-62 0 -113 29.5t-80 90t-29 134.5q27 28 72.5 23.5t56 -38t30 -68.5t55 -46.5t84.5 -5.5t94 35t65.5 68t29 68t16.5 47t30 24z" />
    <glyph glyph-name="dotaccent" unicode="&#x2d9;" 
d="M103 710q-52 2 -77.5 33t-25.5 65q0 26 22 65t76 39q53 0 75 -29.5t22 -70.5q0 -25 -15 -55t-77 -47z" />
    <glyph glyph-name="ring" unicode="&#x2da;" 
d="M312 1019q-87 -19 -117 -73t-14.5 -101t48 -57t61.5 5.5t46.5 54t13.5 88t-38 83.5zM259 1143q103 -13 154 -72.5t51 -147.5q0 -42 -32 -88.5t-87 -80.5t-160 -34q-57 0 -99.5 24.5t-64 59.5t-21.5 71q0 58 38.5 101t90.5 63.5t112.5 28t50.5 24.5t-43 24z" />
    <glyph glyph-name="cedilla" unicode="&#xb8;" 
d="M428 -9q-46 -45 -70 -70t-27.5 -39.5t53.5 -41t64.5 -55t7.5 -41.5q0 -36 -22.5 -79t-70 -71.5t-81 -33.5t-54.5 -5q-30 0 -72.5 8t-83.5 45t-56.5 77.5t-15.5 56.5t13 29t37 20.5t42 7.5t16 -18t-4.5 -40t3 -53t35 -46t67.5 -12t72 33.5t54 66.5t-8.5 68.5t-72 39.5
t-59 30.5t2.5 45.5t71 80q72 -3 159 -3z" />
    <glyph glyph-name="hungarumlaut" unicode="&#x2dd;" 
d="M24 710l-24 29q34 35 93.5 77.5t97.5 94t59 108.5t82 57q55 0 55 -56q0 -83 -92.5 -163t-270.5 -147zM269 695l-23 29q34 36 92 77.5t104 98.5t61 109t75 52q55 0 55 -56q0 -83 -93.5 -163t-270.5 -147z" />
    <glyph glyph-name="ogonek" unicode="&#x2db;" 
d="M118 -3q-22 -47 -34 -93t-0.5 -104t55.5 -97t117.5 -36t116.5 33l14 -10q-28 -61 -79.5 -95.5t-111.5 -34.5q-50 0 -101 27t-73 76.5t-22 139.5q0 65 88 195z" />
    <glyph glyph-name="caron" unicode="&#x2c7;" 
d="M0 969q31 26 63 38t65 17.5t50.5 -2t35 -73.5t35 -103t26.5 -41t34 17.5t73 75.5t76.5 93.5t53.5 49.5l28 -26q-44 -64 -100 -130t-104.5 -120.5t-100.5 -54.5q-66 0 -93.5 59.5t-47 106.5t-26 63t-53.5 6z" />
    <glyph glyph-name="Lslash" unicode="&#x141;" horiz-adv-x="1685" 
d="M1302 1116q-19 -43 -50 -91t-93.5 -106.5t-162 -100.5t-257.5 -59q-63 -181 -158 -465q145 0 256.5 -111.5t241.5 -292.5t202.5 -259t168.5 -114t235.5 -33.5t264 46.5t267.5 150t184 143v-37q-119 -108 -233 -186t-272.5 -134t-298.5 -56q-160 0 -274 35.5t-223 157
t-205 274.5t-174 246t-177 76q-119 -268 -188.5 -340.5t-121.5 -77.5t-62 23.5t-16 80.5q6 47 31.5 111.5t91.5 136.5t126.5 110.5t117 228t82.5 278.5q-110 -11 -203.5 -20.5t-130.5 -45t-23.5 -62t55.5 -31.5l2 -17q-63 -11 -96.5 -1t-47.5 30.5t-14 40.5q0 40 34 81
t119.5 67t176.5 40t158 22q12 41 24 81q52 173 78 303t67.5 267t90.5 233t90.5 124.5t103.5 33.5q47 -10 64.5 -81t0 -135t-43.5 -131t-54.5 -64.5t-13 57t18 83t-10.5 31t-57 -104t-90.5 -285t-126.5 -399.5q76 8 164.5 27.5t167.5 68.5t141 132z" />
    <glyph glyph-name="lslash" unicode="&#x142;" horiz-adv-x="744" 
d="M341 834q64 105 136 273l-86 -21q-53 -214 -50 -252zM513 1220q109 289 127.5 436t-26.5 130q-40 -12 -90 -143t-102 -396l-9 -44zM254 1050q-89 -20 -147 -68.5t-65 -129.5h-41q11 80 30 123t49 81t84.5 69t107.5 47q25 126 75 317t129.5 381.5t130.5 259t99 73.5
q48 -17 59.5 -137.5t-17.5 -346.5q-27 -211 -118 -484q65 9 130.5 25.5t94.5 33t32.5 41t-35.5 26.5l-4 16q27 10 57.5 0.5t30.5 -44.5t-25 -73.5t-92.5 -67.5t-124.5 -45t-103 -24q-87 -236 -308 -511q-57 -229 -50 -321t44.5 -139t123.5 -38.5t185.5 79.5t157.5 158h50
q-18 -62 -99.5 -149.5t-183 -145.5t-200.5 -58q-95 0 -140 81t-49 186.5t21 186.5l-83 -101h-60q68 73 117.5 164t75 176.5t50.5 280.5z" />
    <glyph glyph-name="Scaron" unicode="&#x160;" horiz-adv-x="2071" 
d="M1223 709q270 208 449.5 405.5t309.5 410.5t163.5 309t13 179t-93.5 112t-210.5 18.5t-296 -62.5t-330 -156t-278.5 -213t-157.5 -204.5t-75 -203t17.5 -217.5t158.5 -189.5t329.5 -188.5zM1155 569q-83 -47 -261 -174q152 -118 282 -227q169 41 217 77t50.5 86t-59.5 97
t-229 141zM698 335q-98 55 -161.5 46.5t-89 -66.5t50.5 -113zM1013 129q-89 72 -144 112t-102 63q-115 -72 -218 -144q118 -49 229 -54.5t235 23.5zM2131 351q-222 -224 -401.5 -307t-327.5 -81.5t-220.5 38t-119.5 76.5q-221 -53 -358.5 -34t-229.5 68
q-228 -145 -449 -316.5t-327.5 -301.5t-127 -270t31.5 -192t5 -94q-73 57 -99 120q-13 31 -13 79q0 49 13 113q26 130 135 265t236.5 244t537.5 390q-105 83 -74.5 190t160.5 148t328 -55q96 65 262 174q-192 91 -322 183.5t-185.5 223.5t-35 246.5t92 230t188 234
t267.5 215.5t320 163.5t314.5 88.5t244.5 21q93 -5 155.5 -36.5t88.5 -81t26 -106.5q-5 -52 -20.5 -127t-130 -272.5t-307 -424t-498.5 -485.5q228 -125 280.5 -183.5t49 -127t-81 -129.5t-307.5 -122q33 -31 131.5 -59.5t278 25t429.5 269.5h60zM1164 2618.88
q34.0996 28.5986 69.2988 41.7988q35.1992 13.1992 71.498 19.249t55.5488 -2.2002t38.499 -80.8477q19.25 -72.5986 38.499 -113.298q19.25 -40.6982 29.1494 -45.0986t37.3994 19.25q27.499 23.6484 80.2979 83.0479q52.7988 59.3984 84.1484 102.848
q31.3496 43.4482 58.8486 54.4482l30.7988 -28.5996q-48.3984 -70.3984 -109.997 -142.996q-61.5986 -72.5986 -114.947 -132.547q-53.3486 -59.9492 -110.548 -59.9492q-72.5986 0 -102.848 65.4492q-30.249 65.4482 -51.6992 117.146q-21.4492 51.6992 -28.5986 69.2988
q-7.15039 17.5996 -58.8486 6.59961z" />
    <glyph glyph-name="scaron" unicode="&#x161;" horiz-adv-x="648" 
d="M26 271q-15 -90 33 -147.5t108 -38t101 102t-20 320.5q-46 -52 -100 -116t-122 -121zM-124 368q28 32 90 33t57 -56q67 53 126 121t86 137q-13 37 0 84.5t55.5 77.5t73.5 30q33 0 64 -16.5t34 -59.5q-1 -26 -32.5 -71.5t-16.5 -111t23 -163.5t-34 -184.5t-119 -137
t-140 -54.5q-70 0 -134.5 37.5t-112.5 104.5t-49 134q0 64 29 95zM23 1152.12q27.9004 23.4004 56.7012 34.2002q28.8008 10.8008 58.502 15.751t45.4512 -1.7998q15.75 -6.75098 31.501 -66.1523q15.75 -59.4014 31.501 -92.7021q15.75 -33.3008 23.8506 -36.9014
q8.10059 -3.59961 30.6006 15.751q22.501 19.3506 65.7021 67.9512q43.2012 48.6016 68.8516 84.1523t48.1514 44.5518l25.2012 -23.4014q-39.6016 -57.6016 -90.0029 -117.003t-94.0527 -108.453q-43.6514 -49.0508 -90.4521 -49.0508q-59.4014 0 -84.1523 53.5508
q-24.751 53.5518 -42.3008 95.8535q-17.5508 42.3008 -23.4014 56.7012q-5.84961 14.4004 -48.1514 5.40039z" />
    <glyph glyph-name="Zcaron" unicode="&#x17d;" horiz-adv-x="1923" 
d="M541 394q-189 -19 -274.5 -130.5t-48 -135.5t180.5 127zM1549 962q-160 43 -283 67q-217 -227 -503 -541q50 -11 125 -45t162.5 -112.5t144 -157.5t135 -124.5t171.5 -34t193 95t229 241.5h60q-199 -292 -330 -373t-254 -81q-124 0 -231.5 54.5t-175.5 147.5
t-132.5 180.5t-191.5 102.5q-178 -185 -248 -253.5t-142 -102.5t-122 -17.5t-58 51.5t-8 64q0 58 29 121q43 96 179 185.5t337 84.5q283 256 528 536q-252 50 -564 39q-8 67 195 69t397 -30l35 -6q281 331 295 423q-151 -17 -342.5 -41.5t-440 -20t-322.5 52t-76 117.5
q2 60 58 98t140 38q14 0 76 -5l-2 -15q-115 -24 -86 -101t178 -101.5t451.5 9t367.5 70.5q-14 90 148 99q109 5 108.5 -57.5t-49.5 -149.5t-312 -354q-40 -40 -81 -82q152 -31 353 -77zM839 2190.88q34.0996 28.5986 69.2988 41.7988q35.1992 13.1992 71.498 19.249
t55.5488 -2.2002t38.499 -80.8477q19.25 -72.5986 38.499 -113.298q19.25 -40.6992 29.1494 -45.0986q9.89941 -4.40039 37.3994 19.25q27.499 23.6484 80.2979 83.0479q52.7988 59.3984 84.1484 102.848q31.3496 43.4482 58.8486 54.4482l30.7988 -28.5996
q-48.3984 -70.3984 -109.997 -142.996q-61.5986 -72.5986 -114.947 -132.547q-53.3486 -59.9492 -110.548 -59.9492q-72.5986 0 -102.848 65.4492q-30.249 65.4482 -51.6992 117.146q-21.4492 51.6992 -28.5986 69.2988q-7.15039 17.5996 -58.8486 6.59961z" />
    <glyph glyph-name="zcaron" unicode="&#x17e;" horiz-adv-x="980" 
d="M610 38q-140 -94 -246.5 -194.5t-147.5 -217.5t-3 -211t113.5 -101t175 39.5t167 155t53.5 254.5t-112 275zM1040 351q-76 -71 -145.5 -124.5t-174.5 -122.5q133 -156 135 -338.5t-82 -303.5t-203 -169.5t-222 -48.5q-119 0 -180 114.5t-25 243.5t132 235.5t296 243.5
q-48 70 -198 63q-36 -1 -85.5 -45.5t-128.5 -48.5t-79 40.5t37 90t95 44t102 12t87.5 60.5t52 130.5t-68 97t-151.5 -33t-174 -142.5h-60q110 116 209.5 202.5t180.5 86.5q69 0 117 -19t74.5 -79.5t-1 -144.5t-165.5 -168q133 -1 261 -88q143 85 304 212h60zM210 992.124
q27.9004 23.4004 56.7012 34.2002q28.8008 10.8008 58.502 15.751t45.4512 -1.7998q15.75 -6.75098 31.501 -66.1523q15.75 -59.4014 31.501 -92.7021q15.75 -33.3008 23.8506 -36.9014q8.10059 -3.59961 30.6006 15.751q22.501 19.3506 65.7021 67.9512
q43.2012 48.6016 68.8516 84.1523t48.1514 44.5518l25.2012 -23.4014q-39.6016 -57.6016 -90.0029 -117.003t-94.0527 -108.453q-43.6514 -49.0508 -90.4521 -49.0508q-59.4014 0 -84.1523 53.5508q-24.751 53.5518 -42.3008 95.8535q-17.5508 42.3008 -23.4014 56.7012
q-5.84961 14.4004 -48.1514 5.40039z" />
    <glyph glyph-name="brokenbar" unicode="&#xa6;" horiz-adv-x="2662" 
d="M1679 1230q136 50 247.5 153t162.5 234.5t48 259.5t-38.5 170t-106 -44.5t-166.5 -317.5t-147 -455zM1264 297q113 387 209 766q-172 -65 -401 -141q-60 -167 -176 -407q181 -138 368 -218zM550 729q-222 -97 -322.5 -189t-138.5 -182t-2 -159t134 -90t189 24.5
t183 125.5t179 236q-181 131 -222 234zM810 574q101 168 138 308q-178 -61 -300 -123q69 -132 162 -185zM612 849q132 59 373 141q71 241 87.5 423t-19 236.5t-83.5 54.5t-120 -44.5t-148.5 -158t-115.5 -273t26 -379.5zM1105 1027q189 49 401 132q114 423 197 600
t167 282.5t142 128t80 22.5t67.5 -35.5t74.5 -154t9 -253t-112.5 -274.5t-230.5 -228t-260 -120q-122 -372 -260 -838q9 -12 51 31t109.5 91.5t122 68t131.5 16t131.5 -52t106.5 -162.5t92.5 -155t119 -45t174 72t244.5 198h60q-149 -155 -234 -230t-154.5 -102t-120.5 -27
q-71 0 -154.5 26.5t-163 162t-105 167t-79 44.5t-118.5 -25t-141.5 -118t-107 -136.5t-50 -84t-60.5 -27.5q-17 0 -36 4q-26 18 -0.5 92.5t52.5 154.5q-196 60 -393 186q-123 -188 -228 -272.5t-200.5 -121t-160.5 -36.5q-49 0 -126 25t-117.5 93t-40.5 142q0 58 26.5 125
t129 177.5t376.5 234.5q-78 248 -31.5 442t144.5 320.5t209.5 189t194.5 41.5t124 -95.5t18 -281t-70 -394.5z" />
    <glyph glyph-name="Eth" unicode="&#xd0;" horiz-adv-x="1912" 
d="M815 1037q-36 91 -68 195q-43 -105 -79 -193zM638 963q-62 -158 -95 -255q130 44 189 -40.5t143 -271t137.5 -240t97 -68t114 13.5t194.5 228q-209 104 -341.5 265t-226.5 369zM1257 1035q35 -10 45 -42q-26 -30 -126 -31.5t-205 -1.5q33 -98 156 -275t331 -285
q127 274 73.5 530t-156 391t-215.5 204.5t-280 107.5q-27 -116 -20 -258.5t78 -336.5q74 1 140 -1.5t179 -1.5zM1972 351q-249 -186 -477 -63q-85 -141 -179.5 -220t-179 -89t-164.5 21t-143 128t-128.5 237t-116 193.5t-101.5 -21.5t-77.5 -167.5t-88 -239t-151.5 -176.5
q-49 10 -63.5 24.5t-14.5 48.5q74 81 102.5 138.5t22 145t70 136.5t133 186.5t125.5 331.5q-200 2 -270 -0.5t-76 10.5t-6 51q0 16 8.5 21t82.5 3.5t287 -8.5q136 394 111 526.5t124 195.5q103 253 168.5 408.5t75 270.5t82.5 144q48 -15 75.5 -73t-21.5 -146t-60.5 -252.5
t-48.5 -164t-3 209.5q-86 -237 -141 -401q173 -44 289.5 -106t254.5 -221t180 -456t-111 -625q43 -36 125 -53t245 52h60z" />
    <glyph glyph-name="Eth" unicode="&#x110;" horiz-adv-x="1912" 
d="M815 1037q-36 91 -68 195q-43 -105 -79 -193zM638 963q-62 -158 -95 -255q130 44 189 -40.5t143 -271t137.5 -240t97 -68t114 13.5t194.5 228q-209 104 -341.5 265t-226.5 369zM1257 1035q35 -10 45 -42q-26 -30 -126 -31.5t-205 -1.5q33 -98 156 -275t331 -285
q127 274 73.5 530t-156 391t-215.5 204.5t-280 107.5q-27 -116 -20 -258.5t78 -336.5q74 1 140 -1.5t179 -1.5zM1972 351q-249 -186 -477 -63q-85 -141 -179.5 -220t-179 -89t-164.5 21t-143 128t-128.5 237t-116 193.5t-101.5 -21.5t-77.5 -167.5t-88 -239t-151.5 -176.5
q-49 10 -63.5 24.5t-14.5 48.5q74 81 102.5 138.5t22 145t70 136.5t133 186.5t125.5 331.5q-200 2 -270 -0.5t-76 10.5t-6 51q0 16 8.5 21t82.5 3.5t287 -8.5q136 394 111 526.5t124 195.5q103 253 168.5 408.5t75 270.5t82.5 144q48 -15 75.5 -73t-21.5 -146t-60.5 -252.5
t-48.5 -164t-3 209.5q-86 -237 -141 -401q173 -44 289.5 -106t254.5 -221t180 -456t-111 -625q43 -36 125 -53t245 52h60z" />
    <glyph glyph-name="eth" unicode="&#xf0;" horiz-adv-x="741" 
d="M411 479q-95 70 -186 50t-105 -151.5t32 -201.5t98 -70q51 0 88 32.5t65.5 154.5t7.5 186zM-253 1172q-51 74 -51 175q0 141 65 206t152 65q129 0 284 -123q124 -99 214 -269q151 15 205.5 35.5t57.5 50.5q24 -4 25 -26q-6 -45 -48.5 -74t-101 -45t-100.5 -24l6 -14
q103 -243 109.5 -487.5t-40 -378t-115.5 -198.5t-158 -65q-108 0 -180 65t-90.5 141.5t0.5 173.5t84.5 157t198.5 80l157 -34q1 224 -59 400q-25 70 -55 136q-148 -41 -191.5 -82t-65.5 -110l-33 -18q0 35 10 75t44.5 88t89 80t108.5 46q-29 55 -62 106
q-95 146 -190.5 193.5t-164 24.5t-83.5 -111.5t21 -215.5z" />
    <glyph glyph-name="Yacute" unicode="&#xdd;" horiz-adv-x="1610" 
d="M682 -569q-132 -83 -257 -130q-51 -139 -63.5 -219.5t11 -132.5t81 -46.5t128 56t102 130.5t27.5 159t-29 183zM462 -255q-154 111 -310.5 134t-285.5 -32t-176 -156t11.5 -232t207 -165t407.5 54q79 219 146 397zM544 -333q-53 -150 -99 -283q95 35 217 112
q-57 127 -118 171zM813 650q-102 -99 -240 -170t-253.5 -54t-155 113t-39.5 199q0 102 51 269t149 359t194.5 294t128.5 89t41 -39t-13 -62t-109 -175.5t-159 -310.5t-93.5 -344t23.5 -232t139.5 -47.5t212.5 104.5t242 316q128 366 224 684.5t167 507.5t168 243
q71 -44 53.5 -137.5t-84 -307.5t-191.5 -485q-115 -251 -232.5 -539.5t-216 -535.5t-249.5 -640q91 -77 157 -216q132 78 259.5 184t258 240t216.5 220t148 174h60q-118 -151 -238 -280t-242 -248t-228.5 -206.5t-207.5 -145.5q28 -79 35 -202.5t-52.5 -237t-166.5 -173.5
t-197 -64q-104 11 -122 85t-7.5 172t44.5 208q-160 -53 -303 -53q-208 0 -323 117t-115 259q0 98 87.5 196.5t243.5 147t315.5 15t295.5 -126.5q34 66 106 252.5t117.5 320.5t100.5 263zM701 2328.68q38.499 33 98.998 79.1992q60.498 46.1982 101.197 97.3477
q40.6992 51.1484 66.5488 112.197t91.8477 61.0488q58.2988 0 58.2988 -58.2988q0 -85.7988 -100.098 -168.847t-291.493 -152.347z" />
    <glyph glyph-name="yacute" unicode="&#xfd;" horiz-adv-x="962" 
d="M414 -425q64 -251 195.5 -390.5t261.5 -207t283.5 -83t210 19t35 124.5t-141 204.5t-361 206t-483.5 126.5zM60 349h-60q44 43 62.5 75t28.5 90.5t25 93.5t60 33t78.5 -45t20 -87t-51 -81t-36 -106t48.5 -96.5t124 7.5q69 32 152 154q75 119 126 306t58 295t64 108
q79 0 96 -38t1.5 -110t-73.5 -218t-135 -286q-126 -246 -186.5 -467t-49.5 -333q287 -42 505 -130.5t331.5 -170t172.5 -175.5t59 -208q-6 -58 -58 -101.5t-143 -43.5q-81 0 -190 15t-282.5 99.5t-309.5 262t-171 394.5q-290 16 -527 -17t-423 -118.5t-268.5 -168
t-78 -151.5t47.5 -97.5t118 -18.5t131 39.5t92 65t71 15.5q-97 -111 -165.5 -140.5t-133.5 -42t-141 -3.5t-112.5 55t-36.5 101q0 50 22.5 100t125 137t293.5 171.5t437 118t545 20.5q-2 96 20.5 215t80.5 319q-91 -71 -157 -77t-103.5 23.5t-59.5 89t-19 142.5z
M194 903.318q31.501 27 81.002 64.8018q49.502 37.8008 82.8027 79.6514q33.3008 41.8516 54.4512 91.8027t75.1523 49.9512q47.7012 0 47.7012 -47.7012q0 -70.2012 -81.9023 -138.153t-238.507 -124.653z" />
    <glyph glyph-name="Thorn" unicode="&#xde;" horiz-adv-x="2110" 
d="M859 912q117 438 172 710q-184 13 -299 -33t-192.5 -154t-44 -232t137 -181t226.5 -110zM1291 365q36 53 43.5 123t-51.5 126t-145 94t-181 72q-82 -302 -165 -540q292 -97 539 -57.5t380 280.5t107.5 481.5t-132.5 391.5t-248.5 213.5t-282.5 68.5q-88 -339 -175 -750
q175 -60 280.5 -118t137 -127.5t13 -141.5t-98.5 -150zM1362 1880q12 78 36.5 176t-10 137.5t-75.5 -37.5t-139 -441q219 -19 394.5 -107t273 -237.5t129 -268t31.5 -283.5q0 -171 -101 -366t-259 -291t-367.5 -101t-517.5 83q-96 -296 -193 -491t-203 -262.5t-266 -77.5
q-165 0 -232.5 13t-161.5 64t-167 87t-115.5 46t-42.5 45q45 55 85 75t130 -7.5t160 -101t211 -99.5t270.5 24t201.5 183t204 548q-148 62 -211.5 94t-80 50t-18 47.5t24.5 51.5t57.5 19.5t45 -44.5t82 -69.5t133.5 -56.5q48 146 86 269t81 276q-251 90 -335.5 170
t-103.5 216.5t55.5 256t221.5 181.5t380 64q54 211 117.5 357t126.5 210t102 64h5q35 -20 53.5 -84t0 -168.5t-70.5 -220.5z" />
    <glyph glyph-name="thorn" unicode="&#xfe;" horiz-adv-x="1147" 
d="M67 -53q-194 -215 -329.5 -433t-170.5 -470.5t50 -252.5q54 0 121.5 59.5t123.5 292t102 428.5t103 376zM0 351q123 111 181.5 187t141.5 441t166.5 743t176.5 525q33 0 52 -16.5t-10 -137t-113 -613.5t-158.5 -618.5t-86 -169.5t-55.5 -268q55 79 104.5 144t116 112.5
t154 36.5t148 -99.5t60.5 -238.5q0 -138 -91.5 -257t-211.5 -129.5t-185.5 73t-52.5 221.5l28 17q-2 -85 36 -158t147.5 -54.5t155 128t23 233t-91 157t-141.5 -34.5t-128 -152.5t-100 -188t-100.5 -339.5t-126.5 -524t-117 -428t-128.5 -222t-143.5 -93q-73 4 -113.5 65
t-56.5 120t-16 102q0 76 22.5 200.5t90.5 270t164.5 284.5t238.5 292.5t164.5 233t64.5 280.5l-149 -125h-60z" />
    <glyph glyph-name="minus" unicode="&#xad;" horiz-adv-x="1372" 
d="M332 323q0 33 26.5 30.5t143 -1.5t282 17.5t258.5 26.5q41 -12 49 -47q-24 -19 -120.5 -33.5t-211.5 -28t-312 -17.5q-104 1 -115 53z" />
    </font>
</defs>
</svg>
